M48
;GenerationSoftware,Autodesk,EAGLE,9.4.2*%
;CreationDate,2020-03-03T18:26:20Z*%
FMAT,2
ICI,OFF
METRIC,TZ,000.000
T7C0.350
T6C0.600
T5C0.700
T4C0.800
T3C1.000
T2C1.016
T1C3.200
%
G90
M71
T1
X76400Y28000
X3500Y3500
X76500Y3500
X3700Y27900
T2
X21190Y26270
X23730Y26270
X26270Y26270
X28810Y26270
X33890Y23730
X16110Y23730
X18650Y23730
X21190Y23730
X23730Y23730
X28810Y23730
X31350Y26270
X16110Y26270
X33890Y26270
X69540Y1500
X31350Y23730
X9460Y1500
X12000Y1500
X14540Y1500
X26270Y23730
X67000Y1500
X64460Y1500
X18650Y26270
T3
X75650Y14600
X75649Y12100
X78950Y14600
X78950Y9600
X78951Y12100
X75650Y9600
T4
X7220Y22210
X9760Y22210
X69870Y22210
X72410Y22210
T5
X59960Y21820
X57420Y21820
X67580Y21820
X65040Y21820
X62500Y21820
T6
X73600Y11500
X73600Y16500
X65600Y16500
X65600Y11500
T7
X31100Y12100
X30100Y18700
X25000Y18700
X21200Y18000
X13163Y17237
X48500Y19600
X21400Y20000
X32600Y15000
X32500Y19600
X32500Y13700
X51500Y18800
X31300Y18864
X14963Y16350
X42100Y3400
X39500Y3400
X59900Y28200
X14900Y4400
X19700Y3400
X48700Y5800
X24500Y3400
X43330Y5170
X62300Y3700
X60000Y3661
X57700Y3700
X40200Y12000
X49900Y12100
X59200Y14500
X63600Y13900
X47300Y12800
X47400Y13889
X46500Y16800
X45500Y14700
X52800Y15400
X32600Y11500
X36200Y11600
X27400Y16600
X33800Y18000
X37300Y26400
X37400Y23800
X53300Y26200
X55700Y23900
X52800Y17700
X74500Y10600
X63800Y11700
X27900Y15400
X26300Y11800
X22100Y12000
X43900Y23900
X30900Y3400
X15600Y5300
X12900Y8200
X49200Y3300
X55700Y3700
X67600Y8300
X19900Y20900
X39800Y22400
X56500Y17900
X8400Y3600
X22500Y21500
X52408Y20808
X61300Y18900
X61250Y14611
X12300Y27900
X28100Y29300
X61300Y23900
X35400Y4200
X22100Y3400
X30958Y8500
X31000Y5400
X52600Y19600
X15800Y19800
X30000Y29400
X26500Y30137
X53200Y4263
X12100Y11700
X39070Y4330
X26300Y4400
X44300Y4000
X66700Y9400
X50100Y26100
X43300Y26100
X27500Y13400
M30