G04 EAGLE Gerber RS-274X export*
G75*
%MOMM*%
%FSLAX34Y34*%
%LPD*%
%IN*%
%IPPOS*%
%AMOC8*
5,1,8,0,0,1.08239X$1,22.5*%
G01*
%ADD10C,0.254000*%


D10*
X0Y35000D02*
X133Y31950D01*
X532Y28922D01*
X1193Y25941D01*
X2111Y23029D01*
X3279Y20208D01*
X4689Y17500D01*
X6330Y14925D01*
X8188Y12502D01*
X10251Y10251D01*
X12502Y8188D01*
X14925Y6330D01*
X17500Y4689D01*
X20208Y3279D01*
X23029Y2111D01*
X25941Y1193D01*
X28922Y532D01*
X31950Y133D01*
X35000Y0D01*
X765000Y0D01*
X768050Y133D01*
X771078Y532D01*
X774059Y1193D01*
X776971Y2111D01*
X779792Y3279D01*
X782500Y4689D01*
X785075Y6330D01*
X787498Y8188D01*
X789749Y10251D01*
X791812Y12502D01*
X793670Y14925D01*
X795311Y17500D01*
X796721Y20208D01*
X797889Y23029D01*
X798807Y25941D01*
X799468Y28922D01*
X799867Y31950D01*
X800000Y35000D01*
X800000Y275000D01*
X800167Y278278D01*
X800048Y281557D01*
X799643Y284814D01*
X798956Y288023D01*
X797992Y291160D01*
X796758Y294201D01*
X795263Y297122D01*
X793520Y299903D01*
X791541Y302521D01*
X789342Y304956D01*
X786938Y307191D01*
X784349Y309208D01*
X781594Y310991D01*
X778695Y312527D01*
X775672Y313805D01*
X772549Y314815D01*
X769350Y315548D01*
X766100Y316000D01*
X35421Y315000D01*
X32155Y314670D01*
X28930Y314056D01*
X25770Y313163D01*
X22701Y311999D01*
X19744Y310571D01*
X16924Y308891D01*
X14260Y306972D01*
X11774Y304828D01*
X9484Y302475D01*
X7408Y299932D01*
X5562Y297218D01*
X3959Y294352D01*
X2612Y291358D01*
X1531Y288258D01*
X724Y285076D01*
X197Y281836D01*
X-44Y278561D01*
X0Y275279D01*
X0Y35000D01*
X656000Y130000D02*
X736000Y130000D01*
X736000Y150000D01*
X656000Y150000D01*
X656000Y130000D01*
M02*
