G04 EAGLE Gerber RS-274X export*
G75*
%MOMM*%
%FSLAX34Y34*%
%LPD*%
%INSilkscreen Bottom*%
%IPPOS*%
%AMOC8*
5,1,8,0,0,1.08239X$1,22.5*%
G01*
%ADD10C,0.076200*%
%ADD11C,0.500000*%
%ADD12R,4.300000X0.700000*%
%ADD13C,0.152400*%
%ADD14R,0.599900X0.300000*%
%ADD15R,0.300000X0.599900*%
%ADD16C,0.127000*%
%ADD17R,0.584200X0.457200*%
%ADD18R,0.457200X0.584200*%
%ADD19R,0.508000X0.508000*%
%ADD20C,0.101600*%
%ADD21C,0.203200*%
%ADD22R,0.500000X0.650000*%
%ADD23C,0.177800*%
%ADD24R,1.752600X0.736600*%


D10*
X488619Y236787D02*
X488619Y228949D01*
X487051Y227381D01*
X483916Y227381D01*
X482348Y228949D01*
X482348Y236787D01*
X479264Y233652D02*
X476128Y236787D01*
X476128Y227381D01*
X472993Y227381D02*
X479264Y227381D01*
X792717Y184707D02*
X792717Y175301D01*
X786447Y175301D01*
X783362Y184707D02*
X777092Y184707D01*
X783362Y184707D02*
X783362Y175301D01*
X777092Y175301D01*
X780227Y180004D02*
X783362Y180004D01*
X774007Y184707D02*
X774007Y175301D01*
X769304Y175301D01*
X767736Y176869D01*
X767736Y183139D01*
X769304Y184707D01*
X774007Y184707D01*
X764652Y175301D02*
X758381Y184707D01*
X755297Y184707D02*
X755297Y175301D01*
X749026Y175301D01*
X745941Y175301D02*
X745941Y181572D01*
X742806Y184707D01*
X739671Y181572D01*
X739671Y175301D01*
X739671Y180004D02*
X745941Y180004D01*
X731883Y184707D02*
X730316Y183139D01*
X731883Y184707D02*
X735019Y184707D01*
X736586Y183139D01*
X736586Y181572D01*
X735019Y180004D01*
X731883Y180004D01*
X730316Y178436D01*
X730316Y176869D01*
X731883Y175301D01*
X735019Y175301D01*
X736586Y176869D01*
X727231Y184707D02*
X720960Y184707D01*
X727231Y184707D02*
X727231Y175301D01*
X720960Y175301D01*
X724096Y180004D02*
X727231Y180004D01*
X717876Y175301D02*
X717876Y184707D01*
X713173Y184707D01*
X711605Y183139D01*
X711605Y180004D01*
X713173Y178436D01*
X717876Y178436D01*
X714741Y178436D02*
X711605Y175301D01*
X784982Y73707D02*
X783414Y72139D01*
X784982Y73707D02*
X788117Y73707D01*
X789685Y72139D01*
X789685Y70572D01*
X788117Y69004D01*
X784982Y69004D01*
X783414Y67436D01*
X783414Y65869D01*
X784982Y64301D01*
X788117Y64301D01*
X789685Y65869D01*
X780329Y73707D02*
X774059Y73707D01*
X780329Y73707D02*
X780329Y64301D01*
X774059Y64301D01*
X777194Y69004D02*
X780329Y69004D01*
X770974Y64301D02*
X770974Y73707D01*
X766271Y73707D01*
X764704Y72139D01*
X764704Y69004D01*
X766271Y67436D01*
X770974Y67436D01*
X767839Y67436D02*
X764704Y64301D01*
X761619Y67436D02*
X761619Y73707D01*
X761619Y67436D02*
X758484Y64301D01*
X755348Y67436D01*
X755348Y73707D01*
X750696Y73707D02*
X747561Y73707D01*
X750696Y73707D02*
X752264Y72139D01*
X752264Y65869D01*
X750696Y64301D01*
X747561Y64301D01*
X745993Y65869D01*
X745993Y72139D01*
X747561Y73707D01*
X738206Y73707D02*
X736638Y72139D01*
X738206Y73707D02*
X741341Y73707D01*
X742909Y72139D01*
X742909Y70572D01*
X741341Y69004D01*
X738206Y69004D01*
X736638Y67436D01*
X736638Y65869D01*
X738206Y64301D01*
X741341Y64301D01*
X742909Y65869D01*
X695594Y45707D02*
X694026Y44139D01*
X695594Y45707D02*
X698729Y45707D01*
X700297Y44139D01*
X700297Y42572D01*
X698729Y41004D01*
X695594Y41004D01*
X694026Y39436D01*
X694026Y37869D01*
X695594Y36301D01*
X698729Y36301D01*
X700297Y37869D01*
X93594Y43707D02*
X92026Y42139D01*
X93594Y43707D02*
X96729Y43707D01*
X98297Y42139D01*
X98297Y40572D01*
X96729Y39004D01*
X93594Y39004D01*
X92026Y37436D01*
X92026Y35869D01*
X93594Y34301D01*
X96729Y34301D01*
X98297Y35869D01*
X118026Y36004D02*
X124297Y36004D01*
X121161Y39139D02*
X121161Y32869D01*
X669026Y39004D02*
X675297Y39004D01*
X672161Y42139D02*
X672161Y35869D01*
X649297Y40004D02*
X643026Y40004D01*
X149297Y38004D02*
X143026Y38004D01*
X718139Y262619D02*
X719707Y261051D01*
X719707Y257916D01*
X718139Y256348D01*
X711869Y256348D01*
X710301Y257916D01*
X710301Y261051D01*
X711869Y262619D01*
X715004Y262619D01*
X715004Y259484D01*
X710301Y265703D02*
X719707Y265703D01*
X719707Y270406D01*
X718139Y271974D01*
X715004Y271974D01*
X713436Y270406D01*
X713436Y265703D01*
X719707Y279762D02*
X718139Y281329D01*
X719707Y279762D02*
X719707Y276626D01*
X718139Y275059D01*
X716572Y275059D01*
X715004Y276626D01*
X715004Y279762D01*
X713436Y281329D01*
X711869Y281329D01*
X710301Y279762D01*
X710301Y276626D01*
X711869Y275059D01*
D11*
X352000Y276000D02*
X148000Y276000D01*
X352000Y276000D02*
X352000Y224000D01*
X148000Y224000D01*
X148000Y276000D01*
D12*
X249500Y281500D03*
D13*
X95360Y261650D02*
X95360Y256750D01*
X99840Y256750D02*
X99840Y261650D01*
D14*
X97649Y263240D03*
X97649Y255112D03*
D10*
X89877Y245518D02*
X80471Y245518D01*
X89877Y245518D02*
X89877Y250221D01*
X88309Y251789D01*
X85174Y251789D01*
X83606Y250221D01*
X83606Y245518D01*
X83606Y248654D02*
X80471Y251789D01*
X86742Y254873D02*
X89877Y258009D01*
X80471Y258009D01*
X80471Y261144D02*
X80471Y254873D01*
X86742Y264229D02*
X89877Y267364D01*
X80471Y267364D01*
X80471Y264229D02*
X80471Y270499D01*
D13*
X751650Y223940D02*
X756550Y223940D01*
X756550Y219460D02*
X751650Y219460D01*
D15*
X758140Y221652D03*
X750012Y221652D03*
D10*
X767722Y230431D02*
X767722Y239837D01*
X763019Y239837D01*
X761451Y238269D01*
X761451Y235134D01*
X763019Y233566D01*
X767722Y233566D01*
X764586Y233566D02*
X761451Y230431D01*
X758367Y236702D02*
X755231Y239837D01*
X755231Y230431D01*
X752096Y230431D02*
X758367Y230431D01*
X749011Y230431D02*
X742741Y230431D01*
X749011Y230431D02*
X742741Y236702D01*
X742741Y238269D01*
X744308Y239837D01*
X747444Y239837D01*
X749011Y238269D01*
D13*
X331450Y45760D02*
X326550Y45760D01*
X326550Y50240D02*
X331450Y50240D01*
D15*
X324960Y48049D03*
X333088Y48049D03*
D10*
X338004Y56871D02*
X338004Y66277D01*
X333301Y66277D01*
X331734Y64709D01*
X331734Y61574D01*
X333301Y60006D01*
X338004Y60006D01*
X334869Y60006D02*
X331734Y56871D01*
X328649Y58439D02*
X327081Y56871D01*
X323946Y56871D01*
X322378Y58439D01*
X322378Y64709D01*
X323946Y66277D01*
X327081Y66277D01*
X328649Y64709D01*
X328649Y63142D01*
X327081Y61574D01*
X322378Y61574D01*
D13*
X511550Y46760D02*
X516450Y46760D01*
X516450Y51240D02*
X511550Y51240D01*
D15*
X509960Y49049D03*
X518088Y49049D03*
D10*
X527682Y58871D02*
X527682Y68277D01*
X522979Y68277D01*
X521411Y66709D01*
X521411Y63574D01*
X522979Y62006D01*
X527682Y62006D01*
X524546Y62006D02*
X521411Y58871D01*
X518327Y65142D02*
X515191Y68277D01*
X515191Y58871D01*
X512056Y58871D02*
X518327Y58871D01*
X508971Y60439D02*
X508971Y66709D01*
X507404Y68277D01*
X504268Y68277D01*
X502701Y66709D01*
X502701Y60439D01*
X504268Y58871D01*
X507404Y58871D01*
X508971Y60439D01*
X502701Y66709D01*
D13*
X289450Y50240D02*
X284550Y50240D01*
X284550Y45760D02*
X289450Y45760D01*
D15*
X291040Y47952D03*
X282912Y47952D03*
D10*
X295944Y56731D02*
X295944Y66137D01*
X291241Y66137D01*
X289674Y64569D01*
X289674Y61434D01*
X291241Y59866D01*
X295944Y59866D01*
X292809Y59866D02*
X289674Y56731D01*
X286589Y56731D02*
X280318Y56731D01*
X286589Y56731D02*
X280318Y63002D01*
X280318Y64569D01*
X281886Y66137D01*
X285021Y66137D01*
X286589Y64569D01*
D13*
X469550Y51240D02*
X474450Y51240D01*
X474450Y46760D02*
X469550Y46760D01*
D15*
X476040Y48952D03*
X467912Y48952D03*
D10*
X480944Y58731D02*
X480944Y68137D01*
X476241Y68137D01*
X474674Y66569D01*
X474674Y63434D01*
X476241Y61866D01*
X480944Y61866D01*
X477809Y61866D02*
X474674Y58731D01*
X471589Y65002D02*
X468454Y68137D01*
X468454Y58731D01*
X471589Y58731D02*
X465318Y58731D01*
D16*
X671396Y56776D02*
X684604Y56776D01*
X684604Y85224D01*
X671396Y85224D01*
X671396Y56776D01*
D17*
X667967Y71000D03*
X688033Y61602D03*
X688033Y80398D03*
D10*
X656657Y65211D02*
X647251Y65211D01*
X656657Y62076D02*
X656657Y68347D01*
X653522Y71431D02*
X656657Y74566D01*
X647251Y74566D01*
X647251Y71431D02*
X647251Y77702D01*
D13*
X727550Y78760D02*
X732450Y78760D01*
X732450Y83240D02*
X727550Y83240D01*
D15*
X725960Y81049D03*
X734088Y81049D03*
D10*
X739004Y88871D02*
X739004Y98277D01*
X734301Y98277D01*
X732734Y96709D01*
X732734Y93574D01*
X734301Y92006D01*
X739004Y92006D01*
X735869Y92006D02*
X732734Y88871D01*
X729649Y96709D02*
X728081Y98277D01*
X724946Y98277D01*
X723378Y96709D01*
X723378Y95142D01*
X724946Y93574D01*
X726514Y93574D01*
X724946Y93574D02*
X723378Y92006D01*
X723378Y90439D01*
X724946Y88871D01*
X728081Y88871D01*
X729649Y90439D01*
D16*
X495000Y220000D02*
X465000Y220000D01*
X465000Y250000D01*
X495000Y250000D01*
X495000Y220000D01*
X484197Y240500D02*
X484199Y240585D01*
X484205Y240669D01*
X484215Y240753D01*
X484229Y240836D01*
X484246Y240919D01*
X484268Y241001D01*
X484293Y241081D01*
X484322Y241161D01*
X484355Y241238D01*
X484392Y241315D01*
X484432Y241389D01*
X484475Y241462D01*
X484522Y241532D01*
X484572Y241600D01*
X484625Y241666D01*
X484681Y241729D01*
X484740Y241790D01*
X484802Y241847D01*
X484866Y241902D01*
X484933Y241954D01*
X485003Y242002D01*
X485074Y242047D01*
X485148Y242089D01*
X485223Y242127D01*
X485300Y242162D01*
X485379Y242193D01*
X485459Y242220D01*
X485540Y242243D01*
X485622Y242263D01*
X485705Y242279D01*
X485789Y242291D01*
X485873Y242299D01*
X485958Y242303D01*
X486042Y242303D01*
X486127Y242299D01*
X486211Y242291D01*
X486295Y242279D01*
X486378Y242263D01*
X486460Y242243D01*
X486541Y242220D01*
X486621Y242193D01*
X486700Y242162D01*
X486777Y242127D01*
X486852Y242089D01*
X486926Y242047D01*
X486997Y242002D01*
X487067Y241954D01*
X487134Y241902D01*
X487198Y241847D01*
X487260Y241790D01*
X487319Y241729D01*
X487375Y241666D01*
X487428Y241600D01*
X487478Y241532D01*
X487525Y241462D01*
X487568Y241389D01*
X487608Y241315D01*
X487645Y241238D01*
X487678Y241161D01*
X487707Y241081D01*
X487732Y241001D01*
X487754Y240919D01*
X487771Y240836D01*
X487785Y240753D01*
X487795Y240669D01*
X487801Y240585D01*
X487803Y240500D01*
X487801Y240415D01*
X487795Y240331D01*
X487785Y240247D01*
X487771Y240164D01*
X487754Y240081D01*
X487732Y239999D01*
X487707Y239919D01*
X487678Y239839D01*
X487645Y239762D01*
X487608Y239685D01*
X487568Y239611D01*
X487525Y239538D01*
X487478Y239468D01*
X487428Y239400D01*
X487375Y239334D01*
X487319Y239271D01*
X487260Y239210D01*
X487198Y239153D01*
X487134Y239098D01*
X487067Y239046D01*
X486997Y238998D01*
X486926Y238953D01*
X486852Y238911D01*
X486777Y238873D01*
X486700Y238838D01*
X486621Y238807D01*
X486541Y238780D01*
X486460Y238757D01*
X486378Y238737D01*
X486295Y238721D01*
X486211Y238709D01*
X486127Y238701D01*
X486042Y238697D01*
X485958Y238697D01*
X485873Y238701D01*
X485789Y238709D01*
X485705Y238721D01*
X485622Y238737D01*
X485540Y238757D01*
X485459Y238780D01*
X485379Y238807D01*
X485300Y238838D01*
X485223Y238873D01*
X485148Y238911D01*
X485074Y238953D01*
X485003Y238998D01*
X484933Y239046D01*
X484866Y239098D01*
X484802Y239153D01*
X484740Y239210D01*
X484681Y239271D01*
X484625Y239334D01*
X484572Y239400D01*
X484522Y239468D01*
X484475Y239538D01*
X484432Y239611D01*
X484392Y239685D01*
X484355Y239762D01*
X484322Y239839D01*
X484293Y239919D01*
X484268Y239999D01*
X484246Y240081D01*
X484229Y240164D01*
X484215Y240247D01*
X484205Y240331D01*
X484199Y240415D01*
X484197Y240500D01*
D13*
X422760Y237450D02*
X422760Y232550D01*
X427240Y232550D02*
X427240Y237450D01*
D14*
X425049Y239040D03*
X425049Y230912D03*
D10*
X442569Y232597D02*
X444137Y231029D01*
X444137Y227893D01*
X442569Y226326D01*
X436299Y226326D01*
X434731Y227893D01*
X434731Y231029D01*
X436299Y232597D01*
X441002Y235681D02*
X444137Y238816D01*
X434731Y238816D01*
X434731Y235681D02*
X434731Y241952D01*
D13*
X473550Y177760D02*
X478450Y177760D01*
X478450Y182240D02*
X473550Y182240D01*
D15*
X471960Y180049D03*
X480088Y180049D03*
D10*
X479004Y196709D02*
X480571Y198277D01*
X483707Y198277D01*
X485274Y196709D01*
X485274Y190439D01*
X483707Y188871D01*
X480571Y188871D01*
X479004Y190439D01*
X471216Y188871D02*
X471216Y198277D01*
X475919Y193574D01*
X469648Y193574D01*
D13*
X537240Y232550D02*
X537240Y237450D01*
X532760Y237450D02*
X532760Y232550D01*
D14*
X534952Y230960D03*
X534952Y239088D03*
D10*
X526137Y231029D02*
X524569Y232597D01*
X526137Y231029D02*
X526137Y227893D01*
X524569Y226326D01*
X518299Y226326D01*
X516731Y227893D01*
X516731Y231029D01*
X518299Y232597D01*
X516731Y235681D02*
X516731Y241952D01*
X516731Y235681D02*
X523002Y241952D01*
X524569Y241952D01*
X526137Y240384D01*
X526137Y237249D01*
X524569Y235681D01*
D13*
X482450Y282240D02*
X477550Y282240D01*
X477550Y277760D02*
X482450Y277760D01*
D15*
X484040Y279952D03*
X475912Y279952D03*
D10*
X484971Y271137D02*
X483404Y269569D01*
X484971Y271137D02*
X488107Y271137D01*
X489674Y269569D01*
X489674Y263299D01*
X488107Y261731D01*
X484971Y261731D01*
X483404Y263299D01*
X480319Y269569D02*
X478751Y271137D01*
X475616Y271137D01*
X474048Y269569D01*
X474048Y268002D01*
X475616Y266434D01*
X477184Y266434D01*
X475616Y266434D02*
X474048Y264866D01*
X474048Y263299D01*
X475616Y261731D01*
X478751Y261731D01*
X480319Y263299D01*
D13*
X145224Y156604D02*
X145224Y143396D01*
X145224Y156604D02*
X116776Y156604D01*
X116776Y143396D01*
X145224Y143396D01*
D18*
X131000Y139967D03*
X140398Y160033D03*
X121602Y160033D03*
D10*
X139924Y125089D02*
X139924Y118819D01*
X139924Y125089D02*
X138357Y126657D01*
X135221Y126657D01*
X133654Y125089D01*
X133654Y118819D01*
X135221Y117251D01*
X138357Y117251D01*
X139924Y118819D01*
X136789Y120386D02*
X133654Y117251D01*
X130569Y123522D02*
X127434Y126657D01*
X127434Y117251D01*
X130569Y117251D02*
X124298Y117251D01*
D13*
X137760Y183550D02*
X137760Y188450D01*
X142240Y188450D02*
X142240Y183550D01*
D14*
X140049Y190040D03*
X140049Y181912D03*
D10*
X148871Y172318D02*
X158277Y172318D01*
X158277Y177021D01*
X156709Y178589D01*
X153574Y178589D01*
X152006Y177021D01*
X152006Y172318D01*
X152006Y175454D02*
X148871Y178589D01*
X155142Y181673D02*
X158277Y184809D01*
X148871Y184809D01*
X148871Y187944D02*
X148871Y181673D01*
X158277Y191029D02*
X158277Y197299D01*
X158277Y191029D02*
X153574Y191029D01*
X155142Y194164D01*
X155142Y195732D01*
X153574Y197299D01*
X150439Y197299D01*
X148871Y195732D01*
X148871Y192596D01*
X150439Y191029D01*
D13*
X118760Y188450D02*
X118760Y183550D01*
X123240Y183550D02*
X123240Y188450D01*
D14*
X121049Y190040D03*
X121049Y181912D03*
D10*
X113277Y176996D02*
X103871Y176996D01*
X113277Y176996D02*
X113277Y181699D01*
X111709Y183267D01*
X108574Y183267D01*
X107006Y181699D01*
X107006Y176996D01*
X107006Y180131D02*
X103871Y183267D01*
X111709Y186351D02*
X113277Y187919D01*
X113277Y191054D01*
X111709Y192622D01*
X110142Y192622D01*
X108574Y191054D01*
X107006Y192622D01*
X105439Y192622D01*
X103871Y191054D01*
X103871Y187919D01*
X105439Y186351D01*
X107006Y186351D01*
X108574Y187919D01*
X110142Y186351D01*
X111709Y186351D01*
X108574Y187919D02*
X108574Y191054D01*
D13*
X206224Y157604D02*
X206224Y144396D01*
X206224Y157604D02*
X177776Y157604D01*
X177776Y144396D01*
X206224Y144396D01*
D18*
X192000Y140967D03*
X201398Y161033D03*
X182602Y161033D03*
D10*
X200924Y126089D02*
X200924Y119819D01*
X200924Y126089D02*
X199357Y127657D01*
X196221Y127657D01*
X194654Y126089D01*
X194654Y119819D01*
X196221Y118251D01*
X199357Y118251D01*
X200924Y119819D01*
X197789Y121386D02*
X194654Y118251D01*
X191569Y118251D02*
X185298Y118251D01*
X191569Y118251D02*
X185298Y124522D01*
X185298Y126089D01*
X186866Y127657D01*
X190001Y127657D01*
X191569Y126089D01*
D13*
X198760Y183550D02*
X198760Y188450D01*
X203240Y188450D02*
X203240Y183550D01*
D14*
X201049Y190040D03*
X201049Y181912D03*
D10*
X209871Y172318D02*
X219277Y172318D01*
X219277Y177021D01*
X217709Y178589D01*
X214574Y178589D01*
X213006Y177021D01*
X213006Y172318D01*
X213006Y175454D02*
X209871Y178589D01*
X216142Y181673D02*
X219277Y184809D01*
X209871Y184809D01*
X209871Y187944D02*
X209871Y181673D01*
X217709Y191029D02*
X219277Y192596D01*
X219277Y195732D01*
X217709Y197299D01*
X216142Y197299D01*
X214574Y195732D01*
X214574Y194164D01*
X214574Y195732D02*
X213006Y197299D01*
X211439Y197299D01*
X209871Y195732D01*
X209871Y192596D01*
X211439Y191029D01*
D13*
X179760Y188450D02*
X179760Y183550D01*
X184240Y183550D02*
X184240Y188450D01*
D14*
X182049Y190040D03*
X182049Y181912D03*
D10*
X174277Y172318D02*
X164871Y172318D01*
X174277Y172318D02*
X174277Y177021D01*
X172709Y178589D01*
X169574Y178589D01*
X168006Y177021D01*
X168006Y172318D01*
X168006Y175454D02*
X164871Y178589D01*
X171142Y181673D02*
X174277Y184809D01*
X164871Y184809D01*
X164871Y187944D02*
X164871Y181673D01*
X164871Y195732D02*
X174277Y195732D01*
X169574Y191029D01*
X169574Y197299D01*
D16*
X755000Y166000D02*
X755000Y156560D01*
X755000Y85440D02*
X755000Y76000D01*
X791000Y76000D01*
X791000Y85440D01*
X791000Y156560D02*
X791000Y166000D01*
X755000Y166000D01*
X755000Y156560D02*
X755000Y85440D01*
X791000Y85440D02*
X791000Y156560D01*
X765380Y121254D02*
X765380Y105760D01*
D10*
X777707Y116729D02*
X776139Y118297D01*
X777707Y116729D02*
X777707Y113593D01*
X776139Y112026D01*
X774572Y112026D01*
X773004Y113593D01*
X773004Y116729D01*
X771436Y118297D01*
X769869Y118297D01*
X768301Y116729D01*
X768301Y113593D01*
X769869Y112026D01*
X774572Y121381D02*
X777707Y124516D01*
X768301Y124516D01*
X768301Y121381D02*
X768301Y127652D01*
D13*
X100950Y2300D02*
X88250Y2300D01*
X100950Y2300D02*
X107300Y8650D01*
X107300Y21350D01*
X100950Y27700D01*
X107300Y8650D02*
X113650Y2300D01*
X126350Y2300D01*
X132700Y8650D01*
X132700Y21350D01*
X126350Y27700D01*
X113650Y27700D01*
X107300Y21350D01*
X81900Y21350D02*
X81900Y8650D01*
X88250Y2300D01*
X81900Y21350D02*
X88250Y27700D01*
X100950Y27700D01*
X132700Y8650D02*
X139050Y2300D01*
X151750Y2300D01*
X158100Y8650D01*
X158100Y21350D01*
X151750Y27700D01*
X139050Y27700D01*
X132700Y21350D01*
D19*
X120000Y15000D03*
X94600Y15000D03*
X145400Y15000D03*
D13*
X689050Y27700D02*
X701750Y27700D01*
X689050Y27700D02*
X682700Y21350D01*
X682700Y8650D01*
X689050Y2300D01*
X682700Y21350D02*
X676350Y27700D01*
X663650Y27700D01*
X657300Y21350D01*
X657300Y8650D01*
X663650Y2300D01*
X676350Y2300D01*
X682700Y8650D01*
X708100Y8650D02*
X708100Y21350D01*
X701750Y27700D01*
X708100Y8650D02*
X701750Y2300D01*
X689050Y2300D01*
X657300Y21350D02*
X650950Y27700D01*
X638250Y27700D01*
X631900Y21350D01*
X631900Y8650D01*
X638250Y2300D01*
X650950Y2300D01*
X657300Y8650D01*
D19*
X670000Y15000D03*
X695400Y15000D03*
X644600Y15000D03*
D16*
X700200Y311500D02*
X549800Y311500D01*
X549800Y226500D01*
X700200Y226500D01*
X700200Y311500D01*
D20*
X642033Y265107D02*
X640084Y263158D01*
X638135Y263158D01*
X636186Y265107D01*
X636186Y274852D01*
X638135Y274852D02*
X634237Y274852D01*
X630339Y274852D02*
X630339Y263158D01*
X630339Y274852D02*
X624492Y274852D01*
X622543Y272903D01*
X622543Y269005D01*
X624492Y267056D01*
X630339Y267056D01*
X618645Y270954D02*
X614747Y274852D01*
X614747Y263158D01*
X618645Y263158D02*
X610849Y263158D01*
D13*
X167450Y224600D02*
X154750Y224600D01*
X167450Y224600D02*
X173800Y230950D01*
X180150Y224600D01*
X192850Y224600D01*
X199200Y230950D01*
X154750Y224600D02*
X148400Y230950D01*
X199200Y230950D02*
X205550Y224600D01*
X218250Y224600D01*
X224600Y230950D01*
X230950Y224600D02*
X243650Y224600D01*
X250000Y230950D01*
X256350Y224600D01*
X269050Y224600D01*
X275400Y230950D01*
X230950Y224600D02*
X224600Y230950D01*
X275400Y230950D02*
X281750Y224600D01*
X294450Y224600D01*
X300800Y230950D01*
X173800Y269050D02*
X167450Y275400D01*
X192850Y275400D02*
X199200Y269050D01*
X192850Y275400D02*
X180150Y275400D01*
X173800Y269050D01*
X148400Y269050D02*
X148400Y230950D01*
X148400Y269050D02*
X154750Y275400D01*
X167450Y275400D01*
X218250Y275400D02*
X224600Y269050D01*
X218250Y275400D02*
X205550Y275400D01*
X199200Y269050D01*
X243650Y275400D02*
X250000Y269050D01*
X269050Y275400D02*
X275400Y269050D01*
X269050Y275400D02*
X256350Y275400D01*
X250000Y269050D01*
X230950Y275400D02*
X224600Y269050D01*
X230950Y275400D02*
X243650Y275400D01*
X294450Y275400D02*
X300800Y269050D01*
X294450Y275400D02*
X281750Y275400D01*
X275400Y269050D01*
X307150Y224600D02*
X319850Y224600D01*
X326200Y230950D01*
X332550Y224600D01*
X345250Y224600D01*
X351600Y230950D01*
X307150Y224600D02*
X300800Y230950D01*
X351600Y230950D02*
X351600Y269050D01*
X326200Y269050D02*
X319850Y275400D01*
X345250Y275400D02*
X351600Y269050D01*
X345250Y275400D02*
X332550Y275400D01*
X326200Y269050D01*
X307150Y275400D02*
X300800Y269050D01*
X307150Y275400D02*
X319850Y275400D01*
D16*
X167079Y287472D02*
X163266Y291285D01*
X163266Y279845D01*
X167079Y279845D02*
X159452Y279845D01*
X345140Y220165D02*
X348953Y216352D01*
X345140Y220165D02*
X345140Y208725D01*
X348953Y208725D02*
X341326Y208725D01*
X333446Y218258D02*
X329633Y220165D01*
X333446Y218258D02*
X337259Y214445D01*
X337259Y210632D01*
X335352Y208725D01*
X331539Y208725D01*
X329633Y210632D01*
X329633Y212538D01*
X331539Y214445D01*
X337259Y214445D01*
D19*
X186500Y262700D03*
X161100Y262700D03*
X211900Y262700D03*
X262700Y262700D03*
X237300Y262700D03*
X288100Y262700D03*
X161100Y237300D03*
X186500Y237300D03*
X211900Y237300D03*
X237300Y237300D03*
X262700Y237300D03*
X288100Y237300D03*
X338900Y262700D03*
X313500Y262700D03*
X313500Y237300D03*
X338900Y237300D03*
D21*
X419224Y167104D02*
X419224Y150896D01*
X419224Y167104D02*
X390776Y167104D01*
X390776Y150896D01*
X419224Y150896D01*
X388500Y151000D02*
X388500Y167000D01*
X421500Y167000D02*
X421500Y151000D01*
D22*
X395500Y170750D03*
X405000Y170750D03*
X414500Y170750D03*
X414500Y147250D03*
X395500Y147250D03*
D21*
X401000Y148500D02*
X409000Y148500D01*
D23*
X413246Y155207D02*
X413246Y162198D01*
X413246Y155207D02*
X411848Y153809D01*
X409052Y153809D01*
X407653Y155207D01*
X407653Y162198D01*
X399696Y162198D02*
X399696Y153809D01*
X403891Y158004D02*
X399696Y162198D01*
X398298Y158004D02*
X403891Y158004D01*
D13*
X583224Y128604D02*
X583224Y115396D01*
X583224Y128604D02*
X554776Y128604D01*
X554776Y115396D01*
X583224Y115396D01*
D18*
X569000Y111967D03*
X578398Y132033D03*
X559602Y132033D03*
D10*
X577924Y99089D02*
X577924Y92819D01*
X577924Y99089D02*
X576357Y100657D01*
X573221Y100657D01*
X571654Y99089D01*
X571654Y92819D01*
X573221Y91251D01*
X576357Y91251D01*
X577924Y92819D01*
X574789Y94386D02*
X571654Y91251D01*
X568569Y99089D02*
X567001Y100657D01*
X563866Y100657D01*
X562298Y99089D01*
X562298Y97522D01*
X563866Y95954D01*
X565434Y95954D01*
X563866Y95954D02*
X562298Y94386D01*
X562298Y92819D01*
X563866Y91251D01*
X567001Y91251D01*
X568569Y92819D01*
D13*
X580240Y154050D02*
X580240Y158950D01*
X575760Y158950D02*
X575760Y154050D01*
D14*
X577952Y152460D03*
X577952Y160588D03*
D10*
X573871Y168818D02*
X583277Y168818D01*
X583277Y173521D01*
X581709Y175089D01*
X578574Y175089D01*
X577006Y173521D01*
X577006Y168818D01*
X577006Y171954D02*
X573871Y175089D01*
X580142Y178173D02*
X583277Y181309D01*
X573871Y181309D01*
X573871Y184444D02*
X573871Y178173D01*
X581709Y190664D02*
X583277Y193799D01*
X581709Y190664D02*
X578574Y187529D01*
X575439Y187529D01*
X573871Y189096D01*
X573871Y192232D01*
X575439Y193799D01*
X577006Y193799D01*
X578574Y192232D01*
X578574Y187529D01*
D13*
X561240Y158950D02*
X561240Y154050D01*
X556760Y154050D02*
X556760Y158950D01*
D14*
X558952Y152460D03*
X558952Y160588D03*
D10*
X554871Y168818D02*
X564277Y168818D01*
X564277Y173521D01*
X562709Y175089D01*
X559574Y175089D01*
X558006Y173521D01*
X558006Y168818D01*
X558006Y171954D02*
X554871Y175089D01*
X561142Y178173D02*
X564277Y181309D01*
X554871Y181309D01*
X554871Y184444D02*
X554871Y178173D01*
X564277Y187529D02*
X564277Y193799D01*
X562709Y193799D01*
X556439Y187529D01*
X554871Y187529D01*
D13*
X627224Y128604D02*
X627224Y115396D01*
X627224Y128604D02*
X598776Y128604D01*
X598776Y115396D01*
X627224Y115396D01*
D18*
X613000Y111967D03*
X622398Y132033D03*
X603602Y132033D03*
D10*
X621924Y99089D02*
X621924Y92819D01*
X621924Y99089D02*
X620357Y100657D01*
X617221Y100657D01*
X615654Y99089D01*
X615654Y92819D01*
X617221Y91251D01*
X620357Y91251D01*
X621924Y92819D01*
X618789Y94386D02*
X615654Y91251D01*
X607866Y91251D02*
X607866Y100657D01*
X612569Y95954D01*
X606298Y95954D01*
D13*
X625240Y154050D02*
X625240Y158950D01*
X620760Y158950D02*
X620760Y154050D01*
D14*
X622952Y152460D03*
X622952Y160588D03*
D10*
X618871Y168818D02*
X628277Y168818D01*
X628277Y173521D01*
X626709Y175089D01*
X623574Y175089D01*
X622006Y173521D01*
X622006Y168818D01*
X622006Y171954D02*
X618871Y175089D01*
X625142Y178173D02*
X628277Y181309D01*
X618871Y181309D01*
X618871Y184444D02*
X618871Y178173D01*
X626709Y187529D02*
X628277Y189096D01*
X628277Y192232D01*
X626709Y193799D01*
X625142Y193799D01*
X623574Y192232D01*
X622006Y193799D01*
X620439Y193799D01*
X618871Y192232D01*
X618871Y189096D01*
X620439Y187529D01*
X622006Y187529D01*
X623574Y189096D01*
X625142Y187529D01*
X626709Y187529D01*
X623574Y189096D02*
X623574Y192232D01*
D13*
X606240Y158950D02*
X606240Y154050D01*
X601760Y154050D02*
X601760Y158950D01*
D14*
X603952Y152460D03*
X603952Y160588D03*
D10*
X599731Y168878D02*
X609137Y168878D01*
X609137Y173581D01*
X607569Y175149D01*
X604434Y175149D01*
X602866Y173581D01*
X602866Y168878D01*
X602866Y172014D02*
X599731Y175149D01*
X606002Y178233D02*
X609137Y181369D01*
X599731Y181369D01*
X599731Y184504D02*
X599731Y178233D01*
X601299Y187589D02*
X599731Y189156D01*
X599731Y192292D01*
X601299Y193859D01*
X607569Y193859D01*
X609137Y192292D01*
X609137Y189156D01*
X607569Y187589D01*
X606002Y187589D01*
X604434Y189156D01*
X604434Y193859D01*
D13*
X407950Y192240D02*
X403050Y192240D01*
X403050Y187760D02*
X407950Y187760D01*
D15*
X409540Y189952D03*
X401412Y189952D03*
D10*
X407904Y206569D02*
X409471Y208137D01*
X412607Y208137D01*
X414174Y206569D01*
X414174Y200299D01*
X412607Y198731D01*
X409471Y198731D01*
X407904Y200299D01*
X404819Y208137D02*
X398548Y208137D01*
X404819Y208137D02*
X404819Y203434D01*
X401684Y205002D01*
X400116Y205002D01*
X398548Y203434D01*
X398548Y200299D01*
X400116Y198731D01*
X403251Y198731D01*
X404819Y200299D01*
D13*
X406950Y128760D02*
X402050Y128760D01*
X402050Y133240D02*
X406950Y133240D01*
D15*
X400460Y131049D03*
X408588Y131049D03*
D10*
X409071Y122277D02*
X407504Y120709D01*
X409071Y122277D02*
X412207Y122277D01*
X413774Y120709D01*
X413774Y114439D01*
X412207Y112871D01*
X409071Y112871D01*
X407504Y114439D01*
X401284Y120709D02*
X398148Y122277D01*
X401284Y120709D02*
X404419Y117574D01*
X404419Y114439D01*
X402851Y112871D01*
X399716Y112871D01*
X398148Y114439D01*
X398148Y116006D01*
X399716Y117574D01*
X404419Y117574D01*
D13*
X476050Y108760D02*
X480950Y108760D01*
X480950Y113240D02*
X476050Y113240D01*
D15*
X474460Y111049D03*
X482588Y111049D03*
D10*
X487504Y103277D02*
X487504Y93871D01*
X487504Y103277D02*
X482801Y103277D01*
X481234Y101709D01*
X481234Y98574D01*
X482801Y97006D01*
X487504Y97006D01*
X484369Y97006D02*
X481234Y93871D01*
X478149Y103277D02*
X471878Y103277D01*
X478149Y103277D02*
X478149Y98574D01*
X475014Y100142D01*
X473446Y100142D01*
X471878Y98574D01*
X471878Y95439D01*
X473446Y93871D01*
X476581Y93871D01*
X478149Y95439D01*
D13*
X504050Y113240D02*
X508950Y113240D01*
X508950Y108760D02*
X504050Y108760D01*
D15*
X510540Y110952D03*
X502412Y110952D03*
D10*
X515444Y103137D02*
X515444Y93731D01*
X515444Y103137D02*
X510741Y103137D01*
X509174Y101569D01*
X509174Y98434D01*
X510741Y96866D01*
X515444Y96866D01*
X512309Y96866D02*
X509174Y93731D01*
X501386Y93731D02*
X501386Y103137D01*
X506089Y98434D01*
X499818Y98434D01*
D13*
X543240Y154050D02*
X543240Y158950D01*
X538760Y158950D02*
X538760Y154050D01*
D14*
X540952Y152460D03*
X540952Y160588D03*
D10*
X533137Y152529D02*
X531569Y154097D01*
X533137Y152529D02*
X533137Y149393D01*
X531569Y147826D01*
X525299Y147826D01*
X523731Y149393D01*
X523731Y152529D01*
X525299Y154097D01*
X533137Y157181D02*
X533137Y163452D01*
X531569Y163452D01*
X525299Y157181D01*
X523731Y157181D01*
D13*
X258950Y168240D02*
X254050Y168240D01*
X254050Y163760D02*
X258950Y163760D01*
D15*
X260540Y165952D03*
X252412Y165952D03*
D10*
X265444Y172731D02*
X265444Y182137D01*
X260741Y182137D01*
X259174Y180569D01*
X259174Y177434D01*
X260741Y175866D01*
X265444Y175866D01*
X262309Y175866D02*
X259174Y172731D01*
X256089Y182137D02*
X249818Y182137D01*
X249818Y180569D01*
X256089Y174299D01*
X256089Y172731D01*
D13*
X342050Y163760D02*
X346950Y163760D01*
X346950Y168240D02*
X342050Y168240D01*
D15*
X340460Y166049D03*
X348588Y166049D03*
D10*
X353504Y172871D02*
X353504Y182277D01*
X348801Y182277D01*
X347234Y180709D01*
X347234Y177574D01*
X348801Y176006D01*
X353504Y176006D01*
X350369Y176006D02*
X347234Y172871D01*
X341014Y180709D02*
X337878Y182277D01*
X341014Y180709D02*
X344149Y177574D01*
X344149Y174439D01*
X342581Y172871D01*
X339446Y172871D01*
X337878Y174439D01*
X337878Y176006D01*
X339446Y177574D01*
X344149Y177574D01*
D13*
X313700Y219160D02*
X288300Y219160D01*
X313700Y198840D02*
X313833Y198842D01*
X313966Y198848D01*
X314098Y198857D01*
X314231Y198871D01*
X314363Y198888D01*
X314494Y198909D01*
X314625Y198934D01*
X314754Y198963D01*
X314883Y198996D01*
X315011Y199032D01*
X315138Y199072D01*
X315264Y199116D01*
X315388Y199163D01*
X315511Y199214D01*
X315632Y199268D01*
X315752Y199326D01*
X315870Y199388D01*
X315986Y199453D01*
X316100Y199521D01*
X316212Y199592D01*
X316322Y199667D01*
X316430Y199745D01*
X316536Y199826D01*
X316639Y199910D01*
X316739Y199997D01*
X316837Y200086D01*
X316933Y200179D01*
X317026Y200275D01*
X317115Y200373D01*
X317202Y200473D01*
X317286Y200576D01*
X317367Y200682D01*
X317445Y200790D01*
X317520Y200900D01*
X317591Y201012D01*
X317659Y201126D01*
X317724Y201242D01*
X317786Y201360D01*
X317844Y201480D01*
X317898Y201601D01*
X317949Y201724D01*
X317996Y201848D01*
X318040Y201974D01*
X318080Y202101D01*
X318116Y202229D01*
X318149Y202358D01*
X318178Y202487D01*
X318203Y202618D01*
X318224Y202749D01*
X318241Y202881D01*
X318255Y203014D01*
X318264Y203146D01*
X318270Y203279D01*
X318272Y203412D01*
X288300Y198840D02*
X288167Y198842D01*
X288034Y198848D01*
X287902Y198857D01*
X287769Y198871D01*
X287637Y198888D01*
X287506Y198909D01*
X287375Y198934D01*
X287246Y198963D01*
X287117Y198996D01*
X286989Y199032D01*
X286862Y199072D01*
X286736Y199116D01*
X286612Y199163D01*
X286489Y199214D01*
X286368Y199268D01*
X286248Y199326D01*
X286130Y199388D01*
X286014Y199453D01*
X285900Y199521D01*
X285788Y199592D01*
X285678Y199667D01*
X285570Y199745D01*
X285464Y199826D01*
X285361Y199910D01*
X285261Y199997D01*
X285163Y200086D01*
X285067Y200179D01*
X284974Y200275D01*
X284885Y200373D01*
X284798Y200473D01*
X284714Y200576D01*
X284633Y200682D01*
X284555Y200790D01*
X284480Y200900D01*
X284409Y201012D01*
X284341Y201126D01*
X284276Y201242D01*
X284214Y201360D01*
X284156Y201480D01*
X284102Y201601D01*
X284051Y201724D01*
X284004Y201848D01*
X283960Y201974D01*
X283920Y202101D01*
X283884Y202229D01*
X283851Y202358D01*
X283822Y202487D01*
X283797Y202618D01*
X283776Y202749D01*
X283759Y202881D01*
X283745Y203014D01*
X283736Y203146D01*
X283730Y203279D01*
X283728Y203412D01*
X283728Y214588D02*
X283730Y214721D01*
X283736Y214854D01*
X283745Y214986D01*
X283759Y215119D01*
X283776Y215251D01*
X283797Y215382D01*
X283822Y215513D01*
X283851Y215642D01*
X283884Y215771D01*
X283920Y215899D01*
X283960Y216026D01*
X284004Y216152D01*
X284051Y216276D01*
X284102Y216399D01*
X284156Y216520D01*
X284214Y216640D01*
X284276Y216758D01*
X284341Y216874D01*
X284409Y216988D01*
X284480Y217100D01*
X284555Y217210D01*
X284633Y217318D01*
X284714Y217424D01*
X284798Y217527D01*
X284885Y217627D01*
X284974Y217725D01*
X285067Y217821D01*
X285163Y217914D01*
X285261Y218003D01*
X285361Y218090D01*
X285464Y218174D01*
X285570Y218255D01*
X285678Y218333D01*
X285788Y218408D01*
X285900Y218479D01*
X286014Y218547D01*
X286130Y218612D01*
X286248Y218674D01*
X286368Y218732D01*
X286489Y218786D01*
X286612Y218837D01*
X286736Y218884D01*
X286862Y218928D01*
X286989Y218968D01*
X287117Y219004D01*
X287246Y219037D01*
X287375Y219066D01*
X287506Y219091D01*
X287637Y219112D01*
X287769Y219129D01*
X287902Y219143D01*
X288034Y219152D01*
X288167Y219158D01*
X288300Y219160D01*
X313700Y219160D02*
X313833Y219158D01*
X313966Y219152D01*
X314098Y219143D01*
X314231Y219129D01*
X314363Y219112D01*
X314494Y219091D01*
X314625Y219066D01*
X314754Y219037D01*
X314883Y219004D01*
X315011Y218968D01*
X315138Y218928D01*
X315264Y218884D01*
X315388Y218837D01*
X315511Y218786D01*
X315632Y218732D01*
X315752Y218674D01*
X315870Y218612D01*
X315986Y218547D01*
X316100Y218479D01*
X316212Y218408D01*
X316322Y218333D01*
X316430Y218255D01*
X316536Y218174D01*
X316639Y218090D01*
X316739Y218003D01*
X316837Y217914D01*
X316933Y217821D01*
X317026Y217725D01*
X317115Y217627D01*
X317202Y217527D01*
X317286Y217424D01*
X317367Y217318D01*
X317445Y217210D01*
X317520Y217100D01*
X317591Y216988D01*
X317659Y216874D01*
X317724Y216758D01*
X317786Y216640D01*
X317844Y216520D01*
X317898Y216399D01*
X317949Y216276D01*
X317996Y216152D01*
X318040Y216026D01*
X318080Y215899D01*
X318116Y215771D01*
X318149Y215642D01*
X318178Y215513D01*
X318203Y215382D01*
X318224Y215251D01*
X318241Y215119D01*
X318255Y214986D01*
X318264Y214854D01*
X318270Y214721D01*
X318272Y214588D01*
X318272Y203412D01*
X283728Y203412D02*
X283728Y214588D01*
X288300Y198840D02*
X313700Y198840D01*
D21*
X312458Y187506D02*
X309746Y187506D01*
X311102Y187506D02*
X311102Y195641D01*
X312458Y195641D02*
X309746Y195641D01*
X306221Y187506D02*
X300798Y187506D01*
X306221Y187506D02*
X300798Y192929D01*
X300798Y194285D01*
X302153Y195641D01*
X304865Y195641D01*
X306221Y194285D01*
X292798Y195641D02*
X291442Y194285D01*
X292798Y195641D02*
X295510Y195641D01*
X296866Y194285D01*
X296866Y188862D01*
X295510Y187506D01*
X292798Y187506D01*
X291442Y188862D01*
X292745Y116160D02*
X309255Y116160D01*
X311795Y98380D02*
X311793Y98280D01*
X311787Y98181D01*
X311777Y98081D01*
X311764Y97983D01*
X311746Y97884D01*
X311725Y97787D01*
X311700Y97691D01*
X311671Y97595D01*
X311638Y97501D01*
X311602Y97408D01*
X311562Y97317D01*
X311518Y97227D01*
X311471Y97139D01*
X311421Y97053D01*
X311367Y96969D01*
X311310Y96887D01*
X311250Y96808D01*
X311186Y96730D01*
X311120Y96656D01*
X311051Y96584D01*
X310979Y96515D01*
X310905Y96449D01*
X310827Y96385D01*
X310748Y96325D01*
X310666Y96268D01*
X310582Y96214D01*
X310496Y96164D01*
X310408Y96117D01*
X310318Y96073D01*
X310227Y96033D01*
X310134Y95997D01*
X310040Y95964D01*
X309944Y95935D01*
X309848Y95910D01*
X309751Y95889D01*
X309652Y95871D01*
X309554Y95858D01*
X309454Y95848D01*
X309355Y95842D01*
X309255Y95840D01*
X292745Y95840D02*
X292645Y95842D01*
X292546Y95848D01*
X292446Y95858D01*
X292348Y95871D01*
X292249Y95889D01*
X292152Y95910D01*
X292056Y95935D01*
X291960Y95964D01*
X291866Y95997D01*
X291773Y96033D01*
X291682Y96073D01*
X291592Y96117D01*
X291504Y96164D01*
X291418Y96214D01*
X291334Y96268D01*
X291252Y96325D01*
X291173Y96385D01*
X291095Y96449D01*
X291021Y96515D01*
X290949Y96584D01*
X290880Y96656D01*
X290814Y96730D01*
X290750Y96808D01*
X290690Y96887D01*
X290633Y96969D01*
X290579Y97053D01*
X290529Y97139D01*
X290482Y97227D01*
X290438Y97317D01*
X290398Y97408D01*
X290362Y97501D01*
X290329Y97595D01*
X290300Y97691D01*
X290275Y97787D01*
X290254Y97884D01*
X290236Y97983D01*
X290223Y98081D01*
X290213Y98181D01*
X290207Y98280D01*
X290205Y98380D01*
X290205Y113620D02*
X290207Y113720D01*
X290213Y113819D01*
X290223Y113919D01*
X290236Y114017D01*
X290254Y114116D01*
X290275Y114213D01*
X290300Y114309D01*
X290329Y114405D01*
X290362Y114499D01*
X290398Y114592D01*
X290438Y114683D01*
X290482Y114773D01*
X290529Y114861D01*
X290579Y114947D01*
X290633Y115031D01*
X290690Y115113D01*
X290750Y115192D01*
X290814Y115270D01*
X290880Y115344D01*
X290949Y115416D01*
X291021Y115485D01*
X291095Y115551D01*
X291173Y115615D01*
X291252Y115675D01*
X291334Y115732D01*
X291418Y115786D01*
X291504Y115836D01*
X291592Y115883D01*
X291682Y115927D01*
X291773Y115967D01*
X291866Y116003D01*
X291960Y116036D01*
X292056Y116065D01*
X292152Y116090D01*
X292249Y116111D01*
X292348Y116129D01*
X292446Y116142D01*
X292546Y116152D01*
X292645Y116158D01*
X292745Y116160D01*
X309255Y116160D02*
X309355Y116158D01*
X309454Y116152D01*
X309554Y116142D01*
X309652Y116129D01*
X309751Y116111D01*
X309848Y116090D01*
X309944Y116065D01*
X310040Y116036D01*
X310134Y116003D01*
X310227Y115967D01*
X310318Y115927D01*
X310408Y115883D01*
X310496Y115836D01*
X310582Y115786D01*
X310666Y115732D01*
X310748Y115675D01*
X310827Y115615D01*
X310905Y115551D01*
X310979Y115485D01*
X311051Y115416D01*
X311120Y115344D01*
X311186Y115270D01*
X311250Y115192D01*
X311310Y115113D01*
X311367Y115031D01*
X311421Y114947D01*
X311471Y114861D01*
X311518Y114773D01*
X311562Y114683D01*
X311602Y114592D01*
X311638Y114499D01*
X311671Y114405D01*
X311700Y114309D01*
X311725Y114213D01*
X311746Y114116D01*
X311764Y114017D01*
X311777Y113919D01*
X311787Y113819D01*
X311793Y113720D01*
X311795Y113620D01*
X309255Y95840D02*
X292745Y95840D01*
D10*
X314559Y82601D02*
X316127Y84169D01*
X314559Y82601D02*
X312991Y82601D01*
X311424Y84169D01*
X311424Y92007D01*
X312991Y92007D02*
X309856Y92007D01*
X306772Y92007D02*
X306772Y82601D01*
X306772Y92007D02*
X302069Y92007D01*
X300501Y90439D01*
X300501Y87304D01*
X302069Y85736D01*
X306772Y85736D01*
X297416Y84169D02*
X295849Y82601D01*
X292713Y82601D01*
X291146Y84169D01*
X291146Y90439D01*
X292713Y92007D01*
X295849Y92007D01*
X297416Y90439D01*
X297416Y88872D01*
X295849Y87304D01*
X291146Y87304D01*
X309432Y119811D02*
X312568Y119811D01*
X311000Y119811D02*
X311000Y129217D01*
X312568Y129217D02*
X309432Y129217D01*
X306331Y129217D02*
X306331Y119811D01*
X300060Y119811D02*
X306331Y129217D01*
X300060Y129217D02*
X300060Y119811D01*
X293840Y119811D02*
X293840Y129217D01*
X290705Y129217D02*
X296976Y129217D01*
D13*
X342050Y144760D02*
X346950Y144760D01*
X346950Y149240D02*
X342050Y149240D01*
D15*
X340460Y147049D03*
X348588Y147049D03*
D10*
X360731Y132878D02*
X370137Y132878D01*
X370137Y137581D01*
X368569Y139149D01*
X365434Y139149D01*
X363866Y137581D01*
X363866Y132878D01*
X363866Y136014D02*
X360731Y139149D01*
X360731Y142233D02*
X360731Y148504D01*
X360731Y142233D02*
X367002Y148504D01*
X368569Y148504D01*
X370137Y146936D01*
X370137Y143801D01*
X368569Y142233D01*
X368569Y151589D02*
X362299Y151589D01*
X368569Y151589D02*
X370137Y153156D01*
X370137Y156292D01*
X368569Y157859D01*
X362299Y157859D01*
X360731Y156292D01*
X360731Y153156D01*
X362299Y151589D01*
X368569Y157859D01*
D13*
X346950Y125760D02*
X342050Y125760D01*
X342050Y130240D02*
X346950Y130240D01*
D15*
X340460Y128049D03*
X348588Y128049D03*
D10*
X358182Y118277D02*
X358182Y108871D01*
X358182Y118277D02*
X353479Y118277D01*
X351911Y116709D01*
X351911Y113574D01*
X353479Y112006D01*
X358182Y112006D01*
X355046Y112006D02*
X351911Y108871D01*
X348827Y108871D02*
X342556Y108871D01*
X348827Y108871D02*
X342556Y115142D01*
X342556Y116709D01*
X344124Y118277D01*
X347259Y118277D01*
X348827Y116709D01*
X339471Y115142D02*
X336336Y118277D01*
X336336Y108871D01*
X339471Y108871D02*
X333201Y108871D01*
D13*
X257950Y151240D02*
X253050Y151240D01*
X253050Y146760D02*
X257950Y146760D01*
D15*
X259540Y148952D03*
X251412Y148952D03*
D10*
X238471Y153137D02*
X236904Y151569D01*
X238471Y153137D02*
X241607Y153137D01*
X243174Y151569D01*
X243174Y145299D01*
X241607Y143731D01*
X238471Y143731D01*
X236904Y145299D01*
X233819Y151569D02*
X232251Y153137D01*
X229116Y153137D01*
X227548Y151569D01*
X227548Y150002D01*
X229116Y148434D01*
X227548Y146866D01*
X227548Y145299D01*
X229116Y143731D01*
X232251Y143731D01*
X233819Y145299D01*
X233819Y146866D01*
X232251Y148434D01*
X233819Y150002D01*
X233819Y151569D01*
X232251Y148434D02*
X229116Y148434D01*
D13*
X253050Y135240D02*
X257950Y135240D01*
X257950Y130760D02*
X253050Y130760D01*
D15*
X259540Y132952D03*
X251412Y132952D03*
D10*
X238471Y138137D02*
X236904Y136569D01*
X238471Y138137D02*
X241607Y138137D01*
X243174Y136569D01*
X243174Y130299D01*
X241607Y128731D01*
X238471Y128731D01*
X236904Y130299D01*
X233819Y130299D02*
X232251Y128731D01*
X229116Y128731D01*
X227548Y130299D01*
X227548Y136569D01*
X229116Y138137D01*
X232251Y138137D01*
X233819Y136569D01*
X233819Y135002D01*
X232251Y133434D01*
X227548Y133434D01*
D13*
X181128Y43652D02*
X181128Y24475D01*
X164872Y24475D02*
X164872Y43652D01*
D24*
X173000Y47208D03*
X173000Y20792D03*
D10*
X168801Y58348D02*
X178207Y58348D01*
X178207Y63051D01*
X176639Y64619D01*
X173504Y64619D01*
X171936Y63051D01*
X171936Y58348D01*
X171936Y61484D02*
X168801Y64619D01*
X168801Y67703D02*
X168801Y73974D01*
X168801Y67703D02*
X175072Y73974D01*
X176639Y73974D01*
X178207Y72406D01*
X178207Y69271D01*
X176639Y67703D01*
X168801Y77059D02*
X168801Y83329D01*
X168801Y77059D02*
X175072Y83329D01*
X176639Y83329D01*
X178207Y81762D01*
X178207Y78626D01*
X176639Y77059D01*
D13*
X205128Y43652D02*
X205128Y24475D01*
X188872Y24475D02*
X188872Y43652D01*
D24*
X197000Y47208D03*
X197000Y20792D03*
D10*
X201207Y58348D02*
X191801Y58348D01*
X201207Y58348D02*
X201207Y63051D01*
X199639Y64619D01*
X196504Y64619D01*
X194936Y63051D01*
X194936Y58348D01*
X194936Y61484D02*
X191801Y64619D01*
X191801Y67703D02*
X191801Y73974D01*
X191801Y67703D02*
X198072Y73974D01*
X199639Y73974D01*
X201207Y72406D01*
X201207Y69271D01*
X199639Y67703D01*
X199639Y77059D02*
X201207Y78626D01*
X201207Y81762D01*
X199639Y83329D01*
X198072Y83329D01*
X196504Y81762D01*
X196504Y80194D01*
X196504Y81762D02*
X194936Y83329D01*
X193369Y83329D01*
X191801Y81762D01*
X191801Y78626D01*
X193369Y77059D01*
D13*
X229128Y43652D02*
X229128Y24475D01*
X212872Y24475D02*
X212872Y43652D01*
D24*
X221000Y47208D03*
X221000Y20792D03*
D10*
X225207Y58348D02*
X215801Y58348D01*
X225207Y58348D02*
X225207Y63051D01*
X223639Y64619D01*
X220504Y64619D01*
X218936Y63051D01*
X218936Y58348D01*
X218936Y61484D02*
X215801Y64619D01*
X215801Y67703D02*
X215801Y73974D01*
X215801Y67703D02*
X222072Y73974D01*
X223639Y73974D01*
X225207Y72406D01*
X225207Y69271D01*
X223639Y67703D01*
X225207Y81762D02*
X215801Y81762D01*
X220504Y77059D02*
X225207Y81762D01*
X220504Y83329D02*
X220504Y77059D01*
D13*
X253128Y43652D02*
X253128Y24475D01*
X236872Y24475D02*
X236872Y43652D01*
D24*
X245000Y47208D03*
X245000Y20792D03*
D10*
X240801Y58348D02*
X250207Y58348D01*
X250207Y63051D01*
X248639Y64619D01*
X245504Y64619D01*
X243936Y63051D01*
X243936Y58348D01*
X243936Y61484D02*
X240801Y64619D01*
X240801Y67703D02*
X240801Y73974D01*
X240801Y67703D02*
X247072Y73974D01*
X248639Y73974D01*
X250207Y72406D01*
X250207Y69271D01*
X248639Y67703D01*
X250207Y77059D02*
X250207Y83329D01*
X250207Y77059D02*
X245504Y77059D01*
X247072Y80194D01*
X247072Y81762D01*
X245504Y83329D01*
X242369Y83329D01*
X240801Y81762D01*
X240801Y78626D01*
X242369Y77059D01*
D13*
X562128Y46652D02*
X562128Y27475D01*
X545872Y27475D02*
X545872Y46652D01*
D24*
X554000Y50208D03*
X554000Y23792D03*
D10*
X558207Y61348D02*
X548801Y61348D01*
X558207Y61348D02*
X558207Y66051D01*
X556639Y67619D01*
X553504Y67619D01*
X551936Y66051D01*
X551936Y61348D01*
X551936Y64484D02*
X548801Y67619D01*
X548801Y70703D02*
X548801Y76974D01*
X548801Y70703D02*
X555072Y76974D01*
X556639Y76974D01*
X558207Y75406D01*
X558207Y72271D01*
X556639Y70703D01*
X556639Y83194D02*
X558207Y86329D01*
X556639Y83194D02*
X553504Y80059D01*
X550369Y80059D01*
X548801Y81626D01*
X548801Y84762D01*
X550369Y86329D01*
X551936Y86329D01*
X553504Y84762D01*
X553504Y80059D01*
D13*
X585128Y46652D02*
X585128Y27475D01*
X568872Y27475D02*
X568872Y46652D01*
D24*
X577000Y50208D03*
X577000Y23792D03*
D10*
X581207Y61348D02*
X571801Y61348D01*
X581207Y61348D02*
X581207Y66051D01*
X579639Y67619D01*
X576504Y67619D01*
X574936Y66051D01*
X574936Y61348D01*
X574936Y64484D02*
X571801Y67619D01*
X571801Y70703D02*
X571801Y76974D01*
X571801Y70703D02*
X578072Y76974D01*
X579639Y76974D01*
X581207Y75406D01*
X581207Y72271D01*
X579639Y70703D01*
X581207Y80059D02*
X581207Y86329D01*
X579639Y86329D01*
X573369Y80059D01*
X571801Y80059D01*
D13*
X608128Y46652D02*
X608128Y27475D01*
X591872Y27475D02*
X591872Y46652D01*
D24*
X600000Y50208D03*
X600000Y23792D03*
D10*
X595801Y61348D02*
X605207Y61348D01*
X605207Y66051D01*
X603639Y67619D01*
X600504Y67619D01*
X598936Y66051D01*
X598936Y61348D01*
X598936Y64484D02*
X595801Y67619D01*
X595801Y70703D02*
X595801Y76974D01*
X595801Y70703D02*
X602072Y76974D01*
X603639Y76974D01*
X605207Y75406D01*
X605207Y72271D01*
X603639Y70703D01*
X603639Y80059D02*
X605207Y81626D01*
X605207Y84762D01*
X603639Y86329D01*
X602072Y86329D01*
X600504Y84762D01*
X598936Y86329D01*
X597369Y86329D01*
X595801Y84762D01*
X595801Y81626D01*
X597369Y80059D01*
X598936Y80059D01*
X600504Y81626D01*
X602072Y80059D01*
X603639Y80059D01*
X600504Y81626D02*
X600504Y84762D01*
D13*
X631128Y46652D02*
X631128Y27475D01*
X614872Y27475D02*
X614872Y46652D01*
D24*
X623000Y50208D03*
X623000Y23792D03*
D10*
X627207Y61348D02*
X617801Y61348D01*
X627207Y61348D02*
X627207Y66051D01*
X625639Y67619D01*
X622504Y67619D01*
X620936Y66051D01*
X620936Y61348D01*
X620936Y64484D02*
X617801Y67619D01*
X617801Y70703D02*
X617801Y76974D01*
X617801Y70703D02*
X624072Y76974D01*
X625639Y76974D01*
X627207Y75406D01*
X627207Y72271D01*
X625639Y70703D01*
X619369Y80059D02*
X617801Y81626D01*
X617801Y84762D01*
X619369Y86329D01*
X625639Y86329D01*
X627207Y84762D01*
X627207Y81626D01*
X625639Y80059D01*
X624072Y80059D01*
X622504Y81626D01*
X622504Y86329D01*
M02*
