G04 EAGLE Gerber RS-274X export*
G75*
%MOMM*%
%FSLAX34Y34*%
%LPD*%
%INSolderpaste Bottom*%
%IPPOS*%
%AMOC8*
5,1,8,0,0,1.08239X$1,22.5*%
G01*
%ADD10R,0.900000X0.700000*%
%ADD11R,0.700000X0.900000*%
%ADD12C,1.500000*%
%ADD13R,1.400000X1.000000*%
%ADD14R,8.000000X1.500000*%
%ADD15R,0.700000X0.300000*%
%ADD16R,0.300000X0.700000*%
%ADD17R,1.000000X1.400000*%
%ADD18R,1.524000X3.048000*%
%ADD19R,0.550000X1.200000*%
%ADD20R,1.803000X1.600000*%


D10*
X97600Y265700D03*
X97600Y252700D03*
D11*
X760600Y221700D03*
X747600Y221700D03*
D12*
X342500Y27500D02*
X342500Y12500D01*
X327500Y12500D01*
X327500Y27500D01*
X342500Y27500D01*
X342500Y26750D02*
X327500Y26750D01*
X287500Y27500D02*
X287500Y12500D01*
X272500Y12500D01*
X272500Y27500D01*
X287500Y27500D01*
X287500Y26750D02*
X272500Y26750D01*
X527500Y27500D02*
X527500Y12500D01*
X512500Y12500D01*
X512500Y27500D01*
X527500Y27500D01*
X527500Y26750D02*
X512500Y26750D01*
X472500Y27500D02*
X472500Y12500D01*
X457500Y12500D01*
X457500Y27500D01*
X472500Y27500D01*
X472500Y26750D02*
X457500Y26750D01*
D11*
X322500Y48000D03*
X335500Y48000D03*
X507500Y49000D03*
X520500Y49000D03*
X293500Y48000D03*
X280500Y48000D03*
X478500Y49000D03*
X465500Y49000D03*
D13*
X667000Y71000D03*
X689000Y61500D03*
X689000Y80500D03*
D11*
X723500Y81000D03*
X736500Y81000D03*
D14*
X696000Y155000D03*
X696000Y125000D03*
D15*
X494000Y245000D03*
X494000Y240000D03*
X494000Y235000D03*
X494000Y230000D03*
X494000Y225000D03*
X466000Y245000D03*
X466000Y240000D03*
X466000Y235000D03*
X466000Y230000D03*
X466000Y225000D03*
D16*
X480000Y221000D03*
X485000Y221000D03*
X475000Y221000D03*
X480000Y249000D03*
X485000Y249000D03*
X475000Y249000D03*
D10*
X425000Y241500D03*
X425000Y228500D03*
D11*
X469500Y180000D03*
X482500Y180000D03*
D10*
X535000Y228500D03*
X535000Y241500D03*
D11*
X486500Y280000D03*
X473500Y280000D03*
D17*
X131000Y139000D03*
X140500Y161000D03*
X121500Y161000D03*
D10*
X140000Y192500D03*
X140000Y179500D03*
X121000Y192500D03*
X121000Y179500D03*
D17*
X192000Y140000D03*
X201500Y162000D03*
X182500Y162000D03*
D10*
X201000Y192500D03*
X201000Y179500D03*
X182000Y192500D03*
X182000Y179500D03*
D18*
X675800Y211850D03*
X650400Y211850D03*
X625000Y211850D03*
X599600Y211850D03*
X574200Y211850D03*
D19*
X395500Y172001D03*
X405000Y172001D03*
X414500Y172001D03*
X414500Y145999D03*
X395500Y145999D03*
D17*
X569000Y111000D03*
X578500Y133000D03*
X559500Y133000D03*
D10*
X578000Y150000D03*
X578000Y163000D03*
X559000Y150000D03*
X559000Y163000D03*
D17*
X613000Y111000D03*
X622500Y133000D03*
X603500Y133000D03*
D10*
X623000Y150000D03*
X623000Y163000D03*
X604000Y150000D03*
X604000Y163000D03*
D11*
X412000Y190000D03*
X399000Y190000D03*
X398000Y131000D03*
X411000Y131000D03*
X472000Y111000D03*
X485000Y111000D03*
X513000Y111000D03*
X500000Y111000D03*
D10*
X541000Y150000D03*
X541000Y163000D03*
D11*
X263000Y166000D03*
X250000Y166000D03*
X338000Y166000D03*
X351000Y166000D03*
X338000Y147000D03*
X351000Y147000D03*
X338000Y128000D03*
X351000Y128000D03*
X262000Y149000D03*
X249000Y149000D03*
X262000Y133000D03*
X249000Y133000D03*
D20*
X173000Y19780D03*
X173000Y48220D03*
X197000Y19780D03*
X197000Y48220D03*
X221000Y19780D03*
X221000Y48220D03*
X245000Y19780D03*
X245000Y48220D03*
X554000Y22780D03*
X554000Y51220D03*
X577000Y22780D03*
X577000Y51220D03*
X600000Y22780D03*
X600000Y51220D03*
X623000Y22780D03*
X623000Y51220D03*
M02*
