G04 EAGLE Gerber RS-274X export*
G75*
%MOMM*%
%FSLAX34Y34*%
%LPD*%
%INSolderpaste Top*%
%IPPOS*%
%AMOC8*
5,1,8,0,0,1.08239X$1,22.5*%
G01*
%ADD10C,1.500000*%
%ADD11R,8.000000X1.500000*%
%ADD12R,1.000000X0.500000*%
%ADD13R,2.800000X4.800000*%
%ADD14R,2.800000X2.000000*%
%ADD15R,4.800000X2.800000*%
%ADD16R,2.000000X2.800000*%
%ADD17R,0.600000X0.500000*%
%ADD18R,0.500000X0.600000*%


D10*
X287500Y27500D02*
X287500Y12500D01*
X272500Y12500D01*
X272500Y27500D01*
X287500Y27500D01*
X287500Y26750D02*
X272500Y26750D01*
X342500Y27500D02*
X342500Y12500D01*
X327500Y12500D01*
X327500Y27500D01*
X342500Y27500D01*
X342500Y26750D02*
X327500Y26750D01*
X472500Y27500D02*
X472500Y12500D01*
X457500Y12500D01*
X457500Y27500D01*
X472500Y27500D01*
X472500Y26750D02*
X457500Y26750D01*
X527500Y27500D02*
X527500Y12500D01*
X512500Y12500D01*
X512500Y27500D01*
X527500Y27500D01*
X527500Y26750D02*
X512500Y26750D01*
D11*
X696000Y125000D03*
X696000Y155000D03*
D12*
X512000Y131250D03*
X512000Y138750D03*
X512000Y146250D03*
X512000Y153750D03*
X512000Y161250D03*
X512000Y168750D03*
X488000Y168750D03*
X488000Y161250D03*
X488000Y153750D03*
X488000Y146250D03*
X488000Y138750D03*
X488000Y131250D03*
D13*
G36*
X103027Y81796D02*
X89027Y57548D01*
X47459Y81548D01*
X61459Y105796D01*
X103027Y81796D01*
G37*
D14*
G36*
X127276Y67796D02*
X113276Y43548D01*
X95956Y53548D01*
X109956Y77796D01*
X127276Y67796D01*
G37*
D15*
X162750Y73900D03*
D16*
X204750Y73900D03*
D15*
X251750Y73900D03*
D16*
X293750Y73900D03*
D15*
X340750Y73900D03*
D16*
X382750Y73900D03*
D15*
X428750Y73900D03*
D16*
X470750Y73900D03*
D15*
X517750Y73900D03*
D16*
X559750Y73900D03*
D15*
X606750Y73900D03*
D16*
X648750Y73900D03*
D13*
G36*
X712127Y90546D02*
X726127Y66298D01*
X684559Y42298D01*
X670559Y66546D01*
X712127Y90546D01*
G37*
D14*
G36*
X736376Y104546D02*
X750376Y80298D01*
X733056Y70298D01*
X719056Y94546D01*
X736376Y104546D01*
G37*
D17*
X291500Y166000D03*
X291500Y158000D03*
X291500Y150000D03*
X291500Y142000D03*
X291500Y134000D03*
D18*
X300000Y133500D03*
D17*
X308500Y134000D03*
X308500Y142000D03*
X308500Y150000D03*
X308500Y158000D03*
X308500Y166000D03*
D18*
X300000Y166500D03*
M02*
