G75*
%MOIN*%
%OFA0B0*%
%FSLAX24Y24*%
%IPPOS*%
%LPD*%
%AMOC8*
5,1,8,0,0,1.08239X$1,22.5*
%
%ADD10C,0.0030*%
%ADD11C,0.0060*%
%ADD12C,0.0040*%
%ADD13R,0.0690X0.0290*%
%ADD14C,0.0050*%
%ADD15R,0.0669X0.0295*%
%ADD16R,0.0295X0.0669*%
%ADD17R,0.0180X0.0230*%
%ADD18R,0.0290X0.0690*%
D10*
X019044Y009374D02*
X019291Y009374D01*
X019167Y009374D02*
X019167Y009744D01*
X019291Y009621D01*
X019412Y009744D02*
X019412Y009436D01*
X019474Y009374D01*
X019597Y009374D01*
X019659Y009436D01*
X019659Y009744D01*
D11*
X015309Y007692D02*
X015309Y006937D01*
X014669Y006937D02*
X014669Y007692D01*
X013007Y007582D02*
X012252Y007582D01*
X012252Y008222D02*
X013007Y008222D01*
X010448Y008222D02*
X009693Y008222D01*
X009693Y007582D02*
X010448Y007582D01*
X010628Y006588D02*
X009508Y006588D01*
X009508Y006068D01*
X010628Y006068D01*
X010628Y006588D01*
X012067Y006588D02*
X012067Y006068D01*
X013187Y006068D01*
X013187Y006588D01*
X012067Y006588D01*
X003758Y006995D02*
X003758Y007750D01*
X003118Y007750D02*
X003118Y006995D01*
X004354Y010874D02*
X004354Y011629D01*
X004994Y011629D02*
X004994Y010874D01*
X027098Y010550D02*
X027098Y011305D01*
X027738Y011305D02*
X027738Y010550D01*
D12*
X010046Y004993D02*
X009739Y004993D01*
X009892Y004993D02*
X009892Y005454D01*
X010046Y005300D01*
X010199Y005377D02*
X010199Y005070D01*
X010276Y004993D01*
X010429Y004993D01*
X010506Y005070D01*
X010506Y005377D01*
X010429Y005454D01*
X010276Y005454D01*
X010199Y005377D01*
X010353Y005147D02*
X010199Y004993D01*
X012298Y004993D02*
X012605Y004993D01*
X012298Y005300D01*
X012298Y005377D01*
X012375Y005454D01*
X012528Y005454D01*
X012605Y005377D01*
X012758Y005377D02*
X012758Y005070D01*
X012835Y004993D01*
X012988Y004993D01*
X013065Y005070D01*
X013065Y005377D01*
X012988Y005454D01*
X012835Y005454D01*
X012758Y005377D01*
X012912Y005147D02*
X012758Y004993D01*
X014059Y006501D02*
X014519Y006501D01*
X014519Y006731D01*
X014443Y006808D01*
X014289Y006808D01*
X014212Y006731D01*
X014212Y006501D01*
X014212Y006654D02*
X014059Y006808D01*
X014059Y006961D02*
X014059Y007268D01*
X014059Y007114D02*
X014519Y007114D01*
X014366Y006961D01*
X014289Y007421D02*
X014289Y007728D01*
X014059Y007652D02*
X014519Y007652D01*
X014289Y007421D01*
X013157Y008372D02*
X013157Y008833D01*
X012927Y008833D01*
X012850Y008756D01*
X012850Y008603D01*
X012927Y008526D01*
X013157Y008526D01*
X013003Y008526D02*
X012850Y008372D01*
X012696Y008372D02*
X012389Y008372D01*
X012543Y008372D02*
X012543Y008833D01*
X012696Y008679D01*
X012236Y008756D02*
X012159Y008833D01*
X012006Y008833D01*
X011929Y008756D01*
X011929Y008679D01*
X012006Y008603D01*
X011929Y008526D01*
X011929Y008449D01*
X012006Y008372D01*
X012159Y008372D01*
X012236Y008449D01*
X012083Y008603D02*
X012006Y008603D01*
X010598Y008526D02*
X010368Y008526D01*
X010291Y008603D01*
X010291Y008756D01*
X010368Y008833D01*
X010598Y008833D01*
X010598Y008372D01*
X010444Y008526D02*
X010291Y008372D01*
X010137Y008372D02*
X009830Y008372D01*
X009984Y008372D02*
X009984Y008833D01*
X010137Y008679D01*
X009677Y008603D02*
X009523Y008679D01*
X009447Y008679D01*
X009370Y008603D01*
X009370Y008449D01*
X009447Y008372D01*
X009600Y008372D01*
X009677Y008449D01*
X009677Y008603D02*
X009677Y008833D01*
X009370Y008833D01*
X004368Y007919D02*
X004215Y007766D01*
X004368Y007919D02*
X003908Y007919D01*
X003908Y007766D02*
X003908Y008073D01*
X003908Y007612D02*
X003908Y007305D01*
X003908Y007152D02*
X004061Y006998D01*
X004061Y007075D02*
X004061Y006845D01*
X003908Y006845D02*
X004368Y006845D01*
X004368Y007075D01*
X004291Y007152D01*
X004138Y007152D01*
X004061Y007075D01*
X004215Y007305D02*
X004368Y007459D01*
X003908Y007459D01*
X003897Y010898D02*
X003897Y011128D01*
X003974Y011205D01*
X004128Y011205D01*
X004204Y011128D01*
X004204Y010898D01*
X003744Y010898D01*
X003897Y011051D02*
X003744Y011205D01*
X003821Y011358D02*
X003897Y011358D01*
X003974Y011435D01*
X003974Y011589D01*
X003897Y011665D01*
X003821Y011665D01*
X003744Y011589D01*
X003744Y011435D01*
X003821Y011358D01*
X003974Y011435D02*
X004051Y011358D01*
X004128Y011358D01*
X004204Y011435D01*
X004204Y011589D01*
X004128Y011665D01*
X004051Y011665D01*
X003974Y011589D01*
X016224Y010041D02*
X016224Y009734D01*
X016224Y009887D02*
X016685Y009887D01*
X016531Y009734D01*
X016608Y009580D02*
X016685Y009503D01*
X016685Y009350D01*
X016608Y009273D01*
X016301Y009273D01*
X016224Y009350D01*
X016224Y009503D01*
X016301Y009580D01*
X016844Y009294D02*
X016844Y010054D01*
X017464Y010054D02*
X017464Y009294D01*
X021175Y009294D02*
X021175Y010054D01*
X021795Y010054D02*
X021795Y009294D01*
X021955Y009271D02*
X021955Y009424D01*
X022032Y009501D01*
X021955Y009654D02*
X022262Y009961D01*
X022339Y009961D01*
X022415Y009885D01*
X022415Y009731D01*
X022339Y009654D01*
X022339Y009501D02*
X022415Y009424D01*
X022415Y009271D01*
X022339Y009194D01*
X022032Y009194D01*
X021955Y009271D01*
X021955Y009654D02*
X021955Y009961D01*
X019700Y011136D02*
X018940Y011136D01*
X018940Y011756D02*
X019700Y011756D01*
X019723Y011916D02*
X019569Y011916D01*
X019493Y011992D01*
X019339Y011992D02*
X019263Y011916D01*
X019109Y011916D01*
X019032Y011992D01*
X019032Y012069D01*
X019109Y012146D01*
X019186Y012146D01*
X019109Y012146D02*
X019032Y012223D01*
X019032Y012299D01*
X019109Y012376D01*
X019263Y012376D01*
X019339Y012299D01*
X019493Y012299D02*
X019569Y012376D01*
X019723Y012376D01*
X019800Y012299D01*
X019800Y011992D01*
X019723Y011916D01*
X027888Y011628D02*
X027888Y011321D01*
X028195Y011628D01*
X028272Y011628D01*
X028349Y011551D01*
X028349Y011397D01*
X028272Y011321D01*
X027888Y011167D02*
X027888Y010860D01*
X027888Y010707D02*
X028042Y010553D01*
X028042Y010630D02*
X028042Y010400D01*
X027888Y010400D02*
X028349Y010400D01*
X028349Y010630D01*
X028272Y010707D01*
X028118Y010707D01*
X028042Y010630D01*
X028195Y010860D02*
X028349Y011014D01*
X027888Y011014D01*
X019542Y007819D02*
X018782Y007819D01*
X018782Y007199D02*
X019542Y007199D01*
X019486Y007039D02*
X019333Y007039D01*
X019256Y006962D01*
X019103Y006809D02*
X018796Y006809D01*
X018872Y007039D02*
X019103Y006809D01*
X019256Y006655D02*
X019333Y006579D01*
X019486Y006579D01*
X019563Y006655D01*
X019563Y006962D01*
X019486Y007039D01*
X018872Y007039D02*
X018872Y006579D01*
D13*
X014989Y006792D03*
X014989Y007832D03*
X004674Y010729D03*
X004674Y011769D03*
X003438Y007895D03*
X003438Y006855D03*
X027418Y010410D03*
X027418Y011450D03*
D14*
X019910Y010265D02*
X019910Y009083D01*
X018729Y009083D01*
X018729Y010265D01*
X019910Y010265D01*
X019485Y009891D02*
X019487Y009907D01*
X019493Y009923D01*
X019502Y009937D01*
X019514Y009948D01*
X019528Y009956D01*
X019544Y009961D01*
X019560Y009962D01*
X019576Y009959D01*
X019591Y009952D01*
X019605Y009943D01*
X019615Y009930D01*
X019623Y009915D01*
X019627Y009899D01*
X019627Y009883D01*
X019623Y009867D01*
X019615Y009852D01*
X019605Y009839D01*
X019592Y009830D01*
X019576Y009823D01*
X019560Y009820D01*
X019544Y009821D01*
X019528Y009826D01*
X019514Y009834D01*
X019502Y009845D01*
X019493Y009859D01*
X019487Y009875D01*
X019485Y009891D01*
D15*
X021485Y010196D03*
X021485Y009152D03*
X017154Y009152D03*
X017155Y010196D03*
D16*
X018797Y011446D03*
X019842Y011445D03*
X019685Y007508D03*
X018640Y007509D03*
D17*
X012997Y006723D03*
X012257Y006723D03*
X010438Y006723D03*
X009698Y006723D03*
X010068Y005933D03*
X012627Y005933D03*
D18*
X013147Y007902D03*
X012107Y007902D03*
X010588Y007902D03*
X009548Y007902D03*
M02*
