G75*
%MOIN*%
%OFA0B0*%
%FSLAX24Y24*%
%IPPOS*%
%LPD*%
%AMOC8*
5,1,8,0,0,1.08239X$1,22.5*
%
%ADD10C,0.0000*%
D10*
X001800Y000422D02*
X030540Y000422D01*
X030612Y000424D01*
X030684Y000430D01*
X030756Y000439D01*
X030827Y000452D01*
X030897Y000469D01*
X030966Y000489D01*
X031034Y000514D01*
X031100Y000541D01*
X031166Y000572D01*
X031229Y000607D01*
X031291Y000644D01*
X031350Y000685D01*
X031407Y000729D01*
X031462Y000776D01*
X031514Y000826D01*
X031564Y000878D01*
X031611Y000933D01*
X031655Y000990D01*
X031696Y001049D01*
X031733Y001111D01*
X031768Y001174D01*
X031799Y001240D01*
X031826Y001306D01*
X031851Y001374D01*
X031871Y001443D01*
X031888Y001513D01*
X031901Y001584D01*
X031910Y001656D01*
X031916Y001728D01*
X031918Y001800D01*
X031918Y011249D01*
X031916Y011321D01*
X031911Y011393D01*
X031901Y011464D01*
X031888Y011535D01*
X031872Y011605D01*
X031851Y011674D01*
X031827Y011742D01*
X031800Y011809D01*
X031769Y011874D01*
X031735Y011937D01*
X031697Y011999D01*
X031656Y012058D01*
X031613Y012115D01*
X031566Y012170D01*
X031516Y012223D01*
X031464Y012272D01*
X031409Y012319D01*
X031352Y012363D01*
X031293Y012404D01*
X031232Y012442D01*
X031168Y012476D01*
X031103Y012507D01*
X031037Y012535D01*
X030969Y012559D01*
X030900Y012580D01*
X030830Y012597D01*
X030759Y012610D01*
X030688Y012619D01*
X030616Y012625D01*
X030544Y012627D01*
X001777Y012627D01*
X001706Y012625D01*
X001635Y012619D01*
X001564Y012609D01*
X001494Y012596D01*
X001425Y012579D01*
X001357Y012559D01*
X001290Y012534D01*
X001224Y012507D01*
X001160Y012476D01*
X001097Y012442D01*
X001037Y012404D01*
X000978Y012364D01*
X000922Y012320D01*
X000868Y012273D01*
X000816Y012224D01*
X000768Y012172D01*
X000722Y012118D01*
X000678Y012061D01*
X000638Y012002D01*
X000601Y011941D01*
X000568Y011879D01*
X000537Y011814D01*
X000510Y011748D01*
X000487Y011681D01*
X000467Y011613D01*
X000451Y011543D01*
X000438Y011473D01*
X000429Y011402D01*
X000424Y011331D01*
X000422Y011260D01*
X000422Y001800D01*
X000424Y001728D01*
X000430Y001656D01*
X000439Y001584D01*
X000452Y001513D01*
X000469Y001443D01*
X000489Y001374D01*
X000514Y001306D01*
X000541Y001240D01*
X000572Y001174D01*
X000607Y001111D01*
X000644Y001049D01*
X000685Y000990D01*
X000729Y000933D01*
X000776Y000878D01*
X000826Y000826D01*
X000878Y000776D01*
X000933Y000729D01*
X000990Y000685D01*
X001049Y000644D01*
X001111Y000607D01*
X001174Y000572D01*
X001240Y000541D01*
X001306Y000514D01*
X001374Y000489D01*
X001443Y000469D01*
X001513Y000452D01*
X001584Y000439D01*
X001656Y000430D01*
X001728Y000424D01*
X001800Y000422D01*
X026800Y005540D02*
X029950Y005540D01*
X029950Y006328D01*
X026800Y006328D01*
X026800Y005540D01*
M02*
