G75*
%MOIN*%
%OFA0B0*%
%FSLAX24Y24*%
%IPPOS*%
%LPD*%
%AMOC8*
5,1,8,0,0,1.08239X$1,22.5*
%
%ADD10R,0.0492X0.1181*%
%ADD11C,0.0594*%
%ADD12OC8,0.0520*%
%ADD13C,0.0591*%
%ADD14R,0.0630X0.0710*%
%ADD15R,0.0710X0.0630*%
%ADD16R,0.0394X0.0551*%
%ADD17R,0.3150X0.0591*%
%ADD18C,0.0436*%
%ADD19C,0.1969*%
%ADD20OC8,0.0600*%
%ADD21C,0.0160*%
%ADD22C,0.0317*%
%ADD23C,0.0197*%
%ADD24OC8,0.0531*%
%ADD25C,0.0120*%
D10*
X014690Y001286D03*
X015690Y001286D03*
X016690Y001286D03*
X017690Y001286D03*
D11*
X027918Y009166D03*
X028942Y009166D03*
X004276Y009166D03*
X003253Y009166D03*
D12*
X007402Y003572D03*
X008402Y003572D03*
X011733Y003572D03*
X012733Y003572D03*
X019607Y003572D03*
X020607Y003572D03*
X023938Y003572D03*
X024938Y003572D03*
D13*
X021189Y001504D02*
X021189Y000914D01*
X020599Y000914D01*
X020599Y001504D01*
X021189Y001504D01*
X020599Y001504D01*
X019024Y001504D02*
X019024Y000914D01*
X018434Y000914D01*
X018434Y001504D01*
X019024Y001504D01*
X018434Y001504D01*
X013906Y001504D02*
X013906Y000914D01*
X013316Y000914D01*
X013316Y001504D01*
X013906Y001504D01*
X013316Y001504D01*
X011741Y001504D02*
X011741Y000914D01*
X011151Y000914D01*
X011151Y001504D01*
X011741Y001504D01*
X011151Y001504D01*
D14*
X010037Y001603D03*
X008917Y001603D03*
X007478Y001603D03*
X006358Y001603D03*
X022500Y001603D03*
X023620Y001603D03*
X025256Y001603D03*
X026376Y001603D03*
D15*
X005540Y003602D03*
X004162Y003602D03*
X002784Y003917D03*
X001446Y003957D03*
X001446Y005076D03*
X002784Y005037D03*
X004162Y004722D03*
X005540Y004722D03*
X002194Y006831D03*
X002194Y007950D03*
D16*
X005402Y006997D03*
X006150Y006997D03*
X005776Y007863D03*
D17*
X028375Y006524D03*
X028375Y005343D03*
D18*
X029950Y004950D03*
X026800Y004950D03*
X026800Y006918D03*
X029950Y006918D03*
D19*
X030540Y011249D03*
X030540Y001800D03*
X001800Y001800D03*
X001800Y011249D03*
D20*
X006765Y010765D03*
X007765Y010765D03*
X008765Y010765D03*
X009765Y010765D03*
X010765Y010765D03*
X011765Y010765D03*
X012765Y010765D03*
X013765Y010765D03*
X013765Y009765D03*
X012765Y009765D03*
X011765Y009765D03*
X010765Y009765D03*
X009765Y009765D03*
X008765Y009765D03*
X007765Y009765D03*
X006765Y009765D03*
D21*
X001605Y000650D02*
X001477Y000679D01*
X001354Y000723D01*
X001236Y000779D01*
X001125Y000849D01*
X001023Y000931D01*
X000931Y001023D01*
X000849Y001125D01*
X000779Y001236D01*
X000723Y001354D01*
X000679Y001477D01*
X000650Y001605D01*
X000637Y001720D01*
X001720Y001720D01*
X001880Y001720D01*
X001880Y001880D01*
X002963Y001880D01*
X002950Y001995D01*
X002921Y002123D01*
X002877Y002246D01*
X002821Y002364D01*
X002751Y002475D01*
X002669Y002577D01*
X002577Y002669D01*
X002475Y002751D01*
X002364Y002821D01*
X002246Y002877D01*
X002123Y002921D01*
X001995Y002950D01*
X001880Y002963D01*
X001880Y001880D01*
X001720Y001880D01*
X001720Y002963D01*
X001605Y002950D01*
X001477Y002921D01*
X001354Y002877D01*
X001236Y002821D01*
X001125Y002751D01*
X001023Y002669D01*
X000931Y002577D01*
X000849Y002475D01*
X000779Y002364D01*
X000723Y002246D01*
X000679Y002123D01*
X000650Y001995D01*
X000637Y001880D01*
X001720Y001880D01*
X001720Y001720D01*
X001720Y000637D01*
X001605Y000650D01*
X001644Y000612D02*
X001342Y000693D01*
X001071Y000850D01*
X000850Y001071D01*
X000693Y001342D01*
X000612Y001644D01*
X000602Y001800D01*
X000602Y003960D01*
X000774Y003788D01*
X000914Y003648D01*
X000951Y003648D01*
X000951Y003584D01*
X001033Y003502D01*
X001859Y003502D01*
X001941Y003584D01*
X001941Y003648D01*
X002289Y003648D01*
X002289Y003544D01*
X002371Y003462D01*
X003197Y003462D01*
X003279Y003544D01*
X003279Y003566D01*
X003333Y003512D01*
X003473Y003373D01*
X003667Y003373D01*
X003667Y003229D01*
X003749Y003147D01*
X004575Y003147D01*
X004657Y003229D01*
X004657Y003364D01*
X005045Y003364D01*
X005045Y003229D01*
X005127Y003147D01*
X005341Y003147D01*
X005341Y003007D01*
X005327Y002993D01*
X005281Y002883D01*
X005281Y002764D01*
X005327Y002655D01*
X005410Y002571D01*
X005460Y002550D01*
X004767Y002550D01*
X004730Y002638D01*
X004646Y002722D01*
X004537Y002768D01*
X004418Y002768D01*
X004308Y002722D01*
X004224Y002638D01*
X004179Y002529D01*
X004179Y002410D01*
X004224Y002300D01*
X004308Y002216D01*
X004418Y002171D01*
X004438Y002171D01*
X004536Y002073D01*
X005904Y002073D01*
X005899Y002069D01*
X005876Y002028D01*
X005863Y001982D01*
X005863Y001681D01*
X006281Y001681D01*
X006281Y001526D01*
X005863Y001526D01*
X005863Y001225D01*
X005876Y001179D01*
X005899Y001138D01*
X005933Y001104D01*
X005974Y001080D01*
X006020Y001068D01*
X006281Y001068D01*
X006281Y001526D01*
X006436Y001526D01*
X006436Y001681D01*
X006853Y001681D01*
X006853Y001982D01*
X006841Y002028D01*
X006817Y002069D01*
X006812Y002073D01*
X007080Y002073D01*
X007023Y002016D01*
X007023Y001190D01*
X007105Y001108D01*
X007270Y001108D01*
X007270Y001032D01*
X007410Y000892D01*
X007700Y000602D01*
X001800Y000602D01*
X001644Y000612D01*
X001720Y000739D02*
X001880Y000739D01*
X001880Y000637D02*
X001995Y000650D01*
X002123Y000679D01*
X002246Y000723D01*
X002364Y000779D01*
X002475Y000849D01*
X002577Y000931D01*
X002669Y001023D01*
X002751Y001125D01*
X002821Y001236D01*
X002877Y001354D01*
X002921Y001477D01*
X002950Y001605D01*
X002963Y001720D01*
X001880Y001720D01*
X001880Y000637D01*
X001320Y000739D02*
X001262Y000739D01*
X001064Y000898D02*
X001023Y000898D01*
X000904Y001056D02*
X000864Y001056D01*
X000793Y001215D02*
X000767Y001215D01*
X000716Y001373D02*
X000685Y001373D01*
X000667Y001532D02*
X000642Y001532D01*
X000641Y001690D02*
X000609Y001690D01*
X000602Y001849D02*
X001720Y001849D01*
X001720Y002007D02*
X001880Y002007D01*
X001880Y001849D02*
X005863Y001849D01*
X005870Y002007D02*
X002947Y002007D01*
X002906Y002166D02*
X004444Y002166D01*
X004214Y002324D02*
X002840Y002324D01*
X002745Y002483D02*
X004179Y002483D01*
X004227Y002641D02*
X002605Y002641D01*
X002398Y002800D02*
X005281Y002800D01*
X005312Y002958D02*
X001920Y002958D01*
X001880Y002958D02*
X001720Y002958D01*
X001680Y002958D02*
X000602Y002958D01*
X000602Y002800D02*
X001202Y002800D01*
X000995Y002641D02*
X000602Y002641D01*
X000602Y002483D02*
X000855Y002483D01*
X000760Y002324D02*
X000602Y002324D01*
X000602Y002166D02*
X000694Y002166D01*
X000653Y002007D02*
X000602Y002007D01*
X001720Y002166D02*
X001880Y002166D01*
X001880Y002324D02*
X001720Y002324D01*
X001720Y002483D02*
X001880Y002483D01*
X001880Y002641D02*
X001720Y002641D01*
X001720Y002800D02*
X001880Y002800D01*
X000602Y003117D02*
X005341Y003117D01*
X005045Y003275D02*
X004657Y003275D01*
X003667Y003275D02*
X000602Y003275D01*
X000602Y003434D02*
X003412Y003434D01*
X002289Y003592D02*
X001941Y003592D01*
X000951Y003592D02*
X000602Y003592D01*
X000602Y003751D02*
X000811Y003751D01*
X000774Y003788D02*
X000774Y003788D01*
X000653Y003909D02*
X000602Y003909D01*
X000975Y005474D02*
X000975Y008670D01*
X001233Y008928D01*
X002879Y008928D01*
X002882Y008919D01*
X003005Y008796D01*
X003066Y008771D01*
X002677Y008771D01*
X002311Y008405D01*
X001781Y008405D01*
X001699Y008323D01*
X001699Y007577D01*
X001781Y007495D01*
X002607Y007495D01*
X002689Y007577D01*
X002689Y008108D01*
X002874Y008294D01*
X008828Y008294D01*
X008968Y008434D01*
X009043Y008509D01*
X009064Y008509D01*
X009174Y008555D01*
X009199Y008580D01*
X009199Y007922D01*
X010341Y006780D01*
X010476Y006645D01*
X008749Y006645D01*
X008634Y006760D01*
X008634Y006781D01*
X008588Y006890D01*
X008504Y006974D01*
X008395Y007020D01*
X008276Y007020D01*
X008166Y006974D01*
X008082Y006890D01*
X008037Y006781D01*
X008037Y006662D01*
X008082Y006552D01*
X008166Y006468D01*
X008276Y006423D01*
X008297Y006423D01*
X008429Y006290D01*
X001859Y006290D01*
X001719Y006151D01*
X001299Y005730D01*
X001286Y005729D01*
X001230Y005662D01*
X001168Y005600D01*
X001168Y005587D01*
X001160Y005577D01*
X001164Y005531D01*
X001033Y005531D01*
X000975Y005474D01*
X000975Y005494D02*
X000995Y005494D01*
X000975Y005653D02*
X001221Y005653D01*
X001379Y005811D02*
X000975Y005811D01*
X000975Y005970D02*
X001538Y005970D01*
X001696Y006128D02*
X000975Y006128D01*
X000975Y006287D02*
X001855Y006287D01*
X001781Y006376D02*
X002607Y006376D01*
X002689Y006458D01*
X002689Y006592D01*
X005136Y006592D01*
X005148Y006581D01*
X005657Y006581D01*
X005739Y006663D01*
X005739Y007330D01*
X005657Y007412D01*
X005148Y007412D01*
X005066Y007330D01*
X005066Y007069D01*
X002689Y007069D01*
X002689Y007204D01*
X002607Y007286D01*
X001781Y007286D01*
X001699Y007204D01*
X001699Y006458D01*
X001781Y006376D01*
X001711Y006445D02*
X000975Y006445D01*
X000975Y006604D02*
X001699Y006604D01*
X001699Y006762D02*
X000975Y006762D01*
X000975Y006921D02*
X001699Y006921D01*
X001699Y007079D02*
X000975Y007079D01*
X000975Y007238D02*
X001733Y007238D01*
X001722Y007555D02*
X000975Y007555D01*
X000975Y007396D02*
X005131Y007396D01*
X005066Y007238D02*
X002655Y007238D01*
X002689Y007079D02*
X005066Y007079D01*
X005739Y007079D02*
X005774Y007079D01*
X005774Y007015D02*
X006132Y007015D01*
X006132Y006978D01*
X006169Y006978D01*
X006169Y006541D01*
X006371Y006541D01*
X006417Y006554D01*
X006458Y006577D01*
X006491Y006611D01*
X006515Y006652D01*
X006527Y006698D01*
X006527Y006978D01*
X006169Y006978D01*
X006169Y007015D01*
X006527Y007015D01*
X006527Y007296D01*
X006515Y007342D01*
X006491Y007383D01*
X006458Y007416D01*
X006417Y007440D01*
X006371Y007452D01*
X006169Y007452D01*
X006169Y007015D01*
X006132Y007015D01*
X006132Y007452D01*
X006036Y007452D01*
X006113Y007529D01*
X006113Y007625D01*
X006566Y007625D01*
X006586Y007576D01*
X006670Y007492D01*
X006780Y007446D01*
X006899Y007446D01*
X007008Y007492D01*
X007092Y007576D01*
X007138Y007686D01*
X007138Y007804D01*
X007092Y007914D01*
X007008Y007998D01*
X006899Y008043D01*
X006878Y008043D01*
X006820Y008101D01*
X006113Y008101D01*
X006113Y008197D01*
X006031Y008279D01*
X005522Y008279D01*
X005440Y008197D01*
X005440Y007529D01*
X005522Y007447D01*
X005911Y007447D01*
X005884Y007440D01*
X005843Y007416D01*
X005810Y007383D01*
X005786Y007342D01*
X005774Y007296D01*
X005774Y007015D01*
X005774Y006978D02*
X005774Y006698D01*
X005786Y006652D01*
X005810Y006611D01*
X005843Y006577D01*
X005884Y006554D01*
X005930Y006541D01*
X006132Y006541D01*
X006132Y006978D01*
X005774Y006978D01*
X005774Y006921D02*
X005739Y006921D01*
X006132Y006921D02*
X006169Y006921D01*
X006169Y007079D02*
X006132Y007079D01*
X006132Y007238D02*
X006169Y007238D01*
X006169Y007396D02*
X006132Y007396D01*
X006113Y007555D02*
X006608Y007555D01*
X006478Y007396D02*
X009725Y007396D01*
X009884Y007238D02*
X006527Y007238D01*
X006527Y007079D02*
X010042Y007079D01*
X010201Y006921D02*
X008558Y006921D01*
X008113Y006921D02*
X006527Y006921D01*
X006527Y006762D02*
X008037Y006762D01*
X008061Y006604D02*
X006484Y006604D01*
X006169Y006604D02*
X006132Y006604D01*
X006132Y006762D02*
X006169Y006762D01*
X005817Y006604D02*
X005679Y006604D01*
X005739Y006762D02*
X005774Y006762D01*
X005774Y007238D02*
X005739Y007238D01*
X005674Y007396D02*
X005823Y007396D01*
X005440Y007555D02*
X002666Y007555D01*
X002689Y007713D02*
X005440Y007713D01*
X005440Y007872D02*
X002689Y007872D01*
X002689Y008030D02*
X005440Y008030D01*
X005440Y008189D02*
X002769Y008189D01*
X002412Y008506D02*
X000975Y008506D01*
X000975Y008664D02*
X002570Y008664D01*
X002979Y008823D02*
X001128Y008823D01*
X000612Y008981D02*
X000602Y008981D01*
X000602Y008971D02*
X000602Y011186D01*
X000602Y011186D01*
X000602Y011260D01*
X000602Y011261D01*
X000611Y011415D01*
X000611Y011415D01*
X000690Y011713D01*
X000843Y011981D01*
X001060Y012200D01*
X001326Y012355D01*
X001624Y012436D01*
X001778Y012447D01*
X030544Y012447D01*
X030700Y012436D01*
X031001Y012355D01*
X031272Y012199D01*
X031492Y011977D01*
X031648Y011707D01*
X031728Y011405D01*
X031738Y011249D01*
X031738Y011175D01*
X031738Y011174D01*
X031738Y001800D01*
X031728Y001644D01*
X031647Y001342D01*
X031491Y001071D01*
X031269Y000850D01*
X030999Y000693D01*
X030697Y000612D01*
X030540Y000602D01*
X021493Y000602D01*
X021508Y000617D01*
X023237Y000617D01*
X023377Y000756D01*
X023729Y001108D01*
X023993Y001108D01*
X024075Y001190D01*
X024075Y001404D01*
X024175Y001404D01*
X024190Y001390D01*
X024300Y001344D01*
X024418Y001344D01*
X024528Y001390D01*
X024612Y001473D01*
X024657Y001583D01*
X024657Y001702D01*
X024612Y001812D01*
X024528Y001896D01*
X024418Y001941D01*
X024300Y001941D01*
X024190Y001896D01*
X024175Y001881D01*
X024075Y001881D01*
X024075Y002016D01*
X023993Y002098D01*
X023247Y002098D01*
X023165Y002016D01*
X023165Y001218D01*
X023040Y001094D01*
X022907Y001094D01*
X022925Y001104D01*
X022959Y001138D01*
X022983Y001179D01*
X022995Y001225D01*
X022995Y001526D01*
X022577Y001526D01*
X022577Y001681D01*
X022423Y001681D01*
X022423Y002138D01*
X022161Y002138D01*
X022116Y002126D01*
X022075Y002102D01*
X022041Y002069D01*
X022017Y002028D01*
X022005Y001982D01*
X022005Y001681D01*
X022423Y001681D01*
X022423Y001526D01*
X022005Y001526D01*
X022005Y001225D01*
X022017Y001179D01*
X022041Y001138D01*
X022075Y001104D01*
X022093Y001094D01*
X021625Y001094D01*
X021625Y001591D01*
X021559Y001751D01*
X021436Y001874D01*
X021276Y001940D01*
X020513Y001940D01*
X020353Y001874D01*
X020230Y001751D01*
X020164Y001591D01*
X020164Y000828D01*
X020230Y000668D01*
X020296Y000602D01*
X019328Y000602D01*
X019393Y000668D01*
X019460Y000828D01*
X019460Y001591D01*
X019393Y001751D01*
X019271Y001874D01*
X019111Y001940D01*
X018968Y001940D01*
X018968Y001977D01*
X019222Y002231D01*
X025914Y002231D01*
X026047Y002098D01*
X026003Y002098D01*
X025921Y002016D01*
X025921Y001190D01*
X026003Y001108D01*
X026749Y001108D01*
X026831Y001190D01*
X026831Y002016D01*
X026749Y002098D01*
X026605Y002098D01*
X026605Y002214D01*
X026111Y002708D01*
X019024Y002708D01*
X018884Y002568D01*
X018491Y002174D01*
X018491Y001940D01*
X018347Y001940D01*
X018187Y001874D01*
X018116Y001802D01*
X018116Y001900D01*
X018104Y001946D01*
X018080Y001987D01*
X018046Y002021D01*
X018005Y002045D01*
X017960Y002057D01*
X017733Y002057D01*
X017733Y002036D01*
X017647Y002036D01*
X017647Y002057D01*
X017420Y002057D01*
X017374Y002045D01*
X017333Y002021D01*
X017300Y001987D01*
X017276Y001946D01*
X017264Y001900D01*
X017264Y001329D01*
X017417Y001329D01*
X017503Y001243D01*
X017264Y001243D01*
X017264Y000672D01*
X017276Y000626D01*
X017290Y000602D01*
X017040Y000602D01*
X017076Y000638D01*
X017076Y001443D01*
X017096Y001463D01*
X017096Y001799D01*
X017076Y001818D01*
X017076Y001935D01*
X016994Y002017D01*
X016920Y002017D01*
X016920Y002837D01*
X016935Y002851D01*
X016980Y002961D01*
X016980Y003080D01*
X016935Y003190D01*
X016851Y003273D01*
X016741Y003319D01*
X016623Y003319D01*
X016513Y003273D01*
X016429Y003190D01*
X016383Y003080D01*
X016383Y002961D01*
X016429Y002851D01*
X016443Y002837D01*
X016443Y002017D01*
X016386Y002017D01*
X016304Y001935D01*
X016304Y001818D01*
X016284Y001799D01*
X016284Y001463D01*
X016304Y001443D01*
X016304Y000638D01*
X016339Y000602D01*
X016040Y000602D01*
X016076Y000638D01*
X016076Y001443D01*
X016096Y001463D01*
X016096Y001799D01*
X016076Y001818D01*
X016076Y001935D01*
X015994Y002017D01*
X015928Y002017D01*
X015928Y002908D01*
X015951Y002930D01*
X015996Y003040D01*
X015996Y003159D01*
X015951Y003268D01*
X015886Y003333D01*
X019280Y003333D01*
X019369Y003244D01*
X019369Y003225D01*
X019711Y002882D01*
X019851Y002743D01*
X023446Y002743D01*
X023875Y003172D01*
X024103Y003172D01*
X024338Y003406D01*
X024338Y003737D01*
X024103Y003972D01*
X023772Y003972D01*
X023538Y003737D01*
X023538Y003509D01*
X023248Y003220D01*
X020821Y003220D01*
X021007Y003406D01*
X021007Y003737D01*
X020846Y003899D01*
X020846Y005257D01*
X020346Y005757D01*
X020289Y005814D01*
X023827Y005814D01*
X024711Y004930D01*
X024711Y003911D01*
X024538Y003737D01*
X024538Y003406D01*
X024772Y003172D01*
X025103Y003172D01*
X025338Y003406D01*
X025338Y003737D01*
X025188Y003887D01*
X025188Y005127D01*
X025048Y005267D01*
X024164Y006151D01*
X024025Y006290D01*
X020936Y006290D01*
X020985Y006311D01*
X021069Y006395D01*
X021114Y006504D01*
X021114Y006519D01*
X021189Y006443D01*
X021301Y006443D01*
X021316Y006429D01*
X021426Y006383D01*
X021544Y006383D01*
X021654Y006429D01*
X021738Y006513D01*
X021783Y006623D01*
X021783Y006741D01*
X021738Y006851D01*
X021654Y006935D01*
X021544Y006980D01*
X021426Y006980D01*
X021356Y006951D01*
X021172Y007135D01*
X021037Y007270D01*
X024111Y007270D01*
X026276Y005105D01*
X026339Y005042D01*
X026451Y005042D01*
X026442Y005021D01*
X026442Y004878D01*
X026496Y004747D01*
X026597Y004646D01*
X026729Y004591D01*
X026871Y004591D01*
X027003Y004646D01*
X027104Y004747D01*
X027158Y004878D01*
X027158Y004908D01*
X029591Y004908D01*
X029591Y004878D01*
X029646Y004747D01*
X029747Y004646D01*
X029878Y004591D01*
X030021Y004591D01*
X030152Y004646D01*
X030253Y004747D01*
X030308Y004878D01*
X030308Y005021D01*
X030253Y005152D01*
X030152Y005253D01*
X030090Y005279D01*
X030090Y005426D01*
X030130Y005466D01*
X030130Y006457D01*
X030075Y006457D01*
X030024Y006508D01*
X028442Y006508D01*
X028442Y006592D01*
X028307Y006592D01*
X028307Y006508D01*
X026725Y006508D01*
X026675Y006457D01*
X026620Y006457D01*
X026620Y005582D01*
X026474Y005582D01*
X024308Y007747D01*
X018552Y007747D01*
X018065Y008234D01*
X018094Y008222D01*
X018145Y008191D01*
X018160Y008195D01*
X018167Y008192D01*
X018175Y008178D01*
X018234Y008164D01*
X018289Y008141D01*
X018304Y008148D01*
X018311Y008146D01*
X018321Y008134D01*
X018381Y008129D01*
X018439Y008115D01*
X018453Y008123D01*
X018458Y008118D01*
X018525Y008118D01*
X018592Y008112D01*
X018598Y008118D01*
X020041Y008118D01*
X020047Y008112D01*
X020114Y008118D01*
X020181Y008118D01*
X020187Y008123D01*
X020200Y008115D01*
X020258Y008129D01*
X020318Y008134D01*
X020328Y008146D01*
X020336Y008148D01*
X020350Y008141D01*
X020406Y008164D01*
X020464Y008178D01*
X020472Y008192D01*
X020479Y008195D01*
X020495Y008191D01*
X020546Y008222D01*
X020601Y008245D01*
X020607Y008260D01*
X020614Y008264D01*
X020630Y008263D01*
X020675Y008302D01*
X020726Y008333D01*
X020730Y008348D01*
X020736Y008353D01*
X020752Y008355D01*
X020790Y008400D01*
X020836Y008439D01*
X020837Y008455D01*
X020842Y008461D01*
X020858Y008464D01*
X020889Y008515D01*
X020928Y008561D01*
X020927Y008577D01*
X020931Y008583D01*
X020945Y008589D01*
X020968Y008645D01*
X020999Y008696D01*
X020996Y008711D01*
X020999Y008718D01*
X021012Y008727D01*
X021026Y008785D01*
X021049Y008840D01*
X021043Y008855D01*
X021045Y008862D01*
X021057Y008873D01*
X021062Y008932D01*
X021076Y008990D01*
X021067Y009004D01*
X021073Y009010D01*
X021073Y009076D01*
X021078Y009143D01*
X021073Y009149D01*
X021073Y010199D01*
X021078Y010205D01*
X021073Y010272D01*
X021073Y010338D01*
X021067Y010344D01*
X021076Y010358D01*
X021062Y010416D01*
X021057Y010475D01*
X021045Y010486D01*
X021043Y010493D01*
X021049Y010508D01*
X021026Y010563D01*
X021012Y010621D01*
X020999Y010630D01*
X020996Y010637D01*
X020999Y010652D01*
X020968Y010703D01*
X020945Y010759D01*
X020931Y010765D01*
X020927Y010771D01*
X020928Y010787D01*
X020889Y010833D01*
X020858Y010884D01*
X020842Y010887D01*
X020837Y010893D01*
X020836Y010909D01*
X020790Y010948D01*
X020752Y010993D01*
X020736Y010995D01*
X020730Y011000D01*
X020726Y011015D01*
X020675Y011046D01*
X020630Y011085D01*
X020614Y011084D01*
X020607Y011088D01*
X020601Y011103D01*
X020546Y011126D01*
X020495Y011157D01*
X020479Y011153D01*
X020472Y011156D01*
X020464Y011170D01*
X020406Y011184D01*
X020350Y011207D01*
X020336Y011200D01*
X020328Y011202D01*
X020318Y011214D01*
X020258Y011219D01*
X020200Y011233D01*
X020187Y011225D01*
X020181Y011230D01*
X020114Y011230D01*
X020047Y011236D01*
X020041Y011230D01*
X018598Y011230D01*
X018592Y011236D01*
X018525Y011230D01*
X018458Y011230D01*
X018453Y011225D01*
X018439Y011233D01*
X018381Y011219D01*
X018321Y011214D01*
X018311Y011202D01*
X018304Y011200D01*
X018289Y011207D01*
X018234Y011184D01*
X018175Y011170D01*
X018167Y011156D01*
X018160Y011153D01*
X018145Y011157D01*
X018094Y011126D01*
X018038Y011103D01*
X018032Y011088D01*
X018026Y011084D01*
X018010Y011085D01*
X017964Y011046D01*
X017913Y011015D01*
X017909Y011000D01*
X017904Y010995D01*
X017888Y010993D01*
X017849Y010948D01*
X017803Y010909D01*
X017802Y010893D01*
X017797Y010887D01*
X017782Y010884D01*
X017750Y010833D01*
X017712Y010787D01*
X017713Y010771D01*
X017709Y010765D01*
X017694Y010759D01*
X017671Y010703D01*
X017640Y010652D01*
X017644Y010637D01*
X017641Y010630D01*
X017627Y010621D01*
X017613Y010563D01*
X017590Y010508D01*
X017596Y010493D01*
X017595Y010486D01*
X017582Y010475D01*
X017578Y010416D01*
X017564Y010358D01*
X017572Y010344D01*
X017566Y010338D01*
X017566Y010272D01*
X017561Y010205D01*
X017566Y010199D01*
X017566Y009149D01*
X017561Y009143D01*
X017566Y009076D01*
X017566Y009010D01*
X017572Y009004D01*
X017564Y008990D01*
X017578Y008932D01*
X017582Y008873D01*
X017595Y008862D01*
X017596Y008855D01*
X017590Y008840D01*
X017613Y008785D01*
X017627Y008727D01*
X017641Y008718D01*
X017644Y008711D01*
X017640Y008696D01*
X017671Y008645D01*
X017683Y008616D01*
X017096Y009204D01*
X012017Y009204D01*
X012003Y009218D01*
X012003Y009381D01*
X012205Y009582D01*
X012205Y009947D01*
X011947Y010205D01*
X011582Y010205D01*
X011325Y009947D01*
X011325Y009582D01*
X011526Y009381D01*
X011526Y009020D01*
X011819Y008727D01*
X016898Y008727D01*
X016972Y008653D01*
X011741Y008653D01*
X011601Y008513D01*
X011328Y008240D01*
X011308Y008240D01*
X011198Y008195D01*
X011114Y008111D01*
X011069Y008001D01*
X011069Y007882D01*
X011114Y007773D01*
X011198Y007689D01*
X011308Y007643D01*
X011426Y007643D01*
X011536Y007689D01*
X011620Y007773D01*
X011665Y007882D01*
X011665Y007903D01*
X011938Y008176D01*
X016780Y008176D01*
X016854Y008101D01*
X014031Y008101D01*
X014016Y008116D01*
X013907Y008161D01*
X013788Y008161D01*
X013678Y008116D01*
X013594Y008032D01*
X013549Y007922D01*
X013549Y007804D01*
X013594Y007694D01*
X013678Y007610D01*
X013788Y007565D01*
X013907Y007565D01*
X014016Y007610D01*
X014031Y007625D01*
X016701Y007625D01*
X016776Y007550D01*
X011269Y007550D01*
X010227Y008592D01*
X010227Y009340D01*
X010095Y009472D01*
X010205Y009582D01*
X010205Y009947D01*
X009947Y010205D01*
X009582Y010205D01*
X009325Y009947D01*
X009325Y009582D01*
X009526Y009381D01*
X009526Y009367D01*
X009751Y009142D01*
X009751Y008394D01*
X011028Y007117D01*
X010678Y007117D01*
X009676Y008119D01*
X009676Y009143D01*
X009537Y009283D01*
X009537Y009283D01*
X009205Y009615D01*
X009325Y009615D01*
X009205Y009615D02*
X009205Y009947D01*
X009125Y010026D01*
X009363Y010026D01*
X009662Y010325D01*
X009947Y010325D01*
X010205Y010582D01*
X010205Y010947D01*
X009947Y011205D01*
X009582Y011205D01*
X009325Y010947D01*
X009325Y010662D01*
X009166Y010503D01*
X009125Y010503D01*
X009205Y010582D01*
X009205Y010947D01*
X008947Y011205D01*
X008582Y011205D01*
X008325Y010947D01*
X008325Y010582D01*
X008404Y010503D01*
X008125Y010503D01*
X008205Y010582D01*
X008205Y010947D01*
X007947Y011205D01*
X007582Y011205D01*
X007325Y010947D01*
X007325Y010582D01*
X007404Y010503D01*
X007125Y010503D01*
X007205Y010582D01*
X007205Y010947D01*
X006947Y011205D01*
X006660Y011205D01*
X006859Y011404D01*
X011229Y011404D01*
X011505Y011128D01*
X011325Y010947D01*
X011325Y010582D01*
X011582Y010325D01*
X011947Y010325D01*
X012205Y010582D01*
X012205Y010947D01*
X011999Y011152D01*
X011999Y011308D01*
X011859Y011448D01*
X011431Y011877D01*
X017012Y011877D01*
X016916Y011781D01*
X016916Y011583D01*
X017056Y011443D01*
X021623Y011443D01*
X023215Y009851D01*
X023355Y009711D01*
X027036Y009711D01*
X027485Y009262D01*
X027481Y009253D01*
X027481Y009079D01*
X027548Y008919D01*
X027671Y008796D01*
X027831Y008729D01*
X028005Y008729D01*
X028166Y008796D01*
X028288Y008919D01*
X028355Y009079D01*
X028355Y009253D01*
X028288Y009414D01*
X028166Y009536D01*
X028005Y009603D01*
X027831Y009603D01*
X027822Y009599D01*
X027233Y010188D01*
X023552Y010188D01*
X023538Y010202D01*
X023592Y010202D01*
X023701Y010248D01*
X023785Y010332D01*
X023831Y010441D01*
X023831Y010560D01*
X023785Y010670D01*
X023701Y010754D01*
X023592Y010799D01*
X023571Y010799D01*
X022157Y012214D01*
X022017Y012353D01*
X009306Y012353D01*
X009292Y012368D01*
X009182Y012413D01*
X009063Y012413D01*
X008954Y012368D01*
X008870Y012284D01*
X008824Y012174D01*
X008824Y012056D01*
X008870Y011946D01*
X008935Y011881D01*
X006662Y011881D01*
X006522Y011741D01*
X004378Y009597D01*
X004363Y009603D01*
X004189Y009603D01*
X004029Y009536D01*
X003906Y009414D01*
X003840Y009253D01*
X003840Y009079D01*
X003884Y008971D01*
X003884Y008906D01*
X004020Y008771D01*
X003440Y008771D01*
X003500Y008796D01*
X003623Y008919D01*
X003690Y009079D01*
X003690Y009253D01*
X003623Y009414D01*
X003500Y009536D01*
X003340Y009603D01*
X003166Y009603D01*
X003005Y009536D01*
X002882Y009414D01*
X002879Y009405D01*
X001036Y009405D01*
X000602Y008971D01*
X000602Y009140D02*
X000771Y009140D01*
X000929Y009298D02*
X000602Y009298D01*
X000602Y009457D02*
X002925Y009457D01*
X003580Y009457D02*
X003949Y009457D01*
X003858Y009298D02*
X003671Y009298D01*
X003690Y009140D02*
X003840Y009140D01*
X003880Y008981D02*
X003649Y008981D01*
X003527Y008823D02*
X003968Y008823D01*
X004396Y009615D02*
X000602Y009615D01*
X000602Y009774D02*
X004554Y009774D01*
X004713Y009932D02*
X000602Y009932D01*
X000602Y010091D02*
X001681Y010091D01*
X001720Y010091D02*
X001880Y010091D01*
X001880Y010086D02*
X001995Y010099D01*
X002123Y010128D01*
X002246Y010171D01*
X002364Y010228D01*
X002475Y010298D01*
X002577Y010379D01*
X002669Y010472D01*
X002751Y010574D01*
X002821Y010685D01*
X002877Y010803D01*
X002921Y010926D01*
X002950Y011053D01*
X002963Y011169D01*
X001880Y011169D01*
X001880Y011329D01*
X001720Y011329D01*
X001720Y012411D01*
X001605Y012398D01*
X001477Y012369D01*
X001354Y012326D01*
X001236Y012269D01*
X001125Y012200D01*
X001023Y012118D01*
X000931Y012026D01*
X000849Y011924D01*
X000779Y011813D01*
X000723Y011695D01*
X000679Y011572D01*
X000650Y011444D01*
X000637Y011329D01*
X001720Y011329D01*
X001720Y011169D01*
X000637Y011169D01*
X000650Y011053D01*
X000679Y010926D01*
X000723Y010803D01*
X000779Y010685D01*
X000849Y010574D01*
X000931Y010472D01*
X001023Y010379D01*
X001125Y010298D01*
X001236Y010228D01*
X001354Y010171D01*
X001477Y010128D01*
X001605Y010099D01*
X001720Y010086D01*
X001720Y011169D01*
X001880Y011169D01*
X001880Y010086D01*
X001919Y010091D02*
X004871Y010091D01*
X005030Y010249D02*
X002397Y010249D01*
X002605Y010408D02*
X005188Y010408D01*
X005347Y010566D02*
X002745Y010566D01*
X002840Y010725D02*
X005505Y010725D01*
X005664Y010883D02*
X002905Y010883D01*
X002947Y011042D02*
X005822Y011042D01*
X005981Y011200D02*
X001880Y011200D01*
X001880Y011329D02*
X002963Y011329D01*
X002950Y011444D01*
X002921Y011572D01*
X002877Y011695D01*
X002821Y011813D01*
X002751Y011924D01*
X002669Y012026D01*
X002577Y012118D01*
X002475Y012200D01*
X002364Y012269D01*
X002246Y012326D01*
X002123Y012369D01*
X001995Y012398D01*
X001880Y012411D01*
X001880Y011329D01*
X001880Y011359D02*
X001720Y011359D01*
X001720Y011517D02*
X001880Y011517D01*
X001880Y011676D02*
X001720Y011676D01*
X001720Y011834D02*
X001880Y011834D01*
X001880Y011993D02*
X001720Y011993D01*
X001720Y012151D02*
X001880Y012151D01*
X001880Y012310D02*
X001720Y012310D01*
X001319Y012310D02*
X001249Y012310D01*
X001064Y012151D02*
X001012Y012151D01*
X000904Y011993D02*
X000855Y011993D01*
X000793Y011834D02*
X000759Y011834D01*
X000716Y011676D02*
X000680Y011676D01*
X000667Y011517D02*
X000638Y011517D01*
X000641Y011359D02*
X000608Y011359D01*
X000602Y011200D02*
X001720Y011200D01*
X001720Y011042D02*
X001880Y011042D01*
X001880Y010883D02*
X001720Y010883D01*
X001720Y010725D02*
X001880Y010725D01*
X001880Y010566D02*
X001720Y010566D01*
X001720Y010408D02*
X001880Y010408D01*
X001880Y010249D02*
X001720Y010249D01*
X001203Y010249D02*
X000602Y010249D01*
X000602Y010408D02*
X000995Y010408D01*
X000855Y010566D02*
X000602Y010566D01*
X000602Y010725D02*
X000760Y010725D01*
X000695Y010883D02*
X000602Y010883D01*
X000602Y011042D02*
X000653Y011042D01*
X002807Y011834D02*
X006615Y011834D01*
X006456Y011676D02*
X002884Y011676D01*
X002933Y011517D02*
X006298Y011517D01*
X006139Y011359D02*
X002959Y011359D01*
X002696Y011993D02*
X008851Y011993D01*
X008824Y012151D02*
X002536Y012151D01*
X002281Y012310D02*
X008895Y012310D01*
X006814Y011359D02*
X011274Y011359D01*
X011433Y011200D02*
X010951Y011200D01*
X010947Y011205D02*
X010582Y011205D01*
X010325Y010947D01*
X010325Y010582D01*
X010582Y010325D01*
X010947Y010325D01*
X011205Y010582D01*
X011205Y010947D01*
X010947Y011205D01*
X011110Y011042D02*
X011419Y011042D01*
X011325Y010883D02*
X011205Y010883D01*
X011205Y010725D02*
X011325Y010725D01*
X011341Y010566D02*
X011188Y010566D01*
X011030Y010408D02*
X011499Y010408D01*
X011468Y010091D02*
X011061Y010091D01*
X010947Y010205D02*
X010582Y010205D01*
X010325Y009947D01*
X010325Y009582D01*
X010582Y009325D01*
X010947Y009325D01*
X011205Y009582D01*
X011205Y009947D01*
X010947Y010205D01*
X010499Y010408D02*
X010030Y010408D01*
X010188Y010566D02*
X010341Y010566D01*
X010325Y010725D02*
X010205Y010725D01*
X010205Y010883D02*
X010325Y010883D01*
X010419Y011042D02*
X010110Y011042D01*
X009951Y011200D02*
X010578Y011200D01*
X009578Y011200D02*
X008951Y011200D01*
X009110Y011042D02*
X009419Y011042D01*
X009325Y010883D02*
X009205Y010883D01*
X009205Y010725D02*
X009325Y010725D01*
X009229Y010566D02*
X009188Y010566D01*
X009586Y010249D02*
X017565Y010249D01*
X017566Y010091D02*
X014061Y010091D01*
X013947Y010205D02*
X014205Y009947D01*
X014205Y009582D01*
X013947Y009325D01*
X013582Y009325D01*
X013325Y009582D01*
X013325Y009947D01*
X013582Y010205D01*
X013947Y010205D01*
X013963Y010285D02*
X014245Y010566D01*
X017614Y010566D01*
X017576Y010408D02*
X014086Y010408D01*
X013963Y010285D02*
X013785Y010285D01*
X013785Y010745D01*
X013785Y010785D01*
X014245Y010785D01*
X014245Y010963D01*
X013963Y011245D01*
X013785Y011245D01*
X013785Y010785D01*
X013745Y010785D01*
X013745Y011245D01*
X013566Y011245D01*
X013285Y010963D01*
X013285Y010785D01*
X013745Y010785D01*
X013745Y010745D01*
X013785Y010745D01*
X014245Y010745D01*
X014245Y010566D01*
X014245Y010725D02*
X017680Y010725D01*
X017781Y010883D02*
X014245Y010883D01*
X014166Y011042D02*
X017956Y011042D01*
X018273Y011200D02*
X014008Y011200D01*
X013785Y011200D02*
X013745Y011200D01*
X013745Y011042D02*
X013785Y011042D01*
X013785Y010883D02*
X013745Y010883D01*
X013745Y010745D02*
X013285Y010745D01*
X013285Y010566D01*
X013245Y010566D01*
X013245Y010745D01*
X012785Y010745D01*
X012785Y010785D01*
X013245Y010785D01*
X013245Y010963D01*
X012963Y011245D01*
X012785Y011245D01*
X012785Y010785D01*
X012745Y010785D01*
X012745Y011245D01*
X012566Y011245D01*
X012285Y010963D01*
X012285Y010785D01*
X012745Y010785D01*
X012745Y010745D01*
X012785Y010745D01*
X012785Y010285D01*
X012963Y010285D01*
X013245Y010566D01*
X013285Y010566D02*
X013566Y010285D01*
X013745Y010285D01*
X013745Y010745D01*
X013745Y010725D02*
X013785Y010725D01*
X013285Y010725D02*
X013245Y010725D01*
X013245Y010883D02*
X013285Y010883D01*
X013363Y011042D02*
X013166Y011042D01*
X013008Y011200D02*
X013521Y011200D01*
X012785Y011200D02*
X012745Y011200D01*
X012745Y011042D02*
X012785Y011042D01*
X012785Y010883D02*
X012745Y010883D01*
X012745Y010745D02*
X012285Y010745D01*
X012285Y010566D01*
X012188Y010566D01*
X012285Y010566D02*
X012566Y010285D01*
X012745Y010285D01*
X012745Y010745D01*
X012745Y010725D02*
X012785Y010725D01*
X012785Y010566D02*
X012745Y010566D01*
X012745Y010408D02*
X012785Y010408D01*
X012947Y010205D02*
X012582Y010205D01*
X012325Y009947D01*
X012325Y009582D01*
X012582Y009325D01*
X012947Y009325D01*
X013205Y009582D01*
X013205Y009947D01*
X012947Y010205D01*
X013061Y010091D02*
X013468Y010091D01*
X013325Y009932D02*
X013205Y009932D01*
X013205Y009774D02*
X013325Y009774D01*
X013325Y009615D02*
X013205Y009615D01*
X013079Y009457D02*
X013450Y009457D01*
X014079Y009457D02*
X017566Y009457D01*
X017566Y009615D02*
X014205Y009615D01*
X014205Y009774D02*
X017566Y009774D01*
X017566Y009932D02*
X014205Y009932D01*
X013785Y010408D02*
X013745Y010408D01*
X013745Y010566D02*
X013785Y010566D01*
X013443Y010408D02*
X013086Y010408D01*
X012443Y010408D02*
X012030Y010408D01*
X012061Y010091D02*
X012468Y010091D01*
X012325Y009932D02*
X012205Y009932D01*
X012205Y009774D02*
X012325Y009774D01*
X012325Y009615D02*
X012205Y009615D01*
X012079Y009457D02*
X012450Y009457D01*
X012003Y009298D02*
X017566Y009298D01*
X017561Y009140D02*
X017160Y009140D01*
X017318Y008981D02*
X017566Y008981D01*
X017598Y008823D02*
X017477Y008823D01*
X017635Y008664D02*
X017659Y008664D01*
X016961Y008664D02*
X010227Y008664D01*
X010227Y008823D02*
X011724Y008823D01*
X011565Y008981D02*
X010227Y008981D01*
X009751Y008981D02*
X009676Y008981D01*
X009676Y008823D02*
X009751Y008823D01*
X009751Y008664D02*
X009676Y008664D01*
X009676Y008506D02*
X009751Y008506D01*
X010314Y008506D02*
X011594Y008506D01*
X011601Y008513D02*
X011601Y008513D01*
X011435Y008347D02*
X010472Y008347D01*
X010631Y008189D02*
X011192Y008189D01*
X011081Y008030D02*
X010789Y008030D01*
X010948Y007872D02*
X011073Y007872D01*
X011106Y007713D02*
X011174Y007713D01*
X011560Y007713D02*
X013586Y007713D01*
X013549Y007872D02*
X011661Y007872D01*
X011792Y008030D02*
X013593Y008030D01*
X011265Y007555D02*
X016771Y007555D01*
X018111Y008189D02*
X018169Y008189D01*
X018269Y008030D02*
X031738Y008030D01*
X031738Y007872D02*
X018428Y007872D01*
X020470Y008189D02*
X031738Y008189D01*
X031738Y008347D02*
X020730Y008347D01*
X020883Y008506D02*
X031738Y008506D01*
X031738Y008664D02*
X020980Y008664D01*
X021042Y008823D02*
X027644Y008823D01*
X027522Y008981D02*
X021073Y008981D01*
X021078Y009140D02*
X027481Y009140D01*
X027449Y009298D02*
X021073Y009298D01*
X021073Y009457D02*
X027291Y009457D01*
X027132Y009615D02*
X021073Y009615D01*
X021073Y009774D02*
X023292Y009774D01*
X023134Y009932D02*
X021073Y009932D01*
X021073Y010091D02*
X022975Y010091D01*
X022817Y010249D02*
X021075Y010249D01*
X021064Y010408D02*
X022658Y010408D01*
X022500Y010566D02*
X021025Y010566D01*
X020959Y010725D02*
X022341Y010725D01*
X022183Y010883D02*
X020858Y010883D01*
X020683Y011042D02*
X022024Y011042D01*
X021866Y011200D02*
X020366Y011200D01*
X021707Y011359D02*
X011949Y011359D01*
X011790Y011517D02*
X016982Y011517D01*
X016916Y011676D02*
X011632Y011676D01*
X011473Y011834D02*
X016969Y011834D01*
X012521Y011200D02*
X011999Y011200D01*
X012110Y011042D02*
X012363Y011042D01*
X012285Y010883D02*
X012205Y010883D01*
X012205Y010725D02*
X012285Y010725D01*
X010468Y010091D02*
X010061Y010091D01*
X010205Y009932D02*
X010325Y009932D01*
X010325Y009774D02*
X010205Y009774D01*
X010205Y009615D02*
X010325Y009615D01*
X010450Y009457D02*
X010111Y009457D01*
X010227Y009298D02*
X011526Y009298D01*
X011526Y009140D02*
X010227Y009140D01*
X009751Y009140D02*
X009676Y009140D01*
X009595Y009298D02*
X009521Y009298D01*
X009450Y009457D02*
X009363Y009457D01*
X009325Y009774D02*
X009205Y009774D01*
X009205Y009932D02*
X009325Y009932D01*
X009428Y010091D02*
X009468Y010091D01*
X008341Y010566D02*
X008188Y010566D01*
X008205Y010725D02*
X008325Y010725D01*
X008325Y010883D02*
X008205Y010883D01*
X008110Y011042D02*
X008419Y011042D01*
X008578Y011200D02*
X007951Y011200D01*
X007578Y011200D02*
X006951Y011200D01*
X007110Y011042D02*
X007419Y011042D01*
X007325Y010883D02*
X007205Y010883D01*
X007205Y010725D02*
X007325Y010725D01*
X007341Y010566D02*
X007188Y010566D01*
X011079Y009457D02*
X011450Y009457D01*
X011325Y009615D02*
X011205Y009615D01*
X011205Y009774D02*
X011325Y009774D01*
X011325Y009932D02*
X011205Y009932D01*
X009199Y008506D02*
X009040Y008506D01*
X008881Y008347D02*
X009199Y008347D01*
X009199Y008189D02*
X006113Y008189D01*
X006931Y008030D02*
X009199Y008030D01*
X009250Y007872D02*
X007110Y007872D01*
X007138Y007713D02*
X009408Y007713D01*
X009924Y007872D02*
X010273Y007872D01*
X010115Y008030D02*
X009765Y008030D01*
X009676Y008189D02*
X009956Y008189D01*
X009798Y008347D02*
X009676Y008347D01*
X010082Y007713D02*
X010432Y007713D01*
X010590Y007555D02*
X010241Y007555D01*
X010399Y007396D02*
X010749Y007396D01*
X010907Y007238D02*
X010558Y007238D01*
X009567Y007555D02*
X007071Y007555D01*
X008634Y006762D02*
X010359Y006762D01*
X010341Y006780D02*
X010341Y006780D01*
X008222Y006445D02*
X002676Y006445D01*
X001699Y007713D02*
X000975Y007713D01*
X000975Y007872D02*
X001699Y007872D01*
X001699Y008030D02*
X000975Y008030D01*
X000975Y008189D02*
X001699Y008189D01*
X001722Y008347D02*
X000975Y008347D01*
X004727Y002641D02*
X005340Y002641D01*
X006846Y002007D02*
X007023Y002007D01*
X007023Y001849D02*
X006853Y001849D01*
X006853Y001690D02*
X007023Y001690D01*
X007023Y001532D02*
X006436Y001532D01*
X006436Y001526D02*
X006853Y001526D01*
X006853Y001225D01*
X006841Y001179D01*
X006817Y001138D01*
X006784Y001104D01*
X006743Y001080D01*
X006697Y001068D01*
X006436Y001068D01*
X006436Y001526D01*
X006436Y001373D02*
X006281Y001373D01*
X006281Y001215D02*
X006436Y001215D01*
X005866Y001215D02*
X002807Y001215D01*
X002884Y001373D02*
X005863Y001373D01*
X006281Y001532D02*
X002933Y001532D01*
X002959Y001690D02*
X005863Y001690D01*
X006853Y001373D02*
X007023Y001373D01*
X007023Y001215D02*
X006851Y001215D01*
X007270Y001056D02*
X002696Y001056D01*
X002536Y000898D02*
X007405Y000898D01*
X007563Y000739D02*
X002280Y000739D01*
X001880Y000898D02*
X001720Y000898D01*
X001720Y001056D02*
X001880Y001056D01*
X001880Y001215D02*
X001720Y001215D01*
X001720Y001373D02*
X001880Y001373D01*
X001880Y001532D02*
X001720Y001532D01*
X001720Y001690D02*
X001880Y001690D01*
X007860Y001117D02*
X007962Y001015D01*
X010599Y001015D01*
X010715Y001131D01*
X010715Y001591D01*
X010781Y001751D01*
X010904Y001874D01*
X011064Y001940D01*
X011828Y001940D01*
X011988Y001874D01*
X012110Y001751D01*
X012176Y001591D01*
X012176Y000828D01*
X012110Y000668D01*
X012044Y000602D01*
X013012Y000602D01*
X012947Y000668D01*
X012880Y000828D01*
X012880Y001591D01*
X012947Y001751D01*
X013069Y001874D01*
X013229Y001940D01*
X013373Y001940D01*
X013373Y001977D01*
X013276Y002073D01*
X010442Y002073D01*
X010438Y002070D01*
X010492Y002016D01*
X010492Y001190D01*
X010410Y001108D01*
X009664Y001108D01*
X009582Y001190D01*
X009582Y002016D01*
X009639Y002073D01*
X009372Y002073D01*
X009376Y002069D01*
X009400Y002028D01*
X009412Y001982D01*
X009412Y001681D01*
X008995Y001681D01*
X008995Y001526D01*
X009412Y001526D01*
X009412Y001225D01*
X009400Y001179D01*
X009376Y001138D01*
X009343Y001104D01*
X009302Y001080D01*
X009256Y001068D01*
X008995Y001068D01*
X008995Y001526D01*
X008840Y001526D01*
X008422Y001526D01*
X008422Y001225D01*
X008435Y001179D01*
X008458Y001138D01*
X008492Y001104D01*
X008533Y001080D01*
X008579Y001068D01*
X008840Y001068D01*
X008840Y001526D01*
X008840Y001681D01*
X008422Y001681D01*
X008422Y001982D01*
X008435Y002028D01*
X008458Y002069D01*
X008463Y002073D01*
X007876Y002073D01*
X007933Y002016D01*
X007933Y001190D01*
X007860Y001117D01*
X007921Y001056D02*
X010640Y001056D01*
X010715Y001215D02*
X010492Y001215D01*
X010492Y001373D02*
X010715Y001373D01*
X010715Y001532D02*
X010492Y001532D01*
X010492Y001690D02*
X010756Y001690D01*
X010879Y001849D02*
X010492Y001849D01*
X010492Y002007D02*
X013342Y002007D01*
X013044Y001849D02*
X012013Y001849D01*
X012135Y001690D02*
X012921Y001690D01*
X012880Y001532D02*
X012176Y001532D01*
X012176Y001373D02*
X012880Y001373D01*
X012880Y001215D02*
X012176Y001215D01*
X012176Y001056D02*
X012880Y001056D01*
X012880Y000898D02*
X012176Y000898D01*
X012140Y000739D02*
X012917Y000739D01*
X016076Y000739D02*
X016304Y000739D01*
X016304Y000898D02*
X016076Y000898D01*
X016076Y001056D02*
X016304Y001056D01*
X016304Y001215D02*
X016076Y001215D01*
X016076Y001373D02*
X016304Y001373D01*
X016284Y001532D02*
X016096Y001532D01*
X016096Y001690D02*
X016284Y001690D01*
X016304Y001849D02*
X016076Y001849D01*
X016004Y002007D02*
X016376Y002007D01*
X016443Y002166D02*
X015928Y002166D01*
X015928Y002324D02*
X016443Y002324D01*
X016443Y002483D02*
X015928Y002483D01*
X015928Y002641D02*
X016443Y002641D01*
X016443Y002800D02*
X015928Y002800D01*
X015962Y002958D02*
X016385Y002958D01*
X016399Y003117D02*
X015996Y003117D01*
X015944Y003275D02*
X016517Y003275D01*
X016847Y003275D02*
X019338Y003275D01*
X019477Y003117D02*
X016965Y003117D01*
X016979Y002958D02*
X019635Y002958D01*
X019794Y002800D02*
X016920Y002800D01*
X016920Y002641D02*
X018957Y002641D01*
X018799Y002483D02*
X016920Y002483D01*
X016920Y002324D02*
X018640Y002324D01*
X018491Y002166D02*
X016920Y002166D01*
X017004Y002007D02*
X017319Y002007D01*
X017264Y001849D02*
X017076Y001849D01*
X017096Y001690D02*
X017264Y001690D01*
X017264Y001532D02*
X017096Y001532D01*
X017076Y001373D02*
X017264Y001373D01*
X017264Y001215D02*
X017076Y001215D01*
X017076Y001056D02*
X017264Y001056D01*
X017264Y000898D02*
X017076Y000898D01*
X017076Y000739D02*
X017264Y000739D01*
X019423Y000739D02*
X020201Y000739D01*
X020164Y000898D02*
X019460Y000898D01*
X019460Y001056D02*
X020164Y001056D01*
X020164Y001215D02*
X019460Y001215D01*
X019460Y001373D02*
X020164Y001373D01*
X020164Y001532D02*
X019460Y001532D01*
X019419Y001690D02*
X020205Y001690D01*
X020327Y001849D02*
X019296Y001849D01*
X018998Y002007D02*
X022012Y002007D01*
X022005Y001849D02*
X021462Y001849D01*
X021584Y001690D02*
X022005Y001690D01*
X021625Y001532D02*
X022423Y001532D01*
X022577Y001532D02*
X023165Y001532D01*
X023165Y001690D02*
X022995Y001690D01*
X022995Y001681D02*
X022995Y001982D01*
X022983Y002028D01*
X022959Y002069D01*
X022925Y002102D01*
X022884Y002126D01*
X022839Y002138D01*
X022577Y002138D01*
X022577Y001681D01*
X022995Y001681D01*
X022995Y001849D02*
X023165Y001849D01*
X023165Y002007D02*
X022988Y002007D01*
X022577Y002007D02*
X022423Y002007D01*
X022423Y001849D02*
X022577Y001849D01*
X022577Y001690D02*
X022423Y001690D01*
X022005Y001373D02*
X021625Y001373D01*
X021625Y001215D02*
X022008Y001215D01*
X022992Y001215D02*
X023161Y001215D01*
X023165Y001373D02*
X022995Y001373D01*
X023677Y001056D02*
X029644Y001056D01*
X029671Y001023D02*
X029589Y001125D01*
X029520Y001236D01*
X029463Y001354D01*
X029420Y001477D01*
X029391Y001605D01*
X029378Y001720D01*
X030460Y001720D01*
X030460Y001880D01*
X029378Y001880D01*
X029391Y001995D01*
X029420Y002123D01*
X029463Y002246D01*
X029520Y002364D01*
X029589Y002475D01*
X029671Y002577D01*
X029763Y002669D01*
X029865Y002751D01*
X029976Y002821D01*
X030094Y002877D01*
X030217Y002921D01*
X030345Y002950D01*
X030460Y002963D01*
X030460Y001880D01*
X030620Y001880D01*
X030620Y002963D01*
X030735Y002950D01*
X030863Y002921D01*
X030986Y002877D01*
X031104Y002821D01*
X031215Y002751D01*
X031317Y002669D01*
X031410Y002577D01*
X031491Y002475D01*
X031561Y002364D01*
X031617Y002246D01*
X031661Y002123D01*
X031690Y001995D01*
X031703Y001880D01*
X030620Y001880D01*
X030620Y001720D01*
X030620Y000637D01*
X030735Y000650D01*
X030863Y000679D01*
X030986Y000723D01*
X031104Y000779D01*
X031215Y000849D01*
X031317Y000931D01*
X031410Y001023D01*
X031491Y001125D01*
X031561Y001236D01*
X031617Y001354D01*
X031661Y001477D01*
X031690Y001605D01*
X031703Y001720D01*
X030620Y001720D01*
X030460Y001720D01*
X030460Y000637D01*
X030345Y000650D01*
X030217Y000679D01*
X030094Y000723D01*
X029976Y000779D01*
X029865Y000849D01*
X029763Y000931D01*
X029671Y001023D01*
X029804Y000898D02*
X023518Y000898D01*
X023360Y000739D02*
X030060Y000739D01*
X030460Y000739D02*
X030620Y000739D01*
X030620Y000898D02*
X030460Y000898D01*
X031020Y000739D02*
X031078Y000739D01*
X031276Y000898D02*
X031317Y000898D01*
X031436Y001056D02*
X031476Y001056D01*
X031547Y001215D02*
X031574Y001215D01*
X031624Y001373D02*
X031655Y001373D01*
X031673Y001532D02*
X031698Y001532D01*
X031699Y001690D02*
X031731Y001690D01*
X031738Y001849D02*
X030620Y001849D01*
X030620Y002007D02*
X030460Y002007D01*
X030460Y001849D02*
X026831Y001849D01*
X026831Y002007D02*
X029393Y002007D01*
X029435Y002166D02*
X026605Y002166D01*
X026495Y002324D02*
X029500Y002324D01*
X029595Y002483D02*
X026337Y002483D01*
X026178Y002641D02*
X029735Y002641D01*
X029943Y002800D02*
X023503Y002800D01*
X023661Y002958D02*
X030420Y002958D01*
X030460Y002958D02*
X030620Y002958D01*
X030661Y002958D02*
X031738Y002958D01*
X031738Y002800D02*
X031138Y002800D01*
X031346Y002641D02*
X031738Y002641D01*
X031738Y002483D02*
X031485Y002483D01*
X031580Y002324D02*
X031738Y002324D01*
X031738Y002166D02*
X031646Y002166D01*
X031687Y002007D02*
X031738Y002007D01*
X030620Y002166D02*
X030460Y002166D01*
X030460Y002324D02*
X030620Y002324D01*
X030620Y002483D02*
X030460Y002483D01*
X030460Y002641D02*
X030620Y002641D01*
X030620Y002800D02*
X030460Y002800D01*
X031738Y003117D02*
X023820Y003117D01*
X024207Y003275D02*
X024669Y003275D01*
X024538Y003434D02*
X024338Y003434D01*
X024338Y003592D02*
X024538Y003592D01*
X024551Y003751D02*
X024325Y003751D01*
X024166Y003909D02*
X024710Y003909D01*
X025188Y003909D02*
X031738Y003909D01*
X031738Y003751D02*
X025325Y003751D01*
X025338Y003592D02*
X031738Y003592D01*
X031738Y003434D02*
X025338Y003434D01*
X025207Y003275D02*
X031738Y003275D01*
X031738Y004068D02*
X025188Y004068D01*
X025188Y004226D02*
X031738Y004226D01*
X031738Y004385D02*
X025188Y004385D01*
X025188Y004543D02*
X031738Y004543D01*
X031738Y004702D02*
X030208Y004702D01*
X030300Y004860D02*
X031738Y004860D01*
X031738Y005019D02*
X030308Y005019D01*
X030229Y005177D02*
X031738Y005177D01*
X031738Y005336D02*
X030090Y005336D01*
X030130Y005494D02*
X031738Y005494D01*
X031738Y005653D02*
X030130Y005653D01*
X030130Y005811D02*
X031738Y005811D01*
X031738Y005970D02*
X030130Y005970D01*
X030130Y006128D02*
X031738Y006128D01*
X031738Y006287D02*
X030130Y006287D01*
X030130Y006445D02*
X031738Y006445D01*
X031738Y006604D02*
X030130Y006604D01*
X030130Y006605D02*
X030152Y006615D01*
X030253Y006715D01*
X030308Y006847D01*
X030308Y006989D01*
X030253Y007121D01*
X030152Y007222D01*
X030021Y007276D01*
X029878Y007276D01*
X029747Y007222D01*
X029646Y007121D01*
X029596Y007000D01*
X028442Y007000D01*
X028442Y006592D01*
X029801Y006592D01*
X029878Y006560D01*
X030021Y006560D01*
X030098Y006592D01*
X030130Y006592D01*
X030130Y006605D01*
X030273Y006762D02*
X031738Y006762D01*
X031738Y006921D02*
X030308Y006921D01*
X030271Y007079D02*
X031738Y007079D01*
X031738Y007238D02*
X030114Y007238D01*
X029785Y007238D02*
X026965Y007238D01*
X027003Y007222D02*
X026871Y007276D01*
X026729Y007276D01*
X026597Y007222D01*
X026496Y007121D01*
X026442Y006989D01*
X026442Y006847D01*
X026496Y006715D01*
X026597Y006615D01*
X026620Y006605D01*
X026620Y006592D01*
X026651Y006592D01*
X026729Y006560D01*
X026871Y006560D01*
X026949Y006592D01*
X028307Y006592D01*
X028307Y007000D01*
X027154Y007000D01*
X027104Y007121D01*
X027003Y007222D01*
X027121Y007079D02*
X029629Y007079D01*
X028442Y006921D02*
X028307Y006921D01*
X028307Y006762D02*
X028442Y006762D01*
X028442Y006604D02*
X028307Y006604D01*
X026620Y006604D02*
X025452Y006604D01*
X025293Y006762D02*
X026477Y006762D01*
X026442Y006921D02*
X025135Y006921D01*
X024976Y007079D02*
X026479Y007079D01*
X026635Y007238D02*
X024818Y007238D01*
X024659Y007396D02*
X031738Y007396D01*
X031738Y007555D02*
X024501Y007555D01*
X024342Y007713D02*
X031738Y007713D01*
X031738Y008823D02*
X029216Y008823D01*
X029189Y008796D02*
X029312Y008919D01*
X029379Y009079D01*
X029379Y009253D01*
X029312Y009414D01*
X029189Y009536D01*
X029029Y009603D01*
X028855Y009603D01*
X028694Y009536D01*
X028571Y009414D01*
X028505Y009253D01*
X028505Y009079D01*
X028571Y008919D01*
X028694Y008796D01*
X028855Y008729D01*
X029029Y008729D01*
X029189Y008796D01*
X029338Y008981D02*
X031738Y008981D01*
X031738Y009140D02*
X029379Y009140D01*
X029360Y009298D02*
X031738Y009298D01*
X031738Y009457D02*
X029269Y009457D01*
X028614Y009457D02*
X028245Y009457D01*
X028336Y009298D02*
X028524Y009298D01*
X028505Y009140D02*
X028355Y009140D01*
X028314Y008981D02*
X028546Y008981D01*
X028668Y008823D02*
X028192Y008823D01*
X027806Y009615D02*
X031738Y009615D01*
X031738Y009774D02*
X027648Y009774D01*
X027489Y009932D02*
X031738Y009932D01*
X031738Y010091D02*
X030659Y010091D01*
X030620Y010091D02*
X030460Y010091D01*
X030460Y010086D02*
X030460Y011169D01*
X029378Y011169D01*
X029391Y011053D01*
X029420Y010926D01*
X029463Y010803D01*
X029520Y010685D01*
X029589Y010574D01*
X029671Y010472D01*
X029763Y010379D01*
X029865Y010298D01*
X029976Y010228D01*
X030094Y010171D01*
X030217Y010128D01*
X030345Y010099D01*
X030460Y010086D01*
X030422Y010091D02*
X027331Y010091D01*
X029435Y010883D02*
X023487Y010883D01*
X023329Y011042D02*
X029393Y011042D01*
X029378Y011329D02*
X030460Y011329D01*
X030460Y012411D01*
X030345Y012398D01*
X030217Y012369D01*
X030094Y012326D01*
X029976Y012269D01*
X029865Y012200D01*
X029763Y012118D01*
X029671Y012026D01*
X029589Y011924D01*
X029520Y011813D01*
X029463Y011695D01*
X029420Y011572D01*
X029391Y011444D01*
X029378Y011329D01*
X029381Y011359D02*
X023012Y011359D01*
X022853Y011517D02*
X029407Y011517D01*
X029456Y011676D02*
X022695Y011676D01*
X022536Y011834D02*
X029533Y011834D01*
X029644Y011993D02*
X022378Y011993D01*
X022219Y012151D02*
X029804Y012151D01*
X030059Y012310D02*
X022061Y012310D01*
X023170Y011200D02*
X030460Y011200D01*
X030460Y011169D02*
X030460Y011329D01*
X030620Y011329D01*
X030620Y012411D01*
X030735Y012398D01*
X030863Y012369D01*
X030986Y012326D01*
X031104Y012269D01*
X031215Y012200D01*
X031317Y012118D01*
X031410Y012026D01*
X031491Y011924D01*
X031561Y011813D01*
X031617Y011695D01*
X031661Y011572D01*
X031690Y011444D01*
X031703Y011329D01*
X030620Y011329D01*
X030620Y011169D01*
X031703Y011169D01*
X031690Y011053D01*
X031661Y010926D01*
X031617Y010803D01*
X031561Y010685D01*
X031491Y010574D01*
X031410Y010472D01*
X031317Y010379D01*
X031215Y010298D01*
X031104Y010228D01*
X030986Y010171D01*
X030863Y010128D01*
X030735Y010099D01*
X030620Y010086D01*
X030620Y011169D01*
X030460Y011169D01*
X030460Y011042D02*
X030620Y011042D01*
X030620Y011200D02*
X031738Y011200D01*
X031738Y011249D02*
X031738Y011249D01*
X031731Y011359D02*
X031699Y011359D01*
X031698Y011517D02*
X031673Y011517D01*
X031656Y011676D02*
X031624Y011676D01*
X031575Y011834D02*
X031547Y011834D01*
X031477Y011993D02*
X031436Y011993D01*
X031319Y012151D02*
X031276Y012151D01*
X031080Y012310D02*
X031021Y012310D01*
X030620Y012310D02*
X030460Y012310D01*
X030460Y012151D02*
X030620Y012151D01*
X030620Y011993D02*
X030460Y011993D01*
X030460Y011834D02*
X030620Y011834D01*
X030620Y011676D02*
X030460Y011676D01*
X030460Y011517D02*
X030620Y011517D01*
X030620Y011359D02*
X030460Y011359D01*
X031687Y011042D02*
X031738Y011042D01*
X031738Y010883D02*
X031646Y010883D01*
X031580Y010725D02*
X031738Y010725D01*
X031738Y010566D02*
X031485Y010566D01*
X031345Y010408D02*
X031738Y010408D01*
X031738Y010249D02*
X031137Y010249D01*
X030620Y010249D02*
X030460Y010249D01*
X030460Y010408D02*
X030620Y010408D01*
X030620Y010566D02*
X030460Y010566D01*
X030460Y010725D02*
X030620Y010725D01*
X030620Y010883D02*
X030460Y010883D01*
X029596Y010566D02*
X023828Y010566D01*
X023817Y010408D02*
X029735Y010408D01*
X029943Y010249D02*
X023703Y010249D01*
X023731Y010725D02*
X029500Y010725D01*
X024143Y007238D02*
X021070Y007238D01*
X021228Y007079D02*
X024302Y007079D01*
X024460Y006921D02*
X021668Y006921D01*
X021775Y006762D02*
X024619Y006762D01*
X024777Y006604D02*
X021776Y006604D01*
X021670Y006445D02*
X024936Y006445D01*
X025094Y006287D02*
X024029Y006287D01*
X024187Y006128D02*
X025253Y006128D01*
X025411Y005970D02*
X024346Y005970D01*
X024504Y005811D02*
X025570Y005811D01*
X025728Y005653D02*
X024663Y005653D01*
X024821Y005494D02*
X025887Y005494D01*
X026403Y005653D02*
X026620Y005653D01*
X026620Y005811D02*
X026244Y005811D01*
X026086Y005970D02*
X026620Y005970D01*
X026620Y006128D02*
X025927Y006128D01*
X025769Y006287D02*
X026620Y006287D01*
X026620Y006445D02*
X025610Y006445D01*
X023988Y005653D02*
X020450Y005653D01*
X020291Y005811D02*
X023830Y005811D01*
X024147Y005494D02*
X020608Y005494D01*
X020767Y005336D02*
X024305Y005336D01*
X024464Y005177D02*
X020846Y005177D01*
X020846Y005019D02*
X024622Y005019D01*
X024711Y004860D02*
X020846Y004860D01*
X020846Y004702D02*
X024711Y004702D01*
X025188Y004702D02*
X026542Y004702D01*
X026449Y004860D02*
X025188Y004860D01*
X025188Y005019D02*
X026442Y005019D01*
X026276Y005105D02*
X026276Y005105D01*
X026204Y005177D02*
X025138Y005177D01*
X024980Y005336D02*
X026045Y005336D01*
X027151Y004860D02*
X029599Y004860D01*
X029691Y004702D02*
X027058Y004702D01*
X024711Y004543D02*
X020846Y004543D01*
X020846Y004385D02*
X024711Y004385D01*
X024711Y004226D02*
X020846Y004226D01*
X020846Y004068D02*
X024711Y004068D01*
X023710Y003909D02*
X020846Y003909D01*
X020994Y003751D02*
X023551Y003751D01*
X023538Y003592D02*
X021007Y003592D01*
X021007Y003434D02*
X023463Y003434D01*
X023304Y003275D02*
X020876Y003275D01*
X019156Y002166D02*
X025979Y002166D01*
X025921Y002007D02*
X025744Y002007D01*
X025739Y002028D02*
X025715Y002069D01*
X025681Y002102D01*
X025640Y002126D01*
X025595Y002138D01*
X025333Y002138D01*
X025333Y001681D01*
X025178Y001681D01*
X025178Y001526D01*
X024761Y001526D01*
X024761Y001225D01*
X024773Y001179D01*
X024797Y001138D01*
X024830Y001104D01*
X024871Y001080D01*
X024917Y001068D01*
X025178Y001068D01*
X025178Y001526D01*
X025333Y001526D01*
X025333Y001068D01*
X025595Y001068D01*
X025640Y001080D01*
X025681Y001104D01*
X025715Y001138D01*
X025739Y001179D01*
X025751Y001225D01*
X025751Y001526D01*
X025333Y001526D01*
X025333Y001681D01*
X025751Y001681D01*
X025751Y001982D01*
X025739Y002028D01*
X025751Y001849D02*
X025921Y001849D01*
X025921Y001690D02*
X025751Y001690D01*
X025921Y001532D02*
X025333Y001532D01*
X025178Y001532D02*
X024636Y001532D01*
X024657Y001690D02*
X024761Y001690D01*
X024761Y001681D02*
X025178Y001681D01*
X025178Y002138D01*
X024917Y002138D01*
X024871Y002126D01*
X024830Y002102D01*
X024797Y002069D01*
X024773Y002028D01*
X024761Y001982D01*
X024761Y001681D01*
X025178Y001690D02*
X025333Y001690D01*
X025333Y001849D02*
X025178Y001849D01*
X025178Y002007D02*
X025333Y002007D01*
X024768Y002007D02*
X024075Y002007D01*
X024575Y001849D02*
X024761Y001849D01*
X024761Y001373D02*
X024488Y001373D01*
X024230Y001373D02*
X024075Y001373D01*
X024075Y001215D02*
X024764Y001215D01*
X025178Y001215D02*
X025333Y001215D01*
X025333Y001373D02*
X025178Y001373D01*
X025751Y001373D02*
X025921Y001373D01*
X025921Y001215D02*
X025748Y001215D01*
X026831Y001215D02*
X029533Y001215D01*
X029456Y001373D02*
X026831Y001373D01*
X026831Y001532D02*
X029407Y001532D01*
X029381Y001690D02*
X026831Y001690D01*
X030460Y001690D02*
X030620Y001690D01*
X030620Y001532D02*
X030460Y001532D01*
X030460Y001373D02*
X030620Y001373D01*
X030620Y001215D02*
X030460Y001215D01*
X030460Y001056D02*
X030620Y001056D01*
X018491Y002007D02*
X018060Y002007D01*
X018116Y001849D02*
X018162Y001849D01*
X009582Y001849D02*
X009412Y001849D01*
X009406Y002007D02*
X009582Y002007D01*
X009582Y001690D02*
X009412Y001690D01*
X009582Y001532D02*
X008995Y001532D01*
X008840Y001532D02*
X007933Y001532D01*
X007933Y001690D02*
X008422Y001690D01*
X008422Y001849D02*
X007933Y001849D01*
X007933Y002007D02*
X008429Y002007D01*
X008422Y001373D02*
X007933Y001373D01*
X007933Y001215D02*
X008425Y001215D01*
X008840Y001215D02*
X008995Y001215D01*
X008995Y001373D02*
X008840Y001373D01*
X009412Y001373D02*
X009582Y001373D01*
X009582Y001215D02*
X009410Y001215D01*
X021090Y006445D02*
X021188Y006445D01*
D22*
X020816Y006564D03*
X021485Y006682D03*
X016879Y007154D03*
X016367Y006879D03*
X015894Y006524D03*
X013847Y006524D03*
X011564Y006406D03*
X008335Y006721D03*
X006839Y007745D03*
X009005Y008808D03*
X011367Y007942D03*
X013847Y007863D03*
X018650Y010580D03*
X020422Y010461D03*
X023532Y010501D03*
X009123Y012115D03*
X005461Y009044D03*
X001288Y006564D03*
X005580Y002824D03*
X004477Y002469D03*
X008178Y001603D03*
X014713Y002548D03*
X015698Y003099D03*
X016682Y003020D03*
X024359Y001643D03*
D23*
X023659Y001643D01*
X023620Y001603D01*
X023620Y001336D01*
X023139Y000855D01*
X021249Y000855D01*
X020894Y001209D01*
X018729Y001209D02*
X018729Y002076D01*
X019123Y002469D01*
X026013Y002469D01*
X026367Y002115D01*
X026367Y001612D01*
X026376Y001603D01*
X023938Y003572D02*
X023347Y002981D01*
X019950Y002981D01*
X019607Y003324D01*
X019607Y003572D01*
X012733Y003572D01*
X012182Y003020D01*
X008926Y003020D01*
X008402Y003544D01*
X008402Y003572D01*
X009280Y003572D02*
X007548Y005304D01*
X004438Y005304D01*
X004162Y005028D01*
X004162Y004722D01*
X003335Y005658D02*
X002784Y005107D01*
X002784Y005037D01*
X001957Y006052D02*
X001406Y005501D01*
X001446Y005076D01*
X003335Y005658D02*
X020107Y005658D01*
X020607Y005158D01*
X020607Y003572D01*
X016682Y003020D02*
X016682Y001294D01*
X016690Y001286D01*
X015690Y001286D02*
X015690Y001631D01*
X015690Y003091D01*
X015698Y003099D01*
X014713Y002548D02*
X014690Y002524D01*
X014690Y001611D01*
X014690Y001286D01*
X013611Y001209D02*
X013611Y002076D01*
X013375Y002312D01*
X010343Y002312D01*
X004635Y002312D01*
X004477Y002469D01*
X005580Y002824D02*
X005580Y003563D01*
X005540Y003602D01*
X004162Y003602D01*
X004154Y003611D01*
X003572Y003611D01*
X003265Y003917D01*
X002784Y003917D01*
X002776Y003887D01*
X001328Y003887D01*
X001358Y003917D01*
X001446Y003957D01*
X001328Y003887D02*
X001013Y003887D01*
X000737Y004162D01*
X000737Y008769D01*
X001135Y009166D01*
X003253Y009166D01*
X004123Y009013D02*
X004276Y009166D01*
X004123Y009013D02*
X004123Y009005D01*
X006761Y011643D01*
X011328Y011643D01*
X011761Y011209D01*
X011761Y010769D01*
X011765Y010765D01*
X009765Y010765D02*
X009265Y010265D01*
X006052Y010265D01*
X005461Y009674D01*
X005461Y009044D01*
X002776Y008532D02*
X002194Y007950D01*
X002776Y008532D02*
X008729Y008532D01*
X009005Y008808D01*
X009438Y009044D02*
X009438Y008020D01*
X010580Y006879D01*
X016367Y006879D01*
X016721Y007312D02*
X016879Y007154D01*
X016721Y007312D02*
X011170Y007312D01*
X009989Y008493D01*
X009989Y009241D01*
X009765Y009465D01*
X009765Y009765D01*
X009438Y009044D02*
X008765Y009717D01*
X008765Y009765D01*
X011765Y009765D02*
X011765Y009119D01*
X011918Y008965D01*
X016997Y008965D01*
X018454Y007509D01*
X024209Y007509D01*
X026375Y005343D01*
X028375Y005343D01*
X026926Y005343D01*
X026863Y005280D01*
X028182Y005280D01*
X028245Y005343D01*
X028375Y005343D01*
X028312Y005280D01*
X028182Y005280D01*
X026863Y005280D02*
X026438Y005280D01*
X026375Y005343D01*
X024950Y005028D02*
X024950Y003583D01*
X024938Y003572D01*
X024950Y005028D02*
X023926Y006052D01*
X001957Y006052D01*
X002194Y006831D02*
X005236Y006831D01*
X005402Y006997D01*
X006721Y007863D02*
X006839Y007745D01*
X006721Y007863D02*
X005776Y007863D01*
X008335Y006721D02*
X008650Y006406D01*
X011564Y006406D01*
X013847Y006524D02*
X015894Y006524D01*
X016800Y007863D02*
X018139Y006524D01*
X020776Y006524D01*
X020816Y006564D01*
X021288Y006682D02*
X020934Y007036D01*
X018257Y007036D01*
X016879Y008414D01*
X011839Y008414D01*
X011367Y007942D01*
X013847Y007863D02*
X016800Y007863D01*
X021288Y006682D02*
X021485Y006682D01*
X027135Y009950D02*
X027918Y009166D01*
X027135Y009950D02*
X023454Y009950D01*
X021721Y011682D01*
X017154Y011682D01*
X021918Y012115D02*
X010619Y012115D01*
X010422Y012115D01*
X009123Y012115D01*
X021918Y012115D02*
X023532Y010501D01*
X007402Y003717D02*
X006446Y004674D01*
X005588Y004674D01*
X005540Y004722D01*
X007402Y003717D02*
X007402Y003572D01*
X009280Y003572D02*
X011733Y003572D01*
X010343Y002312D02*
X010068Y002036D01*
X010068Y001634D01*
X010037Y001603D01*
X010698Y000776D02*
X011131Y001209D01*
X011446Y001209D01*
X010698Y000776D02*
X007863Y000776D01*
X007509Y001131D01*
X007509Y001572D01*
X007478Y001603D01*
D24*
X014690Y001611D03*
X015690Y001631D03*
X016690Y001631D03*
X017690Y001631D03*
D25*
X020422Y010461D02*
X020422Y010501D01*
X020304Y010619D01*
X018690Y010619D01*
X018650Y010580D01*
M02*
