G75*
%MOIN*%
%OFA0B0*%
%FSLAX24Y24*%
%IPPOS*%
%LPD*%
%AMOC8*
5,1,8,0,0,1.08239X$1,22.5*
%
%ADD10C,0.0591*%
%ADD11R,0.0630X0.0710*%
%ADD12R,0.0710X0.0630*%
%ADD13R,0.0394X0.0551*%
%ADD14R,0.3150X0.0591*%
%ADD15R,0.0600X0.1200*%
D10*
X011741Y001467D02*
X011741Y002057D01*
X011741Y001467D02*
X011151Y001467D01*
X011151Y002057D01*
X011741Y002057D01*
X011151Y002057D01*
X013906Y002057D02*
X013906Y001467D01*
X013316Y001467D01*
X013316Y002057D01*
X013906Y002057D01*
X013316Y002057D01*
X019024Y002057D02*
X019024Y001467D01*
X018434Y001467D01*
X018434Y002057D01*
X019024Y002057D01*
X018434Y002057D01*
X021189Y002057D02*
X021189Y001467D01*
X020599Y001467D01*
X020599Y002057D01*
X021189Y002057D01*
X020599Y002057D01*
D11*
X006358Y002156D03*
X007478Y002156D03*
X008917Y002156D03*
X010037Y002156D03*
X022185Y002156D03*
X023305Y002156D03*
X024783Y002156D03*
X025903Y002156D03*
D12*
X005540Y004155D03*
X004162Y004155D03*
X002784Y004470D03*
X001446Y004510D03*
X001446Y005629D03*
X002784Y005590D03*
X004162Y005275D03*
X005540Y005275D03*
X002194Y007384D03*
X002194Y008503D03*
D13*
X005402Y007550D03*
X006150Y007550D03*
X005776Y008416D03*
D14*
X027824Y007077D03*
X027824Y005896D03*
D15*
X017670Y002189D03*
X016670Y002189D03*
X015670Y002189D03*
X014670Y002189D03*
M02*
