G75*
%MOIN*%
%OFA0B0*%
%FSLAX24Y24*%
%IPPOS*%
%LPD*%
%AMOC8*
5,1,8,0,0,1.08239X$1,22.5*
%
%ADD10R,0.0750X0.0670*%
%ADD11C,0.0634*%
%ADD12OC8,0.0560*%
%ADD13C,0.0611*%
%ADD14R,0.3190X0.0631*%
%ADD15C,0.0476*%
%ADD16R,0.0316X0.0158*%
%ADD17R,0.0158X0.0316*%
%ADD18R,0.0749X0.0670*%
%ADD19R,0.0670X0.0749*%
%ADD20R,0.0434X0.0591*%
%ADD21R,0.0670X0.0750*%
%ADD22C,0.2009*%
%ADD23OC8,0.0749*%
%ADD24C,0.0594*%
%ADD25C,0.0555*%
%ADD26C,0.0516*%
%ADD27R,0.0640X0.1240*%
%ADD28OC8,0.0640*%
D10*
X014989Y007305D03*
X014989Y008424D03*
X004674Y011242D03*
X004674Y012361D03*
X003438Y008487D03*
X003438Y007368D03*
X030843Y008915D03*
X030843Y010035D03*
D11*
X028942Y009719D03*
X027918Y009719D03*
X030206Y006723D03*
X031505Y006723D03*
X031505Y005739D03*
X030205Y005739D03*
X030206Y004754D03*
X031505Y004754D03*
X004276Y009719D03*
X003253Y009719D03*
D12*
X007402Y004124D03*
X008402Y004124D03*
X011733Y004124D03*
X012733Y004124D03*
X019607Y004124D03*
X020607Y004124D03*
X023938Y004124D03*
X024938Y004124D03*
D13*
X021199Y002067D02*
X021199Y001457D01*
X020589Y001457D01*
X020589Y002067D01*
X021199Y002067D01*
X020589Y002067D01*
X019034Y002067D02*
X019034Y001457D01*
X018424Y001457D01*
X018424Y002067D01*
X019034Y002067D01*
X018424Y002067D01*
X013916Y002067D02*
X013916Y001457D01*
X013306Y001457D01*
X013306Y002067D01*
X013916Y002067D01*
X013306Y002067D01*
X011751Y002067D02*
X011751Y001457D01*
X011141Y001457D01*
X011141Y002067D01*
X011751Y002067D01*
X011141Y002067D01*
D14*
X027824Y005896D03*
X027824Y007077D03*
D15*
X029398Y007471D03*
X026249Y007471D03*
X026249Y005502D03*
X029398Y005502D03*
D16*
X019871Y009833D03*
X019871Y010030D03*
X019871Y010227D03*
X019871Y010424D03*
X019871Y010621D03*
X018769Y010621D03*
X018769Y010424D03*
X018769Y010227D03*
X018769Y010030D03*
X018769Y009833D03*
D17*
X019123Y009676D03*
X019320Y009676D03*
X019517Y009676D03*
X019517Y010778D03*
X019320Y010778D03*
X019123Y010778D03*
D18*
X017154Y010778D03*
X017154Y009676D03*
X021485Y009676D03*
X021485Y010778D03*
D19*
X019871Y011998D03*
X018769Y011998D03*
X018611Y008061D03*
X019713Y008061D03*
D20*
X013001Y007313D03*
X012253Y007313D03*
X010442Y007313D03*
X009694Y007313D03*
X010068Y006447D03*
X012627Y006447D03*
D21*
X013187Y008455D03*
X012067Y008455D03*
X010628Y008455D03*
X009508Y008455D03*
D22*
X001800Y011802D03*
X001800Y002353D03*
X030540Y002353D03*
X030540Y011802D03*
D23*
X003517Y001487D03*
X004517Y001487D03*
X005517Y001487D03*
X026824Y001487D03*
X027824Y001487D03*
X028824Y001487D03*
D24*
X014670Y002439D03*
D25*
X015670Y002439D03*
X016670Y002439D03*
X017670Y002439D03*
D26*
X023028Y009565D03*
X024028Y009565D03*
X025028Y009565D03*
X026028Y009565D03*
X027028Y009565D03*
D27*
X027028Y009315D03*
X026028Y009315D03*
X025028Y009315D03*
X024028Y009315D03*
X023028Y009315D03*
D28*
X013765Y010317D03*
X012765Y010317D03*
X011765Y010317D03*
X010765Y010317D03*
X009765Y010317D03*
X008765Y010317D03*
X007765Y010317D03*
X006765Y010317D03*
X006765Y011317D03*
X007765Y011317D03*
X008765Y011317D03*
X009765Y011317D03*
X010765Y011317D03*
X011765Y011317D03*
X012765Y011317D03*
X013765Y011317D03*
M02*
