G75*
%MOIN*%
%OFA0B0*%
%FSLAX24Y24*%
%IPPOS*%
%LPD*%
%AMOC8*
5,1,8,0,0,1.08239X$1,22.5*
%
%ADD10R,0.0710X0.0630*%
%ADD11C,0.0594*%
%ADD12OC8,0.0520*%
%ADD13C,0.0591*%
%ADD14R,0.3150X0.0591*%
%ADD15C,0.0436*%
%ADD16R,0.0276X0.0118*%
%ADD17R,0.0118X0.0276*%
%ADD18R,0.0709X0.0630*%
%ADD19R,0.0630X0.0709*%
%ADD20R,0.0394X0.0551*%
%ADD21R,0.0630X0.0710*%
%ADD22C,0.1969*%
%ADD23OC8,0.0709*%
%ADD24C,0.0554*%
%ADD25C,0.0515*%
%ADD26C,0.0476*%
%ADD27R,0.0600X0.1200*%
%ADD28OC8,0.0600*%
%ADD29C,0.0120*%
%ADD30C,0.0160*%
%ADD31C,0.0317*%
%ADD32C,0.0197*%
D10*
X014989Y007305D03*
X014989Y008424D03*
X004674Y011242D03*
X004674Y012361D03*
X003438Y008487D03*
X003438Y007368D03*
X030843Y008915D03*
X030843Y010035D03*
D11*
X028942Y009719D03*
X027918Y009719D03*
X030206Y006723D03*
X031505Y006723D03*
X031505Y005739D03*
X030205Y005739D03*
X030206Y004754D03*
X031505Y004754D03*
X004276Y009719D03*
X003253Y009719D03*
D12*
X007402Y004124D03*
X008402Y004124D03*
X011733Y004124D03*
X012733Y004124D03*
X019607Y004124D03*
X020607Y004124D03*
X023938Y004124D03*
X024938Y004124D03*
D13*
X021189Y002057D02*
X021189Y001467D01*
X020599Y001467D01*
X020599Y002057D01*
X021189Y002057D01*
X020599Y002057D01*
X019024Y002057D02*
X019024Y001467D01*
X018434Y001467D01*
X018434Y002057D01*
X019024Y002057D01*
X018434Y002057D01*
X013906Y002057D02*
X013906Y001467D01*
X013316Y001467D01*
X013316Y002057D01*
X013906Y002057D01*
X013316Y002057D01*
X011741Y002057D02*
X011741Y001467D01*
X011151Y001467D01*
X011151Y002057D01*
X011741Y002057D01*
X011151Y002057D01*
D14*
X027824Y005896D03*
X027824Y007077D03*
D15*
X029398Y007471D03*
X026249Y007471D03*
X026249Y005502D03*
X029398Y005502D03*
D16*
X019871Y009833D03*
X019871Y010030D03*
X019871Y010227D03*
X019871Y010424D03*
X019871Y010621D03*
X018769Y010621D03*
X018769Y010424D03*
X018769Y010227D03*
X018769Y010030D03*
X018769Y009833D03*
D17*
X019123Y009676D03*
X019320Y009676D03*
X019517Y009676D03*
X019517Y010778D03*
X019320Y010778D03*
X019123Y010778D03*
D18*
X017154Y010778D03*
X017154Y009676D03*
X021485Y009676D03*
X021485Y010778D03*
D19*
X019871Y011998D03*
X018769Y011998D03*
X018611Y008061D03*
X019713Y008061D03*
D20*
X013001Y007313D03*
X012253Y007313D03*
X010442Y007313D03*
X009694Y007313D03*
X010068Y006447D03*
X012627Y006447D03*
D21*
X013187Y008455D03*
X012067Y008455D03*
X010628Y008455D03*
X009508Y008455D03*
D22*
X001800Y011802D03*
X001800Y002353D03*
X030540Y002353D03*
X030540Y011802D03*
D23*
X028824Y001487D03*
X027824Y001487D03*
X026824Y001487D03*
X005517Y001487D03*
X004517Y001487D03*
X003517Y001487D03*
D24*
X014670Y002439D03*
D25*
X015670Y002439D03*
X016670Y002439D03*
X017670Y002439D03*
D26*
X023028Y009565D03*
X024028Y009565D03*
X025028Y009565D03*
X026028Y009565D03*
X027028Y009565D03*
D27*
X027028Y009315D03*
X026028Y009315D03*
X025028Y009315D03*
X024028Y009315D03*
X023028Y009315D03*
D28*
X013765Y010317D03*
X012765Y010317D03*
X011765Y010317D03*
X010765Y010317D03*
X009765Y010317D03*
X008765Y010317D03*
X007765Y010317D03*
X006765Y010317D03*
X006765Y011317D03*
X007765Y011317D03*
X008765Y011317D03*
X009765Y011317D03*
X010765Y011317D03*
X011765Y011317D03*
X012765Y011317D03*
X013765Y011317D03*
D29*
X017154Y010778D02*
X017509Y011132D01*
X018650Y011132D01*
X019005Y011132D01*
X019123Y011014D01*
X019123Y010778D01*
X019123Y009676D01*
X019123Y009124D01*
X018690Y008691D01*
X018690Y008140D01*
X018611Y008061D01*
X019713Y008061D02*
X019753Y008180D01*
X019753Y008652D01*
X019320Y009085D01*
X019320Y009676D01*
X019517Y009676D02*
X019517Y009321D01*
X019674Y009164D01*
X020028Y009164D01*
X020776Y008416D01*
X020776Y007156D01*
X020816Y007117D01*
X021485Y007235D02*
X021485Y008534D01*
X020737Y009282D01*
X020737Y009715D01*
X020422Y010030D01*
X019871Y010030D01*
X019871Y010227D02*
X020619Y010227D01*
X021091Y009754D01*
X021406Y009754D01*
X021485Y009676D01*
X020658Y010424D02*
X019871Y010424D01*
X019871Y010621D02*
X020028Y010621D01*
X020422Y011014D01*
X020658Y010424D02*
X021013Y010778D01*
X021485Y010778D01*
X019753Y011093D02*
X019517Y010857D01*
X019517Y010778D01*
X019517Y010975D01*
X019674Y011132D01*
X019320Y011054D02*
X019871Y011605D01*
X019871Y011998D01*
X019320Y011054D02*
X019320Y010778D01*
X018769Y010621D02*
X018335Y010621D01*
X018335Y010424D02*
X018769Y010424D01*
X018769Y010030D02*
X018335Y010030D01*
D30*
X001644Y001165D02*
X001342Y001246D01*
X001071Y001402D01*
X000850Y001624D01*
X000693Y001894D01*
X000612Y002196D01*
X000602Y002353D01*
X000602Y011738D01*
X000602Y011739D01*
X000602Y011813D01*
X000602Y011813D01*
X000611Y011968D01*
X000611Y011968D01*
X000690Y012266D01*
X000843Y012533D01*
X001060Y012752D01*
X001326Y012908D01*
X001624Y012989D01*
X001778Y013000D01*
X030544Y013000D01*
X030700Y012989D01*
X031001Y012908D01*
X031272Y012751D01*
X031492Y012530D01*
X031648Y012260D01*
X031728Y011958D01*
X031738Y011802D01*
X031738Y011802D01*
X031738Y011727D01*
X031738Y007099D01*
X031592Y007160D01*
X031418Y007160D01*
X031257Y007093D01*
X031134Y006970D01*
X031094Y006872D01*
X031094Y007452D01*
X030954Y007591D01*
X029994Y008551D01*
X030012Y008593D01*
X030012Y008711D01*
X029966Y008821D01*
X029882Y008905D01*
X029773Y008950D01*
X029654Y008950D01*
X029544Y008905D01*
X029460Y008821D01*
X029415Y008711D01*
X029415Y008593D01*
X029460Y008483D01*
X029475Y008468D01*
X029475Y008396D01*
X030617Y007254D01*
X030617Y006872D01*
X030576Y006970D01*
X030453Y007093D01*
X030292Y007160D01*
X030119Y007160D01*
X029958Y007093D01*
X029835Y006970D01*
X029769Y006810D01*
X029769Y006636D01*
X029835Y006475D01*
X029958Y006353D01*
X030119Y006286D01*
X030292Y006286D01*
X030453Y006353D01*
X030576Y006475D01*
X030617Y006574D01*
X030617Y005887D01*
X030575Y005986D01*
X030453Y006109D01*
X030292Y006175D01*
X030118Y006175D01*
X029958Y006109D01*
X029835Y005986D01*
X029768Y005826D01*
X029768Y005652D01*
X029835Y005491D01*
X029958Y005368D01*
X030118Y005302D01*
X030292Y005302D01*
X030453Y005368D01*
X030575Y005491D01*
X030642Y005652D01*
X030642Y005811D01*
X030756Y005697D01*
X030953Y005500D01*
X031131Y005500D01*
X031135Y005491D01*
X031258Y005368D01*
X031418Y005302D01*
X031592Y005302D01*
X031738Y005362D01*
X031738Y005131D01*
X031592Y005191D01*
X031418Y005191D01*
X031257Y005125D01*
X031134Y005002D01*
X031068Y004841D01*
X031068Y004667D01*
X031134Y004507D01*
X031257Y004384D01*
X031418Y004318D01*
X031592Y004318D01*
X031738Y004378D01*
X031738Y002353D01*
X031728Y002196D01*
X031647Y001894D01*
X031491Y001624D01*
X031269Y001402D01*
X030999Y001246D01*
X030697Y001165D01*
X030540Y001155D01*
X029191Y001155D01*
X029318Y001282D01*
X029318Y001691D01*
X029046Y001963D01*
X029046Y003986D01*
X029576Y004516D01*
X029831Y004516D01*
X029835Y004507D01*
X029958Y004384D01*
X030119Y004318D01*
X030292Y004318D01*
X030453Y004384D01*
X030576Y004507D01*
X030642Y004667D01*
X030642Y004841D01*
X030576Y005002D01*
X030453Y005125D01*
X030292Y005191D01*
X030119Y005191D01*
X029958Y005125D01*
X029835Y005002D01*
X029831Y004993D01*
X029378Y004993D01*
X028709Y004324D01*
X028569Y004184D01*
X028569Y001932D01*
X028329Y001691D01*
X028329Y001282D01*
X028456Y001155D01*
X028191Y001155D01*
X028318Y001282D01*
X028318Y001691D01*
X028062Y001947D01*
X028062Y002137D01*
X027550Y002648D01*
X027411Y002788D01*
X026172Y002788D01*
X026172Y004774D01*
X025660Y005286D01*
X025660Y007530D01*
X026072Y007941D01*
X026820Y007941D01*
X026960Y008081D01*
X027135Y008256D01*
X027275Y008396D01*
X027275Y008575D01*
X027386Y008575D01*
X027468Y008657D01*
X027468Y008927D01*
X027471Y008935D01*
X027822Y009286D01*
X027831Y009282D01*
X028005Y009282D01*
X028166Y009349D01*
X028288Y009471D01*
X028355Y009632D01*
X028355Y009806D01*
X028288Y009966D01*
X028166Y010089D01*
X028005Y010156D01*
X027831Y010156D01*
X027671Y010089D01*
X027548Y009966D01*
X027481Y009806D01*
X027481Y009632D01*
X027485Y009623D01*
X027468Y009606D01*
X027468Y009973D01*
X027386Y010055D01*
X026670Y010055D01*
X026588Y009973D01*
X026588Y008657D01*
X026670Y008575D01*
X026780Y008575D01*
X026623Y008418D01*
X025874Y008418D01*
X025735Y008278D01*
X025184Y007727D01*
X025184Y005089D01*
X025323Y004949D01*
X025323Y004949D01*
X025695Y004577D01*
X025695Y002609D01*
X025008Y001922D01*
X024046Y001922D01*
X024095Y001942D01*
X024179Y002026D01*
X024224Y002136D01*
X024224Y002255D01*
X024179Y002364D01*
X024095Y002448D01*
X023985Y002494D01*
X023957Y002494D01*
X023456Y002967D01*
X023456Y004380D01*
X023771Y004695D01*
X023771Y008575D01*
X023790Y008575D01*
X023790Y005616D01*
X023864Y005542D01*
X023864Y005522D01*
X023909Y005412D01*
X023993Y005328D01*
X024103Y005283D01*
X024222Y005283D01*
X024331Y005328D01*
X024415Y005412D01*
X024461Y005522D01*
X024461Y005641D01*
X024415Y005750D01*
X024331Y005834D01*
X024267Y005861D01*
X024267Y008575D01*
X024386Y008575D01*
X024468Y008657D01*
X024468Y009973D01*
X024386Y010055D01*
X023771Y010055D01*
X023771Y010870D01*
X023785Y010885D01*
X023831Y010994D01*
X023831Y011113D01*
X023785Y011223D01*
X023701Y011307D01*
X023592Y011352D01*
X023473Y011352D01*
X023363Y011307D01*
X023279Y011223D01*
X023234Y011113D01*
X023234Y010994D01*
X023279Y010885D01*
X023294Y010870D01*
X023294Y010055D01*
X022670Y010055D01*
X022588Y009973D01*
X022588Y008657D01*
X022670Y008575D01*
X023294Y008575D01*
X023294Y004893D01*
X023119Y004717D01*
X022979Y004578D01*
X022979Y002959D01*
X022976Y002957D01*
X022979Y002861D01*
X022979Y002766D01*
X022982Y002763D01*
X022982Y002759D01*
X023051Y002694D01*
X023119Y002626D01*
X023123Y002626D01*
X023628Y002149D01*
X023628Y002136D01*
X023673Y002026D01*
X023757Y001942D01*
X023806Y001922D01*
X021625Y001922D01*
X021625Y002144D01*
X021559Y002304D01*
X021436Y002427D01*
X021276Y002493D01*
X020513Y002493D01*
X020353Y002427D01*
X020230Y002304D01*
X020164Y002144D01*
X020164Y002001D01*
X019460Y002001D01*
X019460Y002144D01*
X019393Y002304D01*
X019271Y002427D01*
X019111Y002493D01*
X018966Y002493D01*
X018298Y003160D01*
X018159Y003300D01*
X016802Y003300D01*
X016851Y003320D01*
X016935Y003404D01*
X016980Y003514D01*
X016980Y003535D01*
X017117Y003671D01*
X017117Y007524D01*
X017132Y007538D01*
X017177Y007648D01*
X017177Y007766D01*
X017132Y007876D01*
X017048Y007960D01*
X016938Y008006D01*
X016819Y008006D01*
X016710Y007960D01*
X016626Y007876D01*
X016580Y007766D01*
X016580Y007648D01*
X016586Y007635D01*
X016536Y007685D01*
X016426Y007730D01*
X016308Y007730D01*
X016198Y007685D01*
X016133Y007620D01*
X016133Y008239D01*
X015857Y008515D01*
X015718Y008654D01*
X015484Y008654D01*
X015484Y008797D01*
X015402Y008879D01*
X014576Y008879D01*
X014494Y008797D01*
X014494Y008775D01*
X014379Y008890D01*
X014283Y008987D01*
X014283Y010137D01*
X014205Y010215D01*
X014205Y010500D01*
X014125Y010579D01*
X016660Y010579D01*
X016660Y010405D01*
X016742Y010323D01*
X017567Y010323D01*
X017649Y010405D01*
X017649Y010932D01*
X018428Y010932D01*
X018481Y010879D01*
X018560Y010847D01*
X018520Y010824D01*
X018487Y010790D01*
X018463Y010749D01*
X018451Y010703D01*
X018451Y010621D01*
X018514Y010621D01*
X018514Y010621D01*
X018451Y010621D01*
X018451Y010538D01*
X018455Y010522D01*
X018451Y010506D01*
X018451Y010424D01*
X018514Y010424D01*
X018514Y010424D01*
X018451Y010424D01*
X018451Y010341D01*
X018463Y010295D01*
X018487Y010254D01*
X018491Y010250D01*
X018491Y010204D01*
X018487Y010200D01*
X018463Y010159D01*
X018451Y010113D01*
X018451Y010030D01*
X018571Y010030D01*
X018571Y010030D01*
X018571Y010030D01*
X018451Y010030D01*
X018451Y009947D01*
X018463Y009901D01*
X018487Y009860D01*
X018491Y009856D01*
X018491Y009716D01*
X018573Y009634D01*
X018923Y009634D01*
X018923Y009207D01*
X018607Y008891D01*
X018490Y008774D01*
X018490Y008556D01*
X018238Y008556D01*
X018156Y008474D01*
X018156Y007649D01*
X018238Y007567D01*
X018984Y007567D01*
X019066Y007649D01*
X019066Y008474D01*
X018984Y008556D01*
X018890Y008556D01*
X018890Y008609D01*
X019323Y009042D01*
X019323Y009232D01*
X019474Y009081D01*
X019591Y008964D01*
X019946Y008964D01*
X020576Y008333D01*
X020576Y007299D01*
X020563Y007286D01*
X020517Y007176D01*
X020517Y007057D01*
X020563Y006948D01*
X020647Y006864D01*
X020756Y006818D01*
X020875Y006818D01*
X020985Y006864D01*
X021069Y006948D01*
X021114Y007057D01*
X021114Y007176D01*
X021069Y007286D01*
X020985Y007370D01*
X020976Y007373D01*
X020976Y008499D01*
X020859Y008616D01*
X020111Y009364D01*
X019757Y009364D01*
X019717Y009404D01*
X019717Y009594D01*
X019871Y009594D01*
X020032Y009594D01*
X020078Y009606D01*
X020119Y009630D01*
X020153Y009664D01*
X020176Y009705D01*
X020189Y009750D01*
X020189Y009830D01*
X020339Y009830D01*
X020537Y009632D01*
X020537Y009199D01*
X021285Y008451D01*
X021285Y007457D01*
X021232Y007404D01*
X021187Y007294D01*
X021187Y007175D01*
X021232Y007066D01*
X021316Y006982D01*
X021426Y006936D01*
X021544Y006936D01*
X021654Y006982D01*
X021738Y007066D01*
X021783Y007175D01*
X021783Y007294D01*
X021738Y007404D01*
X021685Y007457D01*
X021685Y008617D01*
X021568Y008734D01*
X021081Y009221D01*
X021897Y009221D01*
X021979Y009303D01*
X021979Y010049D01*
X021897Y010131D01*
X021073Y010131D01*
X021035Y010093D01*
X020823Y010306D01*
X020991Y010473D01*
X020991Y010405D01*
X021073Y010323D01*
X021897Y010323D01*
X021979Y010405D01*
X021979Y011151D01*
X021897Y011233D01*
X021073Y011233D01*
X020991Y011151D01*
X020991Y010978D01*
X020930Y010978D01*
X020813Y010861D01*
X020575Y010624D01*
X020314Y010624D01*
X020406Y010716D01*
X020481Y010716D01*
X020591Y010761D01*
X020675Y010845D01*
X020720Y010955D01*
X020720Y011074D01*
X020675Y011183D01*
X020591Y011267D01*
X020481Y011313D01*
X020363Y011313D01*
X020253Y011267D01*
X020169Y011183D01*
X020124Y011074D01*
X020124Y010999D01*
X019946Y010821D01*
X019788Y010821D01*
X019787Y010820D01*
X019756Y010820D01*
X019756Y010939D01*
X019743Y010985D01*
X019720Y011026D01*
X019686Y011060D01*
X019645Y011084D01*
X019635Y011086D01*
X019954Y011405D01*
X020053Y011504D01*
X020244Y011504D01*
X020326Y011586D01*
X020326Y012411D01*
X020268Y012469D01*
X020402Y012469D01*
X020927Y011944D01*
X021067Y011804D01*
X026519Y011804D01*
X028509Y009815D01*
X028505Y009806D01*
X028505Y009632D01*
X028571Y009471D01*
X028694Y009349D01*
X028855Y009282D01*
X029029Y009282D01*
X029189Y009349D01*
X029312Y009471D01*
X029379Y009632D01*
X029379Y009796D01*
X030348Y009796D01*
X030348Y009662D01*
X030430Y009580D01*
X031256Y009580D01*
X031338Y009662D01*
X031338Y010408D01*
X031256Y010490D01*
X030430Y010490D01*
X030348Y010408D01*
X030348Y010273D01*
X029159Y010273D01*
X029038Y010152D01*
X029029Y010156D01*
X028855Y010156D01*
X028846Y010152D01*
X026717Y012281D01*
X021264Y012281D01*
X020739Y012806D01*
X020600Y012946D01*
X011229Y012946D01*
X010678Y012394D01*
X010538Y012255D01*
X010538Y011713D01*
X010325Y011500D01*
X010325Y011135D01*
X010582Y010877D01*
X010947Y010877D01*
X011205Y011135D01*
X011205Y011500D01*
X011015Y011689D01*
X011015Y012057D01*
X011426Y012469D01*
X018315Y012469D01*
X018310Y012463D01*
X018286Y012422D01*
X018274Y012377D01*
X018274Y012076D01*
X018691Y012076D01*
X018691Y011921D01*
X018274Y011921D01*
X018274Y011620D01*
X018286Y011575D01*
X018310Y011534D01*
X018343Y011500D01*
X018384Y011476D01*
X018430Y011464D01*
X018691Y011464D01*
X018691Y011921D01*
X018846Y011921D01*
X018846Y012076D01*
X019263Y012076D01*
X019263Y012377D01*
X019251Y012422D01*
X019228Y012463D01*
X019222Y012469D01*
X019474Y012469D01*
X019416Y012411D01*
X019416Y011586D01*
X019493Y011509D01*
X019202Y011218D01*
X019088Y011332D01*
X018872Y011332D01*
X018819Y011385D01*
X018710Y011431D01*
X018591Y011431D01*
X018481Y011385D01*
X018428Y011332D01*
X017426Y011332D01*
X017326Y011233D01*
X016742Y011233D01*
X016660Y011151D01*
X016660Y011056D01*
X014182Y011056D01*
X014245Y011119D01*
X016660Y011119D01*
X017371Y011277D02*
X014245Y011277D01*
X014245Y011297D02*
X014245Y011119D01*
X014245Y011297D02*
X013785Y011297D01*
X013785Y011337D01*
X014245Y011337D01*
X014245Y011516D01*
X013963Y011797D01*
X013785Y011797D01*
X013785Y011337D01*
X013745Y011337D01*
X013745Y011297D01*
X013285Y011297D01*
X013285Y011119D01*
X013245Y011119D01*
X013245Y011297D01*
X012785Y011297D01*
X012785Y011337D01*
X013245Y011337D01*
X013245Y011516D01*
X012963Y011797D01*
X012785Y011797D01*
X012785Y011337D01*
X012745Y011337D01*
X012745Y011297D01*
X012285Y011297D01*
X012285Y011119D01*
X012188Y011119D01*
X012205Y011135D02*
X011947Y010877D01*
X011582Y010877D01*
X011325Y011135D01*
X011325Y011500D01*
X011582Y011757D01*
X011947Y011757D01*
X012205Y011500D01*
X012205Y011135D01*
X012285Y011119D02*
X012566Y010837D01*
X012625Y010837D01*
X012526Y010739D01*
X012526Y010701D01*
X012325Y010500D01*
X012325Y010135D01*
X012526Y009934D01*
X012526Y009440D01*
X012174Y009088D01*
X011859Y009402D01*
X009615Y009402D01*
X009475Y009263D01*
X009269Y009057D01*
X009269Y008950D01*
X009135Y008950D01*
X009053Y008868D01*
X009053Y008042D01*
X009135Y007960D01*
X009269Y007960D01*
X009269Y007401D01*
X009357Y007313D01*
X009357Y006980D01*
X009439Y006898D01*
X009949Y006898D01*
X010031Y006980D01*
X010031Y007647D01*
X009949Y007729D01*
X009746Y007729D01*
X009746Y007960D01*
X009881Y007960D01*
X009963Y008042D01*
X009963Y008868D01*
X009906Y008925D01*
X010230Y008925D01*
X010173Y008868D01*
X010173Y008042D01*
X010255Y007960D01*
X010389Y007960D01*
X010389Y007729D01*
X010187Y007729D01*
X010105Y007647D01*
X010105Y006980D01*
X010187Y006898D01*
X010697Y006898D01*
X010779Y006980D01*
X010779Y007313D01*
X010866Y007401D01*
X010866Y007960D01*
X011001Y007960D01*
X011083Y008042D01*
X011083Y008256D01*
X011183Y008256D01*
X011198Y008242D01*
X011308Y008196D01*
X011426Y008196D01*
X011536Y008242D01*
X011612Y008318D01*
X011612Y008042D01*
X011694Y007960D01*
X011829Y007960D01*
X011829Y007401D01*
X011916Y007313D01*
X011916Y006980D01*
X011998Y006898D01*
X012508Y006898D01*
X012590Y006980D01*
X012590Y007647D01*
X012508Y007729D01*
X012305Y007729D01*
X012305Y007960D01*
X012440Y007960D01*
X012522Y008042D01*
X012522Y008761D01*
X012863Y009103D01*
X013003Y009242D01*
X013003Y009934D01*
X013205Y010135D01*
X013205Y010500D01*
X013125Y010579D01*
X013404Y010579D01*
X013325Y010500D01*
X013325Y010135D01*
X013582Y009877D01*
X013806Y009877D01*
X013806Y008789D01*
X013881Y008714D01*
X013788Y008714D01*
X013678Y008669D01*
X013664Y008654D01*
X013642Y008654D01*
X013642Y008868D01*
X013560Y008950D01*
X012814Y008950D01*
X012732Y008868D01*
X012732Y008042D01*
X012814Y007960D01*
X012948Y007960D01*
X012948Y007729D01*
X012746Y007729D01*
X012664Y007647D01*
X012664Y006980D01*
X012746Y006898D01*
X013256Y006898D01*
X013338Y006980D01*
X013338Y007313D01*
X013425Y007401D01*
X013425Y007960D01*
X013560Y007960D01*
X013642Y008042D01*
X013642Y008177D01*
X013664Y008177D01*
X013678Y008163D01*
X013788Y008117D01*
X013907Y008117D01*
X014016Y008163D01*
X014042Y008188D01*
X014042Y007412D01*
X014387Y007066D01*
X014494Y007066D01*
X014494Y006932D01*
X014576Y006850D01*
X014751Y006850D01*
X014751Y005916D01*
X014615Y005780D01*
X014475Y005641D01*
X014475Y003339D01*
X013906Y003339D01*
X013512Y002946D01*
X013373Y002806D01*
X013373Y002493D01*
X013229Y002493D01*
X013069Y002427D01*
X012947Y002304D01*
X012880Y002144D01*
X012880Y002001D01*
X012176Y002001D01*
X012176Y002144D01*
X012110Y002304D01*
X011988Y002427D01*
X011828Y002493D01*
X011603Y002493D01*
X010796Y003300D01*
X006663Y003300D01*
X006487Y003475D01*
X006487Y003941D01*
X006502Y003955D01*
X006547Y004065D01*
X006547Y004184D01*
X006502Y004294D01*
X006418Y004377D01*
X006308Y004423D01*
X006189Y004423D01*
X006080Y004377D01*
X005996Y004294D01*
X005950Y004184D01*
X005950Y004065D01*
X005996Y003955D01*
X006010Y003941D01*
X006010Y003475D01*
X004516Y001981D01*
X004312Y001981D01*
X004022Y001691D01*
X004022Y001282D01*
X004149Y001155D01*
X003884Y001155D01*
X004011Y001282D01*
X004011Y001691D01*
X003721Y001981D01*
X003312Y001981D01*
X003022Y001691D01*
X003022Y001282D01*
X003149Y001155D01*
X001800Y001155D01*
X001644Y001165D01*
X001605Y001203D02*
X001720Y001190D01*
X001720Y002273D01*
X000637Y002273D01*
X000650Y002157D01*
X000679Y002030D01*
X000723Y001907D01*
X000779Y001789D01*
X000849Y001678D01*
X000931Y001576D01*
X001023Y001483D01*
X001125Y001402D01*
X001236Y001332D01*
X001354Y001275D01*
X001477Y001232D01*
X001605Y001203D01*
X001720Y001292D02*
X001880Y001292D01*
X001880Y001190D02*
X001995Y001203D01*
X002123Y001232D01*
X002246Y001275D01*
X002364Y001332D01*
X002475Y001402D01*
X002577Y001483D01*
X002669Y001576D01*
X002751Y001678D01*
X002821Y001789D01*
X002877Y001907D01*
X002921Y002030D01*
X002950Y002157D01*
X002963Y002273D01*
X001880Y002273D01*
X001880Y002433D01*
X001720Y002433D01*
X001720Y003515D01*
X001605Y003502D01*
X001477Y003473D01*
X001354Y003430D01*
X001236Y003373D01*
X001125Y003304D01*
X001023Y003222D01*
X000931Y003130D01*
X000849Y003028D01*
X000779Y002917D01*
X000723Y002799D01*
X000679Y002676D01*
X000650Y002548D01*
X000637Y002433D01*
X001720Y002433D01*
X001720Y002273D01*
X001880Y002273D01*
X001880Y001190D01*
X001320Y001292D02*
X001262Y001292D01*
X001064Y001450D02*
X001023Y001450D01*
X000904Y001609D02*
X000864Y001609D01*
X000793Y001767D02*
X000767Y001767D01*
X000716Y001926D02*
X000685Y001926D01*
X000667Y002084D02*
X000642Y002084D01*
X000641Y002243D02*
X000609Y002243D01*
X000602Y002401D02*
X001720Y002401D01*
X001720Y002243D02*
X001880Y002243D01*
X001880Y002401D02*
X004937Y002401D01*
X005095Y002560D02*
X002947Y002560D01*
X002950Y002548D02*
X002921Y002676D01*
X002877Y002799D01*
X002821Y002917D01*
X002751Y003028D01*
X002669Y003130D01*
X002577Y003222D01*
X002475Y003304D01*
X002364Y003373D01*
X002246Y003430D01*
X002123Y003473D01*
X001995Y003502D01*
X001880Y003515D01*
X001880Y002433D01*
X002963Y002433D01*
X002950Y002548D01*
X002906Y002718D02*
X005254Y002718D01*
X005769Y002560D02*
X010862Y002560D01*
X010904Y002427D02*
X010969Y002453D01*
X010599Y002823D01*
X006465Y002823D01*
X006325Y002963D01*
X006249Y003039D01*
X004956Y001746D01*
X004988Y001714D01*
X005295Y002021D01*
X005478Y002021D01*
X005478Y001525D01*
X005555Y001525D01*
X006051Y001525D01*
X006051Y001708D01*
X005738Y002021D01*
X005555Y002021D01*
X005555Y001525D01*
X005555Y001449D01*
X006051Y001449D01*
X006051Y001265D01*
X005940Y001155D01*
X010847Y001155D01*
X010781Y001220D01*
X010715Y001380D01*
X010715Y002144D01*
X010781Y002304D01*
X010904Y002427D01*
X010879Y002401D02*
X005611Y002401D01*
X005452Y002243D02*
X010756Y002243D01*
X010715Y002084D02*
X005294Y002084D01*
X005200Y001926D02*
X005135Y001926D01*
X005478Y001926D02*
X005555Y001926D01*
X005833Y001926D02*
X010715Y001926D01*
X010715Y001767D02*
X005992Y001767D01*
X006051Y001609D02*
X010715Y001609D01*
X010715Y001450D02*
X005555Y001450D01*
X005555Y001609D02*
X005478Y001609D01*
X005478Y001767D02*
X005555Y001767D01*
X005042Y001767D02*
X004977Y001767D01*
X004257Y001926D02*
X003776Y001926D01*
X003257Y001926D02*
X002884Y001926D01*
X002933Y002084D02*
X004620Y002084D01*
X004778Y002243D02*
X002959Y002243D01*
X003098Y001767D02*
X002807Y001767D01*
X002696Y001609D02*
X003022Y001609D01*
X003022Y001450D02*
X002536Y001450D01*
X002280Y001292D02*
X003022Y001292D01*
X004011Y001292D02*
X004022Y001292D01*
X004011Y001450D02*
X004022Y001450D01*
X004011Y001609D02*
X004022Y001609D01*
X004098Y001767D02*
X003935Y001767D01*
X006051Y001292D02*
X010752Y001292D01*
X012176Y002084D02*
X012880Y002084D01*
X012921Y002243D02*
X012135Y002243D01*
X012013Y002401D02*
X013044Y002401D01*
X013373Y002560D02*
X011536Y002560D01*
X011378Y002718D02*
X013373Y002718D01*
X013444Y002877D02*
X011219Y002877D01*
X011061Y003035D02*
X013602Y003035D01*
X013761Y003194D02*
X010902Y003194D01*
X010704Y002718D02*
X005928Y002718D01*
X006086Y002877D02*
X006411Y002877D01*
X006253Y003035D02*
X006245Y003035D01*
X005888Y003352D02*
X004716Y003352D01*
X004716Y003206D02*
X004716Y008514D01*
X005031Y008829D01*
X005031Y008901D01*
X005045Y008916D01*
X005091Y009026D01*
X005091Y009144D01*
X005045Y009254D01*
X004961Y009338D01*
X004851Y009384D01*
X004733Y009384D01*
X004623Y009338D01*
X004539Y009254D01*
X004494Y009144D01*
X004494Y009026D01*
X004511Y008984D01*
X004239Y008711D01*
X004239Y003206D01*
X004224Y003191D01*
X004179Y003081D01*
X004179Y002963D01*
X004224Y002853D01*
X004308Y002769D01*
X004418Y002724D01*
X004537Y002724D01*
X004646Y002769D01*
X004730Y002853D01*
X004776Y002963D01*
X004776Y003081D01*
X004730Y003191D01*
X004716Y003206D01*
X004727Y003194D02*
X005729Y003194D01*
X005571Y003035D02*
X004776Y003035D01*
X004740Y002877D02*
X005412Y002877D01*
X004214Y002877D02*
X002840Y002877D01*
X002745Y003035D02*
X004179Y003035D01*
X004227Y003194D02*
X002605Y003194D01*
X002398Y003352D02*
X004239Y003352D01*
X004239Y003511D02*
X001920Y003511D01*
X001880Y003511D02*
X001720Y003511D01*
X001680Y003511D02*
X000602Y003511D01*
X000602Y003669D02*
X004239Y003669D01*
X004716Y003669D02*
X006010Y003669D01*
X006010Y003511D02*
X004716Y003511D01*
X004716Y003828D02*
X006010Y003828D01*
X005983Y003986D02*
X004716Y003986D01*
X004716Y004145D02*
X005950Y004145D01*
X006006Y004303D02*
X004716Y004303D01*
X004716Y004462D02*
X007174Y004462D01*
X007237Y004524D02*
X007002Y004290D01*
X007002Y003959D01*
X007237Y003724D01*
X007568Y003724D01*
X007802Y003959D01*
X007802Y004290D01*
X007568Y004524D01*
X007237Y004524D01*
X007292Y004555D02*
X007634Y004555D01*
X008002Y004187D01*
X008002Y003959D01*
X008237Y003724D01*
X008438Y003724D01*
X008688Y003475D01*
X008827Y003335D01*
X012281Y003335D01*
X012670Y003724D01*
X012899Y003724D01*
X013133Y003959D01*
X013133Y004290D01*
X012899Y004524D01*
X012567Y004524D01*
X012333Y004290D01*
X012333Y004062D01*
X012083Y003812D01*
X011986Y003812D01*
X012133Y003959D01*
X012133Y004290D01*
X011899Y004524D01*
X011567Y004524D01*
X011333Y004290D01*
X011333Y003959D01*
X011480Y003812D01*
X009025Y003812D01*
X008802Y004034D01*
X008802Y004290D01*
X008568Y004524D01*
X008340Y004524D01*
X007832Y005032D01*
X007489Y005032D01*
X007078Y005444D01*
X007061Y005461D01*
X008748Y005461D01*
X009179Y005031D01*
X009179Y005010D01*
X009224Y004900D01*
X009308Y004816D01*
X009418Y004771D01*
X009537Y004771D01*
X009646Y004816D01*
X009730Y004900D01*
X009776Y005010D01*
X009776Y005129D01*
X009730Y005238D01*
X009646Y005322D01*
X009597Y005343D01*
X010002Y005343D01*
X010017Y005328D01*
X010126Y005283D01*
X010245Y005283D01*
X010355Y005328D01*
X010439Y005412D01*
X010484Y005522D01*
X010484Y005641D01*
X010439Y005750D01*
X010355Y005834D01*
X010245Y005880D01*
X010126Y005880D01*
X010017Y005834D01*
X010002Y005820D01*
X009773Y005820D01*
X009462Y006130D01*
X009731Y006130D01*
X009731Y006114D01*
X009813Y006032D01*
X010323Y006032D01*
X010405Y006114D01*
X010405Y006781D01*
X010323Y006863D01*
X009813Y006863D01*
X009731Y006781D01*
X009731Y006607D01*
X008434Y006607D01*
X008003Y007038D01*
X008003Y009934D01*
X008018Y009949D01*
X008018Y007254D01*
X008037Y007235D01*
X008037Y007215D01*
X008082Y007105D01*
X008166Y007021D01*
X008276Y006976D01*
X008395Y006976D01*
X008504Y007021D01*
X008588Y007105D01*
X008634Y007215D01*
X008634Y007333D01*
X008588Y007443D01*
X008504Y007527D01*
X008495Y007531D01*
X008495Y009965D01*
X008582Y009877D01*
X008947Y009877D01*
X009205Y010135D01*
X009205Y010500D01*
X008947Y010757D01*
X008582Y010757D01*
X008495Y010670D01*
X008495Y010877D01*
X008355Y011016D01*
X008205Y011167D01*
X008205Y011500D01*
X007947Y011757D01*
X007582Y011757D01*
X007325Y011500D01*
X007325Y011135D01*
X007582Y010877D01*
X007820Y010877D01*
X007940Y010757D01*
X007582Y010757D01*
X007325Y010500D01*
X007325Y010135D01*
X007526Y009934D01*
X007526Y009835D01*
X006308Y009835D01*
X005779Y010365D01*
X005779Y012215D01*
X005639Y012355D01*
X005394Y012600D01*
X005169Y012600D01*
X005169Y012734D01*
X005087Y012816D01*
X004261Y012816D01*
X004179Y012734D01*
X004179Y011989D01*
X004261Y011907D01*
X005087Y011907D01*
X005169Y011989D01*
X005169Y012123D01*
X005197Y012123D01*
X005302Y012018D01*
X005302Y010167D01*
X005971Y009498D01*
X006111Y009358D01*
X007526Y009358D01*
X007526Y006841D01*
X008075Y006292D01*
X007765Y006292D01*
X007235Y006822D01*
X007235Y008711D01*
X007020Y008927D01*
X007020Y008948D01*
X006974Y009057D01*
X006890Y009141D01*
X006781Y009187D01*
X006662Y009187D01*
X006552Y009141D01*
X006468Y009057D01*
X006423Y008948D01*
X006423Y008829D01*
X006468Y008719D01*
X006552Y008635D01*
X006662Y008590D01*
X006683Y008590D01*
X006758Y008514D01*
X006758Y006624D01*
X006898Y006484D01*
X007445Y005938D01*
X006663Y005938D01*
X006330Y006270D01*
X006330Y008987D01*
X006190Y009127D01*
X006101Y009216D01*
X006069Y009294D01*
X005985Y009377D01*
X005875Y009423D01*
X005756Y009423D01*
X005647Y009377D01*
X005563Y009294D01*
X005517Y009184D01*
X005517Y009065D01*
X005563Y008955D01*
X005647Y008871D01*
X005756Y008826D01*
X005816Y008826D01*
X005853Y008789D01*
X005853Y006073D01*
X006325Y005601D01*
X006343Y005583D01*
X005324Y005583D01*
X005267Y005641D01*
X005267Y008120D01*
X005276Y008123D01*
X005360Y008207D01*
X005406Y008317D01*
X005406Y008436D01*
X005360Y008545D01*
X005276Y008629D01*
X005166Y008675D01*
X005048Y008675D01*
X004938Y008629D01*
X004854Y008545D01*
X004809Y008436D01*
X004809Y008415D01*
X004790Y008396D01*
X004790Y005443D01*
X004930Y005303D01*
X005126Y005107D01*
X006741Y005107D01*
X007152Y004695D01*
X007292Y004555D01*
X007227Y004620D02*
X004716Y004620D01*
X004239Y004620D02*
X000602Y004620D01*
X000602Y004462D02*
X004239Y004462D01*
X004239Y004303D02*
X000602Y004303D01*
X000602Y004145D02*
X004239Y004145D01*
X004239Y003986D02*
X000602Y003986D01*
X000602Y003828D02*
X004239Y003828D01*
X004239Y004779D02*
X000602Y004779D01*
X000602Y004937D02*
X004239Y004937D01*
X004239Y005096D02*
X000602Y005096D01*
X000602Y005254D02*
X004239Y005254D01*
X004239Y005413D02*
X000602Y005413D01*
X000602Y005571D02*
X004239Y005571D01*
X004716Y005571D02*
X004790Y005571D01*
X004820Y005413D02*
X004716Y005413D01*
X004716Y005254D02*
X004979Y005254D01*
X004716Y005096D02*
X006751Y005096D01*
X006910Y004937D02*
X004716Y004937D01*
X004716Y004779D02*
X007068Y004779D01*
X007152Y004695D02*
X007152Y004695D01*
X007631Y004462D02*
X007728Y004462D01*
X007789Y004303D02*
X007886Y004303D01*
X007802Y004145D02*
X008002Y004145D01*
X008002Y003986D02*
X007802Y003986D01*
X007671Y003828D02*
X008133Y003828D01*
X008493Y003669D02*
X006487Y003669D01*
X006487Y003511D02*
X008651Y003511D01*
X008810Y003352D02*
X006610Y003352D01*
X006487Y003828D02*
X007133Y003828D01*
X007002Y003986D02*
X006515Y003986D01*
X006547Y004145D02*
X007002Y004145D01*
X007016Y004303D02*
X006492Y004303D01*
X007927Y004937D02*
X009209Y004937D01*
X009113Y005096D02*
X007426Y005096D01*
X007267Y005254D02*
X008955Y005254D01*
X008796Y005413D02*
X007109Y005413D01*
X007078Y005444D02*
X007078Y005444D01*
X006196Y005730D02*
X005267Y005730D01*
X005267Y005888D02*
X006037Y005888D01*
X005879Y006047D02*
X005267Y006047D01*
X005267Y006205D02*
X005853Y006205D01*
X005853Y006364D02*
X005267Y006364D01*
X005267Y006522D02*
X005853Y006522D01*
X006330Y006522D02*
X006860Y006522D01*
X007019Y006364D02*
X006330Y006364D01*
X006395Y006205D02*
X007177Y006205D01*
X007336Y006047D02*
X006553Y006047D01*
X007535Y006522D02*
X007844Y006522D01*
X007693Y006364D02*
X008003Y006364D01*
X007686Y006681D02*
X007376Y006681D01*
X007235Y006839D02*
X007527Y006839D01*
X007526Y006998D02*
X007235Y006998D01*
X007235Y007156D02*
X007526Y007156D01*
X007526Y007315D02*
X007235Y007315D01*
X007235Y007473D02*
X007526Y007473D01*
X008003Y007473D02*
X008018Y007473D01*
X008003Y007315D02*
X008018Y007315D01*
X008003Y007156D02*
X008061Y007156D01*
X008043Y006998D02*
X008222Y006998D01*
X008202Y006839D02*
X009789Y006839D01*
X009731Y006681D02*
X008360Y006681D01*
X008448Y006998D02*
X009357Y006998D01*
X009357Y007156D02*
X008610Y007156D01*
X008634Y007315D02*
X009355Y007315D01*
X009269Y007473D02*
X008558Y007473D01*
X008495Y007632D02*
X009269Y007632D01*
X009269Y007790D02*
X008495Y007790D01*
X008495Y007949D02*
X009269Y007949D01*
X009053Y008107D02*
X008495Y008107D01*
X008495Y008266D02*
X009053Y008266D01*
X009053Y008424D02*
X008495Y008424D01*
X008495Y008583D02*
X009053Y008583D01*
X009053Y008741D02*
X008495Y008741D01*
X008495Y008900D02*
X009085Y008900D01*
X009271Y009058D02*
X008495Y009058D01*
X008495Y009217D02*
X009429Y009217D01*
X009588Y009375D02*
X008495Y009375D01*
X008495Y009534D02*
X012526Y009534D01*
X012526Y009692D02*
X008495Y009692D01*
X008495Y009851D02*
X012526Y009851D01*
X012450Y010009D02*
X012079Y010009D01*
X012205Y010135D02*
X011947Y009877D01*
X011582Y009877D01*
X011325Y010135D01*
X011325Y010500D01*
X011582Y010757D01*
X011947Y010757D01*
X012205Y010500D01*
X012205Y010135D01*
X012205Y010168D02*
X012325Y010168D01*
X012325Y010326D02*
X012205Y010326D01*
X012205Y010485D02*
X012325Y010485D01*
X012468Y010643D02*
X012061Y010643D01*
X012589Y010802D02*
X008495Y010802D01*
X008582Y010877D02*
X008947Y010877D01*
X009205Y011135D01*
X009205Y011500D01*
X009003Y011701D01*
X009003Y012132D01*
X009162Y012291D01*
X009182Y012291D01*
X009292Y012336D01*
X009376Y012420D01*
X009421Y012530D01*
X009421Y012648D01*
X009376Y012758D01*
X009292Y012842D01*
X009182Y012887D01*
X009063Y012887D01*
X008954Y012842D01*
X008870Y012758D01*
X008824Y012648D01*
X008824Y012628D01*
X008526Y012330D01*
X008526Y011701D01*
X008325Y011500D01*
X008325Y011135D01*
X008582Y010877D01*
X008499Y010960D02*
X008412Y010960D01*
X008341Y011119D02*
X008253Y011119D01*
X008205Y011277D02*
X008325Y011277D01*
X008325Y011436D02*
X008205Y011436D01*
X008110Y011594D02*
X008419Y011594D01*
X008526Y011753D02*
X007951Y011753D01*
X007578Y011753D02*
X006951Y011753D01*
X006947Y011757D02*
X006582Y011757D01*
X006325Y011500D01*
X006325Y011135D01*
X006582Y010877D01*
X006947Y010877D01*
X007205Y011135D01*
X007205Y011500D01*
X006947Y011757D01*
X007110Y011594D02*
X007419Y011594D01*
X007325Y011436D02*
X007205Y011436D01*
X007205Y011277D02*
X007325Y011277D01*
X007341Y011119D02*
X007188Y011119D01*
X007030Y010960D02*
X007499Y010960D01*
X007896Y010802D02*
X005779Y010802D01*
X005779Y010960D02*
X006499Y010960D01*
X006582Y010757D02*
X006325Y010500D01*
X006325Y010135D01*
X006582Y009877D01*
X006947Y009877D01*
X007205Y010135D01*
X007205Y010500D01*
X006947Y010757D01*
X006582Y010757D01*
X006468Y010643D02*
X005779Y010643D01*
X005779Y010485D02*
X006325Y010485D01*
X006325Y010326D02*
X005817Y010326D01*
X005976Y010168D02*
X006325Y010168D01*
X006450Y010009D02*
X006134Y010009D01*
X006293Y009851D02*
X007526Y009851D01*
X007450Y010009D02*
X007079Y010009D01*
X007205Y010168D02*
X007325Y010168D01*
X007325Y010326D02*
X007205Y010326D01*
X007205Y010485D02*
X007325Y010485D01*
X007468Y010643D02*
X007061Y010643D01*
X006341Y011119D02*
X005779Y011119D01*
X005779Y011277D02*
X006325Y011277D01*
X006325Y011436D02*
X005779Y011436D01*
X005779Y011594D02*
X006419Y011594D01*
X006578Y011753D02*
X005779Y011753D01*
X005779Y011911D02*
X008526Y011911D01*
X008526Y012070D02*
X005779Y012070D01*
X005766Y012228D02*
X008526Y012228D01*
X009003Y012070D02*
X010538Y012070D01*
X010538Y012228D02*
X009099Y012228D01*
X009343Y012387D02*
X010670Y012387D01*
X010829Y012545D02*
X009421Y012545D01*
X009398Y012704D02*
X010987Y012704D01*
X011146Y012862D02*
X009243Y012862D01*
X009003Y012862D02*
X002281Y012862D01*
X002246Y012879D02*
X002364Y012822D01*
X002475Y012753D01*
X002577Y012671D01*
X002669Y012579D01*
X002751Y012476D01*
X002821Y012366D01*
X002877Y012248D01*
X002921Y012124D01*
X002950Y011997D01*
X002963Y011882D01*
X001880Y011882D01*
X001720Y011882D01*
X001720Y012964D01*
X001605Y012951D01*
X001477Y012922D01*
X001354Y012879D01*
X001236Y012822D01*
X001125Y012753D01*
X001023Y012671D01*
X000931Y012579D01*
X000849Y012476D01*
X000779Y012366D01*
X000723Y012248D01*
X000679Y012124D01*
X000650Y011997D01*
X000637Y011882D01*
X001720Y011882D01*
X001720Y011722D01*
X000637Y011722D01*
X000650Y011606D01*
X000679Y011479D01*
X000723Y011355D01*
X000779Y011238D01*
X000849Y011127D01*
X000931Y011025D01*
X001023Y010932D01*
X001125Y010851D01*
X001236Y010781D01*
X001354Y010724D01*
X001477Y010681D01*
X001605Y010652D01*
X001720Y010639D01*
X001720Y011722D01*
X001880Y011722D01*
X001880Y011882D01*
X001880Y012964D01*
X001995Y012951D01*
X002123Y012922D01*
X002246Y012879D01*
X002536Y012704D02*
X004179Y012704D01*
X004179Y012545D02*
X002696Y012545D01*
X002807Y012387D02*
X004179Y012387D01*
X004179Y012228D02*
X002884Y012228D01*
X002933Y012070D02*
X004179Y012070D01*
X004256Y011911D02*
X002959Y011911D01*
X002963Y011722D02*
X001880Y011722D01*
X001880Y010639D01*
X001995Y010652D01*
X002123Y010681D01*
X002246Y010724D01*
X002364Y010781D01*
X002475Y010851D01*
X002577Y010932D01*
X002669Y011025D01*
X002751Y011127D01*
X002821Y011238D01*
X002877Y011355D01*
X002921Y011479D01*
X002950Y011606D01*
X002963Y011722D01*
X002947Y011594D02*
X004179Y011594D01*
X004179Y011615D02*
X004179Y010982D01*
X003349Y010152D01*
X003340Y010156D01*
X003166Y010156D01*
X003005Y010089D01*
X002882Y009966D01*
X002879Y009957D01*
X001318Y009957D01*
X001304Y009972D01*
X001194Y010017D01*
X001075Y010017D01*
X000966Y009972D01*
X000882Y009888D01*
X000836Y009778D01*
X000836Y009660D01*
X000882Y009550D01*
X000966Y009466D01*
X001075Y009421D01*
X001194Y009421D01*
X001304Y009466D01*
X001318Y009481D01*
X002879Y009481D01*
X002882Y009471D01*
X003005Y009349D01*
X003166Y009282D01*
X003340Y009282D01*
X003500Y009349D01*
X003623Y009471D01*
X003690Y009632D01*
X003690Y009806D01*
X003686Y009815D01*
X004658Y010787D01*
X005087Y010787D01*
X005169Y010869D01*
X005169Y011615D01*
X005087Y011697D01*
X004261Y011697D01*
X004179Y011615D01*
X004179Y011436D02*
X002905Y011436D01*
X002840Y011277D02*
X004179Y011277D01*
X004179Y011119D02*
X002745Y011119D01*
X002605Y010960D02*
X004157Y010960D01*
X003998Y010802D02*
X002397Y010802D01*
X001919Y010643D02*
X003840Y010643D01*
X003681Y010485D02*
X000602Y010485D01*
X000602Y010643D02*
X001681Y010643D01*
X001720Y010643D02*
X001880Y010643D01*
X001880Y010802D02*
X001720Y010802D01*
X001720Y010960D02*
X001880Y010960D01*
X001880Y011119D02*
X001720Y011119D01*
X001720Y011277D02*
X001880Y011277D01*
X001880Y011436D02*
X001720Y011436D01*
X001720Y011594D02*
X001880Y011594D01*
X001880Y011753D02*
X005302Y011753D01*
X005302Y011911D02*
X005092Y011911D01*
X005169Y012070D02*
X005250Y012070D01*
X005607Y012387D02*
X008583Y012387D01*
X008742Y012545D02*
X005449Y012545D01*
X005169Y012704D02*
X008847Y012704D01*
X009003Y011911D02*
X010538Y011911D01*
X010538Y011753D02*
X009951Y011753D01*
X009947Y011757D02*
X009582Y011757D01*
X009325Y011500D01*
X009325Y011135D01*
X009582Y010877D01*
X009947Y010877D01*
X010205Y011135D01*
X010205Y011500D01*
X009947Y011757D01*
X010110Y011594D02*
X010419Y011594D01*
X010325Y011436D02*
X010205Y011436D01*
X010205Y011277D02*
X010325Y011277D01*
X010341Y011119D02*
X010188Y011119D01*
X010030Y010960D02*
X010499Y010960D01*
X010582Y010757D02*
X010325Y010500D01*
X010325Y010135D01*
X010582Y009877D01*
X010947Y009877D01*
X011205Y010135D01*
X011205Y010500D01*
X010947Y010757D01*
X010582Y010757D01*
X010468Y010643D02*
X010061Y010643D01*
X009947Y010757D02*
X009582Y010757D01*
X009325Y010500D01*
X009325Y010135D01*
X009582Y009877D01*
X009947Y009877D01*
X010205Y010135D01*
X010205Y010500D01*
X009947Y010757D01*
X009499Y010960D02*
X009030Y010960D01*
X009188Y011119D02*
X009341Y011119D01*
X009325Y011277D02*
X009205Y011277D01*
X009205Y011436D02*
X009325Y011436D01*
X009419Y011594D02*
X009110Y011594D01*
X009003Y011753D02*
X009578Y011753D01*
X011015Y011753D02*
X011578Y011753D01*
X011419Y011594D02*
X011110Y011594D01*
X011205Y011436D02*
X011325Y011436D01*
X011325Y011277D02*
X011205Y011277D01*
X011188Y011119D02*
X011341Y011119D01*
X011499Y010960D02*
X011030Y010960D01*
X011061Y010643D02*
X011468Y010643D01*
X011325Y010485D02*
X011205Y010485D01*
X011205Y010326D02*
X011325Y010326D01*
X011325Y010168D02*
X011205Y010168D01*
X011079Y010009D02*
X011450Y010009D01*
X010450Y010009D02*
X010079Y010009D01*
X010205Y010168D02*
X010325Y010168D01*
X010325Y010326D02*
X010205Y010326D01*
X010205Y010485D02*
X010325Y010485D01*
X009468Y010643D02*
X009061Y010643D01*
X009205Y010485D02*
X009325Y010485D01*
X009325Y010326D02*
X009205Y010326D01*
X009205Y010168D02*
X009325Y010168D01*
X009450Y010009D02*
X009079Y010009D01*
X008018Y009851D02*
X008003Y009851D01*
X008003Y009692D02*
X008018Y009692D01*
X008003Y009534D02*
X008018Y009534D01*
X008003Y009375D02*
X008018Y009375D01*
X008003Y009217D02*
X008018Y009217D01*
X008003Y009058D02*
X008018Y009058D01*
X008003Y008900D02*
X008018Y008900D01*
X008003Y008741D02*
X008018Y008741D01*
X008003Y008583D02*
X008018Y008583D01*
X007526Y008583D02*
X007235Y008583D01*
X007205Y008741D02*
X007526Y008741D01*
X007526Y008900D02*
X007047Y008900D01*
X006973Y009058D02*
X007526Y009058D01*
X007526Y009217D02*
X006100Y009217D01*
X006094Y009375D02*
X005987Y009375D01*
X005645Y009375D02*
X004871Y009375D01*
X004713Y009375D02*
X004551Y009375D01*
X004524Y009349D02*
X004647Y009471D01*
X004713Y009632D01*
X004713Y009806D01*
X004647Y009966D01*
X004524Y010089D01*
X004363Y010156D01*
X004189Y010156D01*
X004029Y010089D01*
X003906Y009966D01*
X003840Y009806D01*
X003840Y009632D01*
X003843Y009623D01*
X003199Y008979D01*
X003199Y008942D01*
X003025Y008942D01*
X002943Y008860D01*
X002943Y008115D01*
X003025Y008032D01*
X003851Y008032D01*
X003933Y008115D01*
X003933Y008860D01*
X003851Y008942D01*
X003837Y008942D01*
X004180Y009286D01*
X004189Y009282D01*
X004363Y009282D01*
X004524Y009349D01*
X004524Y009217D02*
X004111Y009217D01*
X003953Y009058D02*
X004494Y009058D01*
X004427Y008900D02*
X003893Y008900D01*
X003933Y008741D02*
X004269Y008741D01*
X004239Y008583D02*
X003933Y008583D01*
X003933Y008424D02*
X004239Y008424D01*
X004239Y008266D02*
X003933Y008266D01*
X003926Y008107D02*
X004239Y008107D01*
X004239Y007949D02*
X000602Y007949D01*
X000602Y008107D02*
X002950Y008107D01*
X002943Y008266D02*
X000602Y008266D01*
X000602Y008424D02*
X002943Y008424D01*
X002943Y008583D02*
X000602Y008583D01*
X000602Y008741D02*
X002943Y008741D01*
X002982Y008900D02*
X000602Y008900D01*
X000602Y009058D02*
X003279Y009058D01*
X003437Y009217D02*
X000602Y009217D01*
X000602Y009375D02*
X002979Y009375D01*
X003527Y009375D02*
X003596Y009375D01*
X003649Y009534D02*
X003754Y009534D01*
X003690Y009692D02*
X003840Y009692D01*
X003858Y009851D02*
X003722Y009851D01*
X003880Y010009D02*
X003949Y010009D01*
X004039Y010168D02*
X005302Y010168D01*
X005302Y010326D02*
X004197Y010326D01*
X004356Y010485D02*
X005302Y010485D01*
X005302Y010643D02*
X004514Y010643D01*
X005102Y010802D02*
X005302Y010802D01*
X005302Y010960D02*
X005169Y010960D01*
X005169Y011119D02*
X005302Y011119D01*
X005302Y011277D02*
X005169Y011277D01*
X005169Y011436D02*
X005302Y011436D01*
X005302Y011594D02*
X005169Y011594D01*
X003523Y010326D02*
X000602Y010326D01*
X000602Y010168D02*
X003364Y010168D01*
X002925Y010009D02*
X001213Y010009D01*
X001056Y010009D02*
X000602Y010009D01*
X000602Y009851D02*
X000866Y009851D01*
X000836Y009692D02*
X000602Y009692D01*
X000602Y009534D02*
X000898Y009534D01*
X000602Y010802D02*
X001203Y010802D01*
X000995Y010960D02*
X000602Y010960D01*
X000602Y011119D02*
X000855Y011119D01*
X000760Y011277D02*
X000602Y011277D01*
X000602Y011436D02*
X000695Y011436D01*
X000653Y011594D02*
X000602Y011594D01*
X000602Y011753D02*
X001720Y011753D01*
X001720Y011911D02*
X001880Y011911D01*
X001880Y012070D02*
X001720Y012070D01*
X001720Y012228D02*
X001880Y012228D01*
X001880Y012387D02*
X001720Y012387D01*
X001720Y012545D02*
X001880Y012545D01*
X001880Y012704D02*
X001720Y012704D01*
X001720Y012862D02*
X001880Y012862D01*
X001319Y012862D02*
X001249Y012862D01*
X001064Y012704D02*
X001012Y012704D01*
X000904Y012545D02*
X000855Y012545D01*
X000793Y012387D02*
X000759Y012387D01*
X000716Y012228D02*
X000680Y012228D01*
X000667Y012070D02*
X000638Y012070D01*
X000641Y011911D02*
X000608Y011911D01*
X004604Y010009D02*
X005460Y010009D01*
X005618Y009851D02*
X004695Y009851D01*
X004713Y009692D02*
X005777Y009692D01*
X005935Y009534D02*
X004673Y009534D01*
X005061Y009217D02*
X005531Y009217D01*
X005520Y009058D02*
X005091Y009058D01*
X005031Y008900D02*
X005618Y008900D01*
X005853Y008741D02*
X004943Y008741D01*
X004891Y008583D02*
X004785Y008583D01*
X004809Y008424D02*
X004716Y008424D01*
X004716Y008266D02*
X004790Y008266D01*
X004790Y008107D02*
X004716Y008107D01*
X004716Y007949D02*
X004790Y007949D01*
X004790Y007790D02*
X004716Y007790D01*
X004716Y007632D02*
X004790Y007632D01*
X004239Y007632D02*
X003973Y007632D01*
X003973Y007706D02*
X003960Y007752D01*
X003937Y007793D01*
X003903Y007827D01*
X003862Y007850D01*
X003816Y007863D01*
X003515Y007863D01*
X003515Y007445D01*
X003360Y007445D01*
X003360Y007290D01*
X003515Y007290D01*
X003515Y006873D01*
X003816Y006873D01*
X003862Y006885D01*
X003903Y006909D01*
X003937Y006942D01*
X003960Y006983D01*
X003973Y007029D01*
X003973Y007290D01*
X003515Y007290D01*
X003515Y007445D01*
X003973Y007445D01*
X003973Y007706D01*
X003938Y007790D02*
X004239Y007790D01*
X004239Y007473D02*
X003973Y007473D01*
X004239Y007315D02*
X003515Y007315D01*
X003360Y007315D02*
X000602Y007315D01*
X000602Y007473D02*
X002903Y007473D01*
X002903Y007445D02*
X002903Y007706D01*
X002915Y007752D01*
X002939Y007793D01*
X002972Y007827D01*
X003013Y007850D01*
X003059Y007863D01*
X003360Y007863D01*
X003360Y007445D01*
X002903Y007445D01*
X002903Y007290D02*
X002903Y007029D01*
X002915Y006983D01*
X002939Y006942D01*
X002972Y006909D01*
X003013Y006885D01*
X003059Y006873D01*
X003360Y006873D01*
X003360Y007290D01*
X002903Y007290D01*
X002903Y007156D02*
X000602Y007156D01*
X000602Y006998D02*
X002911Y006998D01*
X003360Y006998D02*
X003515Y006998D01*
X003515Y007156D02*
X003360Y007156D01*
X003360Y007473D02*
X003515Y007473D01*
X003515Y007632D02*
X003360Y007632D01*
X003360Y007790D02*
X003515Y007790D01*
X002937Y007790D02*
X000602Y007790D01*
X000602Y007632D02*
X002903Y007632D01*
X003973Y007156D02*
X004239Y007156D01*
X004239Y006998D02*
X003964Y006998D01*
X004239Y006839D02*
X000602Y006839D01*
X000602Y006681D02*
X004239Y006681D01*
X004716Y006681D02*
X004790Y006681D01*
X004790Y006839D02*
X004716Y006839D01*
X004716Y006998D02*
X004790Y006998D01*
X004790Y007156D02*
X004716Y007156D01*
X004716Y007315D02*
X004790Y007315D01*
X004790Y007473D02*
X004716Y007473D01*
X005267Y007473D02*
X005853Y007473D01*
X005853Y007315D02*
X005267Y007315D01*
X005267Y007156D02*
X005853Y007156D01*
X005853Y006998D02*
X005267Y006998D01*
X005267Y006839D02*
X005853Y006839D01*
X005853Y006681D02*
X005267Y006681D01*
X004790Y006522D02*
X004716Y006522D01*
X004716Y006364D02*
X004790Y006364D01*
X004790Y006205D02*
X004716Y006205D01*
X004716Y006047D02*
X004790Y006047D01*
X004790Y005888D02*
X004716Y005888D01*
X004716Y005730D02*
X004790Y005730D01*
X004239Y005730D02*
X000602Y005730D01*
X000602Y005888D02*
X004239Y005888D01*
X004239Y006047D02*
X000602Y006047D01*
X000602Y006205D02*
X004239Y006205D01*
X004239Y006364D02*
X000602Y006364D01*
X000602Y006522D02*
X004239Y006522D01*
X006330Y006681D02*
X006758Y006681D01*
X006758Y006839D02*
X006330Y006839D01*
X006330Y006998D02*
X006758Y006998D01*
X006758Y007156D02*
X006330Y007156D01*
X006330Y007315D02*
X006758Y007315D01*
X006758Y007473D02*
X006330Y007473D01*
X006330Y007632D02*
X006758Y007632D01*
X006758Y007790D02*
X006330Y007790D01*
X006330Y007949D02*
X006758Y007949D01*
X006758Y008107D02*
X006330Y008107D01*
X006330Y008266D02*
X006758Y008266D01*
X006758Y008424D02*
X006330Y008424D01*
X005853Y008424D02*
X005406Y008424D01*
X005384Y008266D02*
X005853Y008266D01*
X005853Y008107D02*
X005267Y008107D01*
X005267Y007949D02*
X005853Y007949D01*
X005853Y007790D02*
X005267Y007790D01*
X005267Y007632D02*
X005853Y007632D01*
X007235Y007632D02*
X007526Y007632D01*
X007526Y007790D02*
X007235Y007790D01*
X007235Y007949D02*
X007526Y007949D01*
X007526Y008107D02*
X007235Y008107D01*
X007235Y008266D02*
X007526Y008266D01*
X007526Y008424D02*
X007235Y008424D01*
X006689Y008583D02*
X006330Y008583D01*
X006330Y008741D02*
X006459Y008741D01*
X006423Y008900D02*
X006330Y008900D01*
X006258Y009058D02*
X006469Y009058D01*
X005853Y008583D02*
X005323Y008583D01*
X008003Y008424D02*
X008018Y008424D01*
X008003Y008266D02*
X008018Y008266D01*
X008003Y008107D02*
X008018Y008107D01*
X008003Y007949D02*
X008018Y007949D01*
X008003Y007790D02*
X008018Y007790D01*
X008003Y007632D02*
X008018Y007632D01*
X009746Y007790D02*
X010389Y007790D01*
X010389Y007949D02*
X009746Y007949D01*
X009963Y008107D02*
X010173Y008107D01*
X010173Y008266D02*
X009963Y008266D01*
X009963Y008424D02*
X010173Y008424D01*
X010173Y008583D02*
X009963Y008583D01*
X009963Y008741D02*
X010173Y008741D01*
X010204Y008900D02*
X009931Y008900D01*
X011560Y008266D02*
X011612Y008266D01*
X011612Y008107D02*
X011083Y008107D01*
X010866Y007949D02*
X011829Y007949D01*
X011829Y007790D02*
X010866Y007790D01*
X010866Y007632D02*
X011829Y007632D01*
X011829Y007473D02*
X010866Y007473D01*
X010780Y007315D02*
X011914Y007315D01*
X011916Y007156D02*
X011789Y007156D01*
X011817Y007128D02*
X011733Y007212D01*
X011623Y007258D01*
X011504Y007258D01*
X011395Y007212D01*
X011311Y007128D01*
X011265Y007018D01*
X011265Y006900D01*
X011311Y006790D01*
X011395Y006706D01*
X011504Y006661D01*
X011525Y006661D01*
X011977Y006209D01*
X012290Y006209D01*
X012290Y006114D01*
X012372Y006032D01*
X012882Y006032D01*
X012964Y006114D01*
X012964Y006209D01*
X013316Y006209D01*
X013886Y006779D01*
X013907Y006779D01*
X014016Y006824D01*
X014100Y006908D01*
X014146Y007018D01*
X014146Y007137D01*
X014100Y007246D01*
X014016Y007330D01*
X013907Y007376D01*
X013788Y007376D01*
X013678Y007330D01*
X013594Y007246D01*
X013549Y007137D01*
X013549Y007116D01*
X013119Y006686D01*
X012964Y006686D01*
X012964Y006781D01*
X012882Y006863D01*
X012372Y006863D01*
X012290Y006781D01*
X012290Y006686D01*
X012174Y006686D01*
X011862Y006998D01*
X011862Y007018D01*
X011817Y007128D01*
X011862Y006998D02*
X011916Y006998D01*
X012021Y006839D02*
X012348Y006839D01*
X012590Y006998D02*
X012664Y006998D01*
X012664Y007156D02*
X012590Y007156D01*
X012590Y007315D02*
X012664Y007315D01*
X012664Y007473D02*
X012590Y007473D01*
X012590Y007632D02*
X012664Y007632D01*
X012948Y007790D02*
X012305Y007790D01*
X012305Y007949D02*
X012948Y007949D01*
X012732Y008107D02*
X012522Y008107D01*
X012522Y008266D02*
X012732Y008266D01*
X012732Y008424D02*
X012522Y008424D01*
X012522Y008583D02*
X012732Y008583D01*
X012732Y008741D02*
X012522Y008741D01*
X012661Y008900D02*
X012763Y008900D01*
X012819Y009058D02*
X013806Y009058D01*
X013806Y008900D02*
X013610Y008900D01*
X013642Y008741D02*
X013854Y008741D01*
X014283Y009058D02*
X018774Y009058D01*
X018923Y009217D02*
X017619Y009217D01*
X017653Y009250D01*
X017676Y009291D01*
X017689Y009337D01*
X017689Y009598D01*
X017232Y009598D01*
X017232Y009753D01*
X017689Y009753D01*
X017689Y010014D01*
X017676Y010060D01*
X017653Y010101D01*
X017619Y010135D01*
X017578Y010158D01*
X017532Y010171D01*
X017232Y010171D01*
X017232Y009753D01*
X017077Y009753D01*
X017077Y009598D01*
X017232Y009598D01*
X017232Y009181D01*
X017532Y009181D01*
X017578Y009193D01*
X017619Y009217D01*
X017689Y009375D02*
X018923Y009375D01*
X019323Y009217D02*
X019338Y009217D01*
X019323Y009058D02*
X019497Y009058D01*
X019181Y008900D02*
X020009Y008900D01*
X020168Y008741D02*
X019023Y008741D01*
X018890Y008583D02*
X019328Y008583D01*
X019329Y008584D02*
X019288Y008560D01*
X019254Y008526D01*
X019231Y008485D01*
X019218Y008439D01*
X019218Y008139D01*
X019636Y008139D01*
X019636Y008596D01*
X019375Y008596D01*
X019329Y008584D01*
X019636Y008583D02*
X019791Y008583D01*
X019791Y008596D02*
X020052Y008596D01*
X020098Y008584D01*
X020139Y008560D01*
X020172Y008526D01*
X020196Y008485D01*
X020208Y008439D01*
X020208Y008139D01*
X019791Y008139D01*
X019791Y007984D01*
X020208Y007984D01*
X020208Y007683D01*
X020196Y007638D01*
X020172Y007597D01*
X020139Y007563D01*
X020098Y007539D01*
X020052Y007527D01*
X019791Y007527D01*
X019791Y007984D01*
X019636Y007984D01*
X019636Y007527D01*
X019375Y007527D01*
X019329Y007539D01*
X019288Y007563D01*
X019254Y007597D01*
X019231Y007638D01*
X019218Y007683D01*
X019218Y007984D01*
X019636Y007984D01*
X019636Y008139D01*
X019791Y008139D01*
X019791Y008596D01*
X020099Y008583D02*
X020326Y008583D01*
X020208Y008424D02*
X020485Y008424D01*
X020576Y008266D02*
X020208Y008266D01*
X020576Y008107D02*
X019791Y008107D01*
X019636Y008107D02*
X019066Y008107D01*
X019066Y007949D02*
X019218Y007949D01*
X019218Y007790D02*
X019066Y007790D01*
X019049Y007632D02*
X019234Y007632D01*
X019636Y007632D02*
X019791Y007632D01*
X019791Y007790D02*
X019636Y007790D01*
X019636Y007949D02*
X019791Y007949D01*
X020208Y007949D02*
X020576Y007949D01*
X020576Y007790D02*
X020208Y007790D01*
X020193Y007632D02*
X020576Y007632D01*
X020976Y007632D02*
X021285Y007632D01*
X021285Y007790D02*
X020976Y007790D01*
X020976Y007949D02*
X021285Y007949D01*
X021285Y008107D02*
X020976Y008107D01*
X020976Y008266D02*
X021285Y008266D01*
X021285Y008424D02*
X020976Y008424D01*
X020892Y008583D02*
X021153Y008583D01*
X020995Y008741D02*
X020734Y008741D01*
X020836Y008900D02*
X020575Y008900D01*
X020678Y009058D02*
X020417Y009058D01*
X020537Y009217D02*
X020258Y009217D01*
X020537Y009375D02*
X019745Y009375D01*
X019717Y009534D02*
X020537Y009534D01*
X020477Y009692D02*
X020169Y009692D01*
X019871Y009692D02*
X019871Y009692D01*
X019871Y009594D02*
X019871Y009830D01*
X019871Y009830D01*
X019871Y009594D01*
X018923Y009534D02*
X017689Y009534D01*
X017232Y009534D02*
X017077Y009534D01*
X017077Y009598D02*
X017077Y009181D01*
X016776Y009181D01*
X016731Y009193D01*
X016689Y009217D01*
X014283Y009217D01*
X014283Y009375D02*
X016620Y009375D01*
X016620Y009337D02*
X016632Y009291D01*
X016656Y009250D01*
X016689Y009217D01*
X016620Y009337D02*
X016620Y009598D01*
X017077Y009598D01*
X017077Y009692D02*
X014283Y009692D01*
X014283Y009534D02*
X016620Y009534D01*
X016620Y009753D02*
X017077Y009753D01*
X017077Y010171D01*
X016776Y010171D01*
X016731Y010158D01*
X016689Y010135D01*
X016656Y010101D01*
X016632Y010060D01*
X016620Y010014D01*
X016620Y009753D01*
X016620Y009851D02*
X014283Y009851D01*
X014283Y010009D02*
X016620Y010009D01*
X016766Y010168D02*
X014251Y010168D01*
X014205Y010326D02*
X016739Y010326D01*
X017077Y010168D02*
X017232Y010168D01*
X017232Y010009D02*
X017077Y010009D01*
X017077Y009851D02*
X017232Y009851D01*
X017232Y009692D02*
X018514Y009692D01*
X018491Y009851D02*
X017689Y009851D01*
X017689Y010009D02*
X018451Y010009D01*
X018468Y010168D02*
X017543Y010168D01*
X017570Y010326D02*
X018455Y010326D01*
X018768Y010426D02*
X018768Y010621D01*
X018769Y010621D01*
X018769Y010426D01*
X018768Y010426D01*
X018768Y010485D02*
X018769Y010485D01*
X018451Y010485D02*
X017649Y010485D01*
X017649Y010643D02*
X018451Y010643D01*
X018498Y010802D02*
X017649Y010802D01*
X016660Y010485D02*
X014205Y010485D01*
X013325Y010485D02*
X013205Y010485D01*
X013205Y010326D02*
X013325Y010326D01*
X013325Y010168D02*
X013205Y010168D01*
X013079Y010009D02*
X013450Y010009D01*
X013806Y009851D02*
X013003Y009851D01*
X013003Y009692D02*
X013806Y009692D01*
X013806Y009534D02*
X013003Y009534D01*
X013003Y009375D02*
X013806Y009375D01*
X013806Y009217D02*
X012978Y009217D01*
X012462Y009375D02*
X011886Y009375D01*
X012045Y009217D02*
X012303Y009217D01*
X014370Y008900D02*
X018615Y008900D01*
X018490Y008741D02*
X015484Y008741D01*
X015789Y008583D02*
X018490Y008583D01*
X018156Y008424D02*
X015948Y008424D01*
X016106Y008266D02*
X018156Y008266D01*
X018156Y008107D02*
X016133Y008107D01*
X016133Y007949D02*
X016698Y007949D01*
X016590Y007790D02*
X016133Y007790D01*
X016133Y007632D02*
X016145Y007632D01*
X017059Y007949D02*
X018156Y007949D01*
X018156Y007790D02*
X017167Y007790D01*
X017171Y007632D02*
X018173Y007632D01*
X017117Y007473D02*
X020576Y007473D01*
X020576Y007315D02*
X017117Y007315D01*
X017117Y007156D02*
X020517Y007156D01*
X020542Y006998D02*
X017117Y006998D01*
X017117Y006839D02*
X020705Y006839D01*
X020926Y006839D02*
X023294Y006839D01*
X023294Y006681D02*
X017117Y006681D01*
X017117Y006522D02*
X023294Y006522D01*
X023294Y006364D02*
X017117Y006364D01*
X017117Y006205D02*
X023294Y006205D01*
X023294Y006047D02*
X017117Y006047D01*
X017117Y005888D02*
X019638Y005888D01*
X019662Y005913D02*
X019579Y005829D01*
X019533Y005719D01*
X019533Y005601D01*
X019579Y005491D01*
X019662Y005407D01*
X019772Y005361D01*
X019793Y005361D01*
X019930Y005225D01*
X021144Y005225D01*
X021159Y005210D01*
X021268Y005165D01*
X021387Y005165D01*
X021497Y005210D01*
X021581Y005294D01*
X021626Y005404D01*
X021626Y005522D01*
X021581Y005632D01*
X021497Y005716D01*
X021387Y005761D01*
X021268Y005761D01*
X021159Y005716D01*
X021144Y005701D01*
X020130Y005701D01*
X020130Y005719D01*
X020084Y005829D01*
X020001Y005913D01*
X019891Y005958D01*
X019772Y005958D01*
X019662Y005913D01*
X019537Y005730D02*
X017117Y005730D01*
X017117Y005571D02*
X019545Y005571D01*
X019656Y005413D02*
X017117Y005413D01*
X017117Y005254D02*
X019900Y005254D01*
X019851Y005092D02*
X019733Y005092D01*
X019623Y005047D01*
X019539Y004963D01*
X019494Y004853D01*
X019494Y004734D01*
X019539Y004625D01*
X019623Y004541D01*
X019662Y004524D01*
X019441Y004524D01*
X019207Y004290D01*
X019207Y003959D01*
X019441Y003724D01*
X019619Y003724D01*
X019908Y003435D01*
X020048Y003295D01*
X021820Y003295D01*
X022351Y003826D01*
X022371Y003826D01*
X022481Y003871D01*
X022565Y003955D01*
X022610Y004065D01*
X022610Y004184D01*
X022565Y004294D01*
X022481Y004377D01*
X022371Y004423D01*
X022252Y004423D01*
X022143Y004377D01*
X022059Y004294D01*
X022013Y004184D01*
X022013Y004163D01*
X021623Y003772D01*
X020821Y003772D01*
X021007Y003959D01*
X021007Y004290D01*
X020773Y004524D01*
X020441Y004524D01*
X020207Y004290D01*
X020207Y003959D01*
X020394Y003772D01*
X020245Y003772D01*
X020007Y004010D01*
X020007Y004290D01*
X019802Y004495D01*
X019851Y004495D01*
X019961Y004541D01*
X019976Y004555D01*
X021376Y004555D01*
X021426Y004535D01*
X021544Y004535D01*
X021654Y004580D01*
X021738Y004664D01*
X021783Y004774D01*
X021783Y004892D01*
X021738Y005002D01*
X021654Y005086D01*
X021544Y005132D01*
X021426Y005132D01*
X021316Y005086D01*
X021262Y005032D01*
X019976Y005032D01*
X019961Y005047D01*
X019851Y005092D01*
X019529Y004937D02*
X017117Y004937D01*
X017117Y004779D02*
X019494Y004779D01*
X019543Y004620D02*
X017117Y004620D01*
X017117Y004462D02*
X019379Y004462D01*
X019220Y004303D02*
X017117Y004303D01*
X017117Y004145D02*
X019207Y004145D01*
X019207Y003986D02*
X017117Y003986D01*
X017117Y003828D02*
X019338Y003828D01*
X019674Y003669D02*
X017115Y003669D01*
X016979Y003511D02*
X019832Y003511D01*
X019991Y003352D02*
X016883Y003352D01*
X016783Y002823D02*
X017459Y002823D01*
X017441Y002814D01*
X017385Y002773D01*
X017336Y002724D01*
X017296Y002669D01*
X017265Y002607D01*
X017243Y002542D01*
X017233Y002474D01*
X017233Y002439D01*
X017233Y002405D01*
X017243Y002337D01*
X017265Y002271D01*
X017296Y002210D01*
X017336Y002154D01*
X017385Y002106D01*
X017441Y002065D01*
X017502Y002034D01*
X017568Y002013D01*
X017636Y002002D01*
X017670Y002002D01*
X017670Y002439D01*
X017670Y002439D01*
X017670Y002002D01*
X017705Y002002D01*
X017773Y002013D01*
X017838Y002034D01*
X017899Y002065D01*
X017955Y002106D01*
X018002Y002153D01*
X017999Y002144D01*
X017999Y001380D01*
X018065Y001220D01*
X018130Y001155D01*
X014210Y001155D01*
X014275Y001220D01*
X014342Y001380D01*
X014342Y002144D01*
X014318Y002202D01*
X014434Y002086D01*
X014587Y002022D01*
X014753Y002022D01*
X014906Y002086D01*
X015024Y002203D01*
X015087Y002356D01*
X015087Y002522D01*
X015024Y002676D01*
X014906Y002793D01*
X014834Y002823D01*
X015558Y002823D01*
X015445Y002776D01*
X015333Y002665D01*
X015273Y002518D01*
X015273Y002360D01*
X015333Y002214D01*
X015445Y002102D01*
X015591Y002042D01*
X015749Y002042D01*
X015895Y002102D01*
X016007Y002214D01*
X016068Y002360D01*
X016068Y002518D01*
X016007Y002665D01*
X015895Y002776D01*
X015783Y002823D01*
X016558Y002823D01*
X016445Y002776D01*
X016333Y002665D01*
X016273Y002518D01*
X016273Y002360D01*
X016333Y002214D01*
X016445Y002102D01*
X016591Y002042D01*
X016749Y002042D01*
X016895Y002102D01*
X017007Y002214D01*
X017068Y002360D01*
X017068Y002518D01*
X017007Y002665D01*
X016895Y002776D01*
X016783Y002823D01*
X016953Y002718D02*
X017332Y002718D01*
X017249Y002560D02*
X017050Y002560D01*
X017068Y002401D02*
X017233Y002401D01*
X017233Y002439D02*
X017670Y002439D01*
X017670Y002439D01*
X017670Y002439D01*
X018108Y002439D01*
X018108Y002405D01*
X018097Y002337D01*
X018096Y002336D01*
X018187Y002427D01*
X018308Y002476D01*
X017961Y002823D01*
X017881Y002823D01*
X017899Y002814D01*
X017955Y002773D01*
X018004Y002724D01*
X018044Y002669D01*
X018076Y002607D01*
X018097Y002542D01*
X018108Y002474D01*
X018108Y002439D01*
X017670Y002439D01*
X017233Y002439D01*
X017279Y002243D02*
X017019Y002243D01*
X016852Y002084D02*
X017414Y002084D01*
X017670Y002084D02*
X017670Y002084D01*
X017670Y002243D02*
X017670Y002243D01*
X017670Y002401D02*
X017670Y002401D01*
X018107Y002401D02*
X018162Y002401D01*
X018224Y002560D02*
X018091Y002560D01*
X018066Y002718D02*
X018008Y002718D01*
X018582Y002877D02*
X022978Y002877D01*
X022979Y003035D02*
X018423Y003035D01*
X018265Y003194D02*
X022979Y003194D01*
X022979Y003352D02*
X021877Y003352D01*
X022035Y003511D02*
X022979Y003511D01*
X022979Y003669D02*
X022194Y003669D01*
X022376Y003828D02*
X022979Y003828D01*
X022979Y003986D02*
X022578Y003986D01*
X022610Y004145D02*
X022979Y004145D01*
X022979Y004303D02*
X022555Y004303D01*
X022069Y004303D02*
X020994Y004303D01*
X021007Y004145D02*
X021995Y004145D01*
X021837Y003986D02*
X021007Y003986D01*
X020876Y003828D02*
X021678Y003828D01*
X020835Y004462D02*
X022979Y004462D01*
X023022Y004620D02*
X021694Y004620D01*
X021783Y004779D02*
X023180Y004779D01*
X023294Y004937D02*
X021765Y004937D01*
X021631Y005096D02*
X023294Y005096D01*
X023294Y005254D02*
X021541Y005254D01*
X021626Y005413D02*
X023294Y005413D01*
X023294Y005571D02*
X021606Y005571D01*
X021463Y005730D02*
X023294Y005730D01*
X023294Y005888D02*
X020025Y005888D01*
X020126Y005730D02*
X021192Y005730D01*
X021340Y005096D02*
X017117Y005096D01*
X014723Y005888D02*
X009704Y005888D01*
X009798Y006047D02*
X009545Y006047D01*
X010338Y006047D02*
X012357Y006047D01*
X012290Y006205D02*
X010405Y006205D01*
X010405Y006364D02*
X011822Y006364D01*
X011663Y006522D02*
X010405Y006522D01*
X010405Y006681D02*
X011456Y006681D01*
X011290Y006839D02*
X010346Y006839D01*
X010105Y006998D02*
X010031Y006998D01*
X010031Y007156D02*
X010105Y007156D01*
X010105Y007315D02*
X010031Y007315D01*
X010031Y007473D02*
X010105Y007473D01*
X010105Y007632D02*
X010031Y007632D01*
X010779Y007156D02*
X011339Y007156D01*
X011265Y006998D02*
X010779Y006998D01*
X012905Y006839D02*
X013272Y006839D01*
X013338Y006998D02*
X013431Y006998D01*
X013338Y007156D02*
X013557Y007156D01*
X013663Y007315D02*
X013339Y007315D01*
X013425Y007473D02*
X014042Y007473D01*
X014032Y007315D02*
X014139Y007315D01*
X014137Y007156D02*
X014297Y007156D01*
X014137Y006998D02*
X014494Y006998D01*
X014751Y006839D02*
X014031Y006839D01*
X013788Y006681D02*
X014751Y006681D01*
X014751Y006522D02*
X013630Y006522D01*
X013471Y006364D02*
X014751Y006364D01*
X014751Y006205D02*
X012964Y006205D01*
X012897Y006047D02*
X014751Y006047D01*
X014564Y005730D02*
X010447Y005730D01*
X010484Y005571D02*
X014475Y005571D01*
X014475Y005413D02*
X010439Y005413D01*
X009776Y005096D02*
X014475Y005096D01*
X014475Y005254D02*
X009714Y005254D01*
X009746Y004937D02*
X014475Y004937D01*
X014475Y004779D02*
X009556Y004779D01*
X009399Y004779D02*
X008085Y004779D01*
X008244Y004620D02*
X014475Y004620D01*
X014475Y004462D02*
X012961Y004462D01*
X013120Y004303D02*
X014475Y004303D01*
X014475Y004145D02*
X013133Y004145D01*
X013133Y003986D02*
X014475Y003986D01*
X014475Y003828D02*
X013002Y003828D01*
X012615Y003669D02*
X014475Y003669D01*
X014475Y003511D02*
X012457Y003511D01*
X012298Y003352D02*
X014475Y003352D01*
X014981Y002718D02*
X015387Y002718D01*
X015290Y002560D02*
X015072Y002560D01*
X015087Y002401D02*
X015273Y002401D01*
X015321Y002243D02*
X015040Y002243D01*
X014903Y002084D02*
X015489Y002084D01*
X015852Y002084D02*
X016489Y002084D01*
X016321Y002243D02*
X016019Y002243D01*
X016068Y002401D02*
X016273Y002401D01*
X016290Y002560D02*
X016050Y002560D01*
X015953Y002718D02*
X016387Y002718D01*
X017926Y002084D02*
X017999Y002084D01*
X017999Y001926D02*
X014342Y001926D01*
X014342Y002084D02*
X014437Y002084D01*
X014342Y001767D02*
X017999Y001767D01*
X017999Y001609D02*
X014342Y001609D01*
X014342Y001450D02*
X017999Y001450D01*
X018035Y001292D02*
X014305Y001292D01*
X018740Y002718D02*
X023025Y002718D01*
X023193Y002560D02*
X018899Y002560D01*
X019296Y002401D02*
X020327Y002401D01*
X020205Y002243D02*
X019419Y002243D01*
X019460Y002084D02*
X020164Y002084D01*
X021462Y002401D02*
X023361Y002401D01*
X023528Y002243D02*
X021584Y002243D01*
X021625Y002084D02*
X023649Y002084D01*
X023797Y001926D02*
X021625Y001926D01*
X021625Y001445D02*
X025206Y001445D01*
X025346Y001585D01*
X026033Y002272D01*
X026072Y002311D01*
X027213Y002311D01*
X027581Y001943D01*
X027352Y001714D01*
X027045Y002021D01*
X026862Y002021D01*
X026862Y001525D01*
X026786Y001525D01*
X026786Y002021D01*
X026602Y002021D01*
X026289Y001708D01*
X026289Y001525D01*
X026786Y001525D01*
X026786Y001449D01*
X026289Y001449D01*
X026289Y001265D01*
X026400Y001155D01*
X021493Y001155D01*
X021559Y001220D01*
X021625Y001380D01*
X021625Y001445D01*
X021588Y001292D02*
X026289Y001292D01*
X026786Y001450D02*
X025211Y001450D01*
X025346Y001585D02*
X025346Y001585D01*
X025370Y001609D02*
X026289Y001609D01*
X026349Y001767D02*
X025528Y001767D01*
X025687Y001926D02*
X026507Y001926D01*
X026786Y001926D02*
X026862Y001926D01*
X027140Y001926D02*
X027564Y001926D01*
X027440Y002084D02*
X025845Y002084D01*
X026004Y002243D02*
X027281Y002243D01*
X027797Y002401D02*
X028569Y002401D01*
X028569Y002243D02*
X027956Y002243D01*
X028062Y002084D02*
X028569Y002084D01*
X028564Y001926D02*
X028084Y001926D01*
X028242Y001767D02*
X028405Y001767D01*
X028329Y001609D02*
X028318Y001609D01*
X028318Y001450D02*
X028329Y001450D01*
X028318Y001292D02*
X028329Y001292D01*
X029318Y001292D02*
X030060Y001292D01*
X030094Y001275D02*
X029976Y001332D01*
X029865Y001402D01*
X029763Y001483D01*
X029671Y001576D01*
X029589Y001678D01*
X029520Y001789D01*
X029463Y001907D01*
X029420Y002030D01*
X029391Y002157D01*
X029378Y002273D01*
X030460Y002273D01*
X030460Y002433D01*
X030460Y003515D01*
X030345Y003502D01*
X030217Y003473D01*
X030094Y003430D01*
X029976Y003373D01*
X029865Y003304D01*
X029763Y003222D01*
X029671Y003130D01*
X029589Y003028D01*
X029520Y002917D01*
X029463Y002799D01*
X029420Y002676D01*
X029391Y002548D01*
X029378Y002433D01*
X030460Y002433D01*
X030620Y002433D01*
X030620Y003515D01*
X030735Y003502D01*
X030863Y003473D01*
X030986Y003430D01*
X031104Y003373D01*
X031215Y003304D01*
X031317Y003222D01*
X031410Y003130D01*
X031491Y003028D01*
X031561Y002917D01*
X031617Y002799D01*
X031661Y002676D01*
X031690Y002548D01*
X031703Y002433D01*
X030620Y002433D01*
X030620Y002273D01*
X031703Y002273D01*
X031690Y002157D01*
X031661Y002030D01*
X031617Y001907D01*
X031561Y001789D01*
X031491Y001678D01*
X031410Y001576D01*
X031317Y001483D01*
X031215Y001402D01*
X031104Y001332D01*
X030986Y001275D01*
X030863Y001232D01*
X030735Y001203D01*
X030620Y001190D01*
X030620Y002273D01*
X030460Y002273D01*
X030460Y001190D01*
X030345Y001203D01*
X030217Y001232D01*
X030094Y001275D01*
X029804Y001450D02*
X029318Y001450D01*
X029318Y001609D02*
X029644Y001609D01*
X029533Y001767D02*
X029242Y001767D01*
X029084Y001926D02*
X029456Y001926D01*
X029407Y002084D02*
X029046Y002084D01*
X029046Y002243D02*
X029381Y002243D01*
X029046Y002401D02*
X030460Y002401D01*
X030460Y002243D02*
X030620Y002243D01*
X030620Y002401D02*
X031738Y002401D01*
X031731Y002243D02*
X031699Y002243D01*
X031698Y002084D02*
X031673Y002084D01*
X031655Y001926D02*
X031624Y001926D01*
X031574Y001767D02*
X031547Y001767D01*
X031476Y001609D02*
X031436Y001609D01*
X031317Y001450D02*
X031276Y001450D01*
X031078Y001292D02*
X031020Y001292D01*
X030620Y001292D02*
X030460Y001292D01*
X030460Y001450D02*
X030620Y001450D01*
X030620Y001609D02*
X030460Y001609D01*
X030460Y001767D02*
X030620Y001767D01*
X030620Y001926D02*
X030460Y001926D01*
X030460Y002084D02*
X030620Y002084D01*
X030620Y002560D02*
X030460Y002560D01*
X030460Y002718D02*
X030620Y002718D01*
X030620Y002877D02*
X030460Y002877D01*
X030460Y003035D02*
X030620Y003035D01*
X030620Y003194D02*
X030460Y003194D01*
X030460Y003352D02*
X030620Y003352D01*
X030620Y003511D02*
X030460Y003511D01*
X030420Y003511D02*
X029046Y003511D01*
X029046Y003669D02*
X031738Y003669D01*
X031738Y003511D02*
X030661Y003511D01*
X031138Y003352D02*
X031738Y003352D01*
X031738Y003194D02*
X031346Y003194D01*
X031485Y003035D02*
X031738Y003035D01*
X031738Y002877D02*
X031580Y002877D01*
X031646Y002718D02*
X031738Y002718D01*
X031738Y002560D02*
X031687Y002560D01*
X029943Y003352D02*
X029046Y003352D01*
X029046Y003194D02*
X029735Y003194D01*
X029595Y003035D02*
X029046Y003035D01*
X029046Y002877D02*
X029500Y002877D01*
X029435Y002718D02*
X029046Y002718D01*
X029046Y002560D02*
X029393Y002560D01*
X028569Y002560D02*
X027639Y002560D01*
X027480Y002718D02*
X028569Y002718D01*
X028569Y002877D02*
X026172Y002877D01*
X026172Y003035D02*
X028569Y003035D01*
X028569Y003194D02*
X026172Y003194D01*
X026172Y003352D02*
X028569Y003352D01*
X028569Y003511D02*
X026172Y003511D01*
X026172Y003669D02*
X028569Y003669D01*
X028569Y003828D02*
X026172Y003828D01*
X026172Y003986D02*
X028569Y003986D01*
X028569Y004145D02*
X026172Y004145D01*
X026172Y004303D02*
X028689Y004303D01*
X028847Y004462D02*
X026172Y004462D01*
X026172Y004620D02*
X029006Y004620D01*
X029164Y004779D02*
X026168Y004779D01*
X026009Y004937D02*
X029323Y004937D01*
X029327Y005144D02*
X029470Y005144D01*
X029601Y005199D01*
X029702Y005300D01*
X029757Y005431D01*
X029757Y005574D01*
X029702Y005705D01*
X029601Y005806D01*
X029578Y005815D01*
X029578Y005828D01*
X029547Y005828D01*
X029470Y005861D01*
X029327Y005861D01*
X029250Y005828D01*
X027891Y005828D01*
X027891Y005421D01*
X029045Y005421D01*
X029095Y005300D01*
X029196Y005199D01*
X029327Y005144D01*
X029140Y005254D02*
X026507Y005254D01*
X026552Y005300D02*
X026452Y005199D01*
X026320Y005144D01*
X026178Y005144D01*
X026046Y005199D01*
X025945Y005300D01*
X025891Y005431D01*
X025891Y005574D01*
X025945Y005705D01*
X026046Y005806D01*
X026069Y005815D01*
X026069Y005828D01*
X026100Y005828D01*
X026178Y005861D01*
X026320Y005861D01*
X026397Y005828D01*
X027756Y005828D01*
X027891Y005828D01*
X027891Y005913D01*
X029473Y005913D01*
X029524Y005964D01*
X029578Y005964D01*
X029578Y006955D01*
X029538Y006995D01*
X029538Y007141D01*
X029601Y007167D01*
X029702Y007268D01*
X029757Y007400D01*
X029757Y007542D01*
X029702Y007674D01*
X029601Y007775D01*
X029470Y007829D01*
X029327Y007829D01*
X029196Y007775D01*
X029095Y007674D01*
X029040Y007542D01*
X029040Y007512D01*
X026607Y007512D01*
X026607Y007542D01*
X026552Y007674D01*
X026452Y007775D01*
X026320Y007829D01*
X026178Y007829D01*
X026046Y007775D01*
X025945Y007674D01*
X025891Y007542D01*
X025891Y007400D01*
X025945Y007268D01*
X026046Y007167D01*
X026109Y007141D01*
X026109Y006995D01*
X026069Y006955D01*
X026069Y005964D01*
X026123Y005964D01*
X026174Y005913D01*
X027756Y005913D01*
X027756Y005828D01*
X027756Y005421D01*
X026603Y005421D01*
X026552Y005300D01*
X026599Y005413D02*
X029048Y005413D01*
X029657Y005254D02*
X031738Y005254D01*
X031228Y005096D02*
X030482Y005096D01*
X030603Y004937D02*
X031108Y004937D01*
X031068Y004779D02*
X030642Y004779D01*
X030623Y004620D02*
X031087Y004620D01*
X031179Y004462D02*
X030531Y004462D01*
X029880Y004462D02*
X029522Y004462D01*
X029363Y004303D02*
X031738Y004303D01*
X031738Y004145D02*
X029205Y004145D01*
X029046Y003986D02*
X031738Y003986D01*
X031738Y003828D02*
X029046Y003828D01*
X029929Y005096D02*
X025851Y005096D01*
X025990Y005254D02*
X025692Y005254D01*
X025660Y005413D02*
X025898Y005413D01*
X025891Y005571D02*
X025660Y005571D01*
X025660Y005730D02*
X025970Y005730D01*
X025660Y005888D02*
X027756Y005888D01*
X027891Y005888D02*
X029794Y005888D01*
X029768Y005730D02*
X029677Y005730D01*
X029757Y005571D02*
X029802Y005571D01*
X029749Y005413D02*
X029913Y005413D01*
X030497Y005413D02*
X031213Y005413D01*
X030882Y005571D02*
X030609Y005571D01*
X030642Y005730D02*
X030724Y005730D01*
X030617Y005888D02*
X030616Y005888D01*
X030617Y006047D02*
X030515Y006047D01*
X030617Y006205D02*
X029578Y006205D01*
X029578Y006047D02*
X029896Y006047D01*
X029947Y006364D02*
X029578Y006364D01*
X029578Y006522D02*
X029816Y006522D01*
X029769Y006681D02*
X029578Y006681D01*
X029578Y006839D02*
X029781Y006839D01*
X029863Y006998D02*
X029538Y006998D01*
X029575Y007156D02*
X030110Y007156D01*
X030301Y007156D02*
X030617Y007156D01*
X030617Y006998D02*
X030548Y006998D01*
X030556Y007315D02*
X029721Y007315D01*
X029757Y007473D02*
X030397Y007473D01*
X030239Y007632D02*
X029719Y007632D01*
X029563Y007790D02*
X030080Y007790D01*
X029922Y007949D02*
X026828Y007949D01*
X026960Y008081D02*
X026960Y008081D01*
X026986Y008107D02*
X029763Y008107D01*
X029605Y008266D02*
X027145Y008266D01*
X027135Y008256D02*
X027135Y008256D01*
X027275Y008424D02*
X029475Y008424D01*
X029419Y008583D02*
X027394Y008583D01*
X027468Y008741D02*
X029427Y008741D01*
X029539Y008900D02*
X027468Y008900D01*
X027595Y009058D02*
X030308Y009058D01*
X030308Y008992D02*
X030308Y009254D01*
X030321Y009299D01*
X030344Y009340D01*
X030378Y009374D01*
X030419Y009398D01*
X030465Y009410D01*
X030766Y009410D01*
X030766Y008993D01*
X030921Y008993D01*
X030921Y009410D01*
X031222Y009410D01*
X031268Y009398D01*
X031309Y009374D01*
X031342Y009340D01*
X031366Y009299D01*
X031378Y009254D01*
X031378Y008992D01*
X030921Y008992D01*
X030921Y008838D01*
X031378Y008838D01*
X031378Y008576D01*
X031366Y008531D01*
X031342Y008490D01*
X031309Y008456D01*
X031268Y008432D01*
X031222Y008420D01*
X030921Y008420D01*
X030921Y008838D01*
X030766Y008838D01*
X030308Y008838D01*
X030308Y008576D01*
X030321Y008531D01*
X030344Y008490D01*
X030378Y008456D01*
X030419Y008432D01*
X030465Y008420D01*
X030766Y008420D01*
X030766Y008838D01*
X030766Y008992D01*
X030308Y008992D01*
X030308Y009217D02*
X027753Y009217D01*
X028192Y009375D02*
X028668Y009375D01*
X028546Y009534D02*
X028314Y009534D01*
X028355Y009692D02*
X028505Y009692D01*
X028473Y009851D02*
X028336Y009851D01*
X028314Y010009D02*
X028245Y010009D01*
X028156Y010168D02*
X023771Y010168D01*
X023771Y010326D02*
X027997Y010326D01*
X027839Y010485D02*
X023771Y010485D01*
X023771Y010643D02*
X027680Y010643D01*
X027522Y010802D02*
X023771Y010802D01*
X023817Y010960D02*
X027363Y010960D01*
X027205Y011119D02*
X023828Y011119D01*
X023731Y011277D02*
X027046Y011277D01*
X026888Y011436D02*
X019985Y011436D01*
X020326Y011594D02*
X026729Y011594D01*
X026571Y011753D02*
X020326Y011753D01*
X020326Y011911D02*
X020959Y011911D01*
X020801Y012070D02*
X020326Y012070D01*
X020326Y012228D02*
X020642Y012228D01*
X020484Y012387D02*
X020326Y012387D01*
X020841Y012704D02*
X029804Y012704D01*
X029763Y012671D02*
X029671Y012579D01*
X029589Y012476D01*
X029520Y012366D01*
X029463Y012248D01*
X029420Y012124D01*
X029391Y011997D01*
X029378Y011882D01*
X030460Y011882D01*
X030460Y012964D01*
X030345Y012951D01*
X030217Y012922D01*
X030094Y012879D01*
X029976Y012822D01*
X029865Y012753D01*
X029763Y012671D01*
X029644Y012545D02*
X021000Y012545D01*
X021158Y012387D02*
X029533Y012387D01*
X029456Y012228D02*
X026769Y012228D01*
X026928Y012070D02*
X029407Y012070D01*
X029381Y011911D02*
X027086Y011911D01*
X027245Y011753D02*
X030460Y011753D01*
X030460Y011722D02*
X029378Y011722D01*
X029391Y011606D01*
X029420Y011479D01*
X029463Y011355D01*
X029520Y011238D01*
X029589Y011127D01*
X029671Y011025D01*
X029763Y010932D01*
X029865Y010851D01*
X029976Y010781D01*
X030094Y010724D01*
X030217Y010681D01*
X030345Y010652D01*
X030460Y010639D01*
X030460Y011722D01*
X030460Y011882D01*
X030620Y011882D01*
X030620Y012964D01*
X030735Y012951D01*
X030863Y012922D01*
X030986Y012879D01*
X031104Y012822D01*
X031215Y012753D01*
X031317Y012671D01*
X031410Y012579D01*
X031491Y012476D01*
X031561Y012366D01*
X031617Y012248D01*
X031661Y012124D01*
X031690Y011997D01*
X031703Y011882D01*
X030620Y011882D01*
X030620Y011722D01*
X031703Y011722D01*
X031690Y011606D01*
X031661Y011479D01*
X031617Y011355D01*
X031561Y011238D01*
X031491Y011127D01*
X031410Y011025D01*
X031317Y010932D01*
X031215Y010851D01*
X031104Y010781D01*
X030986Y010724D01*
X030863Y010681D01*
X030735Y010652D01*
X030620Y010639D01*
X030620Y011722D01*
X030460Y011722D01*
X030460Y011594D02*
X030620Y011594D01*
X030620Y011436D02*
X030460Y011436D01*
X030460Y011277D02*
X030620Y011277D01*
X030620Y011119D02*
X030460Y011119D01*
X030460Y010960D02*
X030620Y010960D01*
X030620Y010802D02*
X030460Y010802D01*
X030460Y010643D02*
X030620Y010643D01*
X030659Y010643D02*
X031738Y010643D01*
X031738Y010485D02*
X031261Y010485D01*
X031338Y010326D02*
X031738Y010326D01*
X031738Y010168D02*
X031338Y010168D01*
X031338Y010009D02*
X031738Y010009D01*
X031738Y009851D02*
X031338Y009851D01*
X031338Y009692D02*
X031738Y009692D01*
X031738Y009534D02*
X029338Y009534D01*
X029379Y009692D02*
X030348Y009692D01*
X030380Y009375D02*
X029216Y009375D01*
X029888Y008900D02*
X030766Y008900D01*
X030921Y008900D02*
X031738Y008900D01*
X031738Y009058D02*
X031378Y009058D01*
X031378Y009217D02*
X031738Y009217D01*
X031738Y009375D02*
X031306Y009375D01*
X030921Y009375D02*
X030766Y009375D01*
X030766Y009217D02*
X030921Y009217D01*
X030921Y009058D02*
X030766Y009058D01*
X030766Y008741D02*
X030921Y008741D01*
X030921Y008583D02*
X030766Y008583D01*
X030766Y008424D02*
X030921Y008424D01*
X031238Y008424D02*
X031738Y008424D01*
X031738Y008266D02*
X030279Y008266D01*
X030121Y008424D02*
X030449Y008424D01*
X030308Y008583D02*
X030008Y008583D01*
X029999Y008741D02*
X030308Y008741D01*
X031378Y008741D02*
X031738Y008741D01*
X031738Y008583D02*
X031378Y008583D01*
X031738Y008107D02*
X030438Y008107D01*
X030596Y007949D02*
X031738Y007949D01*
X031738Y007790D02*
X030755Y007790D01*
X030913Y007632D02*
X031738Y007632D01*
X031738Y007473D02*
X031072Y007473D01*
X031094Y007315D02*
X031738Y007315D01*
X031738Y007156D02*
X031600Y007156D01*
X031410Y007156D02*
X031094Y007156D01*
X031094Y006998D02*
X031162Y006998D01*
X030617Y006522D02*
X030595Y006522D01*
X030617Y006364D02*
X030464Y006364D01*
X027891Y005730D02*
X027756Y005730D01*
X027756Y005571D02*
X027891Y005571D01*
X026069Y006047D02*
X025660Y006047D01*
X025660Y006205D02*
X026069Y006205D01*
X026069Y006364D02*
X025660Y006364D01*
X025660Y006522D02*
X026069Y006522D01*
X026069Y006681D02*
X025660Y006681D01*
X025660Y006839D02*
X026069Y006839D01*
X026109Y006998D02*
X025660Y006998D01*
X025660Y007156D02*
X026072Y007156D01*
X025926Y007315D02*
X025660Y007315D01*
X025660Y007473D02*
X025891Y007473D01*
X025928Y007632D02*
X025763Y007632D01*
X025921Y007790D02*
X026084Y007790D01*
X026413Y007790D02*
X029234Y007790D01*
X029077Y007632D02*
X026570Y007632D01*
X025564Y008107D02*
X025109Y008107D01*
X025109Y007949D02*
X025405Y007949D01*
X025247Y007790D02*
X025109Y007790D01*
X025109Y007632D02*
X025184Y007632D01*
X024632Y007632D02*
X024267Y007632D01*
X024267Y007790D02*
X024632Y007790D01*
X024632Y007949D02*
X024267Y007949D01*
X024267Y008107D02*
X024632Y008107D01*
X024632Y008266D02*
X024267Y008266D01*
X024267Y008424D02*
X024632Y008424D01*
X025109Y008424D02*
X026629Y008424D01*
X026663Y008583D02*
X026394Y008583D01*
X026386Y008575D02*
X026468Y008657D01*
X026468Y009973D01*
X026386Y010055D01*
X025670Y010055D01*
X025588Y009973D01*
X025588Y008657D01*
X025670Y008575D01*
X026386Y008575D01*
X026468Y008741D02*
X026588Y008741D01*
X026588Y008900D02*
X026468Y008900D01*
X026468Y009058D02*
X026588Y009058D01*
X026588Y009217D02*
X026468Y009217D01*
X026468Y009375D02*
X026588Y009375D01*
X026588Y009534D02*
X026468Y009534D01*
X026468Y009692D02*
X026588Y009692D01*
X026588Y009851D02*
X026468Y009851D01*
X026432Y010009D02*
X026624Y010009D01*
X027432Y010009D02*
X027591Y010009D01*
X027500Y009851D02*
X027468Y009851D01*
X027468Y009692D02*
X027481Y009692D01*
X028671Y010326D02*
X030348Y010326D01*
X030426Y010485D02*
X028513Y010485D01*
X028354Y010643D02*
X030422Y010643D01*
X029943Y010802D02*
X028196Y010802D01*
X028037Y010960D02*
X029735Y010960D01*
X029596Y011119D02*
X027879Y011119D01*
X027720Y011277D02*
X029500Y011277D01*
X029435Y011436D02*
X027562Y011436D01*
X027403Y011594D02*
X029393Y011594D01*
X030460Y011911D02*
X030620Y011911D01*
X030620Y011753D02*
X031738Y011753D01*
X031738Y011727D02*
X031738Y011727D01*
X031738Y011594D02*
X031687Y011594D01*
X031646Y011436D02*
X031738Y011436D01*
X031738Y011277D02*
X031580Y011277D01*
X031485Y011119D02*
X031738Y011119D01*
X031738Y010960D02*
X031345Y010960D01*
X031137Y010802D02*
X031738Y010802D01*
X031699Y011911D02*
X031731Y011911D01*
X031698Y012070D02*
X031673Y012070D01*
X031656Y012228D02*
X031624Y012228D01*
X031575Y012387D02*
X031547Y012387D01*
X031477Y012545D02*
X031436Y012545D01*
X031319Y012704D02*
X031276Y012704D01*
X031080Y012862D02*
X031021Y012862D01*
X030620Y012862D02*
X030460Y012862D01*
X030460Y012704D02*
X030620Y012704D01*
X030620Y012545D02*
X030460Y012545D01*
X030460Y012387D02*
X030620Y012387D01*
X030620Y012228D02*
X030460Y012228D01*
X030460Y012070D02*
X030620Y012070D01*
X030059Y012862D02*
X020683Y012862D01*
X019416Y012387D02*
X019261Y012387D01*
X019263Y012228D02*
X019416Y012228D01*
X019416Y012070D02*
X018846Y012070D01*
X018846Y011921D02*
X019263Y011921D01*
X019263Y011620D01*
X019251Y011575D01*
X019228Y011534D01*
X019194Y011500D01*
X019153Y011476D01*
X019107Y011464D01*
X018846Y011464D01*
X018846Y011921D01*
X018846Y011911D02*
X018691Y011911D01*
X018691Y011753D02*
X018846Y011753D01*
X018846Y011594D02*
X018691Y011594D01*
X018281Y011594D02*
X014166Y011594D01*
X014245Y011436D02*
X019419Y011436D01*
X019416Y011594D02*
X019256Y011594D01*
X019263Y011753D02*
X019416Y011753D01*
X019416Y011911D02*
X019263Y011911D01*
X018691Y012070D02*
X011027Y012070D01*
X011015Y011911D02*
X018274Y011911D01*
X018274Y011753D02*
X014008Y011753D01*
X013785Y011753D02*
X013745Y011753D01*
X013745Y011797D02*
X013566Y011797D01*
X013285Y011516D01*
X013285Y011337D01*
X013745Y011337D01*
X013745Y011797D01*
X013745Y011594D02*
X013785Y011594D01*
X013785Y011436D02*
X013745Y011436D01*
X013363Y011594D02*
X013166Y011594D01*
X013245Y011436D02*
X013285Y011436D01*
X013285Y011277D02*
X013245Y011277D01*
X013245Y011119D02*
X013182Y011056D01*
X013347Y011056D01*
X013285Y011119D01*
X012745Y011337D02*
X012745Y011797D01*
X012566Y011797D01*
X012285Y011516D01*
X012285Y011337D01*
X012745Y011337D01*
X012745Y011436D02*
X012785Y011436D01*
X012785Y011594D02*
X012745Y011594D01*
X012745Y011753D02*
X012785Y011753D01*
X013008Y011753D02*
X013521Y011753D01*
X012521Y011753D02*
X011951Y011753D01*
X012110Y011594D02*
X012363Y011594D01*
X012285Y011436D02*
X012205Y011436D01*
X012205Y011277D02*
X012285Y011277D01*
X012443Y010960D02*
X012030Y010960D01*
X011186Y012228D02*
X018274Y012228D01*
X018276Y012387D02*
X011344Y012387D01*
X017077Y009375D02*
X017232Y009375D01*
X017232Y009217D02*
X017077Y009217D01*
X019066Y008424D02*
X019218Y008424D01*
X019218Y008266D02*
X019066Y008266D01*
X019636Y008266D02*
X019791Y008266D01*
X019791Y008424D02*
X019636Y008424D01*
X021243Y009058D02*
X022588Y009058D01*
X022588Y008900D02*
X021402Y008900D01*
X021560Y008741D02*
X022588Y008741D01*
X022663Y008583D02*
X021685Y008583D01*
X021685Y008424D02*
X023294Y008424D01*
X023294Y008266D02*
X021685Y008266D01*
X021685Y008107D02*
X023294Y008107D01*
X023294Y007949D02*
X021685Y007949D01*
X021685Y007790D02*
X023294Y007790D01*
X023294Y007632D02*
X021685Y007632D01*
X021685Y007473D02*
X023294Y007473D01*
X023294Y007315D02*
X021775Y007315D01*
X021776Y007156D02*
X023294Y007156D01*
X023294Y006998D02*
X021670Y006998D01*
X021300Y006998D02*
X021090Y006998D01*
X021114Y007156D02*
X021194Y007156D01*
X021195Y007315D02*
X021040Y007315D01*
X020976Y007473D02*
X021285Y007473D01*
X023771Y007473D02*
X023790Y007473D01*
X023790Y007315D02*
X023771Y007315D01*
X023771Y007156D02*
X023790Y007156D01*
X023790Y006998D02*
X023771Y006998D01*
X023771Y006839D02*
X023790Y006839D01*
X023790Y006681D02*
X023771Y006681D01*
X023771Y006522D02*
X023790Y006522D01*
X023790Y006364D02*
X023771Y006364D01*
X023771Y006205D02*
X023790Y006205D01*
X023790Y006047D02*
X023771Y006047D01*
X023771Y005888D02*
X023790Y005888D01*
X023790Y005730D02*
X023771Y005730D01*
X023771Y005571D02*
X023835Y005571D01*
X023771Y005413D02*
X023909Y005413D01*
X023771Y005254D02*
X024632Y005254D01*
X024632Y005247D02*
X024536Y005150D01*
X024464Y005150D01*
X024449Y005165D01*
X024340Y005210D01*
X024221Y005210D01*
X024111Y005165D01*
X024027Y005081D01*
X023982Y004971D01*
X023982Y004853D01*
X024027Y004743D01*
X024111Y004659D01*
X024221Y004613D01*
X024340Y004613D01*
X024449Y004659D01*
X024464Y004673D01*
X024733Y004673D01*
X024970Y004910D01*
X025109Y005049D01*
X025109Y008575D01*
X025386Y008575D01*
X025468Y008657D01*
X025468Y009973D01*
X025386Y010055D01*
X024670Y010055D01*
X024588Y009973D01*
X024588Y008657D01*
X024632Y008613D01*
X024632Y005247D01*
X024632Y005413D02*
X024416Y005413D01*
X024461Y005571D02*
X024632Y005571D01*
X025109Y005571D02*
X025184Y005571D01*
X025184Y005413D02*
X025109Y005413D01*
X025109Y005254D02*
X025184Y005254D01*
X025184Y005096D02*
X025109Y005096D01*
X024997Y004937D02*
X025335Y004937D01*
X025493Y004779D02*
X024839Y004779D01*
X024772Y004524D02*
X024538Y004290D01*
X024538Y003959D01*
X024772Y003724D01*
X025103Y003724D01*
X025338Y003959D01*
X025338Y004290D01*
X025103Y004524D01*
X024772Y004524D01*
X024710Y004462D02*
X024166Y004462D01*
X024103Y004524D02*
X023772Y004524D01*
X023538Y004290D01*
X023538Y003959D01*
X023772Y003724D01*
X024103Y003724D01*
X024338Y003959D01*
X024338Y004290D01*
X024103Y004524D01*
X024204Y004620D02*
X023696Y004620D01*
X023710Y004462D02*
X023538Y004462D01*
X023551Y004303D02*
X023456Y004303D01*
X023456Y004145D02*
X023538Y004145D01*
X023538Y003986D02*
X023456Y003986D01*
X023456Y003828D02*
X023669Y003828D01*
X024207Y003828D02*
X024669Y003828D01*
X024538Y003986D02*
X024338Y003986D01*
X024338Y004145D02*
X024538Y004145D01*
X024551Y004303D02*
X024325Y004303D01*
X024356Y004620D02*
X025652Y004620D01*
X025695Y004462D02*
X025166Y004462D01*
X025325Y004303D02*
X025695Y004303D01*
X025695Y004145D02*
X025338Y004145D01*
X025338Y003986D02*
X025695Y003986D01*
X025695Y003828D02*
X025207Y003828D01*
X025695Y003669D02*
X023456Y003669D01*
X023456Y003511D02*
X025695Y003511D01*
X025695Y003352D02*
X023456Y003352D01*
X023456Y003194D02*
X025695Y003194D01*
X025695Y003035D02*
X023456Y003035D01*
X023552Y002877D02*
X025695Y002877D01*
X025695Y002718D02*
X023719Y002718D01*
X023887Y002560D02*
X025646Y002560D01*
X025488Y002401D02*
X024142Y002401D01*
X024224Y002243D02*
X025329Y002243D01*
X025171Y002084D02*
X024203Y002084D01*
X024055Y001926D02*
X025012Y001926D01*
X026033Y002272D02*
X026033Y002272D01*
X026786Y001767D02*
X026862Y001767D01*
X026862Y001609D02*
X026786Y001609D01*
X027299Y001767D02*
X027405Y001767D01*
X020379Y004462D02*
X019835Y004462D01*
X019994Y004303D02*
X020220Y004303D01*
X020207Y004145D02*
X020007Y004145D01*
X020031Y003986D02*
X020207Y003986D01*
X020190Y003828D02*
X020338Y003828D01*
X023771Y004779D02*
X024012Y004779D01*
X023982Y004937D02*
X023771Y004937D01*
X023771Y005096D02*
X024042Y005096D01*
X024424Y005730D02*
X024632Y005730D01*
X024632Y005888D02*
X024267Y005888D01*
X024267Y006047D02*
X024632Y006047D01*
X024632Y006205D02*
X024267Y006205D01*
X024267Y006364D02*
X024632Y006364D01*
X024632Y006522D02*
X024267Y006522D01*
X024267Y006681D02*
X024632Y006681D01*
X024632Y006839D02*
X024267Y006839D01*
X024267Y006998D02*
X024632Y006998D01*
X024632Y007156D02*
X024267Y007156D01*
X024267Y007315D02*
X024632Y007315D01*
X024632Y007473D02*
X024267Y007473D01*
X023790Y007632D02*
X023771Y007632D01*
X023771Y007790D02*
X023790Y007790D01*
X023790Y007949D02*
X023771Y007949D01*
X023771Y008107D02*
X023790Y008107D01*
X023790Y008266D02*
X023771Y008266D01*
X023771Y008424D02*
X023790Y008424D01*
X024394Y008583D02*
X024632Y008583D01*
X024588Y008741D02*
X024468Y008741D01*
X024468Y008900D02*
X024588Y008900D01*
X024588Y009058D02*
X024468Y009058D01*
X024468Y009217D02*
X024588Y009217D01*
X024588Y009375D02*
X024468Y009375D01*
X024468Y009534D02*
X024588Y009534D01*
X024588Y009692D02*
X024468Y009692D01*
X024468Y009851D02*
X024588Y009851D01*
X024624Y010009D02*
X024432Y010009D01*
X025432Y010009D02*
X025624Y010009D01*
X025588Y009851D02*
X025468Y009851D01*
X025468Y009692D02*
X025588Y009692D01*
X025588Y009534D02*
X025468Y009534D01*
X025468Y009375D02*
X025588Y009375D01*
X025588Y009217D02*
X025468Y009217D01*
X025468Y009058D02*
X025588Y009058D01*
X025588Y008900D02*
X025468Y008900D01*
X025468Y008741D02*
X025588Y008741D01*
X025663Y008583D02*
X025394Y008583D01*
X025109Y008266D02*
X025722Y008266D01*
X025184Y007473D02*
X025109Y007473D01*
X025109Y007315D02*
X025184Y007315D01*
X025184Y007156D02*
X025109Y007156D01*
X025109Y006998D02*
X025184Y006998D01*
X025184Y006839D02*
X025109Y006839D01*
X025109Y006681D02*
X025184Y006681D01*
X025184Y006522D02*
X025109Y006522D01*
X025109Y006364D02*
X025184Y006364D01*
X025184Y006205D02*
X025109Y006205D01*
X025109Y006047D02*
X025184Y006047D01*
X025184Y005888D02*
X025109Y005888D01*
X025109Y005730D02*
X025184Y005730D01*
X022588Y009217D02*
X021085Y009217D01*
X021979Y009375D02*
X022588Y009375D01*
X022588Y009534D02*
X021979Y009534D01*
X021979Y009692D02*
X022588Y009692D01*
X022588Y009851D02*
X021979Y009851D01*
X021979Y010009D02*
X022624Y010009D01*
X023294Y010326D02*
X021901Y010326D01*
X021979Y010485D02*
X023294Y010485D01*
X023294Y010643D02*
X021979Y010643D01*
X021979Y010802D02*
X023294Y010802D01*
X023248Y010960D02*
X021979Y010960D01*
X021979Y011119D02*
X023236Y011119D01*
X023334Y011277D02*
X020567Y011277D01*
X020702Y011119D02*
X020991Y011119D01*
X020912Y010960D02*
X020720Y010960D01*
X020754Y010802D02*
X020632Y010802D01*
X020595Y010643D02*
X020334Y010643D01*
X020085Y010960D02*
X019750Y010960D01*
X019668Y011119D02*
X020142Y011119D01*
X020278Y011277D02*
X019826Y011277D01*
X019261Y011277D02*
X019143Y011277D01*
X020844Y010326D02*
X021069Y010326D01*
X020961Y010168D02*
X023294Y010168D01*
X028830Y010168D02*
X029053Y010168D01*
X014042Y008107D02*
X013642Y008107D01*
X013425Y007949D02*
X014042Y007949D01*
X014042Y007790D02*
X013425Y007790D01*
X013425Y007632D02*
X014042Y007632D01*
X012505Y004462D02*
X011961Y004462D01*
X012120Y004303D02*
X012346Y004303D01*
X012333Y004145D02*
X012133Y004145D01*
X012133Y003986D02*
X012258Y003986D01*
X012099Y003828D02*
X012002Y003828D01*
X011464Y003828D02*
X009009Y003828D01*
X008850Y003986D02*
X011333Y003986D01*
X011333Y004145D02*
X008802Y004145D01*
X008789Y004303D02*
X011346Y004303D01*
X011505Y004462D02*
X008631Y004462D01*
X001880Y003352D02*
X001720Y003352D01*
X001720Y003194D02*
X001880Y003194D01*
X001880Y003035D02*
X001720Y003035D01*
X001720Y002877D02*
X001880Y002877D01*
X001880Y002718D02*
X001720Y002718D01*
X001720Y002560D02*
X001880Y002560D01*
X001880Y002084D02*
X001720Y002084D01*
X001720Y001926D02*
X001880Y001926D01*
X001880Y001767D02*
X001720Y001767D01*
X001720Y001609D02*
X001880Y001609D01*
X001880Y001450D02*
X001720Y001450D01*
X000653Y002560D02*
X000602Y002560D01*
X000602Y002718D02*
X000694Y002718D01*
X000760Y002877D02*
X000602Y002877D01*
X000602Y003035D02*
X000855Y003035D01*
X000995Y003194D02*
X000602Y003194D01*
X000602Y003352D02*
X001202Y003352D01*
D31*
X004123Y002432D03*
X004477Y003022D03*
X006249Y004124D03*
X008402Y004097D03*
X009477Y005069D03*
X010186Y005581D03*
X011564Y006959D03*
X013847Y007077D03*
X015894Y007077D03*
X016367Y007432D03*
X016879Y007707D03*
X013847Y008416D03*
X011367Y008495D03*
X008335Y007274D03*
X005107Y008376D03*
X004792Y009085D03*
X005816Y009124D03*
X006721Y008888D03*
X001135Y009719D03*
X001288Y007117D03*
X008178Y002156D03*
X014713Y003101D03*
X015698Y003652D03*
X016682Y003573D03*
X017391Y003573D03*
X019792Y004794D03*
X021328Y005463D03*
X019831Y005660D03*
X021485Y004833D03*
X022312Y004124D03*
X024280Y004912D03*
X024162Y005581D03*
X020816Y007117D03*
X021485Y007235D03*
X026052Y010187D03*
X023532Y011054D03*
X020422Y011014D03*
X018650Y011132D03*
X009123Y012589D03*
X029713Y008652D03*
X023926Y002195D03*
D32*
X023217Y002865D01*
X023217Y004479D01*
X023532Y004794D01*
X023532Y011054D01*
X021165Y012043D02*
X026618Y012043D01*
X028942Y009719D01*
X029257Y010035D01*
X030843Y010035D01*
X029100Y009877D02*
X028942Y009719D01*
X027918Y009719D02*
X027265Y009065D01*
X027028Y009565D01*
X027036Y009058D01*
X027036Y008495D01*
X026721Y008180D01*
X025973Y008180D01*
X025422Y007628D01*
X025422Y005187D01*
X025934Y004676D01*
X025934Y002510D01*
X025973Y002550D01*
X027312Y002550D01*
X027824Y002038D01*
X027824Y001487D01*
X028808Y001502D02*
X028824Y001487D01*
X028808Y001502D02*
X028808Y004085D01*
X029477Y004754D01*
X030206Y004754D01*
X031052Y005739D02*
X030855Y005935D01*
X030855Y007353D01*
X029713Y008495D01*
X029713Y008652D01*
X027918Y009719D02*
X027914Y009715D01*
X027918Y009719D02*
X027906Y009719D01*
X026028Y009565D02*
X026052Y009089D01*
X026052Y010187D01*
X026028Y009565D02*
X026013Y009081D01*
X025028Y009565D02*
X024871Y008908D01*
X024871Y005148D01*
X024635Y004912D01*
X024280Y004912D01*
X024162Y005581D02*
X024028Y005715D01*
X024028Y009565D01*
X021165Y012043D02*
X020501Y012707D01*
X011328Y012707D01*
X010776Y012156D01*
X010776Y011329D01*
X010765Y011317D01*
X008765Y011317D02*
X008765Y012231D01*
X009123Y012589D01*
X007765Y011317D02*
X007765Y011270D01*
X008257Y010778D01*
X008257Y007353D01*
X008335Y007274D01*
X007765Y006939D02*
X008335Y006369D01*
X009989Y006369D01*
X010068Y006447D01*
X009674Y005581D02*
X009202Y006054D01*
X007666Y006054D01*
X006997Y006723D01*
X006997Y008613D01*
X006721Y008888D01*
X006091Y008888D02*
X005855Y009124D01*
X005816Y009124D01*
X006091Y008888D02*
X006091Y006172D01*
X006564Y005699D01*
X008847Y005699D01*
X009477Y005069D01*
X009674Y005581D02*
X010186Y005581D01*
X011564Y006959D02*
X012076Y006447D01*
X012627Y006447D01*
X013217Y006447D01*
X013847Y007077D01*
X014280Y007510D02*
X014486Y007305D01*
X014989Y007305D01*
X014989Y005817D01*
X014713Y005542D01*
X014713Y003101D01*
X014753Y003061D01*
X018060Y003061D01*
X018729Y002392D01*
X018729Y001762D01*
X020894Y001762D01*
X020973Y001684D01*
X025107Y001684D01*
X025934Y002510D01*
X022312Y004124D02*
X021721Y003534D01*
X020146Y003534D01*
X019607Y004073D01*
X019607Y004124D01*
X019792Y004794D02*
X021446Y004794D01*
X021485Y004833D01*
X021328Y005463D02*
X020028Y005463D01*
X019831Y005660D01*
X016406Y006802D02*
X016406Y007392D01*
X016367Y007432D01*
X016879Y007707D02*
X016879Y003770D01*
X016682Y003573D01*
X015698Y003652D02*
X015698Y006093D01*
X016406Y006802D01*
X015894Y007077D02*
X015894Y008140D01*
X015619Y008416D01*
X014998Y008416D01*
X014989Y008424D01*
X014280Y008652D02*
X014280Y007510D01*
X013187Y007499D02*
X013001Y007313D01*
X013187Y007499D02*
X013187Y008455D01*
X013226Y008416D01*
X013847Y008416D01*
X014280Y008652D02*
X014044Y008888D01*
X014044Y010038D01*
X013765Y010317D01*
X012942Y010817D02*
X012765Y010640D01*
X012765Y010317D01*
X012765Y009341D01*
X012076Y008652D01*
X012076Y008464D01*
X012067Y008455D01*
X012067Y007499D01*
X012253Y007313D01*
X010628Y007499D02*
X010442Y007313D01*
X010628Y007499D02*
X010628Y008455D01*
X010667Y008495D01*
X011367Y008495D01*
X012076Y008652D02*
X012076Y008849D01*
X011761Y009164D01*
X009713Y009164D01*
X009508Y008958D01*
X009508Y008455D01*
X009508Y007499D01*
X009694Y007313D01*
X007765Y006939D02*
X007765Y009558D01*
X007725Y009597D01*
X006209Y009597D01*
X005540Y010266D01*
X005540Y012117D01*
X005295Y012361D01*
X004674Y012361D01*
X004674Y011242D02*
X004674Y011140D01*
X003253Y009719D01*
X001135Y009719D01*
X003438Y008880D02*
X004276Y009719D01*
X004792Y009085D02*
X004792Y008928D01*
X004477Y008613D01*
X004477Y003022D01*
X004517Y001644D02*
X006249Y003376D01*
X006564Y003061D01*
X010698Y003061D01*
X011446Y002313D01*
X011446Y001762D01*
X013611Y001762D01*
X013611Y002707D01*
X014005Y003101D01*
X014713Y003101D01*
X012733Y004124D02*
X012182Y003573D01*
X008926Y003573D01*
X008402Y004097D01*
X008402Y004124D02*
X007733Y004794D01*
X007391Y004794D01*
X006839Y005345D01*
X005225Y005345D01*
X005028Y005542D01*
X005028Y008298D01*
X005107Y008376D01*
X003438Y008487D02*
X003438Y008880D01*
X007765Y009558D02*
X007765Y010317D01*
X012942Y010817D02*
X017115Y010817D01*
X017154Y010778D01*
X031052Y005739D02*
X031505Y005739D01*
X006249Y004124D02*
X006249Y003376D01*
X004517Y001644D02*
X004517Y001487D01*
M02*
