G75*
%MOIN*%
%OFA0B0*%
%FSLAX24Y24*%
%IPPOS*%
%LPD*%
%AMOC8*
5,1,8,0,0,1.08239X$1,22.5*
%
%ADD10C,0.0030*%
%ADD11C,0.0060*%
%ADD12C,0.0197*%
%ADD13R,0.1693X0.0276*%
%ADD14C,0.0040*%
%ADD15R,0.0690X0.0290*%
%ADD16C,0.0050*%
%ADD17R,0.0669X0.0295*%
%ADD18R,0.0295X0.0669*%
%ADD19R,0.0180X0.0230*%
%ADD20R,0.0290X0.0690*%
%ADD21R,0.0200X0.0200*%
D10*
X019044Y009927D02*
X019291Y009927D01*
X019167Y009927D02*
X019167Y010297D01*
X019291Y010174D01*
X019412Y010297D02*
X019412Y009989D01*
X019474Y009927D01*
X019597Y009927D01*
X019659Y009989D01*
X019659Y010297D01*
X028438Y008185D02*
X028438Y008062D01*
X028500Y008000D01*
X028685Y008000D01*
X028685Y007876D02*
X028685Y008247D01*
X028500Y008247D01*
X028438Y008185D01*
X028561Y008000D02*
X028438Y007876D01*
X028806Y007876D02*
X029053Y007876D01*
X029053Y008247D01*
X028806Y008247D01*
X028930Y008062D02*
X029053Y008062D01*
X029175Y008000D02*
X029175Y007938D01*
X029236Y007876D01*
X029360Y007876D01*
X029422Y007938D01*
X029543Y007876D02*
X029543Y008123D01*
X029666Y008247D01*
X029790Y008123D01*
X029790Y007876D01*
X029911Y007876D02*
X030158Y007876D01*
X030158Y008247D01*
X030280Y008247D02*
X030526Y007876D01*
X030648Y007938D02*
X030710Y007876D01*
X030895Y007876D01*
X030895Y008247D01*
X030710Y008247D01*
X030648Y008185D01*
X030648Y007938D01*
X031016Y007876D02*
X031263Y007876D01*
X031263Y008247D01*
X031016Y008247D01*
X031140Y008062D02*
X031263Y008062D01*
X031631Y008247D02*
X031631Y007876D01*
X031385Y007876D01*
X029790Y008062D02*
X029543Y008062D01*
X029422Y008123D02*
X029422Y008185D01*
X029360Y008247D01*
X029236Y008247D01*
X029175Y008185D01*
X029236Y008062D02*
X029175Y008000D01*
X029236Y008062D02*
X029360Y008062D01*
X029422Y008123D01*
X029446Y003798D02*
X029384Y003736D01*
X029446Y003798D02*
X029569Y003798D01*
X029631Y003736D01*
X029631Y003675D01*
X029569Y003613D01*
X029446Y003613D01*
X029384Y003551D01*
X029384Y003489D01*
X029446Y003428D01*
X029569Y003428D01*
X029631Y003489D01*
X029752Y003489D02*
X029752Y003736D01*
X029814Y003798D01*
X029938Y003798D01*
X029999Y003736D01*
X029999Y003489D01*
X029938Y003428D01*
X029814Y003428D01*
X029752Y003489D01*
X030121Y003551D02*
X030121Y003798D01*
X030368Y003798D02*
X030368Y003551D01*
X030244Y003428D01*
X030121Y003551D01*
X030489Y003613D02*
X030489Y003736D01*
X030551Y003798D01*
X030736Y003798D01*
X030736Y003428D01*
X030857Y003428D02*
X031104Y003428D01*
X031104Y003798D01*
X030857Y003798D01*
X030981Y003613D02*
X031104Y003613D01*
X031226Y003551D02*
X031226Y003489D01*
X031287Y003428D01*
X031411Y003428D01*
X031473Y003489D01*
X031411Y003613D02*
X031287Y003613D01*
X031226Y003551D01*
X031226Y003736D02*
X031287Y003798D01*
X031411Y003798D01*
X031473Y003736D01*
X031473Y003675D01*
X031411Y003613D01*
X030736Y003551D02*
X030551Y003551D01*
X030489Y003613D01*
X030613Y003551D02*
X030489Y003428D01*
D11*
X003267Y000987D02*
X003017Y001237D01*
X003017Y001737D01*
X003267Y001987D01*
X003767Y001987D01*
X004017Y001737D01*
X004267Y001987D01*
X004767Y001987D01*
X005017Y001737D01*
X005267Y001987D01*
X005767Y001987D01*
X006017Y001737D01*
X006017Y001237D01*
X005767Y000987D01*
X005267Y000987D01*
X005017Y001237D01*
X005017Y001737D01*
X005017Y001237D02*
X004767Y000987D01*
X004267Y000987D01*
X004017Y001237D01*
X004017Y001737D01*
X004017Y001237D02*
X003767Y000987D01*
X003267Y000987D01*
X003504Y002151D02*
X003718Y002151D01*
X003825Y002258D01*
X003504Y002151D02*
X003398Y002258D01*
X003398Y002364D01*
X003504Y002471D01*
X003718Y002471D01*
X003825Y002578D01*
X003825Y002685D01*
X003718Y002791D01*
X003504Y002791D01*
X003398Y002685D01*
X004421Y002392D02*
X004848Y002392D01*
X004635Y002606D02*
X004635Y002179D01*
X005366Y002471D02*
X005793Y002471D01*
X009508Y006620D02*
X010628Y006620D01*
X010628Y007140D01*
X009508Y007140D01*
X009508Y006620D01*
X012067Y006620D02*
X013187Y006620D01*
X013187Y007140D01*
X012067Y007140D01*
X012067Y006620D01*
X014669Y007490D02*
X014669Y008245D01*
X015309Y008245D02*
X015309Y007490D01*
X013007Y008135D02*
X012252Y008135D01*
X012252Y008775D02*
X013007Y008775D01*
X013015Y009817D02*
X012515Y009817D01*
X012265Y010067D01*
X012015Y009817D01*
X011515Y009817D01*
X011265Y010067D01*
X011015Y009817D01*
X010515Y009817D01*
X010265Y010067D01*
X010015Y009817D01*
X009515Y009817D01*
X009265Y010067D01*
X009015Y009817D01*
X008515Y009817D01*
X008265Y010067D01*
X008015Y009817D01*
X007515Y009817D01*
X007265Y010067D01*
X007015Y009817D01*
X006515Y009817D01*
X006265Y010067D01*
X006265Y011567D01*
X006515Y011817D01*
X007015Y011817D01*
X007265Y011567D01*
X007515Y011817D01*
X008015Y011817D01*
X008265Y011567D01*
X008515Y011817D01*
X009015Y011817D01*
X009265Y011567D01*
X009515Y011817D01*
X010015Y011817D01*
X010265Y011567D01*
X010515Y011817D01*
X011015Y011817D01*
X011265Y011567D01*
X011515Y011817D01*
X012015Y011817D01*
X012265Y011567D01*
X012515Y011817D01*
X013015Y011817D01*
X013265Y011567D01*
X013515Y011817D01*
X014015Y011817D01*
X014265Y011567D01*
X014265Y010067D01*
X014015Y009817D01*
X013515Y009817D01*
X013265Y010067D01*
X013015Y009817D01*
X010448Y008775D02*
X009693Y008775D01*
X009693Y008135D02*
X010448Y008135D01*
X003758Y008303D02*
X003758Y007548D01*
X003118Y007548D02*
X003118Y008303D01*
X004354Y011427D02*
X004354Y012182D01*
X004994Y012182D02*
X004994Y011427D01*
X026705Y002511D02*
X027132Y002511D01*
X027689Y002432D02*
X028116Y002432D01*
X027902Y002645D02*
X027902Y002218D01*
X028074Y001987D02*
X027574Y001987D01*
X027324Y001737D01*
X027074Y001987D01*
X026574Y001987D01*
X026324Y001737D01*
X026324Y001237D01*
X026574Y000987D01*
X027074Y000987D01*
X027324Y001237D01*
X027574Y000987D01*
X028074Y000987D01*
X028324Y001237D01*
X028574Y000987D01*
X029074Y000987D01*
X029324Y001237D01*
X029324Y001737D01*
X029074Y001987D01*
X028574Y001987D01*
X028324Y001737D01*
X028074Y001987D01*
X028324Y001737D02*
X028324Y001237D01*
X027324Y001237D02*
X027324Y001737D01*
X028712Y002218D02*
X028819Y002112D01*
X029033Y002112D01*
X029140Y002218D01*
X029033Y002432D02*
X028819Y002432D01*
X028712Y002325D01*
X028712Y002218D01*
X029033Y002432D02*
X029140Y002539D01*
X029140Y002645D01*
X029033Y002752D01*
X028819Y002752D01*
X028712Y002645D01*
X030523Y009095D02*
X030523Y009850D01*
X031163Y009850D02*
X031163Y009095D01*
X028892Y010775D02*
X028785Y010668D01*
X028358Y010668D01*
X028252Y010775D01*
X028252Y010988D01*
X028358Y011095D01*
X028572Y011095D01*
X028572Y010881D01*
X028785Y011095D02*
X028892Y010988D01*
X028892Y010775D01*
X028892Y011313D02*
X028252Y011313D01*
X028465Y011313D02*
X028465Y011633D01*
X028572Y011740D01*
X028785Y011740D01*
X028892Y011633D01*
X028892Y011313D01*
X028785Y011957D02*
X028679Y011957D01*
X028572Y012064D01*
X028572Y012277D01*
X028465Y012384D01*
X028358Y012384D01*
X028252Y012277D01*
X028252Y012064D01*
X028358Y011957D01*
X028785Y011957D02*
X028892Y012064D01*
X028892Y012277D01*
X028785Y012384D01*
D12*
X014280Y011841D02*
X014280Y009794D01*
X006249Y009794D01*
X006249Y011841D01*
X014280Y011841D01*
D13*
X010245Y012058D03*
D14*
X004204Y011988D02*
X004204Y012141D01*
X004128Y012218D01*
X004051Y012218D01*
X003974Y012141D01*
X003974Y011988D01*
X004051Y011911D01*
X004128Y011911D01*
X004204Y011988D01*
X003974Y011988D02*
X003897Y011911D01*
X003821Y011911D01*
X003744Y011988D01*
X003744Y012141D01*
X003821Y012218D01*
X003897Y012218D01*
X003974Y012141D01*
X003974Y011758D02*
X003897Y011681D01*
X003897Y011451D01*
X003744Y011451D02*
X004204Y011451D01*
X004204Y011681D01*
X004128Y011758D01*
X003974Y011758D01*
X003897Y011604D02*
X003744Y011758D01*
X009370Y009386D02*
X009677Y009386D01*
X009677Y009155D01*
X009523Y009232D01*
X009447Y009232D01*
X009370Y009155D01*
X009370Y009002D01*
X009447Y008925D01*
X009600Y008925D01*
X009677Y009002D01*
X009830Y008925D02*
X010137Y008925D01*
X009984Y008925D02*
X009984Y009386D01*
X010137Y009232D01*
X010291Y009155D02*
X010368Y009079D01*
X010598Y009079D01*
X010444Y009079D02*
X010291Y008925D01*
X010598Y008925D02*
X010598Y009386D01*
X010368Y009386D01*
X010291Y009309D01*
X010291Y009155D01*
X011929Y009079D02*
X011929Y009002D01*
X012006Y008925D01*
X012159Y008925D01*
X012236Y009002D01*
X012389Y008925D02*
X012696Y008925D01*
X012543Y008925D02*
X012543Y009386D01*
X012696Y009232D01*
X012850Y009155D02*
X012927Y009079D01*
X013157Y009079D01*
X013003Y009079D02*
X012850Y008925D01*
X013157Y008925D02*
X013157Y009386D01*
X012927Y009386D01*
X012850Y009309D01*
X012850Y009155D01*
X012236Y009309D02*
X012159Y009386D01*
X012006Y009386D01*
X011929Y009309D01*
X011929Y009232D01*
X012006Y009155D01*
X011929Y009079D01*
X012006Y009155D02*
X012083Y009155D01*
X014059Y008204D02*
X014519Y008204D01*
X014289Y007974D01*
X014289Y008281D01*
X014059Y007821D02*
X014059Y007514D01*
X014059Y007667D02*
X014519Y007667D01*
X014366Y007514D01*
X014443Y007360D02*
X014289Y007360D01*
X014212Y007284D01*
X014212Y007053D01*
X014059Y007053D02*
X014519Y007053D01*
X014519Y007284D01*
X014443Y007360D01*
X014212Y007207D02*
X014059Y007360D01*
X012988Y006006D02*
X012835Y006006D01*
X012758Y005930D01*
X012758Y005623D01*
X012835Y005546D01*
X012988Y005546D01*
X013065Y005623D01*
X013065Y005930D01*
X012988Y006006D01*
X012605Y005930D02*
X012528Y006006D01*
X012375Y006006D01*
X012298Y005930D01*
X012298Y005853D01*
X012605Y005546D01*
X012298Y005546D01*
X012758Y005546D02*
X012912Y005699D01*
X010506Y005623D02*
X010429Y005546D01*
X010276Y005546D01*
X010199Y005623D01*
X010199Y005930D01*
X010276Y006006D01*
X010429Y006006D01*
X010506Y005930D01*
X010506Y005623D01*
X010353Y005699D02*
X010199Y005546D01*
X010046Y005546D02*
X009739Y005546D01*
X009892Y005546D02*
X009892Y006006D01*
X010046Y005853D01*
X004368Y007398D02*
X004368Y007628D01*
X004291Y007705D01*
X004138Y007705D01*
X004061Y007628D01*
X004061Y007398D01*
X004061Y007551D02*
X003908Y007705D01*
X003908Y007858D02*
X003908Y008165D01*
X003908Y008318D02*
X003908Y008625D01*
X003908Y008472D02*
X004368Y008472D01*
X004215Y008318D01*
X004368Y008011D02*
X003908Y008011D01*
X004215Y007858D02*
X004368Y008011D01*
X004368Y007398D02*
X003908Y007398D01*
X016224Y009903D02*
X016224Y010056D01*
X016301Y010133D01*
X016224Y010286D02*
X016224Y010593D01*
X016224Y010440D02*
X016685Y010440D01*
X016531Y010286D01*
X016608Y010133D02*
X016685Y010056D01*
X016685Y009903D01*
X016608Y009826D01*
X016301Y009826D01*
X016224Y009903D01*
X016844Y009847D02*
X016844Y010607D01*
X017464Y010607D02*
X017464Y009847D01*
X018782Y008371D02*
X019542Y008371D01*
X019542Y007752D02*
X018782Y007752D01*
X018872Y007592D02*
X019103Y007362D01*
X018796Y007362D01*
X018872Y007592D02*
X018872Y007131D01*
X019256Y007208D02*
X019333Y007131D01*
X019486Y007131D01*
X019563Y007208D01*
X019563Y007515D01*
X019486Y007592D01*
X019333Y007592D01*
X019256Y007515D01*
X021955Y009824D02*
X022032Y009747D01*
X022339Y009747D01*
X022415Y009824D01*
X022415Y009977D01*
X022339Y010054D01*
X022032Y010054D02*
X021955Y009977D01*
X021955Y009824D01*
X021795Y009847D02*
X021795Y010607D01*
X021955Y010514D02*
X021955Y010207D01*
X022262Y010514D01*
X022339Y010514D01*
X022415Y010437D01*
X022415Y010284D01*
X022339Y010207D01*
X021175Y009847D02*
X021175Y010607D01*
X019700Y011689D02*
X018940Y011689D01*
X018940Y012308D02*
X019700Y012308D01*
X019723Y012468D02*
X019569Y012468D01*
X019493Y012545D01*
X019339Y012545D02*
X019263Y012468D01*
X019109Y012468D01*
X019032Y012545D01*
X019032Y012622D01*
X019109Y012699D01*
X019186Y012699D01*
X019109Y012699D02*
X019032Y012775D01*
X019032Y012852D01*
X019109Y012929D01*
X019263Y012929D01*
X019339Y012852D01*
X019493Y012852D02*
X019569Y012929D01*
X019723Y012929D01*
X019800Y012852D01*
X019800Y012545D01*
X019723Y012468D01*
X024471Y011719D02*
X024471Y011642D01*
X024778Y011335D01*
X024471Y011335D01*
X024932Y011566D02*
X025008Y011489D01*
X025239Y011489D01*
X025239Y011335D02*
X025239Y011796D01*
X025008Y011796D01*
X024932Y011719D01*
X024932Y011566D01*
X024778Y011719D02*
X024701Y011796D01*
X024548Y011796D01*
X024471Y011719D01*
X025392Y011796D02*
X025545Y011796D01*
X025469Y011796D02*
X025469Y011412D01*
X025545Y011335D01*
X025622Y011335D01*
X025699Y011412D01*
X031313Y010173D02*
X031313Y009866D01*
X031620Y010173D01*
X031697Y010173D01*
X031774Y010096D01*
X031774Y009942D01*
X031697Y009866D01*
X031774Y009559D02*
X031313Y009559D01*
X031313Y009712D02*
X031313Y009405D01*
X031313Y009252D02*
X031467Y009098D01*
X031467Y009175D02*
X031467Y008945D01*
X031313Y008945D02*
X031774Y008945D01*
X031774Y009175D01*
X031697Y009252D01*
X031544Y009252D01*
X031467Y009175D01*
X031620Y009405D02*
X031774Y009559D01*
X030625Y006066D02*
X030625Y005759D01*
X030625Y005912D02*
X031086Y005912D01*
X030932Y005759D01*
X031009Y005605D02*
X031086Y005528D01*
X031086Y005375D01*
X031009Y005298D01*
X030932Y005298D01*
X030855Y005375D01*
X030855Y005528D01*
X030779Y005605D01*
X030702Y005605D01*
X030625Y005528D01*
X030625Y005375D01*
X030702Y005298D01*
D15*
X030843Y008955D03*
X030843Y009995D03*
X014989Y008385D03*
X014989Y007345D03*
X004674Y011282D03*
X004674Y012322D03*
X003438Y008448D03*
X003438Y007408D03*
D16*
X018729Y009636D02*
X018729Y010817D01*
X019910Y010817D01*
X019910Y009636D01*
X018729Y009636D01*
X019485Y010443D02*
X019487Y010459D01*
X019493Y010475D01*
X019502Y010489D01*
X019514Y010500D01*
X019528Y010508D01*
X019544Y010513D01*
X019560Y010514D01*
X019576Y010511D01*
X019591Y010504D01*
X019605Y010495D01*
X019615Y010482D01*
X019623Y010467D01*
X019627Y010451D01*
X019627Y010435D01*
X019623Y010419D01*
X019615Y010404D01*
X019605Y010391D01*
X019592Y010382D01*
X019576Y010375D01*
X019560Y010372D01*
X019544Y010373D01*
X019528Y010378D01*
X019514Y010386D01*
X019502Y010397D01*
X019493Y010411D01*
X019487Y010427D01*
X019485Y010443D01*
X022068Y009892D02*
X027989Y009892D01*
X027989Y013239D01*
X022068Y013239D01*
X022068Y009892D01*
X030146Y007510D02*
X030146Y007139D01*
X030146Y004339D01*
X030146Y003967D01*
X031564Y003967D01*
X031564Y004339D01*
X031564Y007139D01*
X031564Y007510D01*
X030146Y007510D01*
X030555Y005749D02*
X030555Y005139D01*
D17*
X021485Y009704D03*
X021485Y010749D03*
X017155Y010749D03*
X017154Y009704D03*
D18*
X018640Y008062D03*
X019685Y008061D03*
X019842Y011998D03*
X018797Y011999D03*
D19*
X012997Y007275D03*
X012257Y007275D03*
X010438Y007275D03*
X009698Y007275D03*
X010068Y006485D03*
X012627Y006485D03*
D20*
X013147Y008455D03*
X012107Y008455D03*
X010588Y008455D03*
X009548Y008455D03*
D21*
X009765Y010317D03*
X010765Y010317D03*
X011765Y010317D03*
X012765Y010317D03*
X013765Y010317D03*
X013765Y011317D03*
X012765Y011317D03*
X011765Y011317D03*
X010765Y011317D03*
X009765Y011317D03*
X008765Y011317D03*
X007765Y011317D03*
X006765Y011317D03*
X006765Y010317D03*
X007765Y010317D03*
X008765Y010317D03*
X005517Y001487D03*
X004517Y001487D03*
X003517Y001487D03*
X026824Y001487D03*
X027824Y001487D03*
X028824Y001487D03*
M02*
