G75*
%MOIN*%
%OFA0B0*%
%FSLAX24Y24*%
%IPPOS*%
%LPD*%
%AMOC8*
5,1,8,0,0,1.08239X$1,22.5*
%
%ADD10R,0.0750X0.0670*%
%ADD11C,0.0634*%
%ADD12OC8,0.0560*%
%ADD13C,0.0611*%
%ADD14R,0.3190X0.0631*%
%ADD15C,0.0476*%
%ADD16R,0.0316X0.0158*%
%ADD17R,0.0158X0.0316*%
%ADD18R,0.0749X0.0670*%
%ADD19R,0.0670X0.0749*%
%ADD20R,0.0434X0.0591*%
%ADD21R,0.0670X0.0750*%
%ADD22C,0.2009*%
%ADD23OC8,0.0640*%
D10*
X014989Y006752D03*
X014989Y007872D03*
X004674Y010689D03*
X004674Y011809D03*
X003438Y007935D03*
X003438Y006815D03*
X027418Y010370D03*
X027418Y011490D03*
D11*
X027918Y009166D03*
X028942Y009166D03*
X004276Y009166D03*
X003253Y009166D03*
D12*
X007402Y003572D03*
X008402Y003572D03*
X011733Y003572D03*
X012733Y003572D03*
X019607Y003572D03*
X020607Y003572D03*
X023938Y003572D03*
X024938Y003572D03*
D13*
X021199Y001514D02*
X021199Y000904D01*
X020589Y000904D01*
X020589Y001514D01*
X021199Y001514D01*
X020589Y001514D01*
X019034Y001514D02*
X019034Y000904D01*
X018424Y000904D01*
X018424Y001514D01*
X019034Y001514D01*
X018424Y001514D01*
X013916Y001514D02*
X013916Y000904D01*
X013306Y000904D01*
X013306Y001514D01*
X013916Y001514D01*
X013306Y001514D01*
X011751Y001514D02*
X011751Y000904D01*
X011141Y000904D01*
X011141Y001514D01*
X011751Y001514D01*
X011141Y001514D01*
D14*
X028375Y005343D03*
X028375Y006524D03*
D15*
X029950Y006918D03*
X026800Y006918D03*
X026800Y004950D03*
X029950Y004950D03*
D16*
X019871Y009280D03*
X019871Y009477D03*
X019871Y009674D03*
X019871Y009871D03*
X019871Y010068D03*
X018769Y010068D03*
X018769Y009871D03*
X018769Y009674D03*
X018769Y009477D03*
X018769Y009280D03*
D17*
X019123Y009123D03*
X019320Y009123D03*
X019517Y009123D03*
X019517Y010225D03*
X019320Y010225D03*
X019123Y010225D03*
D18*
X017154Y010225D03*
X017154Y009123D03*
X021485Y009123D03*
X021485Y010225D03*
D19*
X019871Y011446D03*
X018769Y011446D03*
X018611Y007509D03*
X019713Y007509D03*
D20*
X013001Y006761D03*
X012253Y006761D03*
X010442Y006761D03*
X009694Y006761D03*
X010068Y005894D03*
X012627Y005894D03*
D21*
X013187Y007902D03*
X012067Y007902D03*
X010628Y007902D03*
X009508Y007902D03*
D22*
X001800Y001800D03*
X001800Y011249D03*
X030540Y011249D03*
X030540Y001800D03*
D23*
X013765Y009765D03*
X012765Y009765D03*
X011765Y009765D03*
X010765Y009765D03*
X009765Y009765D03*
X008765Y009765D03*
X007765Y009765D03*
X006765Y009765D03*
X006765Y010765D03*
X007765Y010765D03*
X008765Y010765D03*
X009765Y010765D03*
X010765Y010765D03*
X011765Y010765D03*
X012765Y010765D03*
X013765Y010765D03*
M02*
