%
M48
M72
T01C0.0197
T02C0.0236
T03C0.0276
T04C0.0315
T05C0.0320
T06C0.0354
T07C0.0394
T08C0.0400
T09C0.0472
T10C0.1260
%
T01
X4123Y2432
X4477Y3022
X6249Y4124
X8402Y4097
X9477Y5069
X10186Y5581
X11564Y6959
X13847Y7077
X15894Y7077
X16367Y7432
X16879Y7707
X13847Y8416
X11367Y8495
X8335Y7274
X5107Y8376
X4792Y9085
X5816Y9124
X6721Y8888
X1135Y9719
X1288Y7117
X8178Y2156
X14713Y3101
X15698Y3652
X16682Y3573
X17391Y3573
X19792Y4794
X21328Y5463
X19831Y5660
X21485Y4833
X22312Y4124
X24280Y4912
X24162Y5581
X20816Y7117
X21485Y7235
X26052Y10187
X23532Y11054
X20422Y11014
X18650Y11132
X9123Y12589
X29713Y8652
X23926Y2195
T02
X26249Y5502
X29398Y5502
X29398Y7471
X26249Y7471
T03
X26028Y9565
X25028Y9565
X24028Y9565
X23028Y9565
X27028Y9565
T04
X17670Y2439
X16670Y2439
X15670Y2439
T05
X12733Y4124
X11733Y4124
X8402Y4124
X7402Y4124
X19607Y4124
X20607Y4124
X23938Y4124
X24938Y4124
T06
X14670Y2439
T07
X30206Y4754
X31505Y4754
X31505Y5739
X30205Y5739
X30206Y6723
X31505Y6723
X28942Y9719
X27918Y9719
X4276Y9719
X3253Y9719
T08
X6765Y10317
X7765Y10317
X8765Y10317
X9765Y10317
X10765Y10317
X11765Y10317
X12765Y10317
X13765Y10317
X13765Y11317
X12765Y11317
X11765Y11317
X10765Y11317
X9765Y11317
X8765Y11317
X7765Y11317
X6765Y11317
T09
X3517Y1487
X4517Y1487
X5517Y1487
X26824Y1487
X27824Y1487
X28824Y1487
T10
X30540Y2353
X30540Y11802
X1800Y11802
X1800Y2353
M30
