G75*
%MOIN*%
%OFA0B0*%
%FSLAX24Y24*%
%IPPOS*%
%LPD*%
%AMOC8*
5,1,8,0,0,1.08239X$1,22.5*
%
%ADD10R,0.0492X0.1181*%
%ADD11C,0.0591*%
%ADD12R,0.0630X0.0710*%
%ADD13R,0.0710X0.0630*%
%ADD14R,0.0394X0.0551*%
%ADD15R,0.3150X0.0591*%
D10*
X014690Y001286D03*
X015690Y001286D03*
X016690Y001286D03*
X017690Y001286D03*
D11*
X019024Y001504D02*
X019024Y000914D01*
X018434Y000914D01*
X018434Y001504D01*
X019024Y001504D01*
X018434Y001504D01*
X021189Y001504D02*
X021189Y000914D01*
X020599Y000914D01*
X020599Y001504D01*
X021189Y001504D01*
X020599Y001504D01*
X013906Y001504D02*
X013906Y000914D01*
X013316Y000914D01*
X013316Y001504D01*
X013906Y001504D01*
X013316Y001504D01*
X011741Y001504D02*
X011741Y000914D01*
X011151Y000914D01*
X011151Y001504D01*
X011741Y001504D01*
X011151Y001504D01*
D12*
X006358Y001603D03*
X007478Y001603D03*
X008917Y001603D03*
X010037Y001603D03*
X022500Y001603D03*
X023620Y001603D03*
X025256Y001603D03*
X026376Y001603D03*
D13*
X005540Y003602D03*
X004162Y003602D03*
X002784Y003917D03*
X001446Y003957D03*
X001446Y005076D03*
X002784Y005037D03*
X004162Y004722D03*
X005540Y004722D03*
X002194Y006831D03*
X002194Y007950D03*
D14*
X005402Y006997D03*
X006150Y006997D03*
X005776Y007863D03*
D15*
X028375Y006524D03*
X028375Y005343D03*
M02*
