%
M48
M72
T01C0.0197
T02C0.0236
T03C0.0320
T04C0.0354
T05C0.0394
T06C0.0400
T07C0.1260
%
T01
X4477Y2469
X5580Y2824
X8178Y1603
X14713Y2548
X15698Y3099
X16682Y3020
X24359Y1643
X20816Y6564
X21485Y6682
X16879Y7154
X16367Y6879
X15894Y6524
X13847Y6524
X11564Y6406
X8335Y6721
X6839Y7745
X9005Y8808
X11367Y7942
X13847Y7863
X18650Y10580
X20422Y10461
X23532Y10501
X9123Y12115
X5461Y9044
X1288Y6564
T02
X26800Y6918
X29950Y6918
X29950Y4950
X26800Y4950
T03
X24938Y3572
X23938Y3572
X20607Y3572
X19607Y3572
X12733Y3572
X11733Y3572
X8402Y3572
X7402Y3572
T04
X14690Y1611
X15690Y1631
X16690Y1631
X17690Y1631
T05
X27918Y9166
X28942Y9166
X4276Y9166
X3253Y9166
T06
X6765Y9765
X7765Y9765
X8765Y9765
X9765Y9765
X10765Y9765
X11765Y9765
X12765Y9765
X13765Y9765
X13765Y10765
X12765Y10765
X11765Y10765
X10765Y10765
X9765Y10765
X8765Y10765
X7765Y10765
X6765Y10765
T07
X1800Y1800
X1800Y11249
X30540Y11249
X30540Y1800
M30
