G75*
%MOIN*%
%OFA0B0*%
%FSLAX24Y24*%
%IPPOS*%
%LPD*%
%AMOC8*
5,1,8,0,0,1.08239X$1,22.5*
%
%ADD10R,0.0710X0.0630*%
%ADD11C,0.0594*%
%ADD12OC8,0.0520*%
%ADD13C,0.0591*%
%ADD14R,0.3150X0.0591*%
%ADD15C,0.0436*%
%ADD16R,0.0276X0.0118*%
%ADD17R,0.0118X0.0276*%
%ADD18R,0.0709X0.0630*%
%ADD19R,0.0630X0.0709*%
%ADD20R,0.0394X0.0551*%
%ADD21R,0.0630X0.0710*%
%ADD22C,0.1969*%
%ADD23OC8,0.0600*%
%ADD24C,0.0120*%
%ADD25C,0.0160*%
%ADD26C,0.0317*%
%ADD27C,0.0197*%
%ADD28OC8,0.0531*%
D10*
X014989Y006752D03*
X014989Y007872D03*
X004674Y010689D03*
X004674Y011809D03*
X003438Y007935D03*
X003438Y006815D03*
X027418Y010370D03*
X027418Y011490D03*
D11*
X027918Y009166D03*
X028942Y009166D03*
X004276Y009166D03*
X003253Y009166D03*
D12*
X007402Y003572D03*
X008402Y003572D03*
X011733Y003572D03*
X012733Y003572D03*
X019607Y003572D03*
X020607Y003572D03*
X023938Y003572D03*
X024938Y003572D03*
D13*
X021189Y001504D02*
X021189Y000914D01*
X020599Y000914D01*
X020599Y001504D01*
X021189Y001504D01*
X020599Y001504D01*
X019024Y001504D02*
X019024Y000914D01*
X018434Y000914D01*
X018434Y001504D01*
X019024Y001504D01*
X018434Y001504D01*
X013906Y001504D02*
X013906Y000914D01*
X013316Y000914D01*
X013316Y001504D01*
X013906Y001504D01*
X013316Y001504D01*
X011741Y001504D02*
X011741Y000914D01*
X011151Y000914D01*
X011151Y001504D01*
X011741Y001504D01*
X011151Y001504D01*
D14*
X028375Y005343D03*
X028375Y006524D03*
D15*
X029950Y006918D03*
X026800Y006918D03*
X026800Y004950D03*
X029950Y004950D03*
D16*
X019871Y009280D03*
X019871Y009477D03*
X019871Y009674D03*
X019871Y009871D03*
X019871Y010068D03*
X018769Y010068D03*
X018769Y009871D03*
X018769Y009674D03*
X018769Y009477D03*
X018769Y009280D03*
D17*
X019123Y009123D03*
X019320Y009123D03*
X019517Y009123D03*
X019517Y010225D03*
X019320Y010225D03*
X019123Y010225D03*
D18*
X017154Y010225D03*
X017154Y009123D03*
X021485Y009123D03*
X021485Y010225D03*
D19*
X019871Y011446D03*
X018769Y011446D03*
X018611Y007509D03*
X019713Y007509D03*
D20*
X013001Y006761D03*
X012253Y006761D03*
X010442Y006761D03*
X009694Y006761D03*
X010068Y005894D03*
X012627Y005894D03*
D21*
X013187Y007902D03*
X012067Y007902D03*
X010628Y007902D03*
X009508Y007902D03*
D22*
X001800Y011249D03*
X001800Y001800D03*
X030540Y001800D03*
X030540Y011249D03*
D23*
X013765Y010765D03*
X012765Y010765D03*
X011765Y010765D03*
X010765Y010765D03*
X009765Y010765D03*
X008765Y010765D03*
X007765Y010765D03*
X006765Y010765D03*
X006765Y009765D03*
X007765Y009765D03*
X008765Y009765D03*
X009765Y009765D03*
X010765Y009765D03*
X011765Y009765D03*
X012765Y009765D03*
X013765Y009765D03*
D24*
X017154Y010225D02*
X017509Y010580D01*
X018650Y010580D01*
X019005Y010580D01*
X019123Y010461D01*
X019123Y010225D01*
X019123Y009123D01*
X019123Y008572D01*
X018690Y008139D01*
X018690Y007587D01*
X018611Y007509D01*
X019713Y007509D02*
X019753Y007627D01*
X019753Y008099D01*
X019320Y008532D01*
X019320Y009123D01*
X019517Y009123D02*
X019517Y008769D01*
X019674Y008611D01*
X020028Y008611D01*
X020776Y007863D01*
X020776Y006603D01*
X020816Y006564D01*
X021485Y006682D02*
X021485Y007981D01*
X020737Y008729D01*
X020737Y009162D01*
X020422Y009477D01*
X019871Y009477D01*
X019871Y009674D02*
X020619Y009674D01*
X021091Y009202D01*
X021406Y009202D01*
X021485Y009123D01*
X020658Y009871D02*
X019871Y009871D01*
X019871Y010068D02*
X020028Y010068D01*
X020422Y010461D01*
X020658Y009871D02*
X021013Y010225D01*
X021485Y010225D01*
X019753Y010540D02*
X019517Y010304D01*
X019517Y010225D01*
X019517Y010422D01*
X019674Y010580D01*
X019320Y010501D02*
X019871Y011052D01*
X019871Y011446D01*
X019320Y010501D02*
X019320Y010225D01*
X018769Y010068D02*
X018335Y010068D01*
X018335Y009871D02*
X018769Y009871D01*
X018769Y009477D02*
X018335Y009477D01*
D25*
X001605Y000650D02*
X001477Y000679D01*
X001354Y000723D01*
X001236Y000779D01*
X001125Y000849D01*
X001023Y000931D01*
X000931Y001023D01*
X000849Y001125D01*
X000779Y001236D01*
X000723Y001354D01*
X000679Y001477D01*
X000650Y001605D01*
X000637Y001720D01*
X001720Y001720D01*
X001880Y001720D01*
X001880Y001880D01*
X002963Y001880D01*
X002950Y001995D01*
X002921Y002123D01*
X002877Y002246D01*
X002821Y002364D01*
X002751Y002475D01*
X002669Y002577D01*
X002577Y002669D01*
X002475Y002751D01*
X002364Y002821D01*
X002246Y002877D01*
X002123Y002921D01*
X001995Y002950D01*
X001880Y002963D01*
X001880Y001880D01*
X001720Y001880D01*
X001720Y002963D01*
X001605Y002950D01*
X001477Y002921D01*
X001354Y002877D01*
X001236Y002821D01*
X001125Y002751D01*
X001023Y002669D01*
X000931Y002577D01*
X000849Y002475D01*
X000779Y002364D01*
X000723Y002246D01*
X000679Y002123D01*
X000650Y001995D01*
X000637Y001880D01*
X001720Y001880D01*
X001720Y001720D01*
X001720Y000637D01*
X001605Y000650D01*
X001644Y000612D02*
X001342Y000693D01*
X001071Y000850D01*
X000850Y001071D01*
X000693Y001342D01*
X000612Y001644D01*
X000602Y001800D01*
X000602Y011186D01*
X000602Y011186D01*
X000602Y011260D01*
X000602Y011261D01*
X000611Y011415D01*
X000611Y011415D01*
X000690Y011713D01*
X000843Y011981D01*
X001060Y012200D01*
X001326Y012355D01*
X001624Y012436D01*
X001778Y012447D01*
X030544Y012447D01*
X030700Y012436D01*
X031001Y012355D01*
X031272Y012199D01*
X031492Y011977D01*
X031648Y011707D01*
X031728Y011405D01*
X031738Y011249D01*
X031738Y011175D01*
X031738Y011174D01*
X031738Y001800D01*
X031728Y001644D01*
X031647Y001342D01*
X031491Y001071D01*
X031269Y000850D01*
X030999Y000693D01*
X030697Y000612D01*
X030540Y000602D01*
X021493Y000602D01*
X021559Y000668D01*
X021625Y000828D01*
X021625Y000892D01*
X025206Y000892D01*
X026172Y001859D01*
X026172Y007095D01*
X027814Y008736D01*
X027831Y008729D01*
X028005Y008729D01*
X028166Y008796D01*
X028288Y008919D01*
X028355Y009079D01*
X028355Y009253D01*
X028288Y009414D01*
X028166Y009536D01*
X028005Y009603D01*
X027831Y009603D01*
X027671Y009536D01*
X027548Y009414D01*
X027481Y009253D01*
X027481Y009079D01*
X027482Y009079D01*
X025835Y007432D01*
X025695Y007292D01*
X025695Y002056D01*
X025008Y001369D01*
X024479Y001369D01*
X024528Y001390D01*
X024612Y001473D01*
X024657Y001583D01*
X024657Y001702D01*
X024612Y001812D01*
X024528Y001896D01*
X024418Y001941D01*
X024398Y001941D01*
X023456Y002883D01*
X023456Y003827D01*
X023771Y004142D01*
X023771Y010317D01*
X023785Y010332D01*
X023831Y010441D01*
X023831Y010560D01*
X023785Y010670D01*
X023701Y010754D01*
X023592Y010799D01*
X023473Y010799D01*
X023363Y010754D01*
X023279Y010670D01*
X023234Y010560D01*
X023234Y010441D01*
X023279Y010332D01*
X023294Y010317D01*
X023294Y004340D01*
X023119Y004164D01*
X022979Y004025D01*
X022979Y002685D01*
X023119Y002546D01*
X024061Y001604D01*
X024061Y001583D01*
X024106Y001473D01*
X024190Y001390D01*
X024239Y001369D01*
X021625Y001369D01*
X021625Y001591D01*
X021559Y001751D01*
X021436Y001874D01*
X021276Y001940D01*
X020513Y001940D01*
X020353Y001874D01*
X020230Y001751D01*
X020164Y001591D01*
X020164Y001448D01*
X019460Y001448D01*
X019460Y001591D01*
X019393Y001751D01*
X019271Y001874D01*
X019111Y001940D01*
X018966Y001940D01*
X018298Y002607D01*
X018159Y002747D01*
X016802Y002747D01*
X016851Y002767D01*
X016935Y002851D01*
X016980Y002961D01*
X016980Y002982D01*
X017117Y003119D01*
X017117Y006971D01*
X017132Y006985D01*
X017177Y007095D01*
X017177Y007214D01*
X017132Y007323D01*
X017048Y007407D01*
X016938Y007453D01*
X016819Y007453D01*
X016710Y007407D01*
X016626Y007323D01*
X016580Y007214D01*
X016580Y007095D01*
X016586Y007082D01*
X016536Y007132D01*
X016426Y007177D01*
X016308Y007177D01*
X016198Y007132D01*
X016133Y007067D01*
X016133Y007686D01*
X015857Y007962D01*
X015718Y008101D01*
X015484Y008101D01*
X015484Y008245D01*
X015402Y008327D01*
X014576Y008327D01*
X014494Y008245D01*
X014494Y007499D01*
X014576Y007417D01*
X015402Y007417D01*
X015484Y007499D01*
X015484Y007625D01*
X015520Y007625D01*
X015656Y007489D01*
X015656Y006708D01*
X015641Y006693D01*
X015596Y006584D01*
X015596Y006465D01*
X015641Y006355D01*
X015725Y006271D01*
X015835Y006226D01*
X015954Y006226D01*
X016064Y006271D01*
X016147Y006355D01*
X016168Y006405D01*
X016168Y006348D01*
X015459Y005639D01*
X015459Y003283D01*
X015445Y003268D01*
X015399Y003159D01*
X015399Y003040D01*
X015445Y002930D01*
X015529Y002846D01*
X015638Y002801D01*
X015757Y002801D01*
X015867Y002846D01*
X015951Y002930D01*
X015996Y003040D01*
X015996Y003159D01*
X015951Y003268D01*
X015936Y003283D01*
X015936Y005441D01*
X016505Y006010D01*
X016640Y006146D01*
X016640Y003319D01*
X016623Y003319D01*
X016513Y003273D01*
X016429Y003190D01*
X016383Y003080D01*
X016383Y002961D01*
X016429Y002851D01*
X016513Y002767D01*
X016562Y002747D01*
X014952Y002747D01*
X014952Y004890D01*
X015227Y005166D01*
X015227Y006297D01*
X015402Y006297D01*
X015484Y006379D01*
X015484Y007125D01*
X015402Y007207D01*
X014576Y007207D01*
X014494Y007125D01*
X014494Y007081D01*
X014283Y007292D01*
X014283Y009584D01*
X014205Y009662D01*
X014205Y009947D01*
X014125Y010026D01*
X016660Y010026D01*
X016660Y009852D01*
X016742Y009770D01*
X017567Y009770D01*
X017649Y009852D01*
X017649Y010380D01*
X018428Y010380D01*
X018481Y010327D01*
X018560Y010294D01*
X018520Y010271D01*
X018487Y010237D01*
X018463Y010196D01*
X018451Y010150D01*
X018451Y010068D01*
X018514Y010068D01*
X018514Y010068D01*
X018451Y010068D01*
X018451Y009985D01*
X018455Y009969D01*
X018451Y009954D01*
X018451Y009871D01*
X018514Y009871D01*
X018514Y009871D01*
X018451Y009871D01*
X018451Y009788D01*
X018463Y009742D01*
X018487Y009701D01*
X018491Y009697D01*
X018491Y009651D01*
X018487Y009647D01*
X018463Y009606D01*
X018451Y009560D01*
X018451Y009477D01*
X018451Y009394D01*
X018463Y009349D01*
X018487Y009308D01*
X018491Y009304D01*
X018491Y009163D01*
X018573Y009081D01*
X018923Y009081D01*
X018923Y008654D01*
X018607Y008339D01*
X018607Y008339D01*
X018490Y008221D01*
X018490Y008003D01*
X018238Y008003D01*
X018156Y007921D01*
X018156Y007096D01*
X018238Y007014D01*
X018984Y007014D01*
X019066Y007096D01*
X019066Y007921D01*
X018984Y008003D01*
X018890Y008003D01*
X018890Y008056D01*
X019206Y008372D01*
X019323Y008489D01*
X019323Y008679D01*
X019474Y008528D01*
X019591Y008411D01*
X019946Y008411D01*
X020576Y007780D01*
X020576Y006746D01*
X020563Y006733D01*
X020517Y006623D01*
X020517Y006504D01*
X020563Y006395D01*
X020647Y006311D01*
X020756Y006265D01*
X020875Y006265D01*
X020985Y006311D01*
X021069Y006395D01*
X021114Y006504D01*
X021114Y006623D01*
X021069Y006733D01*
X020985Y006817D01*
X020976Y006820D01*
X020976Y007946D01*
X020859Y008063D01*
X020111Y008811D01*
X019757Y008811D01*
X019717Y008851D01*
X019717Y009041D01*
X019871Y009041D01*
X020032Y009041D01*
X020078Y009054D01*
X020119Y009077D01*
X020153Y009111D01*
X020176Y009152D01*
X020189Y009198D01*
X020189Y009277D01*
X020339Y009277D01*
X020537Y009079D01*
X020537Y008646D01*
X021285Y007898D01*
X021285Y006904D01*
X021232Y006851D01*
X021187Y006741D01*
X021187Y006623D01*
X021232Y006513D01*
X021316Y006429D01*
X021426Y006383D01*
X021544Y006383D01*
X021654Y006429D01*
X021738Y006513D01*
X021783Y006623D01*
X021783Y006741D01*
X021738Y006851D01*
X021685Y006904D01*
X021685Y008064D01*
X021568Y008181D01*
X021081Y008668D01*
X021897Y008668D01*
X021979Y008750D01*
X021979Y009496D01*
X021897Y009578D01*
X021073Y009578D01*
X021035Y009540D01*
X020823Y009753D01*
X020991Y009920D01*
X020991Y009852D01*
X021073Y009770D01*
X021897Y009770D01*
X021979Y009852D01*
X021979Y010598D01*
X021897Y010680D01*
X021073Y010680D01*
X020991Y010598D01*
X020991Y010425D01*
X020930Y010425D01*
X020813Y010308D01*
X020575Y010071D01*
X020314Y010071D01*
X020406Y010163D01*
X020481Y010163D01*
X020591Y010208D01*
X020675Y010292D01*
X020720Y010402D01*
X020720Y010521D01*
X020675Y010630D01*
X020591Y010714D01*
X020481Y010760D01*
X020363Y010760D01*
X020253Y010714D01*
X020169Y010630D01*
X020124Y010521D01*
X020124Y010446D01*
X019946Y010268D01*
X019788Y010268D01*
X019787Y010267D01*
X019756Y010267D01*
X019756Y010387D01*
X019743Y010432D01*
X019720Y010474D01*
X019686Y010507D01*
X019645Y010531D01*
X019635Y010533D01*
X019954Y010852D01*
X020053Y010951D01*
X020244Y010951D01*
X020326Y011033D01*
X020326Y011858D01*
X020268Y011916D01*
X020402Y011916D01*
X021067Y011251D01*
X026923Y011251D01*
X026923Y011117D01*
X027005Y011035D01*
X027831Y011035D01*
X027913Y011117D01*
X027913Y011251D01*
X028311Y011251D01*
X028491Y011071D01*
X028491Y009280D01*
X028509Y009262D01*
X028505Y009253D01*
X028505Y009079D01*
X028571Y008919D01*
X028694Y008796D01*
X028855Y008729D01*
X029029Y008729D01*
X029189Y008796D01*
X029312Y008919D01*
X029379Y009079D01*
X029379Y009253D01*
X029312Y009414D01*
X029189Y009536D01*
X029029Y009603D01*
X028968Y009603D01*
X028968Y011269D01*
X028828Y011409D01*
X028508Y011728D01*
X027913Y011728D01*
X027913Y011863D01*
X027831Y011945D01*
X027005Y011945D01*
X026923Y011863D01*
X026923Y011728D01*
X021264Y011728D01*
X020739Y012253D01*
X020600Y012393D01*
X011229Y012393D01*
X010678Y011842D01*
X010538Y011702D01*
X010538Y011160D01*
X010325Y010947D01*
X010325Y010582D01*
X010582Y010325D01*
X010947Y010325D01*
X011205Y010582D01*
X011205Y010947D01*
X011015Y011137D01*
X011015Y011504D01*
X011426Y011916D01*
X018315Y011916D01*
X018310Y011911D01*
X018286Y011869D01*
X018274Y011824D01*
X018274Y011523D01*
X018691Y011523D01*
X018691Y011368D01*
X018846Y011368D01*
X018846Y010911D01*
X019107Y010911D01*
X019153Y010924D01*
X019194Y010947D01*
X019228Y010981D01*
X019251Y011022D01*
X019263Y011068D01*
X019263Y011368D01*
X018846Y011368D01*
X018846Y011523D01*
X019263Y011523D01*
X019263Y011824D01*
X019251Y011869D01*
X019228Y011911D01*
X019222Y011916D01*
X019474Y011916D01*
X019416Y011858D01*
X019416Y011033D01*
X019493Y010957D01*
X019202Y010666D01*
X019088Y010780D01*
X018872Y010780D01*
X018819Y010833D01*
X018710Y010878D01*
X018591Y010878D01*
X018481Y010833D01*
X018428Y010780D01*
X017426Y010780D01*
X017326Y010680D01*
X016742Y010680D01*
X016660Y010598D01*
X016660Y010503D01*
X014182Y010503D01*
X014245Y010566D01*
X016660Y010566D01*
X017371Y010725D02*
X014245Y010725D01*
X014245Y010745D02*
X013785Y010745D01*
X013785Y010785D01*
X013745Y010785D01*
X013745Y011245D01*
X013566Y011245D01*
X013285Y010963D01*
X013285Y010785D01*
X013745Y010785D01*
X013745Y010745D01*
X013285Y010745D01*
X013285Y010566D01*
X013245Y010566D01*
X013245Y010745D01*
X012785Y010745D01*
X012785Y010785D01*
X012745Y010785D01*
X012745Y011245D01*
X012566Y011245D01*
X012285Y010963D01*
X012285Y010785D01*
X012745Y010785D01*
X012745Y010745D01*
X012285Y010745D01*
X012285Y010566D01*
X012188Y010566D01*
X012205Y010582D02*
X011947Y010325D01*
X011582Y010325D01*
X011325Y010582D01*
X011325Y010947D01*
X011582Y011205D01*
X011947Y011205D01*
X012205Y010947D01*
X012205Y010582D01*
X012285Y010566D02*
X012566Y010285D01*
X012625Y010285D01*
X012526Y010186D01*
X012526Y010148D01*
X012325Y009947D01*
X012325Y009582D01*
X012526Y009381D01*
X012526Y008887D01*
X012174Y008535D01*
X011859Y008849D01*
X010722Y008849D01*
X010739Y008867D01*
X011003Y009130D01*
X011003Y009381D01*
X011205Y009582D01*
X011205Y009947D01*
X010947Y010205D01*
X010582Y010205D01*
X010325Y009947D01*
X010325Y009582D01*
X010526Y009381D01*
X010526Y009328D01*
X010402Y009204D01*
X009063Y009204D01*
X008966Y009106D01*
X008945Y009106D01*
X008836Y009061D01*
X008752Y008977D01*
X008706Y008867D01*
X008706Y008749D01*
X008752Y008639D01*
X008836Y008555D01*
X008945Y008509D01*
X009064Y008509D01*
X009174Y008555D01*
X009258Y008639D01*
X009294Y008727D01*
X009492Y008727D01*
X009475Y008710D01*
X009269Y008504D01*
X009269Y008397D01*
X009135Y008397D01*
X009053Y008315D01*
X009053Y007489D01*
X009135Y007407D01*
X009455Y007407D01*
X009455Y007176D01*
X009439Y007176D01*
X009357Y007094D01*
X009357Y006427D01*
X009439Y006345D01*
X009949Y006345D01*
X010031Y006427D01*
X010031Y007094D01*
X009949Y007176D01*
X009932Y007176D01*
X009932Y007459D01*
X009963Y007489D01*
X009963Y008315D01*
X009906Y008373D01*
X010230Y008373D01*
X010173Y008315D01*
X010173Y007489D01*
X010255Y007407D01*
X010389Y007407D01*
X010389Y007176D01*
X010187Y007176D01*
X010105Y007094D01*
X010105Y006427D01*
X010187Y006345D01*
X010697Y006345D01*
X010779Y006427D01*
X010779Y006760D01*
X010866Y006848D01*
X011192Y007174D01*
X011192Y007371D01*
X011078Y007485D01*
X011083Y007489D01*
X011083Y007703D01*
X011183Y007703D01*
X011198Y007689D01*
X011308Y007643D01*
X011426Y007643D01*
X011536Y007689D01*
X011612Y007765D01*
X011612Y007489D01*
X011694Y007407D01*
X011829Y007407D01*
X011829Y007261D01*
X011955Y007134D01*
X011955Y007134D01*
X011916Y007094D01*
X011916Y006427D01*
X011998Y006345D01*
X012508Y006345D01*
X012590Y006427D01*
X012590Y007094D01*
X012508Y007176D01*
X012432Y007176D01*
X012432Y007332D01*
X012357Y007407D01*
X012440Y007407D01*
X012522Y007489D01*
X012522Y008208D01*
X012863Y008550D01*
X013003Y008689D01*
X013003Y009381D01*
X013205Y009582D01*
X013205Y009947D01*
X013125Y010026D01*
X013404Y010026D01*
X013325Y009947D01*
X013325Y009582D01*
X013582Y009325D01*
X013806Y009325D01*
X013806Y008101D01*
X013642Y008101D01*
X013642Y008315D01*
X013560Y008397D01*
X012814Y008397D01*
X012732Y008315D01*
X012732Y007489D01*
X012814Y007407D01*
X012948Y007407D01*
X012948Y007176D01*
X012746Y007176D01*
X012664Y007094D01*
X012664Y006427D01*
X012746Y006345D01*
X013256Y006345D01*
X013338Y006427D01*
X013338Y006760D01*
X013425Y006848D01*
X013611Y007034D01*
X013789Y007034D01*
X013828Y007073D01*
X013945Y006955D01*
X014387Y006514D01*
X014494Y006514D01*
X014494Y006379D01*
X014576Y006297D01*
X014751Y006297D01*
X014751Y005363D01*
X014615Y005227D01*
X014475Y005088D01*
X014475Y002786D01*
X013906Y002786D01*
X013512Y002393D01*
X013373Y002253D01*
X013373Y001940D01*
X013229Y001940D01*
X013069Y001874D01*
X012947Y001751D01*
X012880Y001591D01*
X012880Y001448D01*
X012176Y001448D01*
X012176Y001591D01*
X012110Y001751D01*
X011988Y001874D01*
X011828Y001940D01*
X011603Y001940D01*
X010936Y002607D01*
X010796Y002747D01*
X005993Y002747D01*
X005878Y002862D01*
X005878Y002883D01*
X005833Y002993D01*
X005749Y003077D01*
X005639Y003122D01*
X005520Y003122D01*
X005410Y003077D01*
X005327Y002993D01*
X005281Y002883D01*
X005281Y002764D01*
X005327Y002655D01*
X005410Y002571D01*
X005520Y002525D01*
X005541Y002525D01*
X005796Y002270D01*
X010599Y002270D01*
X010969Y001901D01*
X010904Y001874D01*
X010781Y001751D01*
X010715Y001591D01*
X010715Y000828D01*
X010781Y000668D01*
X010847Y000602D01*
X001800Y000602D01*
X001644Y000612D01*
X001720Y000739D02*
X001880Y000739D01*
X001880Y000637D02*
X001995Y000650D01*
X002123Y000679D01*
X002246Y000723D01*
X002364Y000779D01*
X002475Y000849D01*
X002577Y000931D01*
X002669Y001023D01*
X002751Y001125D01*
X002821Y001236D01*
X002877Y001354D01*
X002921Y001477D01*
X002950Y001605D01*
X002963Y001720D01*
X001880Y001720D01*
X001880Y000637D01*
X001320Y000739D02*
X001262Y000739D01*
X001064Y000898D02*
X001023Y000898D01*
X000904Y001056D02*
X000864Y001056D01*
X000793Y001215D02*
X000767Y001215D01*
X000716Y001373D02*
X000685Y001373D01*
X000667Y001532D02*
X000642Y001532D01*
X000641Y001690D02*
X000609Y001690D01*
X000602Y001849D02*
X001720Y001849D01*
X001720Y002007D02*
X001880Y002007D01*
X001880Y001849D02*
X010879Y001849D01*
X010862Y002007D02*
X002947Y002007D01*
X002906Y002166D02*
X010704Y002166D01*
X011219Y002324D02*
X013444Y002324D01*
X013373Y002166D02*
X011378Y002166D01*
X011536Y002007D02*
X013373Y002007D01*
X013044Y001849D02*
X012013Y001849D01*
X012135Y001690D02*
X012921Y001690D01*
X012880Y001532D02*
X012176Y001532D01*
X010756Y001690D02*
X002959Y001690D01*
X002933Y001532D02*
X010715Y001532D01*
X010715Y001373D02*
X002884Y001373D01*
X002807Y001215D02*
X010715Y001215D01*
X010715Y001056D02*
X002696Y001056D01*
X002536Y000898D02*
X010715Y000898D01*
X010752Y000739D02*
X002280Y000739D01*
X001880Y000898D02*
X001720Y000898D01*
X001720Y001056D02*
X001880Y001056D01*
X001880Y001215D02*
X001720Y001215D01*
X001720Y001373D02*
X001880Y001373D01*
X001880Y001532D02*
X001720Y001532D01*
X001720Y001690D02*
X001880Y001690D01*
X000653Y002007D02*
X000602Y002007D01*
X000602Y002166D02*
X000694Y002166D01*
X000760Y002324D02*
X000602Y002324D01*
X000602Y002483D02*
X000855Y002483D01*
X000995Y002641D02*
X000602Y002641D01*
X000602Y002800D02*
X001202Y002800D01*
X001680Y002958D02*
X000602Y002958D01*
X000602Y003117D02*
X004239Y003117D01*
X004239Y002958D02*
X001920Y002958D01*
X001880Y002958D02*
X001720Y002958D01*
X001720Y002800D02*
X001880Y002800D01*
X001880Y002641D02*
X001720Y002641D01*
X001720Y002483D02*
X001880Y002483D01*
X001880Y002324D02*
X001720Y002324D01*
X001720Y002166D02*
X001880Y002166D01*
X002745Y002483D02*
X004179Y002483D01*
X004179Y002529D02*
X004179Y002410D01*
X004224Y002300D01*
X004308Y002216D01*
X004418Y002171D01*
X004537Y002171D01*
X004646Y002216D01*
X004730Y002300D01*
X004776Y002410D01*
X004776Y002529D01*
X004730Y002638D01*
X004716Y002653D01*
X004716Y007961D01*
X005500Y008746D01*
X005521Y008746D01*
X005630Y008791D01*
X005714Y008875D01*
X005760Y008985D01*
X005760Y009103D01*
X005722Y009194D01*
X005971Y008945D01*
X006111Y008806D01*
X007526Y008806D01*
X007526Y006288D01*
X008097Y005717D01*
X008237Y005577D01*
X009731Y005577D01*
X009731Y005561D01*
X009813Y005479D01*
X010323Y005479D01*
X010405Y005561D01*
X010405Y006228D01*
X010323Y006310D01*
X009813Y006310D01*
X009731Y006228D01*
X009731Y006054D01*
X008434Y006054D01*
X008003Y006485D01*
X008003Y009381D01*
X008018Y009396D01*
X008018Y006701D01*
X008037Y006683D01*
X008037Y006662D01*
X008082Y006552D01*
X008166Y006468D01*
X008276Y006423D01*
X008395Y006423D01*
X008504Y006468D01*
X008588Y006552D01*
X008634Y006662D01*
X008634Y006781D01*
X008588Y006890D01*
X008504Y006974D01*
X008495Y006978D01*
X008495Y009412D01*
X008582Y009325D01*
X008947Y009325D01*
X009205Y009582D01*
X009205Y009947D01*
X008947Y010205D01*
X008582Y010205D01*
X008495Y010117D01*
X008495Y010324D01*
X008355Y010464D01*
X008205Y010615D01*
X008205Y010947D01*
X007947Y011205D01*
X007582Y011205D01*
X007325Y010947D01*
X007325Y010582D01*
X007582Y010325D01*
X007820Y010325D01*
X007940Y010205D01*
X007582Y010205D01*
X007325Y009947D01*
X007325Y009582D01*
X007526Y009381D01*
X007526Y009283D01*
X006308Y009283D01*
X005779Y009812D01*
X005779Y011663D01*
X005639Y011802D01*
X005394Y012047D01*
X005169Y012047D01*
X005169Y012182D01*
X005087Y012264D01*
X004261Y012264D01*
X004179Y012182D01*
X004179Y011436D01*
X004261Y011354D01*
X005087Y011354D01*
X005169Y011436D01*
X005169Y011570D01*
X005197Y011570D01*
X005302Y011465D01*
X005302Y009615D01*
X003937Y009615D01*
X004029Y009536D02*
X003906Y009414D01*
X003840Y009253D01*
X003840Y009079D01*
X003843Y009070D01*
X003199Y008426D01*
X003199Y008390D01*
X003025Y008390D01*
X002943Y008308D01*
X002943Y007562D01*
X003025Y007480D01*
X003851Y007480D01*
X003933Y007562D01*
X003933Y008308D01*
X003851Y008390D01*
X003837Y008390D01*
X004180Y008733D01*
X004189Y008729D01*
X004363Y008729D01*
X004524Y008796D01*
X004647Y008919D01*
X004713Y009079D01*
X004713Y009253D01*
X004647Y009414D01*
X004524Y009536D01*
X004363Y009603D01*
X004189Y009603D01*
X004029Y009536D01*
X003949Y009457D02*
X003779Y009457D01*
X003656Y009334D02*
X004556Y010234D01*
X005087Y010234D01*
X005169Y010316D01*
X005169Y011062D01*
X005087Y011144D01*
X004261Y011144D01*
X004179Y011062D01*
X004179Y010531D01*
X003251Y009603D01*
X003166Y009603D01*
X003005Y009536D01*
X002882Y009414D01*
X002816Y009253D01*
X002816Y009079D01*
X002882Y008919D01*
X003005Y008796D01*
X003166Y008729D01*
X003340Y008729D01*
X003500Y008796D01*
X003623Y008919D01*
X003690Y009079D01*
X003690Y009253D01*
X003656Y009334D01*
X003671Y009298D02*
X003858Y009298D01*
X003840Y009140D02*
X003690Y009140D01*
X003649Y008981D02*
X003754Y008981D01*
X003596Y008823D02*
X003527Y008823D01*
X003437Y008664D02*
X000602Y008664D01*
X000602Y008506D02*
X003279Y008506D01*
X002982Y008347D02*
X000602Y008347D01*
X000602Y008189D02*
X002943Y008189D01*
X002943Y008030D02*
X000602Y008030D01*
X000602Y007872D02*
X002943Y007872D01*
X002943Y007713D02*
X000602Y007713D01*
X000602Y007555D02*
X002950Y007555D01*
X003013Y007298D02*
X003059Y007310D01*
X003360Y007310D01*
X003360Y006892D01*
X003360Y006737D01*
X003515Y006737D01*
X003515Y006320D01*
X003816Y006320D01*
X003862Y006332D01*
X003903Y006356D01*
X003937Y006389D01*
X003960Y006431D01*
X003973Y006476D01*
X003973Y006737D01*
X003515Y006737D01*
X003515Y006892D01*
X003973Y006892D01*
X003973Y007154D01*
X003960Y007199D01*
X003937Y007240D01*
X003903Y007274D01*
X003862Y007298D01*
X003816Y007310D01*
X003515Y007310D01*
X003515Y006892D01*
X003360Y006892D01*
X002903Y006892D01*
X002903Y007154D01*
X002915Y007199D01*
X002939Y007240D01*
X002972Y007274D01*
X003013Y007298D01*
X002937Y007238D02*
X000602Y007238D01*
X000602Y007396D02*
X004239Y007396D01*
X004239Y007238D02*
X003938Y007238D01*
X003973Y007079D02*
X004239Y007079D01*
X004239Y006921D02*
X003973Y006921D01*
X004239Y006762D02*
X003515Y006762D01*
X003360Y006762D02*
X000602Y006762D01*
X000602Y006604D02*
X002903Y006604D01*
X002903Y006476D02*
X002915Y006431D01*
X002939Y006389D01*
X002972Y006356D01*
X003013Y006332D01*
X003059Y006320D01*
X003360Y006320D01*
X003360Y006737D01*
X002903Y006737D01*
X002903Y006476D01*
X002911Y006445D02*
X000602Y006445D01*
X000602Y006287D02*
X004239Y006287D01*
X004239Y006445D02*
X003964Y006445D01*
X003973Y006604D02*
X004239Y006604D01*
X004716Y006604D02*
X006601Y006604D01*
X006601Y006762D02*
X004716Y006762D01*
X004716Y006921D02*
X006601Y006921D01*
X006601Y007079D02*
X004716Y007079D01*
X004716Y007238D02*
X006601Y007238D01*
X006601Y007396D02*
X004716Y007396D01*
X004716Y007555D02*
X006601Y007555D01*
X006601Y007561D02*
X006601Y004693D01*
X007152Y004142D01*
X007292Y004003D01*
X007634Y004003D01*
X008002Y003634D01*
X008002Y003406D01*
X008237Y003172D01*
X008568Y003172D01*
X008802Y003406D01*
X008802Y003737D01*
X008568Y003972D01*
X008340Y003972D01*
X007832Y004479D01*
X007489Y004479D01*
X007078Y004891D01*
X007078Y007561D01*
X007092Y007576D01*
X007138Y007686D01*
X007138Y007804D01*
X007092Y007914D01*
X007008Y007998D01*
X006899Y008043D01*
X006780Y008043D01*
X006670Y007998D01*
X006586Y007914D01*
X006541Y007804D01*
X006541Y007686D01*
X006586Y007576D01*
X006601Y007561D01*
X007078Y007555D02*
X007526Y007555D01*
X007526Y007396D02*
X007078Y007396D01*
X007078Y007238D02*
X007526Y007238D01*
X007526Y007079D02*
X007078Y007079D01*
X007078Y006921D02*
X007526Y006921D01*
X008003Y006921D02*
X008018Y006921D01*
X008003Y007079D02*
X008018Y007079D01*
X008003Y007238D02*
X008018Y007238D01*
X008003Y007396D02*
X008018Y007396D01*
X008003Y007555D02*
X008018Y007555D01*
X008003Y007713D02*
X008018Y007713D01*
X008003Y007872D02*
X008018Y007872D01*
X008003Y008030D02*
X008018Y008030D01*
X008003Y008189D02*
X008018Y008189D01*
X008003Y008347D02*
X008018Y008347D01*
X007526Y008347D02*
X005102Y008347D01*
X004943Y008189D02*
X007526Y008189D01*
X007526Y008030D02*
X006931Y008030D01*
X006748Y008030D02*
X004785Y008030D01*
X004716Y007872D02*
X006569Y007872D01*
X006541Y007713D02*
X004716Y007713D01*
X004239Y007713D02*
X003933Y007713D01*
X003933Y007872D02*
X004239Y007872D01*
X004239Y008030D02*
X003933Y008030D01*
X003933Y008189D02*
X004269Y008189D01*
X004239Y008159D02*
X004239Y002653D01*
X004224Y002638D01*
X004179Y002529D01*
X004227Y002641D02*
X002605Y002641D01*
X002398Y002800D02*
X004239Y002800D01*
X004716Y002800D02*
X005281Y002800D01*
X005312Y002958D02*
X004716Y002958D01*
X004716Y003117D02*
X005507Y003117D01*
X005652Y003117D02*
X014475Y003117D01*
X014475Y002958D02*
X005847Y002958D01*
X005941Y002800D02*
X014475Y002800D01*
X014952Y002800D02*
X016481Y002800D01*
X016385Y002958D02*
X015962Y002958D01*
X015996Y003117D02*
X016399Y003117D01*
X016517Y003275D02*
X015944Y003275D01*
X015936Y003434D02*
X016640Y003434D01*
X016640Y003592D02*
X015936Y003592D01*
X015936Y003751D02*
X016640Y003751D01*
X016640Y003909D02*
X015936Y003909D01*
X015936Y004068D02*
X016640Y004068D01*
X016640Y004226D02*
X015936Y004226D01*
X015936Y004385D02*
X016640Y004385D01*
X016640Y004543D02*
X015936Y004543D01*
X015936Y004702D02*
X016640Y004702D01*
X016640Y004860D02*
X015936Y004860D01*
X015936Y005019D02*
X016640Y005019D01*
X016640Y005177D02*
X015936Y005177D01*
X015936Y005336D02*
X016640Y005336D01*
X017117Y005336D02*
X023294Y005336D01*
X023294Y005177D02*
X017117Y005177D01*
X017117Y005019D02*
X023294Y005019D01*
X023294Y004860D02*
X017117Y004860D01*
X017117Y004702D02*
X023294Y004702D01*
X023771Y004702D02*
X025695Y004702D01*
X025695Y004860D02*
X023771Y004860D01*
X023771Y005019D02*
X025695Y005019D01*
X025695Y005177D02*
X023771Y005177D01*
X023771Y005336D02*
X025695Y005336D01*
X026172Y005336D02*
X026660Y005336D01*
X026660Y005279D02*
X026597Y005253D01*
X026496Y005152D01*
X026442Y005021D01*
X026442Y004878D01*
X026496Y004747D01*
X026597Y004646D01*
X026729Y004591D01*
X026871Y004591D01*
X027003Y004646D01*
X027104Y004747D01*
X027158Y004878D01*
X027158Y004908D01*
X029591Y004908D01*
X029591Y004878D01*
X029646Y004747D01*
X029747Y004646D01*
X029878Y004591D01*
X030021Y004591D01*
X030152Y004646D01*
X030253Y004747D01*
X030308Y004878D01*
X030308Y005021D01*
X030253Y005152D01*
X030152Y005253D01*
X030090Y005279D01*
X030090Y005426D01*
X030130Y005466D01*
X030130Y006457D01*
X030075Y006457D01*
X030024Y006508D01*
X028442Y006508D01*
X028442Y006592D01*
X028307Y006592D01*
X028307Y006508D01*
X026725Y006508D01*
X026675Y006457D01*
X026620Y006457D01*
X026620Y005466D01*
X026660Y005426D01*
X026660Y005279D01*
X026521Y005177D02*
X026172Y005177D01*
X026172Y005019D02*
X026442Y005019D01*
X026449Y004860D02*
X026172Y004860D01*
X026172Y004702D02*
X026542Y004702D01*
X027058Y004702D02*
X029691Y004702D01*
X029599Y004860D02*
X027151Y004860D01*
X026172Y004543D02*
X031738Y004543D01*
X031738Y004385D02*
X026172Y004385D01*
X026172Y004226D02*
X031738Y004226D01*
X031738Y004068D02*
X026172Y004068D01*
X025695Y004068D02*
X023696Y004068D01*
X023772Y003972D02*
X023538Y003737D01*
X023538Y003406D01*
X023772Y003172D01*
X024103Y003172D01*
X024338Y003406D01*
X024338Y003737D01*
X024103Y003972D01*
X023772Y003972D01*
X023710Y003909D02*
X023538Y003909D01*
X023551Y003751D02*
X023456Y003751D01*
X023456Y003592D02*
X023538Y003592D01*
X023538Y003434D02*
X023456Y003434D01*
X023456Y003275D02*
X023669Y003275D01*
X024207Y003275D02*
X024669Y003275D01*
X024772Y003172D02*
X024538Y003406D01*
X024538Y003737D01*
X024772Y003972D01*
X025103Y003972D01*
X025338Y003737D01*
X025338Y003406D01*
X025103Y003172D01*
X024772Y003172D01*
X025207Y003275D02*
X025695Y003275D01*
X025695Y003434D02*
X025338Y003434D01*
X025338Y003592D02*
X025695Y003592D01*
X025695Y003751D02*
X025325Y003751D01*
X025166Y003909D02*
X025695Y003909D01*
X026172Y003909D02*
X031738Y003909D01*
X031738Y003751D02*
X026172Y003751D01*
X026172Y003592D02*
X031738Y003592D01*
X031738Y003434D02*
X026172Y003434D01*
X026172Y003275D02*
X031738Y003275D01*
X031738Y003117D02*
X026172Y003117D01*
X026172Y002958D02*
X030420Y002958D01*
X030460Y002958D02*
X030620Y002958D01*
X030620Y002963D02*
X030735Y002950D01*
X030863Y002921D01*
X030986Y002877D01*
X031104Y002821D01*
X031215Y002751D01*
X031317Y002669D01*
X031410Y002577D01*
X031491Y002475D01*
X031561Y002364D01*
X031617Y002246D01*
X031661Y002123D01*
X031690Y001995D01*
X031703Y001880D01*
X030620Y001880D01*
X030460Y001880D01*
X030460Y001720D01*
X029378Y001720D01*
X029391Y001605D01*
X029420Y001477D01*
X029463Y001354D01*
X029520Y001236D01*
X029589Y001125D01*
X029671Y001023D01*
X029763Y000931D01*
X029865Y000849D01*
X029976Y000779D01*
X030094Y000723D01*
X030217Y000679D01*
X030345Y000650D01*
X030460Y000637D01*
X030460Y001720D01*
X030620Y001720D01*
X030620Y000637D01*
X030735Y000650D01*
X030863Y000679D01*
X030986Y000723D01*
X031104Y000779D01*
X031215Y000849D01*
X031317Y000931D01*
X031410Y001023D01*
X031491Y001125D01*
X031561Y001236D01*
X031617Y001354D01*
X031661Y001477D01*
X031690Y001605D01*
X031703Y001720D01*
X030620Y001720D01*
X030620Y001880D01*
X030620Y002963D01*
X030661Y002958D02*
X031738Y002958D01*
X031738Y002800D02*
X031138Y002800D01*
X031346Y002641D02*
X031738Y002641D01*
X031738Y002483D02*
X031485Y002483D01*
X031580Y002324D02*
X031738Y002324D01*
X031738Y002166D02*
X031646Y002166D01*
X031687Y002007D02*
X031738Y002007D01*
X031738Y001849D02*
X030620Y001849D01*
X030620Y002007D02*
X030460Y002007D01*
X030460Y001880D02*
X030460Y002963D01*
X030345Y002950D01*
X030217Y002921D01*
X030094Y002877D01*
X029976Y002821D01*
X029865Y002751D01*
X029763Y002669D01*
X029671Y002577D01*
X029589Y002475D01*
X029520Y002364D01*
X029463Y002246D01*
X029420Y002123D01*
X029391Y001995D01*
X029378Y001880D01*
X030460Y001880D01*
X030460Y001849D02*
X026162Y001849D01*
X026172Y002007D02*
X029393Y002007D01*
X029435Y002166D02*
X026172Y002166D01*
X026172Y002324D02*
X029500Y002324D01*
X029595Y002483D02*
X026172Y002483D01*
X026172Y002641D02*
X029735Y002641D01*
X029943Y002800D02*
X026172Y002800D01*
X025695Y002800D02*
X023539Y002800D01*
X023456Y002958D02*
X025695Y002958D01*
X025695Y003117D02*
X023456Y003117D01*
X022979Y003117D02*
X017115Y003117D01*
X016979Y002958D02*
X022979Y002958D01*
X022979Y002800D02*
X016883Y002800D01*
X017117Y003275D02*
X019338Y003275D01*
X019441Y003172D02*
X019207Y003406D01*
X019207Y003737D01*
X019441Y003972D01*
X019773Y003972D01*
X020007Y003737D01*
X020007Y003406D01*
X019773Y003172D01*
X019441Y003172D01*
X019876Y003275D02*
X020338Y003275D01*
X020441Y003172D02*
X020207Y003406D01*
X020207Y003737D01*
X020441Y003972D01*
X020773Y003972D01*
X021007Y003737D01*
X021007Y003406D01*
X020773Y003172D01*
X020441Y003172D01*
X020876Y003275D02*
X022979Y003275D01*
X022979Y003434D02*
X021007Y003434D01*
X021007Y003592D02*
X022979Y003592D01*
X022979Y003751D02*
X020994Y003751D01*
X020835Y003909D02*
X022979Y003909D01*
X023022Y004068D02*
X017117Y004068D01*
X017117Y004226D02*
X023180Y004226D01*
X023294Y004385D02*
X017117Y004385D01*
X017117Y004543D02*
X023294Y004543D01*
X023771Y004543D02*
X025695Y004543D01*
X025695Y004385D02*
X023771Y004385D01*
X023771Y004226D02*
X025695Y004226D01*
X024710Y003909D02*
X024166Y003909D01*
X024325Y003751D02*
X024551Y003751D01*
X024538Y003592D02*
X024338Y003592D01*
X024338Y003434D02*
X024538Y003434D01*
X023698Y002641D02*
X025695Y002641D01*
X025695Y002483D02*
X023856Y002483D01*
X024015Y002324D02*
X025695Y002324D01*
X025695Y002166D02*
X024173Y002166D01*
X024332Y002007D02*
X025646Y002007D01*
X025488Y001849D02*
X024575Y001849D01*
X024657Y001690D02*
X025329Y001690D01*
X025171Y001532D02*
X024636Y001532D01*
X024488Y001373D02*
X025012Y001373D01*
X025528Y001215D02*
X029533Y001215D01*
X029456Y001373D02*
X025687Y001373D01*
X025845Y001532D02*
X029407Y001532D01*
X029381Y001690D02*
X026004Y001690D01*
X025370Y001056D02*
X029644Y001056D01*
X029804Y000898D02*
X025211Y000898D01*
X024230Y001373D02*
X021625Y001373D01*
X021625Y001532D02*
X024082Y001532D01*
X023974Y001690D02*
X021584Y001690D01*
X021462Y001849D02*
X023816Y001849D01*
X023657Y002007D02*
X018899Y002007D01*
X018740Y002166D02*
X023499Y002166D01*
X023340Y002324D02*
X018582Y002324D01*
X018423Y002483D02*
X023182Y002483D01*
X023119Y002546D02*
X023119Y002546D01*
X023023Y002641D02*
X018265Y002641D01*
X019207Y003434D02*
X017117Y003434D01*
X017117Y003592D02*
X019207Y003592D01*
X019220Y003751D02*
X017117Y003751D01*
X017117Y003909D02*
X019379Y003909D01*
X019835Y003909D02*
X020379Y003909D01*
X020220Y003751D02*
X019994Y003751D01*
X020007Y003592D02*
X020207Y003592D01*
X020207Y003434D02*
X020007Y003434D01*
X020327Y001849D02*
X019296Y001849D01*
X019419Y001690D02*
X020205Y001690D01*
X020164Y001532D02*
X019460Y001532D01*
X021588Y000739D02*
X030060Y000739D01*
X030460Y000739D02*
X030620Y000739D01*
X030620Y000898D02*
X030460Y000898D01*
X031020Y000739D02*
X031078Y000739D01*
X031276Y000898D02*
X031317Y000898D01*
X031436Y001056D02*
X031476Y001056D01*
X031547Y001215D02*
X031574Y001215D01*
X031624Y001373D02*
X031655Y001373D01*
X031673Y001532D02*
X031698Y001532D01*
X031699Y001690D02*
X031731Y001690D01*
X030620Y001690D02*
X030460Y001690D01*
X030460Y001532D02*
X030620Y001532D01*
X030620Y001373D02*
X030460Y001373D01*
X030460Y001215D02*
X030620Y001215D01*
X030620Y001056D02*
X030460Y001056D01*
X030460Y002166D02*
X030620Y002166D01*
X030620Y002324D02*
X030460Y002324D01*
X030460Y002483D02*
X030620Y002483D01*
X030620Y002641D02*
X030460Y002641D01*
X030460Y002800D02*
X030620Y002800D01*
X030208Y004702D02*
X031738Y004702D01*
X031738Y004860D02*
X030300Y004860D01*
X030308Y005019D02*
X031738Y005019D01*
X031738Y005177D02*
X030229Y005177D01*
X030090Y005336D02*
X031738Y005336D01*
X031738Y005494D02*
X030130Y005494D01*
X030130Y005653D02*
X031738Y005653D01*
X031738Y005811D02*
X030130Y005811D01*
X030130Y005970D02*
X031738Y005970D01*
X031738Y006128D02*
X030130Y006128D01*
X030130Y006287D02*
X031738Y006287D01*
X031738Y006445D02*
X030130Y006445D01*
X030130Y006592D02*
X030130Y006605D01*
X030152Y006615D01*
X030253Y006715D01*
X030308Y006847D01*
X030308Y006989D01*
X030253Y007121D01*
X030152Y007222D01*
X030021Y007276D01*
X029878Y007276D01*
X029747Y007222D01*
X029646Y007121D01*
X029596Y007000D01*
X028442Y007000D01*
X028442Y006592D01*
X029801Y006592D01*
X029878Y006560D01*
X030021Y006560D01*
X030098Y006592D01*
X030130Y006592D01*
X030130Y006604D02*
X031738Y006604D01*
X031738Y006762D02*
X030273Y006762D01*
X030308Y006921D02*
X031738Y006921D01*
X031738Y007079D02*
X030271Y007079D01*
X030114Y007238D02*
X031738Y007238D01*
X031738Y007396D02*
X026473Y007396D01*
X026597Y007222D02*
X026496Y007121D01*
X026442Y006989D01*
X026442Y006847D01*
X026496Y006715D01*
X026597Y006615D01*
X026620Y006605D01*
X026620Y006592D01*
X026651Y006592D01*
X026729Y006560D01*
X026871Y006560D01*
X026949Y006592D01*
X028307Y006592D01*
X028307Y007000D01*
X027154Y007000D01*
X027104Y007121D01*
X027003Y007222D01*
X026871Y007276D01*
X026729Y007276D01*
X026597Y007222D01*
X026635Y007238D02*
X026315Y007238D01*
X026172Y007079D02*
X026479Y007079D01*
X026442Y006921D02*
X026172Y006921D01*
X025695Y006921D02*
X023771Y006921D01*
X023771Y007079D02*
X025695Y007079D01*
X025695Y007238D02*
X023771Y007238D01*
X023771Y007396D02*
X025799Y007396D01*
X025958Y007555D02*
X023771Y007555D01*
X023294Y007555D02*
X021685Y007555D01*
X021685Y007396D02*
X023294Y007396D01*
X023294Y007238D02*
X021685Y007238D01*
X021685Y007079D02*
X023294Y007079D01*
X023294Y006921D02*
X021685Y006921D01*
X021775Y006762D02*
X023294Y006762D01*
X023294Y006604D02*
X021776Y006604D01*
X021670Y006445D02*
X023294Y006445D01*
X023294Y006287D02*
X020926Y006287D01*
X020705Y006287D02*
X017117Y006287D01*
X017117Y006445D02*
X020542Y006445D01*
X020517Y006604D02*
X017117Y006604D01*
X017117Y006762D02*
X020576Y006762D01*
X020576Y006921D02*
X017117Y006921D01*
X017171Y007079D02*
X018173Y007079D01*
X018156Y007238D02*
X017167Y007238D01*
X017059Y007396D02*
X018156Y007396D01*
X018156Y007555D02*
X016133Y007555D01*
X016133Y007396D02*
X016698Y007396D01*
X016590Y007238D02*
X016133Y007238D01*
X016133Y007079D02*
X016145Y007079D01*
X015656Y007079D02*
X015484Y007079D01*
X015484Y006921D02*
X015656Y006921D01*
X015656Y006762D02*
X015484Y006762D01*
X015484Y006604D02*
X015604Y006604D01*
X015604Y006445D02*
X015484Y006445D01*
X015710Y006287D02*
X015227Y006287D01*
X015227Y006128D02*
X015948Y006128D01*
X015790Y005970D02*
X015227Y005970D01*
X015227Y005811D02*
X015631Y005811D01*
X015473Y005653D02*
X015227Y005653D01*
X015227Y005494D02*
X015459Y005494D01*
X015459Y005336D02*
X015227Y005336D01*
X015227Y005177D02*
X015459Y005177D01*
X015459Y005019D02*
X015080Y005019D01*
X014952Y004860D02*
X015459Y004860D01*
X015459Y004702D02*
X014952Y004702D01*
X014952Y004543D02*
X015459Y004543D01*
X015459Y004385D02*
X014952Y004385D01*
X014952Y004226D02*
X015459Y004226D01*
X015459Y004068D02*
X014952Y004068D01*
X014952Y003909D02*
X015459Y003909D01*
X015459Y003751D02*
X014952Y003751D01*
X014952Y003592D02*
X015459Y003592D01*
X015459Y003434D02*
X014952Y003434D01*
X014952Y003275D02*
X015451Y003275D01*
X015399Y003117D02*
X014952Y003117D01*
X014952Y002958D02*
X015433Y002958D01*
X014475Y003275D02*
X013002Y003275D01*
X012899Y003172D02*
X013133Y003406D01*
X013133Y003737D01*
X012899Y003972D01*
X012567Y003972D01*
X012333Y003737D01*
X012333Y003406D01*
X012567Y003172D01*
X012899Y003172D01*
X012464Y003275D02*
X012002Y003275D01*
X011899Y003172D02*
X012133Y003406D01*
X012133Y003737D01*
X011899Y003972D01*
X011567Y003972D01*
X011333Y003737D01*
X011333Y003406D01*
X011567Y003172D01*
X011899Y003172D01*
X011464Y003275D02*
X008671Y003275D01*
X008802Y003434D02*
X011333Y003434D01*
X011333Y003592D02*
X008802Y003592D01*
X008789Y003751D02*
X011346Y003751D01*
X011505Y003909D02*
X008631Y003909D01*
X008244Y004068D02*
X014475Y004068D01*
X014475Y004226D02*
X008085Y004226D01*
X007927Y004385D02*
X014475Y004385D01*
X014475Y004543D02*
X007426Y004543D01*
X006910Y004385D02*
X004716Y004385D01*
X004716Y004543D02*
X006751Y004543D01*
X006601Y004702D02*
X004716Y004702D01*
X004716Y004860D02*
X006601Y004860D01*
X006601Y005019D02*
X004716Y005019D01*
X004716Y005177D02*
X006601Y005177D01*
X006601Y005336D02*
X004716Y005336D01*
X004239Y005336D02*
X000602Y005336D01*
X000602Y005177D02*
X004239Y005177D01*
X004239Y005019D02*
X000602Y005019D01*
X000602Y004860D02*
X004239Y004860D01*
X004239Y004702D02*
X000602Y004702D01*
X000602Y004543D02*
X004239Y004543D01*
X004239Y004385D02*
X000602Y004385D01*
X000602Y004226D02*
X004239Y004226D01*
X004239Y004068D02*
X000602Y004068D01*
X000602Y003909D02*
X004239Y003909D01*
X004239Y003751D02*
X000602Y003751D01*
X000602Y003592D02*
X004239Y003592D01*
X004239Y003434D02*
X000602Y003434D01*
X000602Y003275D02*
X004239Y003275D01*
X004716Y003275D02*
X007133Y003275D01*
X007237Y003172D02*
X007002Y003406D01*
X007002Y003737D01*
X007237Y003972D01*
X007568Y003972D01*
X007802Y003737D01*
X007802Y003406D01*
X007568Y003172D01*
X007237Y003172D01*
X007671Y003275D02*
X008133Y003275D01*
X008002Y003434D02*
X007802Y003434D01*
X007802Y003592D02*
X008002Y003592D01*
X007886Y003751D02*
X007789Y003751D01*
X007728Y003909D02*
X007631Y003909D01*
X007174Y003909D02*
X004716Y003909D01*
X004716Y003751D02*
X007016Y003751D01*
X007002Y003592D02*
X004716Y003592D01*
X004716Y003434D02*
X007002Y003434D01*
X007227Y004068D02*
X004716Y004068D01*
X004716Y004226D02*
X007068Y004226D01*
X007267Y004702D02*
X014475Y004702D01*
X014475Y004860D02*
X007109Y004860D01*
X007078Y005019D02*
X014475Y005019D01*
X014564Y005177D02*
X007078Y005177D01*
X007078Y005336D02*
X014723Y005336D01*
X014751Y005494D02*
X012897Y005494D01*
X012882Y005479D02*
X012372Y005479D01*
X012290Y005561D01*
X012290Y005656D01*
X011977Y005656D01*
X011525Y006108D01*
X011504Y006108D01*
X011395Y006153D01*
X011311Y006237D01*
X011265Y006347D01*
X011265Y006466D01*
X011311Y006575D01*
X011395Y006659D01*
X011504Y006705D01*
X011623Y006705D01*
X011733Y006659D01*
X011817Y006575D01*
X011862Y006466D01*
X011862Y006445D01*
X012174Y006133D01*
X012290Y006133D01*
X012290Y006228D01*
X012372Y006310D01*
X012882Y006310D01*
X012964Y006228D01*
X012964Y006133D01*
X013119Y006133D01*
X013549Y006563D01*
X013549Y006584D01*
X013594Y006693D01*
X013678Y006777D01*
X013788Y006823D01*
X013907Y006823D01*
X014016Y006777D01*
X014100Y006693D01*
X014146Y006584D01*
X014146Y006465D01*
X014100Y006355D01*
X014016Y006271D01*
X013907Y006226D01*
X013886Y006226D01*
X013316Y005656D01*
X012964Y005656D01*
X012964Y005561D01*
X012882Y005479D01*
X012357Y005494D02*
X010338Y005494D01*
X010405Y005653D02*
X012290Y005653D01*
X011822Y005811D02*
X010405Y005811D01*
X010405Y005970D02*
X011663Y005970D01*
X011456Y006128D02*
X010405Y006128D01*
X010346Y006287D02*
X011290Y006287D01*
X011265Y006445D02*
X010779Y006445D01*
X010779Y006604D02*
X011339Y006604D01*
X011789Y006604D02*
X011916Y006604D01*
X011916Y006762D02*
X010780Y006762D01*
X010866Y006848D02*
X010866Y006848D01*
X010939Y006921D02*
X011916Y006921D01*
X011916Y007079D02*
X011097Y007079D01*
X011192Y007238D02*
X011852Y007238D01*
X011829Y007396D02*
X011167Y007396D01*
X011083Y007555D02*
X011612Y007555D01*
X011612Y007713D02*
X011560Y007713D01*
X012368Y007396D02*
X012948Y007396D01*
X012948Y007238D02*
X012432Y007238D01*
X012590Y007079D02*
X012664Y007079D01*
X012664Y006921D02*
X012590Y006921D01*
X012590Y006762D02*
X012664Y006762D01*
X012664Y006604D02*
X012590Y006604D01*
X012590Y006445D02*
X012664Y006445D01*
X012905Y006287D02*
X013272Y006287D01*
X013338Y006445D02*
X013431Y006445D01*
X013338Y006604D02*
X013557Y006604D01*
X013663Y006762D02*
X013339Y006762D01*
X013498Y006921D02*
X013980Y006921D01*
X014032Y006762D02*
X014139Y006762D01*
X014137Y006604D02*
X014297Y006604D01*
X014137Y006445D02*
X014494Y006445D01*
X014751Y006287D02*
X014031Y006287D01*
X013788Y006128D02*
X014751Y006128D01*
X014751Y005970D02*
X013630Y005970D01*
X013471Y005811D02*
X014751Y005811D01*
X014751Y005653D02*
X012964Y005653D01*
X012348Y006287D02*
X012021Y006287D01*
X011916Y006445D02*
X011862Y006445D01*
X010105Y006445D02*
X010031Y006445D01*
X010031Y006604D02*
X010105Y006604D01*
X010105Y006762D02*
X010031Y006762D01*
X010031Y006921D02*
X010105Y006921D01*
X010105Y007079D02*
X010031Y007079D01*
X009932Y007238D02*
X010389Y007238D01*
X010389Y007396D02*
X009932Y007396D01*
X009963Y007555D02*
X010173Y007555D01*
X010173Y007713D02*
X009963Y007713D01*
X009963Y007872D02*
X010173Y007872D01*
X010173Y008030D02*
X009963Y008030D01*
X009963Y008189D02*
X010173Y008189D01*
X010204Y008347D02*
X009931Y008347D01*
X009271Y008506D02*
X008495Y008506D01*
X008495Y008664D02*
X008741Y008664D01*
X008706Y008823D02*
X008495Y008823D01*
X008495Y008981D02*
X008756Y008981D01*
X008999Y009140D02*
X008495Y009140D01*
X008495Y009298D02*
X010496Y009298D01*
X010450Y009457D02*
X010079Y009457D01*
X010205Y009582D02*
X009947Y009325D01*
X009582Y009325D01*
X009325Y009582D01*
X009325Y009947D01*
X009582Y010205D01*
X009947Y010205D01*
X010205Y009947D01*
X010205Y009582D01*
X010205Y009615D02*
X010325Y009615D01*
X010325Y009774D02*
X010205Y009774D01*
X010205Y009932D02*
X010325Y009932D01*
X010468Y010091D02*
X010061Y010091D01*
X009947Y010325D02*
X009582Y010325D01*
X009325Y010582D01*
X009325Y010947D01*
X009582Y011205D01*
X009947Y011205D01*
X010205Y010947D01*
X010205Y010582D01*
X009947Y010325D01*
X010030Y010408D02*
X010499Y010408D01*
X010341Y010566D02*
X010188Y010566D01*
X010205Y010725D02*
X010325Y010725D01*
X010325Y010883D02*
X010205Y010883D01*
X010110Y011042D02*
X010419Y011042D01*
X010538Y011200D02*
X009951Y011200D01*
X009578Y011200D02*
X009003Y011200D01*
X009003Y011148D02*
X009003Y011658D01*
X009162Y011817D01*
X009182Y011817D01*
X009292Y011862D01*
X009376Y011946D01*
X009421Y012056D01*
X009421Y012174D01*
X009376Y012284D01*
X009292Y012368D01*
X009182Y012413D01*
X009063Y012413D01*
X008954Y012368D01*
X008870Y012284D01*
X008824Y012174D01*
X008824Y012154D01*
X008526Y011855D01*
X008526Y011148D01*
X008325Y010947D01*
X008325Y010582D01*
X008582Y010325D01*
X008947Y010325D01*
X009205Y010582D01*
X009205Y010947D01*
X009003Y011148D01*
X009110Y011042D02*
X009419Y011042D01*
X009325Y010883D02*
X009205Y010883D01*
X009205Y010725D02*
X009325Y010725D01*
X009341Y010566D02*
X009188Y010566D01*
X009030Y010408D02*
X009499Y010408D01*
X009468Y010091D02*
X009061Y010091D01*
X009205Y009932D02*
X009325Y009932D01*
X009325Y009774D02*
X009205Y009774D01*
X009205Y009615D02*
X009325Y009615D01*
X009450Y009457D02*
X009079Y009457D01*
X008018Y009298D02*
X008003Y009298D01*
X008003Y009140D02*
X008018Y009140D01*
X007526Y009298D02*
X006293Y009298D01*
X006450Y009457D02*
X006134Y009457D01*
X005976Y009615D02*
X006325Y009615D01*
X006325Y009582D02*
X006582Y009325D01*
X006947Y009325D01*
X007205Y009582D01*
X007205Y009947D01*
X006947Y010205D01*
X006582Y010205D01*
X006325Y009947D01*
X006325Y009582D01*
X006325Y009774D02*
X005817Y009774D01*
X005611Y009305D02*
X005302Y009615D01*
X005302Y009774D02*
X004096Y009774D01*
X004254Y009932D02*
X005302Y009932D01*
X005302Y010091D02*
X004413Y010091D01*
X003897Y010249D02*
X002397Y010249D01*
X002364Y010228D02*
X002475Y010298D01*
X002577Y010379D01*
X002669Y010472D01*
X002751Y010574D01*
X002821Y010685D01*
X002877Y010803D01*
X002921Y010926D01*
X002950Y011053D01*
X002963Y011169D01*
X001880Y011169D01*
X001880Y011329D01*
X001720Y011329D01*
X001720Y012411D01*
X001605Y012398D01*
X001477Y012369D01*
X001354Y012326D01*
X001236Y012269D01*
X001125Y012200D01*
X001023Y012118D01*
X000931Y012026D01*
X000849Y011924D01*
X000779Y011813D01*
X000723Y011695D01*
X000679Y011572D01*
X000650Y011444D01*
X000637Y011329D01*
X001720Y011329D01*
X001720Y011169D01*
X000637Y011169D01*
X000650Y011053D01*
X000679Y010926D01*
X000723Y010803D01*
X000779Y010685D01*
X000849Y010574D01*
X000931Y010472D01*
X001023Y010379D01*
X001125Y010298D01*
X001236Y010228D01*
X001354Y010171D01*
X001477Y010128D01*
X001605Y010099D01*
X001720Y010086D01*
X001720Y011169D01*
X001880Y011169D01*
X001880Y010086D01*
X001995Y010099D01*
X002123Y010128D01*
X002246Y010171D01*
X002364Y010228D01*
X002605Y010408D02*
X004055Y010408D01*
X004179Y010566D02*
X002745Y010566D01*
X002840Y010725D02*
X004179Y010725D01*
X004179Y010883D02*
X002905Y010883D01*
X002947Y011042D02*
X004179Y011042D01*
X004256Y011359D02*
X002959Y011359D01*
X002963Y011329D02*
X002950Y011444D01*
X002921Y011572D01*
X002877Y011695D01*
X002821Y011813D01*
X002751Y011924D01*
X002669Y012026D01*
X002577Y012118D01*
X002475Y012200D01*
X002364Y012269D01*
X002246Y012326D01*
X002123Y012369D01*
X001995Y012398D01*
X001880Y012411D01*
X001880Y011329D01*
X002963Y011329D01*
X002933Y011517D02*
X004179Y011517D01*
X004179Y011676D02*
X002884Y011676D01*
X002807Y011834D02*
X004179Y011834D01*
X004179Y011993D02*
X002696Y011993D01*
X002536Y012151D02*
X004179Y012151D01*
X005169Y012151D02*
X008822Y012151D01*
X008895Y012310D02*
X002281Y012310D01*
X001880Y012310D02*
X001720Y012310D01*
X001720Y012151D02*
X001880Y012151D01*
X001319Y012310D02*
X001249Y012310D01*
X001064Y012151D02*
X001012Y012151D01*
X000904Y011993D02*
X000855Y011993D01*
X000793Y011834D02*
X000759Y011834D01*
X000716Y011676D02*
X000680Y011676D01*
X000667Y011517D02*
X000638Y011517D01*
X000641Y011359D02*
X000608Y011359D01*
X000602Y011200D02*
X001720Y011200D01*
X001720Y011042D02*
X001880Y011042D01*
X001880Y011200D02*
X005302Y011200D01*
X005302Y011042D02*
X005169Y011042D01*
X005169Y010883D02*
X005302Y010883D01*
X005302Y010725D02*
X005169Y010725D01*
X005169Y010566D02*
X005302Y010566D01*
X005302Y010408D02*
X005169Y010408D01*
X005102Y010249D02*
X005302Y010249D01*
X005779Y010249D02*
X007896Y010249D01*
X007499Y010408D02*
X007030Y010408D01*
X006947Y010325D02*
X007205Y010582D01*
X007205Y010947D01*
X006947Y011205D01*
X006582Y011205D01*
X006325Y010947D01*
X006325Y010582D01*
X006582Y010325D01*
X006947Y010325D01*
X007188Y010566D02*
X007341Y010566D01*
X007325Y010725D02*
X007205Y010725D01*
X007205Y010883D02*
X007325Y010883D01*
X007419Y011042D02*
X007110Y011042D01*
X006951Y011200D02*
X007578Y011200D01*
X007951Y011200D02*
X008526Y011200D01*
X008419Y011042D02*
X008110Y011042D01*
X008205Y010883D02*
X008325Y010883D01*
X008325Y010725D02*
X008205Y010725D01*
X008253Y010566D02*
X008341Y010566D01*
X008412Y010408D02*
X008499Y010408D01*
X008495Y010249D02*
X012589Y010249D01*
X012468Y010091D02*
X012061Y010091D01*
X011947Y010205D02*
X011582Y010205D01*
X011325Y009947D01*
X011325Y009582D01*
X011582Y009325D01*
X011947Y009325D01*
X012205Y009582D01*
X012205Y009947D01*
X011947Y010205D01*
X012030Y010408D02*
X012443Y010408D01*
X013182Y010503D02*
X013245Y010566D01*
X013285Y010566D02*
X013347Y010503D01*
X013182Y010503D01*
X013245Y010725D02*
X013285Y010725D01*
X013245Y010785D02*
X013245Y010963D01*
X012963Y011245D01*
X012785Y011245D01*
X012785Y010785D01*
X013245Y010785D01*
X013245Y010883D02*
X013285Y010883D01*
X013363Y011042D02*
X013166Y011042D01*
X013008Y011200D02*
X013521Y011200D01*
X013745Y011200D02*
X013785Y011200D01*
X013785Y011245D02*
X013785Y010785D01*
X014245Y010785D01*
X014245Y010963D01*
X013963Y011245D01*
X013785Y011245D01*
X014008Y011200D02*
X018274Y011200D01*
X018274Y011068D02*
X018286Y011022D01*
X018310Y010981D01*
X018343Y010947D01*
X018384Y010924D01*
X018430Y010911D01*
X018691Y010911D01*
X018691Y011368D01*
X018274Y011368D01*
X018274Y011068D01*
X018281Y011042D02*
X014166Y011042D01*
X014245Y010883D02*
X019419Y010883D01*
X019416Y011042D02*
X019256Y011042D01*
X019263Y011200D02*
X019416Y011200D01*
X019416Y011359D02*
X019263Y011359D01*
X019416Y011517D02*
X018846Y011517D01*
X018691Y011517D02*
X011027Y011517D01*
X011015Y011359D02*
X018274Y011359D01*
X018691Y011359D02*
X018846Y011359D01*
X018846Y011200D02*
X018691Y011200D01*
X018691Y011042D02*
X018846Y011042D01*
X019143Y010725D02*
X019261Y010725D01*
X019668Y010566D02*
X020142Y010566D01*
X020085Y010408D02*
X019750Y010408D01*
X020334Y010091D02*
X020595Y010091D01*
X020632Y010249D02*
X020754Y010249D01*
X020720Y010408D02*
X020912Y010408D01*
X020991Y010566D02*
X020702Y010566D01*
X020567Y010725D02*
X023334Y010725D01*
X023731Y010725D02*
X026887Y010725D01*
X026883Y010709D02*
X026883Y010448D01*
X027341Y010448D01*
X027341Y010865D01*
X027039Y010865D01*
X026994Y010853D01*
X026953Y010829D01*
X026919Y010796D01*
X026895Y010755D01*
X026883Y010709D01*
X027341Y010725D02*
X027496Y010725D01*
X027496Y010865D02*
X027496Y010448D01*
X027341Y010448D01*
X027341Y010293D01*
X026883Y010293D01*
X026883Y010031D01*
X026895Y009986D01*
X026919Y009945D01*
X026953Y009911D01*
X026994Y009887D01*
X027039Y009875D01*
X027341Y009875D01*
X027341Y010293D01*
X027496Y010293D01*
X027496Y010448D01*
X027953Y010448D01*
X027953Y010709D01*
X027941Y010755D01*
X027917Y010796D01*
X027884Y010829D01*
X027843Y010853D01*
X027797Y010865D01*
X027496Y010865D01*
X027838Y011042D02*
X028491Y011042D01*
X028491Y010883D02*
X019985Y010883D01*
X019826Y010725D02*
X020278Y010725D01*
X020326Y011042D02*
X026998Y011042D01*
X026923Y011200D02*
X020326Y011200D01*
X020326Y011359D02*
X020959Y011359D01*
X020801Y011517D02*
X020326Y011517D01*
X020326Y011676D02*
X020642Y011676D01*
X020484Y011834D02*
X020326Y011834D01*
X021000Y011993D02*
X029644Y011993D01*
X029671Y012026D02*
X029589Y011924D01*
X029520Y011813D01*
X029463Y011695D01*
X029420Y011572D01*
X029391Y011444D01*
X029378Y011329D01*
X030460Y011329D01*
X030460Y012411D01*
X030345Y012398D01*
X030217Y012369D01*
X030094Y012326D01*
X029976Y012269D01*
X029865Y012200D01*
X029763Y012118D01*
X029671Y012026D01*
X029804Y012151D02*
X020841Y012151D01*
X020739Y012253D02*
X020739Y012253D01*
X020683Y012310D02*
X030059Y012310D01*
X030460Y012310D02*
X030620Y012310D01*
X030620Y012411D02*
X030735Y012398D01*
X030863Y012369D01*
X030986Y012326D01*
X031104Y012269D01*
X031215Y012200D01*
X031317Y012118D01*
X031410Y012026D01*
X031491Y011924D01*
X031561Y011813D01*
X031617Y011695D01*
X031661Y011572D01*
X031690Y011444D01*
X031703Y011329D01*
X030620Y011329D01*
X030460Y011329D01*
X030460Y011169D01*
X029378Y011169D01*
X029391Y011053D01*
X029420Y010926D01*
X029463Y010803D01*
X029520Y010685D01*
X029589Y010574D01*
X029671Y010472D01*
X029763Y010379D01*
X029865Y010298D01*
X029976Y010228D01*
X030094Y010171D01*
X030217Y010128D01*
X030345Y010099D01*
X030460Y010086D01*
X030460Y011169D01*
X030620Y011169D01*
X030620Y011329D01*
X030620Y012411D01*
X031021Y012310D02*
X031080Y012310D01*
X031276Y012151D02*
X031319Y012151D01*
X031436Y011993D02*
X031477Y011993D01*
X031547Y011834D02*
X031575Y011834D01*
X031624Y011676D02*
X031656Y011676D01*
X031673Y011517D02*
X031698Y011517D01*
X031699Y011359D02*
X031731Y011359D01*
X031738Y011249D02*
X031738Y011249D01*
X031738Y011200D02*
X030620Y011200D01*
X030620Y011169D02*
X031703Y011169D01*
X031690Y011053D01*
X031661Y010926D01*
X031617Y010803D01*
X031561Y010685D01*
X031491Y010574D01*
X031410Y010472D01*
X031317Y010379D01*
X031215Y010298D01*
X031104Y010228D01*
X030986Y010171D01*
X030863Y010128D01*
X030735Y010099D01*
X030620Y010086D01*
X030620Y011169D01*
X030620Y011042D02*
X030460Y011042D01*
X030460Y011200D02*
X028968Y011200D01*
X028968Y011042D02*
X029393Y011042D01*
X029435Y010883D02*
X028968Y010883D01*
X028968Y010725D02*
X029500Y010725D01*
X029596Y010566D02*
X028968Y010566D01*
X028968Y010408D02*
X029735Y010408D01*
X029943Y010249D02*
X028968Y010249D01*
X028968Y010091D02*
X030422Y010091D01*
X030460Y010091D02*
X030620Y010091D01*
X030659Y010091D02*
X031738Y010091D01*
X031738Y010249D02*
X031137Y010249D01*
X031345Y010408D02*
X031738Y010408D01*
X031738Y010566D02*
X031485Y010566D01*
X031580Y010725D02*
X031738Y010725D01*
X031738Y010883D02*
X031646Y010883D01*
X031687Y011042D02*
X031738Y011042D01*
X030620Y010883D02*
X030460Y010883D01*
X030460Y010725D02*
X030620Y010725D01*
X030620Y010566D02*
X030460Y010566D01*
X030460Y010408D02*
X030620Y010408D01*
X030620Y010249D02*
X030460Y010249D01*
X031738Y009932D02*
X028968Y009932D01*
X028491Y009932D02*
X027905Y009932D01*
X027917Y009945D02*
X027941Y009986D01*
X027953Y010031D01*
X027953Y010293D01*
X027496Y010293D01*
X027496Y009875D01*
X027797Y009875D01*
X027843Y009887D01*
X027884Y009911D01*
X027917Y009945D01*
X027953Y010091D02*
X028491Y010091D01*
X028491Y010249D02*
X027953Y010249D01*
X027496Y010249D02*
X027341Y010249D01*
X027341Y010091D02*
X027496Y010091D01*
X027496Y009932D02*
X027341Y009932D01*
X026932Y009932D02*
X023771Y009932D01*
X023771Y010091D02*
X026883Y010091D01*
X026883Y010249D02*
X023771Y010249D01*
X023817Y010408D02*
X027341Y010408D01*
X027496Y010408D02*
X028491Y010408D01*
X028491Y010566D02*
X027953Y010566D01*
X027496Y010566D02*
X027341Y010566D01*
X026883Y010566D02*
X023828Y010566D01*
X023236Y010566D02*
X021979Y010566D01*
X021979Y010408D02*
X023248Y010408D01*
X023294Y010249D02*
X021979Y010249D01*
X021979Y010091D02*
X023294Y010091D01*
X023294Y009932D02*
X021979Y009932D01*
X021901Y009774D02*
X023294Y009774D01*
X023294Y009615D02*
X020961Y009615D01*
X021069Y009774D02*
X020844Y009774D01*
X019871Y009277D02*
X019871Y009041D01*
X019871Y009277D01*
X019871Y009277D01*
X019871Y009140D02*
X019871Y009140D01*
X020169Y009140D02*
X020477Y009140D01*
X020537Y008981D02*
X019717Y008981D01*
X019745Y008823D02*
X020537Y008823D01*
X020537Y008664D02*
X020258Y008664D01*
X020417Y008506D02*
X020678Y008506D01*
X020575Y008347D02*
X020836Y008347D01*
X020734Y008189D02*
X020995Y008189D01*
X020892Y008030D02*
X021153Y008030D01*
X021285Y007872D02*
X020976Y007872D01*
X020976Y007713D02*
X021285Y007713D01*
X021285Y007555D02*
X020976Y007555D01*
X020976Y007396D02*
X021285Y007396D01*
X021285Y007238D02*
X020976Y007238D01*
X020976Y007079D02*
X021285Y007079D01*
X021285Y006921D02*
X020976Y006921D01*
X020576Y007079D02*
X020193Y007079D01*
X020196Y007085D02*
X020208Y007131D01*
X020208Y007431D01*
X019791Y007431D01*
X019791Y007586D01*
X020208Y007586D01*
X020208Y007887D01*
X020196Y007932D01*
X020172Y007974D01*
X020139Y008007D01*
X020098Y008031D01*
X020052Y008043D01*
X019791Y008043D01*
X019791Y007586D01*
X019636Y007586D01*
X019636Y007431D01*
X019791Y007431D01*
X019791Y006974D01*
X020052Y006974D01*
X020098Y006987D01*
X020139Y007010D01*
X020172Y007044D01*
X020196Y007085D01*
X020208Y007238D02*
X020576Y007238D01*
X020576Y007396D02*
X020208Y007396D01*
X020576Y007555D02*
X019791Y007555D01*
X019636Y007555D02*
X019066Y007555D01*
X019218Y007586D02*
X019636Y007586D01*
X019636Y008043D01*
X019375Y008043D01*
X019329Y008031D01*
X019288Y008007D01*
X019254Y007974D01*
X019231Y007932D01*
X019218Y007887D01*
X019218Y007586D01*
X019218Y007713D02*
X019066Y007713D01*
X019066Y007872D02*
X019218Y007872D01*
X019328Y008030D02*
X018890Y008030D01*
X019023Y008189D02*
X020168Y008189D01*
X020099Y008030D02*
X020326Y008030D01*
X020208Y007872D02*
X020485Y007872D01*
X020576Y007713D02*
X020208Y007713D01*
X019791Y007713D02*
X019636Y007713D01*
X019636Y007872D02*
X019791Y007872D01*
X019791Y008030D02*
X019636Y008030D01*
X020009Y008347D02*
X019181Y008347D01*
X019206Y008372D02*
X019206Y008372D01*
X019323Y008506D02*
X019497Y008506D01*
X019338Y008664D02*
X019323Y008664D01*
X018923Y008664D02*
X017619Y008664D01*
X017653Y008697D01*
X017676Y008738D01*
X017689Y008784D01*
X017689Y009045D01*
X017232Y009045D01*
X017232Y008628D01*
X017532Y008628D01*
X017578Y008640D01*
X017619Y008664D01*
X017689Y008823D02*
X018923Y008823D01*
X018923Y008981D02*
X017689Y008981D01*
X017232Y008981D02*
X017077Y008981D01*
X017077Y009045D02*
X017232Y009045D01*
X017232Y009200D01*
X017689Y009200D01*
X017689Y009461D01*
X017676Y009507D01*
X017653Y009548D01*
X017619Y009582D01*
X017578Y009606D01*
X017532Y009618D01*
X017232Y009618D01*
X017232Y009200D01*
X017077Y009200D01*
X017077Y009045D01*
X017077Y008628D01*
X016776Y008628D01*
X016731Y008640D01*
X016689Y008664D01*
X014283Y008664D01*
X014283Y008506D02*
X018774Y008506D01*
X018615Y008347D02*
X014283Y008347D01*
X014283Y008189D02*
X014494Y008189D01*
X014494Y008030D02*
X014283Y008030D01*
X014283Y007872D02*
X014494Y007872D01*
X014494Y007713D02*
X014283Y007713D01*
X014283Y007555D02*
X014494Y007555D01*
X014283Y007396D02*
X015656Y007396D01*
X015656Y007238D02*
X014337Y007238D01*
X015484Y007555D02*
X015590Y007555D01*
X016106Y007713D02*
X018156Y007713D01*
X018156Y007872D02*
X015948Y007872D01*
X015789Y008030D02*
X018490Y008030D01*
X018490Y008189D02*
X015484Y008189D01*
X016632Y008738D02*
X016656Y008697D01*
X016689Y008664D01*
X016632Y008738D02*
X016620Y008784D01*
X016620Y009045D01*
X017077Y009045D01*
X017077Y009140D02*
X014283Y009140D01*
X014283Y009298D02*
X016620Y009298D01*
X016620Y009200D02*
X017077Y009200D01*
X017077Y009618D01*
X016776Y009618D01*
X016731Y009606D01*
X016689Y009582D01*
X016656Y009548D01*
X016632Y009507D01*
X016620Y009461D01*
X016620Y009200D01*
X017077Y009298D02*
X017232Y009298D01*
X017232Y009140D02*
X018514Y009140D01*
X018491Y009298D02*
X017689Y009298D01*
X017689Y009457D02*
X018451Y009457D01*
X018451Y009477D02*
X018571Y009477D01*
X018571Y009477D01*
X018571Y009477D01*
X018451Y009477D01*
X018468Y009615D02*
X017543Y009615D01*
X017570Y009774D02*
X018455Y009774D01*
X018768Y009873D02*
X018768Y010068D01*
X018769Y010068D01*
X018769Y009873D01*
X018768Y009873D01*
X018768Y009932D02*
X018769Y009932D01*
X018451Y009932D02*
X017649Y009932D01*
X017649Y010091D02*
X018451Y010091D01*
X018498Y010249D02*
X017649Y010249D01*
X016660Y009932D02*
X014205Y009932D01*
X014205Y009774D02*
X016739Y009774D01*
X016766Y009615D02*
X014251Y009615D01*
X014283Y009457D02*
X016620Y009457D01*
X017077Y009457D02*
X017232Y009457D01*
X017232Y009615D02*
X017077Y009615D01*
X016620Y008981D02*
X014283Y008981D01*
X014283Y008823D02*
X016620Y008823D01*
X017077Y008823D02*
X017232Y008823D01*
X017232Y008664D02*
X017077Y008664D01*
X019066Y007396D02*
X019218Y007396D01*
X019218Y007431D02*
X019218Y007131D01*
X019231Y007085D01*
X019254Y007044D01*
X019288Y007010D01*
X019329Y006987D01*
X019375Y006974D01*
X019636Y006974D01*
X019636Y007431D01*
X019218Y007431D01*
X019218Y007238D02*
X019066Y007238D01*
X019049Y007079D02*
X019234Y007079D01*
X019636Y007079D02*
X019791Y007079D01*
X019791Y007238D02*
X019636Y007238D01*
X019636Y007396D02*
X019791Y007396D01*
X021040Y006762D02*
X021195Y006762D01*
X021194Y006604D02*
X021114Y006604D01*
X021090Y006445D02*
X021300Y006445D01*
X023294Y006128D02*
X017117Y006128D01*
X017117Y005970D02*
X023294Y005970D01*
X023294Y005811D02*
X017117Y005811D01*
X017117Y005653D02*
X023294Y005653D01*
X023294Y005494D02*
X017117Y005494D01*
X016640Y005494D02*
X015989Y005494D01*
X016147Y005653D02*
X016640Y005653D01*
X016640Y005811D02*
X016306Y005811D01*
X016464Y005970D02*
X016640Y005970D01*
X016623Y006128D02*
X016640Y006128D01*
X016107Y006287D02*
X016079Y006287D01*
X012732Y007555D02*
X012522Y007555D01*
X012522Y007713D02*
X012732Y007713D01*
X012732Y007872D02*
X012522Y007872D01*
X012522Y008030D02*
X012732Y008030D01*
X012732Y008189D02*
X012522Y008189D01*
X012661Y008347D02*
X012763Y008347D01*
X012819Y008506D02*
X013806Y008506D01*
X013806Y008664D02*
X012978Y008664D01*
X013003Y008823D02*
X013806Y008823D01*
X013806Y008981D02*
X013003Y008981D01*
X013003Y009140D02*
X013806Y009140D01*
X013806Y009298D02*
X013003Y009298D01*
X013079Y009457D02*
X013450Y009457D01*
X013325Y009615D02*
X013205Y009615D01*
X013205Y009774D02*
X013325Y009774D01*
X013325Y009932D02*
X013205Y009932D01*
X012325Y009932D02*
X012205Y009932D01*
X012205Y009774D02*
X012325Y009774D01*
X012325Y009615D02*
X012205Y009615D01*
X012079Y009457D02*
X012450Y009457D01*
X012526Y009298D02*
X011003Y009298D01*
X011003Y009140D02*
X012526Y009140D01*
X012526Y008981D02*
X010854Y008981D01*
X011886Y008823D02*
X012462Y008823D01*
X012303Y008664D02*
X012045Y008664D01*
X013610Y008347D02*
X013806Y008347D01*
X013806Y008189D02*
X013642Y008189D01*
X011450Y009457D02*
X011079Y009457D01*
X011205Y009615D02*
X011325Y009615D01*
X011325Y009774D02*
X011205Y009774D01*
X011205Y009932D02*
X011325Y009932D01*
X011468Y010091D02*
X011061Y010091D01*
X011030Y010408D02*
X011499Y010408D01*
X011341Y010566D02*
X011188Y010566D01*
X011205Y010725D02*
X011325Y010725D01*
X011325Y010883D02*
X011205Y010883D01*
X011110Y011042D02*
X011419Y011042D01*
X011578Y011200D02*
X011015Y011200D01*
X010538Y011359D02*
X009003Y011359D01*
X009003Y011517D02*
X010538Y011517D01*
X010538Y011676D02*
X009021Y011676D01*
X009225Y011834D02*
X010670Y011834D01*
X010829Y011993D02*
X009395Y011993D01*
X009421Y012151D02*
X010987Y012151D01*
X011146Y012310D02*
X009350Y012310D01*
X008663Y011993D02*
X005449Y011993D01*
X005607Y011834D02*
X008526Y011834D01*
X008526Y011676D02*
X005766Y011676D01*
X005779Y011517D02*
X008526Y011517D01*
X008526Y011359D02*
X005779Y011359D01*
X005302Y011359D02*
X005092Y011359D01*
X005169Y011517D02*
X005250Y011517D01*
X005779Y011200D02*
X006578Y011200D01*
X006419Y011042D02*
X005779Y011042D01*
X005779Y010883D02*
X006325Y010883D01*
X006325Y010725D02*
X005779Y010725D01*
X005779Y010566D02*
X006341Y010566D01*
X006499Y010408D02*
X005779Y010408D01*
X005779Y010091D02*
X006468Y010091D01*
X006325Y009932D02*
X005779Y009932D01*
X005460Y009457D02*
X004604Y009457D01*
X004695Y009298D02*
X005295Y009298D01*
X005292Y009297D02*
X005208Y009213D01*
X005163Y009103D01*
X005163Y009083D01*
X004239Y008159D01*
X004427Y008347D02*
X003893Y008347D01*
X003953Y008506D02*
X004586Y008506D01*
X004744Y008664D02*
X004111Y008664D01*
X004551Y008823D02*
X004903Y008823D01*
X005061Y008981D02*
X004673Y008981D01*
X004713Y009140D02*
X005178Y009140D01*
X005292Y009297D02*
X005402Y009343D01*
X005521Y009343D01*
X005611Y009305D01*
X005745Y009140D02*
X005777Y009140D01*
X005758Y008981D02*
X005935Y008981D01*
X006094Y008823D02*
X005662Y008823D01*
X005419Y008664D02*
X007526Y008664D01*
X007526Y008506D02*
X005260Y008506D01*
X007110Y007872D02*
X007526Y007872D01*
X007526Y007713D02*
X007138Y007713D01*
X008495Y007713D02*
X009053Y007713D01*
X009053Y007872D02*
X008495Y007872D01*
X008495Y008030D02*
X009053Y008030D01*
X009053Y008189D02*
X008495Y008189D01*
X008495Y008347D02*
X009085Y008347D01*
X009268Y008664D02*
X009429Y008664D01*
X008018Y008664D02*
X008003Y008664D01*
X008003Y008506D02*
X008018Y008506D01*
X008003Y008823D02*
X008018Y008823D01*
X008003Y008981D02*
X008018Y008981D01*
X007450Y009457D02*
X007079Y009457D01*
X007205Y009615D02*
X007325Y009615D01*
X007325Y009774D02*
X007205Y009774D01*
X007205Y009932D02*
X007325Y009932D01*
X007468Y010091D02*
X007061Y010091D01*
X003738Y010091D02*
X001919Y010091D01*
X001880Y010091D02*
X001720Y010091D01*
X001681Y010091D02*
X000602Y010091D01*
X000602Y010249D02*
X001203Y010249D01*
X000995Y010408D02*
X000602Y010408D01*
X000602Y010566D02*
X000855Y010566D01*
X000760Y010725D02*
X000602Y010725D01*
X000602Y010883D02*
X000695Y010883D01*
X000653Y011042D02*
X000602Y011042D01*
X001720Y010883D02*
X001880Y010883D01*
X001880Y010725D02*
X001720Y010725D01*
X001720Y010566D02*
X001880Y010566D01*
X001880Y010408D02*
X001720Y010408D01*
X001720Y010249D02*
X001880Y010249D01*
X000602Y009932D02*
X003580Y009932D01*
X003421Y009774D02*
X000602Y009774D01*
X000602Y009615D02*
X003263Y009615D01*
X002925Y009457D02*
X000602Y009457D01*
X000602Y009298D02*
X002835Y009298D01*
X002816Y009140D02*
X000602Y009140D01*
X000602Y008981D02*
X002857Y008981D01*
X002979Y008823D02*
X000602Y008823D01*
X003926Y007555D02*
X004239Y007555D01*
X003515Y007238D02*
X003360Y007238D01*
X003360Y007079D02*
X003515Y007079D01*
X003515Y006921D02*
X003360Y006921D01*
X002903Y006921D02*
X000602Y006921D01*
X000602Y007079D02*
X002903Y007079D01*
X003360Y006604D02*
X003515Y006604D01*
X003515Y006445D02*
X003360Y006445D01*
X004239Y006128D02*
X000602Y006128D01*
X000602Y005970D02*
X004239Y005970D01*
X004239Y005811D02*
X000602Y005811D01*
X000602Y005653D02*
X004239Y005653D01*
X004239Y005494D02*
X000602Y005494D01*
X004716Y005494D02*
X006601Y005494D01*
X006601Y005653D02*
X004716Y005653D01*
X004716Y005811D02*
X006601Y005811D01*
X006601Y005970D02*
X004716Y005970D01*
X004716Y006128D02*
X006601Y006128D01*
X007078Y006128D02*
X007686Y006128D01*
X007844Y005970D02*
X007078Y005970D01*
X007078Y005811D02*
X008003Y005811D01*
X008161Y005653D02*
X007078Y005653D01*
X007078Y005494D02*
X009798Y005494D01*
X009731Y006128D02*
X008360Y006128D01*
X008202Y006287D02*
X009789Y006287D01*
X009357Y006445D02*
X008448Y006445D01*
X008222Y006445D02*
X008043Y006445D01*
X008061Y006604D02*
X008003Y006604D01*
X008003Y006762D02*
X008018Y006762D01*
X007526Y006762D02*
X007078Y006762D01*
X007078Y006604D02*
X007526Y006604D01*
X007526Y006445D02*
X007078Y006445D01*
X007078Y006287D02*
X007527Y006287D01*
X006601Y006287D02*
X004716Y006287D01*
X004716Y006445D02*
X006601Y006445D01*
X008495Y007079D02*
X009357Y007079D01*
X009357Y006921D02*
X008558Y006921D01*
X008634Y006762D02*
X009357Y006762D01*
X009357Y006604D02*
X008610Y006604D01*
X008495Y007238D02*
X009455Y007238D01*
X009455Y007396D02*
X008495Y007396D01*
X008495Y007555D02*
X009053Y007555D01*
X014245Y010566D02*
X014245Y010745D01*
X013785Y010883D02*
X013745Y010883D01*
X013745Y011042D02*
X013785Y011042D01*
X012785Y011042D02*
X012745Y011042D01*
X012745Y011200D02*
X012785Y011200D01*
X012521Y011200D02*
X011951Y011200D01*
X012110Y011042D02*
X012363Y011042D01*
X012285Y010883D02*
X012205Y010883D01*
X012205Y010725D02*
X012285Y010725D01*
X012745Y010883D02*
X012785Y010883D01*
X011186Y011676D02*
X018274Y011676D01*
X018276Y011834D02*
X011344Y011834D01*
X019261Y011834D02*
X019416Y011834D01*
X019416Y011676D02*
X019263Y011676D01*
X021158Y011834D02*
X026923Y011834D01*
X027913Y011834D02*
X029533Y011834D01*
X029456Y011676D02*
X028561Y011676D01*
X028719Y011517D02*
X029407Y011517D01*
X029381Y011359D02*
X028878Y011359D01*
X028362Y011200D02*
X027913Y011200D01*
X027949Y010725D02*
X028491Y010725D01*
X030460Y011359D02*
X030620Y011359D01*
X030620Y011517D02*
X030460Y011517D01*
X030460Y011676D02*
X030620Y011676D01*
X030620Y011834D02*
X030460Y011834D01*
X030460Y011993D02*
X030620Y011993D01*
X030620Y012151D02*
X030460Y012151D01*
X031738Y009774D02*
X028968Y009774D01*
X028968Y009615D02*
X031738Y009615D01*
X031738Y009457D02*
X029269Y009457D01*
X029360Y009298D02*
X031738Y009298D01*
X031738Y009140D02*
X029379Y009140D01*
X029338Y008981D02*
X031738Y008981D01*
X031738Y008823D02*
X029216Y008823D01*
X028668Y008823D02*
X028192Y008823D01*
X028314Y008981D02*
X028546Y008981D01*
X028505Y009140D02*
X028355Y009140D01*
X028336Y009298D02*
X028491Y009298D01*
X028491Y009457D02*
X028245Y009457D01*
X028491Y009615D02*
X023771Y009615D01*
X023771Y009457D02*
X027591Y009457D01*
X027500Y009298D02*
X023771Y009298D01*
X023771Y009140D02*
X027481Y009140D01*
X027384Y008981D02*
X023771Y008981D01*
X023771Y008823D02*
X027226Y008823D01*
X027067Y008664D02*
X023771Y008664D01*
X023771Y008506D02*
X026909Y008506D01*
X026750Y008347D02*
X023771Y008347D01*
X023771Y008189D02*
X026592Y008189D01*
X026433Y008030D02*
X023771Y008030D01*
X023771Y007872D02*
X026275Y007872D01*
X026116Y007713D02*
X023771Y007713D01*
X023294Y007713D02*
X021685Y007713D01*
X021685Y007872D02*
X023294Y007872D01*
X023294Y008030D02*
X021685Y008030D01*
X021560Y008189D02*
X023294Y008189D01*
X023294Y008347D02*
X021402Y008347D01*
X021243Y008506D02*
X023294Y008506D01*
X023294Y008664D02*
X021085Y008664D01*
X021979Y008823D02*
X023294Y008823D01*
X023294Y008981D02*
X021979Y008981D01*
X021979Y009140D02*
X023294Y009140D01*
X023294Y009298D02*
X021979Y009298D01*
X021979Y009457D02*
X023294Y009457D01*
X023771Y009774D02*
X028491Y009774D01*
X027741Y008664D02*
X031738Y008664D01*
X031738Y008506D02*
X027583Y008506D01*
X027424Y008347D02*
X031738Y008347D01*
X031738Y008189D02*
X027266Y008189D01*
X027107Y008030D02*
X031738Y008030D01*
X031738Y007872D02*
X026949Y007872D01*
X026790Y007713D02*
X031738Y007713D01*
X031738Y007555D02*
X026632Y007555D01*
X026965Y007238D02*
X029785Y007238D01*
X029629Y007079D02*
X027121Y007079D01*
X026477Y006762D02*
X026172Y006762D01*
X026172Y006604D02*
X026620Y006604D01*
X026620Y006445D02*
X026172Y006445D01*
X026172Y006287D02*
X026620Y006287D01*
X026620Y006128D02*
X026172Y006128D01*
X026172Y005970D02*
X026620Y005970D01*
X026620Y005811D02*
X026172Y005811D01*
X026172Y005653D02*
X026620Y005653D01*
X026620Y005494D02*
X026172Y005494D01*
X025695Y005494D02*
X023771Y005494D01*
X023771Y005653D02*
X025695Y005653D01*
X025695Y005811D02*
X023771Y005811D01*
X023771Y005970D02*
X025695Y005970D01*
X025695Y006128D02*
X023771Y006128D01*
X023771Y006287D02*
X025695Y006287D01*
X025695Y006445D02*
X023771Y006445D01*
X023771Y006604D02*
X025695Y006604D01*
X025695Y006762D02*
X023771Y006762D01*
X028307Y006762D02*
X028442Y006762D01*
X028442Y006604D02*
X028307Y006604D01*
X028307Y006921D02*
X028442Y006921D01*
X014475Y003909D02*
X012961Y003909D01*
X013120Y003751D02*
X014475Y003751D01*
X014475Y003592D02*
X013133Y003592D01*
X013133Y003434D02*
X014475Y003434D01*
X013761Y002641D02*
X010902Y002641D01*
X011061Y002483D02*
X013602Y002483D01*
X012333Y003434D02*
X012133Y003434D01*
X012133Y003592D02*
X012333Y003592D01*
X012346Y003751D02*
X012120Y003751D01*
X011961Y003909D02*
X012505Y003909D01*
X005742Y002324D02*
X004740Y002324D01*
X004214Y002324D02*
X002840Y002324D01*
X004727Y002641D02*
X005340Y002641D01*
X005583Y002483D02*
X004776Y002483D01*
X001880Y011359D02*
X001720Y011359D01*
X001720Y011517D02*
X001880Y011517D01*
X001880Y011676D02*
X001720Y011676D01*
X001720Y011834D02*
X001880Y011834D01*
X001880Y011993D02*
X001720Y011993D01*
D26*
X005461Y009044D03*
X006839Y007745D03*
X008335Y006721D03*
X011564Y006406D03*
X013847Y006524D03*
X015894Y006524D03*
X016367Y006879D03*
X016879Y007154D03*
X020816Y006564D03*
X021485Y006682D03*
X016682Y003020D03*
X015698Y003099D03*
X014713Y002548D03*
X008178Y001603D03*
X005580Y002824D03*
X004477Y002469D03*
X001288Y006564D03*
X009005Y008808D03*
X011367Y007942D03*
X018650Y010580D03*
X020422Y010461D03*
X023532Y010501D03*
X009123Y012115D03*
X024359Y001643D03*
D27*
X023217Y002784D01*
X023217Y003926D01*
X023532Y004241D01*
X023532Y010501D01*
X021165Y011490D02*
X020501Y012154D01*
X011328Y012154D01*
X010776Y011603D01*
X010776Y010776D01*
X010765Y010765D01*
X008765Y010765D02*
X008765Y011757D01*
X009123Y012115D01*
X007765Y010765D02*
X007765Y010717D01*
X008257Y010225D01*
X008257Y006800D01*
X008335Y006721D01*
X007765Y006387D02*
X008335Y005816D01*
X009989Y005816D01*
X010068Y005894D01*
X011564Y006406D02*
X012076Y005894D01*
X012627Y005894D01*
X013217Y005894D01*
X013847Y006524D01*
X014486Y006752D02*
X014044Y007194D01*
X014044Y009485D01*
X013765Y009765D01*
X012942Y010265D02*
X012765Y010087D01*
X012765Y009765D01*
X012765Y008788D01*
X012076Y008099D01*
X012076Y007911D01*
X012067Y007902D01*
X012067Y007360D01*
X012194Y007233D01*
X012194Y006820D01*
X012253Y006761D01*
X013001Y006761D02*
X013187Y006946D01*
X013187Y007902D01*
X013226Y007863D01*
X013847Y007863D01*
X014989Y007872D02*
X014998Y007863D01*
X015619Y007863D01*
X015894Y007587D01*
X015894Y006524D01*
X016406Y006249D02*
X016406Y006839D01*
X016367Y006879D01*
X016879Y007154D02*
X016879Y003217D01*
X016682Y003020D01*
X015698Y003099D02*
X015698Y005540D01*
X016406Y006249D01*
X014989Y006752D02*
X014486Y006752D01*
X014989Y006752D02*
X014989Y005265D01*
X014713Y004989D01*
X014713Y002548D01*
X014753Y002509D01*
X018060Y002509D01*
X018729Y001839D01*
X018729Y001209D01*
X020894Y001209D01*
X020973Y001131D01*
X025107Y001131D01*
X025934Y001957D01*
X025934Y007194D01*
X027906Y009166D01*
X027918Y009166D01*
X028729Y009379D02*
X028942Y009166D01*
X028729Y009379D02*
X028729Y011170D01*
X028409Y011490D01*
X027418Y011490D01*
X021165Y011490D01*
X017154Y010225D02*
X017115Y010265D01*
X012942Y010265D01*
X010765Y009765D02*
X010765Y009229D01*
X010501Y008965D01*
X009162Y008965D01*
X009005Y008808D01*
X009508Y008406D02*
X009713Y008611D01*
X011761Y008611D01*
X012076Y008296D01*
X012076Y008099D01*
X011367Y007942D02*
X010667Y007942D01*
X010628Y007902D01*
X010628Y006946D01*
X010442Y006761D01*
X010954Y007272D01*
X009694Y007717D02*
X009694Y006761D01*
X007765Y006387D02*
X007765Y009005D01*
X007725Y009044D01*
X006209Y009044D01*
X005540Y009713D01*
X005540Y011564D01*
X005295Y011809D01*
X004674Y011809D01*
X004674Y010689D02*
X003253Y009268D01*
X003253Y009166D01*
X003438Y008328D02*
X004276Y009166D01*
X004477Y008060D02*
X005461Y009044D01*
X003438Y008328D02*
X003438Y007935D01*
X004477Y008060D02*
X004477Y002469D01*
X005580Y002824D02*
X005894Y002509D01*
X010698Y002509D01*
X011446Y001761D01*
X011446Y001209D01*
X013611Y001209D01*
X013611Y002154D01*
X014005Y002548D01*
X014713Y002548D01*
X008402Y003572D02*
X007733Y004241D01*
X007391Y004241D01*
X006839Y004792D01*
X006839Y007745D01*
X009508Y007902D02*
X009694Y007717D01*
X009508Y007902D02*
X009508Y008406D01*
X007765Y009005D02*
X007765Y009765D01*
X013001Y006761D02*
X013513Y007272D01*
X013690Y007272D01*
D28*
X014690Y001611D03*
X015690Y001631D03*
X016690Y001631D03*
X017690Y001631D03*
M02*
