G75*
%MOIN*%
%OFA0B0*%
%FSLAX24Y24*%
%IPPOS*%
%LPD*%
%AMOC8*
5,1,8,0,0,1.08239X$1,22.5*
%
%ADD10C,0.0000*%
D10*
X001800Y000975D02*
X030540Y000975D01*
X030612Y000977D01*
X030684Y000983D01*
X030756Y000992D01*
X030827Y001005D01*
X030897Y001022D01*
X030966Y001042D01*
X031034Y001067D01*
X031100Y001094D01*
X031166Y001125D01*
X031229Y001160D01*
X031291Y001197D01*
X031350Y001238D01*
X031407Y001282D01*
X031462Y001329D01*
X031514Y001379D01*
X031564Y001431D01*
X031611Y001486D01*
X031655Y001543D01*
X031696Y001602D01*
X031733Y001664D01*
X031768Y001727D01*
X031799Y001793D01*
X031826Y001859D01*
X031851Y001927D01*
X031871Y001996D01*
X031888Y002066D01*
X031901Y002137D01*
X031910Y002209D01*
X031916Y002281D01*
X031918Y002353D01*
X031918Y011802D01*
X031916Y011874D01*
X031911Y011946D01*
X031901Y012017D01*
X031888Y012088D01*
X031872Y012158D01*
X031851Y012227D01*
X031827Y012295D01*
X031800Y012362D01*
X031769Y012427D01*
X031735Y012490D01*
X031697Y012552D01*
X031656Y012611D01*
X031613Y012668D01*
X031566Y012723D01*
X031516Y012776D01*
X031464Y012825D01*
X031409Y012872D01*
X031352Y012916D01*
X031293Y012957D01*
X031232Y012995D01*
X031168Y013029D01*
X031103Y013060D01*
X031037Y013088D01*
X030969Y013112D01*
X030900Y013133D01*
X030830Y013150D01*
X030759Y013163D01*
X030688Y013172D01*
X030616Y013178D01*
X030544Y013180D01*
X001777Y013180D01*
X001706Y013178D01*
X001635Y013172D01*
X001564Y013162D01*
X001494Y013149D01*
X001425Y013132D01*
X001357Y013112D01*
X001290Y013087D01*
X001224Y013060D01*
X001160Y013029D01*
X001097Y012995D01*
X001037Y012957D01*
X000978Y012917D01*
X000922Y012873D01*
X000868Y012826D01*
X000816Y012777D01*
X000768Y012725D01*
X000722Y012671D01*
X000678Y012614D01*
X000638Y012555D01*
X000601Y012494D01*
X000568Y012432D01*
X000537Y012367D01*
X000510Y012301D01*
X000487Y012234D01*
X000467Y012166D01*
X000451Y012096D01*
X000438Y012026D01*
X000429Y011955D01*
X000424Y011884D01*
X000422Y011813D01*
X000422Y002353D01*
X000424Y002281D01*
X000430Y002209D01*
X000439Y002137D01*
X000452Y002066D01*
X000469Y001996D01*
X000489Y001927D01*
X000514Y001859D01*
X000541Y001793D01*
X000572Y001727D01*
X000607Y001664D01*
X000644Y001602D01*
X000685Y001543D01*
X000729Y001486D01*
X000776Y001431D01*
X000826Y001379D01*
X000878Y001329D01*
X000933Y001282D01*
X000990Y001238D01*
X001049Y001197D01*
X001111Y001160D01*
X001174Y001125D01*
X001240Y001094D01*
X001306Y001067D01*
X001374Y001042D01*
X001443Y001022D01*
X001513Y001005D01*
X001584Y000992D01*
X001656Y000983D01*
X001728Y000977D01*
X001800Y000975D01*
X026249Y006093D02*
X026249Y006880D01*
X029398Y006880D01*
X029398Y006093D01*
X026249Y006093D01*
M02*
