G75*
%MOIN*%
%OFA0B0*%
%FSLAX24Y24*%
%IPPOS*%
%LPD*%
%AMOC8*
5,1,8,0,0,1.08239X$1,22.5*
%
%ADD10C,0.0594*%
%ADD11OC8,0.0520*%
%ADD12C,0.0591*%
%ADD13R,0.0630X0.0710*%
%ADD14R,0.0710X0.0630*%
%ADD15R,0.0394X0.0551*%
%ADD16R,0.3150X0.0591*%
%ADD17C,0.0436*%
%ADD18C,0.1969*%
%ADD19OC8,0.0709*%
%ADD20C,0.0554*%
%ADD21C,0.0515*%
%ADD22R,0.0600X0.1200*%
%ADD23C,0.0476*%
%ADD24OC8,0.0600*%
%ADD25C,0.0160*%
%ADD26C,0.0317*%
%ADD27C,0.0197*%
%ADD28C,0.0120*%
D10*
X003253Y009719D03*
X004276Y009719D03*
X027918Y009719D03*
X028942Y009719D03*
X030206Y006723D03*
X031505Y006723D03*
X031505Y005739D03*
X030205Y005739D03*
X030206Y004754D03*
X031505Y004754D03*
D11*
X024938Y004124D03*
X023938Y004124D03*
X020607Y004124D03*
X019607Y004124D03*
X012733Y004124D03*
X011733Y004124D03*
X008402Y004124D03*
X007402Y004124D03*
D12*
X011741Y002057D02*
X011741Y001467D01*
X011151Y001467D01*
X011151Y002057D01*
X011741Y002057D01*
X011151Y002057D01*
X013906Y002057D02*
X013906Y001467D01*
X013316Y001467D01*
X013316Y002057D01*
X013906Y002057D01*
X013316Y002057D01*
X019024Y002057D02*
X019024Y001467D01*
X018434Y001467D01*
X018434Y002057D01*
X019024Y002057D01*
X018434Y002057D01*
X021189Y002057D02*
X021189Y001467D01*
X020599Y001467D01*
X020599Y002057D01*
X021189Y002057D01*
X020599Y002057D01*
D13*
X022185Y002156D03*
X023305Y002156D03*
X024783Y002156D03*
X025903Y002156D03*
X010037Y002156D03*
X008917Y002156D03*
X007478Y002156D03*
X006358Y002156D03*
D14*
X005540Y004155D03*
X004162Y004155D03*
X002784Y004470D03*
X001446Y004510D03*
X001446Y005629D03*
X002784Y005590D03*
X004162Y005275D03*
X005540Y005275D03*
X002194Y007384D03*
X002194Y008503D03*
D15*
X005402Y007550D03*
X006150Y007550D03*
X005776Y008416D03*
D16*
X027824Y007077D03*
X027824Y005896D03*
D17*
X029398Y005502D03*
X026249Y005502D03*
X026249Y007471D03*
X029398Y007471D03*
D18*
X030540Y011802D03*
X030540Y002353D03*
X001800Y002353D03*
X001800Y011802D03*
D19*
X003517Y001487D03*
X004517Y001487D03*
X005517Y001487D03*
X026824Y001487D03*
X027824Y001487D03*
X028824Y001487D03*
D20*
X014670Y002439D03*
D21*
X015670Y002439D03*
X016670Y002439D03*
X017670Y002439D03*
D22*
X017670Y002189D03*
X016670Y002189D03*
X015670Y002189D03*
X014670Y002189D03*
D23*
X023028Y009565D03*
X024028Y009565D03*
X025028Y009565D03*
X026028Y009565D03*
X027028Y009565D03*
D24*
X013765Y010317D03*
X012765Y010317D03*
X011765Y010317D03*
X010765Y010317D03*
X009765Y010317D03*
X008765Y010317D03*
X007765Y010317D03*
X006765Y010317D03*
X006765Y011317D03*
X007765Y011317D03*
X008765Y011317D03*
X009765Y011317D03*
X010765Y011317D03*
X011765Y011317D03*
X012765Y011317D03*
X013765Y011317D03*
D25*
X001644Y001165D02*
X001342Y001246D01*
X001071Y001402D01*
X000850Y001624D01*
X000693Y001894D01*
X000612Y002196D01*
X000602Y002353D01*
X000602Y004513D01*
X000774Y004341D01*
X000914Y004201D01*
X000951Y004201D01*
X000951Y004137D01*
X001033Y004055D01*
X001859Y004055D01*
X001941Y004137D01*
X001941Y004201D01*
X002289Y004201D01*
X002289Y004097D01*
X002371Y004015D01*
X003197Y004015D01*
X003279Y004097D01*
X003279Y004119D01*
X003473Y003925D01*
X003667Y003925D01*
X003667Y003782D01*
X003749Y003700D01*
X003991Y003700D01*
X003924Y003633D01*
X003394Y003103D01*
X003254Y002963D01*
X003254Y001924D01*
X003022Y001691D01*
X003022Y001282D01*
X003149Y001155D01*
X001800Y001155D01*
X001644Y001165D01*
X001605Y001203D02*
X001720Y001190D01*
X001720Y002273D01*
X000637Y002273D01*
X000650Y002157D01*
X000679Y002030D01*
X000723Y001907D01*
X000779Y001789D01*
X000849Y001678D01*
X000931Y001576D01*
X001023Y001483D01*
X001125Y001402D01*
X001236Y001332D01*
X001354Y001275D01*
X001477Y001232D01*
X001605Y001203D01*
X001720Y001292D02*
X001880Y001292D01*
X001880Y001190D02*
X001995Y001203D01*
X002123Y001232D01*
X002246Y001275D01*
X002364Y001332D01*
X002475Y001402D01*
X002577Y001483D01*
X002669Y001576D01*
X002751Y001678D01*
X002821Y001789D01*
X002877Y001907D01*
X002921Y002030D01*
X002950Y002157D01*
X002963Y002273D01*
X001880Y002273D01*
X001880Y002433D01*
X001720Y002433D01*
X001720Y003515D01*
X001605Y003502D01*
X001477Y003473D01*
X001354Y003430D01*
X001236Y003373D01*
X001125Y003304D01*
X001023Y003222D01*
X000931Y003130D01*
X000849Y003028D01*
X000779Y002917D01*
X000723Y002799D01*
X000679Y002676D01*
X000650Y002548D01*
X000637Y002433D01*
X001720Y002433D01*
X001720Y002273D01*
X001880Y002273D01*
X001880Y001190D01*
X001320Y001292D02*
X001262Y001292D01*
X001064Y001450D02*
X001023Y001450D01*
X000904Y001609D02*
X000864Y001609D01*
X000793Y001767D02*
X000767Y001767D01*
X000716Y001926D02*
X000685Y001926D01*
X000667Y002084D02*
X000642Y002084D01*
X000641Y002243D02*
X000609Y002243D01*
X000602Y002401D02*
X001720Y002401D01*
X001720Y002243D02*
X001880Y002243D01*
X001880Y002401D02*
X003254Y002401D01*
X003254Y002243D02*
X002959Y002243D01*
X002933Y002084D02*
X003254Y002084D01*
X003254Y001926D02*
X002884Y001926D01*
X002807Y001767D02*
X003098Y001767D01*
X003022Y001609D02*
X002696Y001609D01*
X002536Y001450D02*
X003022Y001450D01*
X003022Y001292D02*
X002280Y001292D01*
X001880Y001450D02*
X001720Y001450D01*
X001720Y001609D02*
X001880Y001609D01*
X001880Y001767D02*
X001720Y001767D01*
X001720Y001926D02*
X001880Y001926D01*
X001880Y002084D02*
X001720Y002084D01*
X001880Y002433D02*
X002963Y002433D01*
X002950Y002548D01*
X002921Y002676D01*
X002877Y002799D01*
X002821Y002917D01*
X002751Y003028D01*
X002669Y003130D01*
X002577Y003222D01*
X002475Y003304D01*
X002364Y003373D01*
X002246Y003430D01*
X002123Y003473D01*
X001995Y003502D01*
X001880Y003515D01*
X001880Y002433D01*
X001880Y002560D02*
X001720Y002560D01*
X001720Y002718D02*
X001880Y002718D01*
X001880Y002877D02*
X001720Y002877D01*
X001720Y003035D02*
X001880Y003035D01*
X001880Y003194D02*
X001720Y003194D01*
X001720Y003352D02*
X001880Y003352D01*
X001880Y003511D02*
X001720Y003511D01*
X001680Y003511D02*
X000602Y003511D01*
X000602Y003669D02*
X003960Y003669D01*
X003924Y003633D02*
X003924Y003633D01*
X003802Y003511D02*
X001920Y003511D01*
X002398Y003352D02*
X003643Y003352D01*
X003485Y003194D02*
X002605Y003194D01*
X002745Y003035D02*
X003326Y003035D01*
X003394Y003103D02*
X003394Y003103D01*
X003254Y002877D02*
X002840Y002877D01*
X002906Y002718D02*
X003254Y002718D01*
X003254Y002560D02*
X002947Y002560D01*
X003731Y002560D02*
X005870Y002560D01*
X005876Y002580D02*
X005863Y002535D01*
X005863Y002233D01*
X006281Y002233D01*
X006281Y002078D01*
X006436Y002078D01*
X006436Y001621D01*
X006697Y001621D01*
X006743Y001633D01*
X006784Y001657D01*
X006817Y001691D01*
X006841Y001732D01*
X006853Y001777D01*
X006853Y002078D01*
X006436Y002078D01*
X006436Y002233D01*
X006853Y002233D01*
X006853Y002535D01*
X006841Y002580D01*
X006817Y002621D01*
X006812Y002626D01*
X007080Y002626D01*
X007023Y002569D01*
X007023Y001743D01*
X007105Y001661D01*
X007270Y001661D01*
X007270Y001585D01*
X007410Y001445D01*
X007700Y001155D01*
X005940Y001155D01*
X006051Y001265D01*
X006051Y001449D01*
X005555Y001449D01*
X005555Y001525D01*
X006051Y001525D01*
X006051Y001621D01*
X006281Y001621D01*
X006281Y002078D01*
X005863Y002078D01*
X005863Y001896D01*
X005738Y002021D01*
X005555Y002021D01*
X005555Y001525D01*
X005478Y001525D01*
X005478Y002021D01*
X005295Y002021D01*
X004988Y001714D01*
X004721Y001981D01*
X004312Y001981D01*
X004022Y001691D01*
X004022Y001282D01*
X004149Y001155D01*
X003884Y001155D01*
X004011Y001282D01*
X004011Y001691D01*
X003731Y001971D01*
X003731Y002766D01*
X004261Y003295D01*
X004357Y003295D01*
X004308Y003275D01*
X004224Y003191D01*
X004179Y003081D01*
X004179Y002963D01*
X004224Y002853D01*
X004308Y002769D01*
X004418Y002724D01*
X004438Y002724D01*
X004536Y002626D01*
X005904Y002626D01*
X005899Y002621D01*
X005876Y002580D01*
X005863Y002401D02*
X003731Y002401D01*
X003731Y002243D02*
X005863Y002243D01*
X006281Y002084D02*
X003731Y002084D01*
X003776Y001926D02*
X004257Y001926D01*
X004776Y001926D02*
X005200Y001926D01*
X005478Y001926D02*
X005555Y001926D01*
X005833Y001926D02*
X005863Y001926D01*
X006281Y001926D02*
X006436Y001926D01*
X006436Y002084D02*
X007023Y002084D01*
X007023Y001926D02*
X006853Y001926D01*
X006851Y001767D02*
X007023Y001767D01*
X007270Y001609D02*
X006051Y001609D01*
X006281Y001767D02*
X006436Y001767D01*
X005555Y001767D02*
X005478Y001767D01*
X005478Y001609D02*
X005555Y001609D01*
X005555Y001450D02*
X007405Y001450D01*
X007563Y001292D02*
X006051Y001292D01*
X005042Y001767D02*
X004935Y001767D01*
X004098Y001767D02*
X003935Y001767D01*
X004011Y001609D02*
X004022Y001609D01*
X004011Y001450D02*
X004022Y001450D01*
X004011Y001292D02*
X004022Y001292D01*
X006853Y002243D02*
X007023Y002243D01*
X007023Y002401D02*
X006853Y002401D01*
X006846Y002560D02*
X007023Y002560D01*
X007876Y002626D02*
X007933Y002569D01*
X007933Y001743D01*
X007860Y001670D01*
X007962Y001568D01*
X010599Y001568D01*
X010715Y001684D01*
X010715Y002144D01*
X010781Y002304D01*
X010904Y002427D01*
X011064Y002493D01*
X011828Y002493D01*
X011988Y002427D01*
X012110Y002304D01*
X012176Y002144D01*
X012176Y001380D01*
X012110Y001220D01*
X012044Y001155D01*
X013012Y001155D01*
X012947Y001220D01*
X012880Y001380D01*
X012880Y002144D01*
X012947Y002304D01*
X013069Y002427D01*
X013229Y002493D01*
X013373Y002493D01*
X013373Y002530D01*
X013276Y002626D01*
X010442Y002626D01*
X010438Y002622D01*
X010492Y002569D01*
X010492Y001743D01*
X010410Y001661D01*
X009664Y001661D01*
X009582Y001743D01*
X009582Y002569D01*
X009639Y002626D01*
X009372Y002626D01*
X009376Y002621D01*
X009400Y002580D01*
X009412Y002535D01*
X009412Y002233D01*
X008995Y002233D01*
X008995Y002078D01*
X008995Y001621D01*
X009256Y001621D01*
X009302Y001633D01*
X009343Y001657D01*
X009376Y001691D01*
X009400Y001732D01*
X009412Y001777D01*
X009412Y002078D01*
X008995Y002078D01*
X008840Y002078D01*
X008840Y001621D01*
X008579Y001621D01*
X008533Y001633D01*
X008492Y001657D01*
X008458Y001691D01*
X008435Y001732D01*
X008422Y001777D01*
X008422Y002078D01*
X008840Y002078D01*
X008840Y002233D01*
X008422Y002233D01*
X008422Y002535D01*
X008435Y002580D01*
X008458Y002621D01*
X008463Y002626D01*
X007876Y002626D01*
X007933Y002560D02*
X008429Y002560D01*
X008422Y002401D02*
X007933Y002401D01*
X007933Y002243D02*
X008422Y002243D01*
X008840Y002084D02*
X007933Y002084D01*
X007933Y001926D02*
X008422Y001926D01*
X008840Y001926D02*
X008995Y001926D01*
X008995Y002084D02*
X009582Y002084D01*
X009582Y001926D02*
X009412Y001926D01*
X009410Y001767D02*
X009582Y001767D01*
X008995Y001767D02*
X008840Y001767D01*
X008425Y001767D02*
X007933Y001767D01*
X007921Y001609D02*
X010640Y001609D01*
X010715Y001767D02*
X010492Y001767D01*
X010492Y001926D02*
X010715Y001926D01*
X010715Y002084D02*
X010492Y002084D01*
X010492Y002243D02*
X010756Y002243D01*
X010879Y002401D02*
X010492Y002401D01*
X010492Y002560D02*
X013342Y002560D01*
X013044Y002401D02*
X012013Y002401D01*
X012135Y002243D02*
X012921Y002243D01*
X012880Y002084D02*
X012176Y002084D01*
X012176Y001926D02*
X012880Y001926D01*
X012880Y001767D02*
X012176Y001767D01*
X012176Y001609D02*
X012880Y001609D01*
X012880Y001450D02*
X012176Y001450D01*
X012140Y001292D02*
X012917Y001292D01*
X014210Y001155D02*
X014275Y001220D01*
X014342Y001380D01*
X014342Y001449D01*
X015028Y001449D01*
X015110Y001531D01*
X015110Y002847D01*
X015028Y002929D01*
X014964Y002929D01*
X014966Y002932D01*
X015012Y003041D01*
X015012Y003160D01*
X014966Y003270D01*
X014882Y003354D01*
X014846Y003369D01*
X014912Y003435D01*
X015442Y003965D01*
X017252Y003965D01*
X017961Y003256D01*
X019020Y003256D01*
X018884Y003121D01*
X018491Y002727D01*
X018491Y002493D01*
X018347Y002493D01*
X018187Y002427D01*
X018110Y002349D01*
X018110Y002847D01*
X018028Y002929D01*
X017312Y002929D01*
X017230Y002847D01*
X017230Y001531D01*
X017312Y001449D01*
X017999Y001449D01*
X017999Y001380D01*
X018065Y001220D01*
X018130Y001155D01*
X014210Y001155D01*
X014305Y001292D02*
X018035Y001292D01*
X017311Y001450D02*
X017029Y001450D01*
X017028Y001449D02*
X017110Y001531D01*
X017110Y002847D01*
X017028Y002929D01*
X016920Y002929D01*
X016920Y003390D01*
X016935Y003404D01*
X016980Y003514D01*
X016980Y003633D01*
X016935Y003742D01*
X016851Y003826D01*
X016741Y003872D01*
X016623Y003872D01*
X016513Y003826D01*
X016429Y003742D01*
X016383Y003633D01*
X016383Y003514D01*
X016429Y003404D01*
X016443Y003390D01*
X016443Y002929D01*
X016312Y002929D01*
X016230Y002847D01*
X016230Y001531D01*
X016312Y001449D01*
X017028Y001449D01*
X017110Y001609D02*
X017230Y001609D01*
X017230Y001767D02*
X017110Y001767D01*
X017110Y001926D02*
X017230Y001926D01*
X017230Y002084D02*
X017110Y002084D01*
X017110Y002243D02*
X017230Y002243D01*
X017230Y002401D02*
X017110Y002401D01*
X017110Y002560D02*
X017230Y002560D01*
X017230Y002718D02*
X017110Y002718D01*
X017081Y002877D02*
X017260Y002877D01*
X016920Y003035D02*
X018799Y003035D01*
X018640Y002877D02*
X018081Y002877D01*
X018110Y002718D02*
X018491Y002718D01*
X018491Y002560D02*
X018110Y002560D01*
X018110Y002401D02*
X018162Y002401D01*
X018968Y002493D02*
X018968Y002530D01*
X019222Y002784D01*
X025520Y002784D01*
X025653Y002651D01*
X025530Y002651D01*
X025448Y002569D01*
X025448Y001743D01*
X025530Y001661D01*
X026276Y001661D01*
X026289Y001674D01*
X026289Y001525D01*
X026786Y001525D01*
X026786Y002021D01*
X026602Y002021D01*
X026358Y001777D01*
X026358Y002569D01*
X026276Y002651D01*
X026212Y002651D01*
X026212Y002767D01*
X025718Y003261D01*
X025446Y003261D01*
X025582Y003396D01*
X026072Y003886D01*
X031229Y003886D01*
X031369Y004026D01*
X031710Y004367D01*
X031738Y004378D01*
X031738Y002353D01*
X031728Y002196D01*
X031647Y001894D01*
X031491Y001624D01*
X031269Y001402D01*
X030999Y001246D01*
X030697Y001165D01*
X030540Y001155D01*
X029191Y001155D01*
X029318Y001282D01*
X029318Y001691D01*
X029028Y001981D01*
X028619Y001981D01*
X028329Y001691D01*
X028329Y001282D01*
X028456Y001155D01*
X028191Y001155D01*
X028318Y001282D01*
X028318Y001691D01*
X028028Y001981D01*
X027619Y001981D01*
X027352Y001714D01*
X027045Y002021D01*
X026862Y002021D01*
X026862Y001525D01*
X026786Y001525D01*
X026786Y001449D01*
X026289Y001449D01*
X026289Y001265D01*
X026400Y001155D01*
X021493Y001155D01*
X021508Y001170D01*
X022922Y001170D01*
X023062Y001309D01*
X023414Y001661D01*
X023678Y001661D01*
X023760Y001743D01*
X023760Y001941D01*
X023867Y001897D01*
X023985Y001897D01*
X024095Y001942D01*
X024179Y002026D01*
X024224Y002136D01*
X024224Y002255D01*
X024179Y002364D01*
X024095Y002448D01*
X023985Y002494D01*
X023867Y002494D01*
X023760Y002449D01*
X023760Y002569D01*
X023678Y002651D01*
X022932Y002651D01*
X022850Y002569D01*
X022850Y001771D01*
X022725Y001646D01*
X022592Y001646D01*
X022611Y001657D01*
X022644Y001691D01*
X022668Y001732D01*
X022680Y001777D01*
X022680Y002078D01*
X022263Y002078D01*
X022263Y002233D01*
X022680Y002233D01*
X022680Y002535D01*
X022668Y002580D01*
X022644Y002621D01*
X022611Y002655D01*
X022569Y002679D01*
X022524Y002691D01*
X022263Y002691D01*
X022263Y002233D01*
X022108Y002233D01*
X022108Y002078D01*
X021690Y002078D01*
X021690Y001777D01*
X021702Y001732D01*
X021726Y001691D01*
X021760Y001657D01*
X021778Y001646D01*
X021625Y001646D01*
X021625Y002144D01*
X021559Y002304D01*
X021436Y002427D01*
X021276Y002493D01*
X020513Y002493D01*
X020353Y002427D01*
X020230Y002304D01*
X020164Y002144D01*
X020164Y001380D01*
X020230Y001220D01*
X020296Y001155D01*
X019328Y001155D01*
X019393Y001220D01*
X019460Y001380D01*
X019460Y002144D01*
X019393Y002304D01*
X019271Y002427D01*
X019111Y002493D01*
X018968Y002493D01*
X018998Y002560D02*
X021697Y002560D01*
X021702Y002580D02*
X021690Y002535D01*
X021690Y002233D01*
X022108Y002233D01*
X022108Y002691D01*
X021846Y002691D01*
X021801Y002679D01*
X021760Y002655D01*
X021726Y002621D01*
X021702Y002580D01*
X021690Y002401D02*
X021462Y002401D01*
X021584Y002243D02*
X021690Y002243D01*
X021625Y002084D02*
X022108Y002084D01*
X022263Y002084D02*
X022850Y002084D01*
X022850Y001926D02*
X022680Y001926D01*
X022677Y001767D02*
X022846Y001767D01*
X023203Y001450D02*
X026786Y001450D01*
X026786Y001609D02*
X026862Y001609D01*
X026862Y001767D02*
X026786Y001767D01*
X026289Y001609D02*
X023362Y001609D01*
X023760Y001767D02*
X024291Y001767D01*
X024289Y001777D02*
X024301Y001732D01*
X024324Y001691D01*
X024358Y001657D01*
X024399Y001633D01*
X024445Y001621D01*
X024706Y001621D01*
X024706Y002078D01*
X024861Y002078D01*
X024861Y001621D01*
X025122Y001621D01*
X025168Y001633D01*
X025209Y001657D01*
X025242Y001691D01*
X025266Y001732D01*
X025278Y001777D01*
X025278Y002078D01*
X024861Y002078D01*
X024861Y002233D01*
X025278Y002233D01*
X025278Y002535D01*
X025266Y002580D01*
X025242Y002621D01*
X025209Y002655D01*
X025168Y002679D01*
X025122Y002691D01*
X024861Y002691D01*
X024861Y002233D01*
X024706Y002233D01*
X024706Y002078D01*
X024289Y002078D01*
X024289Y001777D01*
X024289Y001926D02*
X024055Y001926D01*
X024203Y002084D02*
X024706Y002084D01*
X024706Y002233D02*
X024289Y002233D01*
X024289Y002535D01*
X024301Y002580D01*
X024324Y002621D01*
X024358Y002655D01*
X024399Y002679D01*
X024445Y002691D01*
X024706Y002691D01*
X024706Y002233D01*
X024706Y002243D02*
X024861Y002243D01*
X024861Y002401D02*
X024706Y002401D01*
X024706Y002560D02*
X024861Y002560D01*
X024295Y002560D02*
X023760Y002560D01*
X024142Y002401D02*
X024289Y002401D01*
X024289Y002243D02*
X024224Y002243D01*
X023797Y001926D02*
X023760Y001926D01*
X024706Y001926D02*
X024861Y001926D01*
X024861Y002084D02*
X025448Y002084D01*
X025448Y001926D02*
X025278Y001926D01*
X025276Y001767D02*
X025448Y001767D01*
X024861Y001767D02*
X024706Y001767D01*
X025278Y002243D02*
X025448Y002243D01*
X025448Y002401D02*
X025278Y002401D01*
X025272Y002560D02*
X025448Y002560D01*
X025585Y002718D02*
X019156Y002718D01*
X019296Y002401D02*
X020327Y002401D01*
X020205Y002243D02*
X019419Y002243D01*
X019460Y002084D02*
X020164Y002084D01*
X020164Y001926D02*
X019460Y001926D01*
X019460Y001767D02*
X020164Y001767D01*
X020164Y001609D02*
X019460Y001609D01*
X019460Y001450D02*
X020164Y001450D01*
X020201Y001292D02*
X019423Y001292D01*
X021625Y001767D02*
X021693Y001767D01*
X021690Y001926D02*
X021625Y001926D01*
X022108Y002243D02*
X022263Y002243D01*
X022263Y002401D02*
X022108Y002401D01*
X022108Y002560D02*
X022263Y002560D01*
X022673Y002560D02*
X022850Y002560D01*
X022850Y002401D02*
X022680Y002401D01*
X022680Y002243D02*
X022850Y002243D01*
X023045Y001292D02*
X026289Y001292D01*
X027299Y001767D02*
X027405Y001767D01*
X027564Y001926D02*
X027140Y001926D01*
X026862Y001926D02*
X026786Y001926D01*
X026507Y001926D02*
X026358Y001926D01*
X026358Y002084D02*
X029407Y002084D01*
X029420Y002030D02*
X029391Y002157D01*
X029378Y002273D01*
X030460Y002273D01*
X030460Y002433D01*
X030460Y003515D01*
X030345Y003502D01*
X030217Y003473D01*
X030094Y003430D01*
X029976Y003373D01*
X029865Y003304D01*
X029763Y003222D01*
X029671Y003130D01*
X029589Y003028D01*
X029520Y002917D01*
X029463Y002799D01*
X029420Y002676D01*
X029391Y002548D01*
X029378Y002433D01*
X030460Y002433D01*
X030620Y002433D01*
X030620Y003515D01*
X030735Y003502D01*
X030863Y003473D01*
X030986Y003430D01*
X031104Y003373D01*
X031215Y003304D01*
X031317Y003222D01*
X031410Y003130D01*
X031491Y003028D01*
X031561Y002917D01*
X031617Y002799D01*
X031661Y002676D01*
X031690Y002548D01*
X031703Y002433D01*
X030620Y002433D01*
X030620Y002273D01*
X031703Y002273D01*
X031690Y002157D01*
X031661Y002030D01*
X031617Y001907D01*
X031561Y001789D01*
X031491Y001678D01*
X031410Y001576D01*
X031317Y001483D01*
X031215Y001402D01*
X031104Y001332D01*
X030986Y001275D01*
X030863Y001232D01*
X030735Y001203D01*
X030620Y001190D01*
X030620Y002273D01*
X030460Y002273D01*
X030460Y001190D01*
X030345Y001203D01*
X030217Y001232D01*
X030094Y001275D01*
X029976Y001332D01*
X029865Y001402D01*
X029763Y001483D01*
X029671Y001576D01*
X029589Y001678D01*
X029520Y001789D01*
X029463Y001907D01*
X029420Y002030D01*
X029456Y001926D02*
X029084Y001926D01*
X028564Y001926D02*
X028084Y001926D01*
X028242Y001767D02*
X028405Y001767D01*
X028329Y001609D02*
X028318Y001609D01*
X028318Y001450D02*
X028329Y001450D01*
X028318Y001292D02*
X028329Y001292D01*
X029318Y001292D02*
X030060Y001292D01*
X029804Y001450D02*
X029318Y001450D01*
X029318Y001609D02*
X029644Y001609D01*
X029533Y001767D02*
X029242Y001767D01*
X029381Y002243D02*
X026358Y002243D01*
X026358Y002401D02*
X030460Y002401D01*
X030460Y002243D02*
X030620Y002243D01*
X030620Y002401D02*
X031738Y002401D01*
X031731Y002243D02*
X031699Y002243D01*
X031698Y002084D02*
X031673Y002084D01*
X031655Y001926D02*
X031624Y001926D01*
X031574Y001767D02*
X031547Y001767D01*
X031476Y001609D02*
X031436Y001609D01*
X031317Y001450D02*
X031276Y001450D01*
X031078Y001292D02*
X031020Y001292D01*
X030620Y001292D02*
X030460Y001292D01*
X030460Y001450D02*
X030620Y001450D01*
X030620Y001609D02*
X030460Y001609D01*
X030460Y001767D02*
X030620Y001767D01*
X030620Y001926D02*
X030460Y001926D01*
X030460Y002084D02*
X030620Y002084D01*
X030620Y002560D02*
X030460Y002560D01*
X030460Y002718D02*
X030620Y002718D01*
X030620Y002877D02*
X030460Y002877D01*
X030460Y003035D02*
X030620Y003035D01*
X030620Y003194D02*
X030460Y003194D01*
X030460Y003352D02*
X030620Y003352D01*
X030620Y003511D02*
X030460Y003511D01*
X030420Y003511D02*
X025697Y003511D01*
X025855Y003669D02*
X031738Y003669D01*
X031738Y003511D02*
X030661Y003511D01*
X031138Y003352D02*
X031738Y003352D01*
X031738Y003194D02*
X031346Y003194D01*
X031485Y003035D02*
X031738Y003035D01*
X031738Y002877D02*
X031580Y002877D01*
X031646Y002718D02*
X031738Y002718D01*
X031738Y002560D02*
X031687Y002560D01*
X029943Y003352D02*
X025538Y003352D01*
X025784Y003194D02*
X029735Y003194D01*
X029595Y003035D02*
X025943Y003035D01*
X026101Y002877D02*
X029500Y002877D01*
X029435Y002718D02*
X026212Y002718D01*
X026358Y002560D02*
X029393Y002560D01*
X031738Y003828D02*
X026014Y003828D01*
X025656Y004145D02*
X025338Y004145D01*
X025338Y004290D02*
X025338Y003959D01*
X025112Y003733D01*
X025245Y003733D01*
X025874Y004363D01*
X030009Y004363D01*
X029958Y004384D01*
X029835Y004507D01*
X029769Y004667D01*
X029769Y004841D01*
X029835Y005002D01*
X029958Y005125D01*
X030119Y005191D01*
X030292Y005191D01*
X030453Y005125D01*
X030576Y005002D01*
X030642Y004841D01*
X030642Y004667D01*
X030576Y004507D01*
X030453Y004384D01*
X030402Y004363D01*
X031032Y004363D01*
X031155Y004486D01*
X031134Y004507D01*
X031068Y004667D01*
X031068Y004841D01*
X031134Y005002D01*
X031257Y005125D01*
X031418Y005191D01*
X031592Y005191D01*
X031738Y005131D01*
X031738Y005362D01*
X031592Y005302D01*
X031418Y005302D01*
X031258Y005368D01*
X031135Y005491D01*
X031068Y005652D01*
X031068Y005811D01*
X030857Y005601D01*
X030718Y005461D01*
X030545Y005461D01*
X030453Y005368D01*
X030292Y005302D01*
X030118Y005302D01*
X029958Y005368D01*
X029835Y005491D01*
X029768Y005652D01*
X029768Y005826D01*
X029835Y005986D01*
X029958Y006109D01*
X030118Y006175D01*
X030292Y006175D01*
X030453Y006109D01*
X030572Y005990D01*
X030617Y006034D01*
X030617Y006574D01*
X030576Y006475D01*
X030453Y006353D01*
X030292Y006286D01*
X030119Y006286D01*
X029958Y006353D01*
X029835Y006475D01*
X029769Y006636D01*
X029769Y006810D01*
X029772Y006819D01*
X029752Y006839D01*
X029578Y006839D01*
X029578Y005964D01*
X029524Y005964D01*
X029473Y005913D01*
X027891Y005913D01*
X027891Y005828D01*
X027891Y005421D01*
X029045Y005421D01*
X029095Y005300D01*
X029196Y005199D01*
X029327Y005144D01*
X029470Y005144D01*
X029601Y005199D01*
X029702Y005300D01*
X029757Y005431D01*
X029757Y005574D01*
X029702Y005705D01*
X029601Y005806D01*
X029578Y005815D01*
X029578Y005828D01*
X029547Y005828D01*
X029470Y005861D01*
X029327Y005861D01*
X029250Y005828D01*
X027891Y005828D01*
X027756Y005828D01*
X027756Y005421D01*
X026603Y005421D01*
X026552Y005300D01*
X026452Y005199D01*
X026320Y005144D01*
X026178Y005144D01*
X026046Y005199D01*
X025945Y005300D01*
X025891Y005431D01*
X025891Y005574D01*
X025945Y005705D01*
X026046Y005806D01*
X026069Y005815D01*
X026069Y005828D01*
X026100Y005828D01*
X026178Y005861D01*
X026320Y005861D01*
X026397Y005828D01*
X027756Y005828D01*
X027756Y005913D01*
X026174Y005913D01*
X026123Y005964D01*
X026069Y005964D01*
X026069Y006955D01*
X026109Y006995D01*
X026109Y007141D01*
X026046Y007167D01*
X025945Y007268D01*
X025891Y007400D01*
X025891Y007542D01*
X025945Y007674D01*
X026046Y007775D01*
X026163Y007823D01*
X021037Y007823D01*
X021172Y007688D01*
X021356Y007504D01*
X021426Y007533D01*
X021544Y007533D01*
X021654Y007488D01*
X021738Y007404D01*
X021783Y007294D01*
X021783Y007175D01*
X021738Y007066D01*
X021654Y006982D01*
X021544Y006936D01*
X021426Y006936D01*
X021316Y006982D01*
X021301Y006996D01*
X021189Y006996D01*
X021114Y007072D01*
X021114Y007057D01*
X021069Y006948D01*
X020985Y006864D01*
X020936Y006843D01*
X024025Y006843D01*
X024164Y006704D01*
X025048Y005820D01*
X025188Y005680D01*
X025188Y004440D01*
X025338Y004290D01*
X025325Y004303D02*
X025815Y004303D01*
X025498Y003986D02*
X025338Y003986D01*
X025339Y003828D02*
X025207Y003828D01*
X025188Y004462D02*
X029880Y004462D01*
X029788Y004620D02*
X025188Y004620D01*
X025188Y004779D02*
X029769Y004779D01*
X029808Y004937D02*
X025188Y004937D01*
X025188Y005096D02*
X029929Y005096D01*
X029657Y005254D02*
X031738Y005254D01*
X031228Y005096D02*
X030482Y005096D01*
X030603Y004937D02*
X031108Y004937D01*
X031068Y004779D02*
X030642Y004779D01*
X030623Y004620D02*
X031087Y004620D01*
X031131Y004462D02*
X030531Y004462D01*
X031330Y003986D02*
X031738Y003986D01*
X031738Y004145D02*
X031488Y004145D01*
X031647Y004303D02*
X031738Y004303D01*
X031213Y005413D02*
X030497Y005413D01*
X030828Y005571D02*
X031102Y005571D01*
X031068Y005730D02*
X030987Y005730D01*
X030617Y006047D02*
X030515Y006047D01*
X030617Y006205D02*
X029578Y006205D01*
X029578Y006047D02*
X029896Y006047D01*
X029794Y005888D02*
X027891Y005888D01*
X027756Y005888D02*
X024980Y005888D01*
X025138Y005730D02*
X025970Y005730D01*
X025891Y005571D02*
X025188Y005571D01*
X025188Y005413D02*
X025898Y005413D01*
X025990Y005254D02*
X025188Y005254D01*
X026507Y005254D02*
X029140Y005254D01*
X029048Y005413D02*
X026599Y005413D01*
X027756Y005571D02*
X027891Y005571D01*
X027891Y005730D02*
X027756Y005730D01*
X026069Y006047D02*
X024821Y006047D01*
X024663Y006205D02*
X026069Y006205D01*
X026069Y006364D02*
X024504Y006364D01*
X024346Y006522D02*
X026069Y006522D01*
X026069Y006681D02*
X024187Y006681D01*
X024029Y006839D02*
X026069Y006839D01*
X026109Y006998D02*
X021670Y006998D01*
X021776Y007156D02*
X026072Y007156D01*
X025926Y007315D02*
X021775Y007315D01*
X021668Y007473D02*
X025891Y007473D01*
X025928Y007632D02*
X021228Y007632D01*
X021070Y007790D02*
X026084Y007790D01*
X026061Y009148D02*
X026126Y009158D01*
X026189Y009178D01*
X026247Y009208D01*
X026301Y009247D01*
X026347Y009293D01*
X026386Y009346D01*
X026416Y009405D01*
X026436Y009468D01*
X026446Y009533D01*
X026446Y009565D01*
X026028Y009565D01*
X026028Y009565D01*
X026028Y009148D01*
X025995Y009148D01*
X025931Y009158D01*
X025868Y009178D01*
X025809Y009208D01*
X025756Y009247D01*
X025710Y009293D01*
X025671Y009346D01*
X025641Y009405D01*
X025621Y009468D01*
X025611Y009533D01*
X025611Y009565D01*
X026028Y009565D01*
X026028Y009565D01*
X026028Y009148D01*
X026061Y009148D01*
X026028Y009217D02*
X026028Y009217D01*
X026028Y009375D02*
X026028Y009375D01*
X025797Y009217D02*
X025174Y009217D01*
X025242Y009245D02*
X025103Y009188D01*
X024953Y009188D01*
X024814Y009245D01*
X024708Y009351D01*
X024651Y009490D01*
X024651Y009641D01*
X024708Y009779D01*
X024814Y009886D01*
X024953Y009943D01*
X025103Y009943D01*
X025242Y009886D01*
X025349Y009779D01*
X025406Y009641D01*
X025406Y009490D01*
X025349Y009351D01*
X025242Y009245D01*
X025359Y009375D02*
X025656Y009375D01*
X025611Y009534D02*
X025406Y009534D01*
X025385Y009692D02*
X025630Y009692D01*
X025621Y009663D02*
X025611Y009598D01*
X025611Y009565D01*
X026028Y009565D01*
X026028Y009565D01*
X026028Y009983D01*
X025995Y009983D01*
X025931Y009973D01*
X025868Y009953D01*
X025809Y009923D01*
X025756Y009884D01*
X025710Y009838D01*
X025671Y009784D01*
X025641Y009726D01*
X025621Y009663D01*
X025723Y009851D02*
X025277Y009851D01*
X024780Y009851D02*
X024277Y009851D01*
X024242Y009886D02*
X024103Y009943D01*
X023953Y009943D01*
X023814Y009886D01*
X023708Y009779D01*
X023651Y009641D01*
X023651Y009490D01*
X023708Y009351D01*
X023814Y009245D01*
X023953Y009188D01*
X024103Y009188D01*
X024242Y009245D01*
X024349Y009351D01*
X024406Y009490D01*
X024406Y009641D01*
X024349Y009779D01*
X024242Y009886D01*
X024385Y009692D02*
X024672Y009692D01*
X024651Y009534D02*
X024406Y009534D01*
X024359Y009375D02*
X024698Y009375D01*
X024883Y009217D02*
X024174Y009217D01*
X023883Y009217D02*
X023174Y009217D01*
X023242Y009245D02*
X023349Y009351D01*
X023406Y009490D01*
X023406Y009641D01*
X023349Y009779D01*
X023242Y009886D01*
X023103Y009943D01*
X022953Y009943D01*
X022814Y009886D01*
X022708Y009779D01*
X022651Y009641D01*
X022651Y009490D01*
X022708Y009351D01*
X022814Y009245D01*
X022953Y009188D01*
X023103Y009188D01*
X023242Y009245D01*
X023359Y009375D02*
X023698Y009375D01*
X023651Y009534D02*
X023406Y009534D01*
X023385Y009692D02*
X023672Y009692D01*
X023780Y009851D02*
X023277Y009851D01*
X022780Y009851D02*
X021073Y009851D01*
X021073Y009702D02*
X021073Y010752D01*
X021078Y010758D01*
X021073Y010824D01*
X021073Y010891D01*
X021067Y010897D01*
X021076Y010910D01*
X021062Y010969D01*
X021057Y011028D01*
X021045Y011039D01*
X021043Y011046D01*
X021049Y011061D01*
X021026Y011116D01*
X021012Y011174D01*
X020999Y011183D01*
X020996Y011190D01*
X020999Y011205D01*
X020968Y011256D01*
X020945Y011311D01*
X020931Y011318D01*
X020927Y011324D01*
X020928Y011340D01*
X020889Y011385D01*
X020858Y011436D01*
X021986Y011436D01*
X021828Y011594D02*
X020683Y011594D01*
X020675Y011599D02*
X020630Y011638D01*
X020614Y011637D01*
X020607Y011641D01*
X020601Y011656D01*
X020546Y011678D01*
X020495Y011710D01*
X020479Y011706D01*
X020472Y011709D01*
X020465Y011721D01*
X021701Y011721D01*
X022900Y010522D01*
X023040Y010382D01*
X028945Y010382D01*
X029751Y009577D01*
X029751Y009026D01*
X029675Y008950D01*
X029654Y008950D01*
X029544Y008905D01*
X029460Y008821D01*
X029415Y008711D01*
X029415Y008593D01*
X029460Y008483D01*
X029544Y008399D01*
X029654Y008354D01*
X029773Y008354D01*
X029882Y008399D01*
X029966Y008483D01*
X030012Y008593D01*
X030012Y008613D01*
X030227Y008829D01*
X030227Y009691D01*
X031266Y008652D01*
X031266Y007097D01*
X031257Y007093D01*
X031134Y006970D01*
X031094Y006872D01*
X031094Y007885D01*
X030954Y008024D01*
X030678Y008300D01*
X018552Y008300D01*
X018065Y008787D01*
X018094Y008775D01*
X018145Y008744D01*
X018160Y008748D01*
X018167Y008745D01*
X018175Y008731D01*
X018234Y008717D01*
X018289Y008694D01*
X018304Y008700D01*
X018311Y008699D01*
X018321Y008686D01*
X018381Y008682D01*
X018439Y008668D01*
X018453Y008676D01*
X018458Y008670D01*
X018525Y008670D01*
X018592Y008665D01*
X018598Y008670D01*
X020041Y008670D01*
X020047Y008665D01*
X020114Y008670D01*
X020181Y008670D01*
X020187Y008676D01*
X020200Y008668D01*
X020258Y008682D01*
X020318Y008686D01*
X020328Y008699D01*
X020336Y008700D01*
X020350Y008694D01*
X020406Y008717D01*
X020464Y008731D01*
X020472Y008745D01*
X020479Y008748D01*
X020495Y008744D01*
X020546Y008775D01*
X020601Y008798D01*
X020607Y008813D01*
X020614Y008817D01*
X020630Y008816D01*
X020675Y008854D01*
X020726Y008886D01*
X020730Y008901D01*
X020736Y008906D01*
X020752Y008907D01*
X020790Y008953D01*
X020836Y008992D01*
X020837Y009008D01*
X020842Y009013D01*
X020858Y009017D01*
X020889Y009068D01*
X020928Y009114D01*
X020927Y009130D01*
X020931Y009136D01*
X020945Y009142D01*
X020968Y009198D01*
X020999Y009249D01*
X020996Y009264D01*
X020999Y009271D01*
X021012Y009279D01*
X021026Y009338D01*
X021049Y009393D01*
X021043Y009408D01*
X021045Y009415D01*
X021057Y009425D01*
X021062Y009485D01*
X021076Y009543D01*
X021067Y009557D01*
X021073Y009562D01*
X021073Y009629D01*
X021078Y009696D01*
X021073Y009702D01*
X021078Y009692D02*
X022672Y009692D01*
X022651Y009534D02*
X021073Y009534D01*
X021042Y009375D02*
X022698Y009375D01*
X022883Y009217D02*
X020980Y009217D01*
X020883Y009058D02*
X029751Y009058D01*
X029751Y009217D02*
X027174Y009217D01*
X027242Y009245D02*
X027349Y009351D01*
X027406Y009490D01*
X027406Y009641D01*
X027349Y009779D01*
X027242Y009886D01*
X027103Y009943D01*
X026953Y009943D01*
X026814Y009886D01*
X026708Y009779D01*
X026651Y009641D01*
X026651Y009490D01*
X026708Y009351D01*
X026814Y009245D01*
X026953Y009188D01*
X027103Y009188D01*
X027242Y009245D01*
X027359Y009375D02*
X027644Y009375D01*
X027671Y009349D02*
X027831Y009282D01*
X028005Y009282D01*
X028166Y009349D01*
X028288Y009471D01*
X028355Y009632D01*
X028355Y009806D01*
X028288Y009966D01*
X028166Y010089D01*
X028005Y010156D01*
X027831Y010156D01*
X027671Y010089D01*
X027548Y009966D01*
X027481Y009806D01*
X027481Y009632D01*
X027548Y009471D01*
X027671Y009349D01*
X027522Y009534D02*
X027406Y009534D01*
X027385Y009692D02*
X027481Y009692D01*
X027500Y009851D02*
X027277Y009851D01*
X027591Y010009D02*
X021073Y010009D01*
X021073Y010168D02*
X029160Y010168D01*
X029189Y010089D02*
X029029Y010156D01*
X028855Y010156D01*
X028694Y010089D01*
X028571Y009966D01*
X028505Y009806D01*
X028505Y009632D01*
X028571Y009471D01*
X028694Y009349D01*
X028855Y009282D01*
X029029Y009282D01*
X029189Y009349D01*
X029312Y009471D01*
X029379Y009632D01*
X029379Y009806D01*
X029312Y009966D01*
X029189Y010089D01*
X029269Y010009D02*
X029318Y010009D01*
X029360Y009851D02*
X029477Y009851D01*
X029379Y009692D02*
X029635Y009692D01*
X029751Y009534D02*
X029338Y009534D01*
X029216Y009375D02*
X029751Y009375D01*
X030227Y009375D02*
X030543Y009375D01*
X030701Y009217D02*
X030227Y009217D01*
X030227Y009058D02*
X030860Y009058D01*
X031018Y008900D02*
X030227Y008900D01*
X030140Y008741D02*
X031177Y008741D01*
X031266Y008583D02*
X030008Y008583D01*
X029908Y008424D02*
X031266Y008424D01*
X031266Y008266D02*
X030712Y008266D01*
X030871Y008107D02*
X031266Y008107D01*
X031266Y007949D02*
X031029Y007949D01*
X031094Y007790D02*
X031266Y007790D01*
X031266Y007632D02*
X031094Y007632D01*
X031094Y007473D02*
X031266Y007473D01*
X031266Y007315D02*
X031094Y007315D01*
X031094Y007156D02*
X031266Y007156D01*
X031162Y006998D02*
X031094Y006998D01*
X030617Y006522D02*
X030595Y006522D01*
X030617Y006364D02*
X030464Y006364D01*
X029947Y006364D02*
X029578Y006364D01*
X029578Y006522D02*
X029816Y006522D01*
X029769Y006681D02*
X029578Y006681D01*
X029677Y005730D02*
X029768Y005730D01*
X029757Y005571D02*
X029802Y005571D01*
X029749Y005413D02*
X029913Y005413D01*
X029519Y008424D02*
X018428Y008424D01*
X018269Y008583D02*
X029419Y008583D01*
X029427Y008741D02*
X020470Y008741D01*
X020730Y008900D02*
X029539Y008900D01*
X028668Y009375D02*
X028192Y009375D01*
X028314Y009534D02*
X028546Y009534D01*
X028505Y009692D02*
X028355Y009692D01*
X028336Y009851D02*
X028524Y009851D01*
X028614Y010009D02*
X028245Y010009D01*
X029001Y010326D02*
X021073Y010326D01*
X021073Y010485D02*
X022937Y010485D01*
X022779Y010643D02*
X021073Y010643D01*
X021075Y010802D02*
X022620Y010802D01*
X022462Y010960D02*
X021064Y010960D01*
X021025Y011119D02*
X022303Y011119D01*
X022145Y011277D02*
X020959Y011277D01*
X020858Y011436D02*
X020842Y011440D01*
X020837Y011446D01*
X020836Y011462D01*
X020790Y011501D01*
X020752Y011546D01*
X020736Y011547D01*
X020730Y011552D01*
X020726Y011568D01*
X020675Y011599D01*
X021899Y012198D02*
X017804Y012198D01*
X017664Y012058D01*
X016662Y011056D01*
X014182Y011056D01*
X014245Y011119D01*
X016725Y011119D01*
X016883Y011277D02*
X014245Y011277D01*
X014245Y011297D02*
X014245Y011119D01*
X014245Y011297D02*
X013785Y011297D01*
X013785Y011337D01*
X014245Y011337D01*
X014245Y011516D01*
X013963Y011797D01*
X013785Y011797D01*
X013785Y011337D01*
X013745Y011337D01*
X013745Y011297D01*
X013285Y011297D01*
X013285Y011119D01*
X013245Y011119D01*
X013245Y011297D01*
X012785Y011297D01*
X012785Y011337D01*
X013245Y011337D01*
X013245Y011516D01*
X012963Y011797D01*
X012785Y011797D01*
X012785Y011337D01*
X012745Y011337D01*
X012745Y011297D01*
X012285Y011297D01*
X012285Y011119D01*
X012188Y011119D01*
X012205Y011135D02*
X012205Y011500D01*
X011999Y011705D01*
X011999Y011861D01*
X011859Y012001D01*
X011527Y012333D01*
X011509Y012351D01*
X021898Y012351D01*
X023234Y011015D01*
X023234Y010994D01*
X023279Y010885D01*
X023305Y010859D01*
X023237Y010859D01*
X021899Y012198D01*
X022020Y012228D02*
X011632Y012228D01*
X011790Y012070D02*
X017676Y012070D01*
X017517Y011911D02*
X011949Y011911D01*
X011999Y011753D02*
X012521Y011753D01*
X012566Y011797D02*
X012285Y011516D01*
X012285Y011337D01*
X012745Y011337D01*
X012745Y011797D01*
X012566Y011797D01*
X012745Y011753D02*
X012785Y011753D01*
X012785Y011594D02*
X012745Y011594D01*
X012745Y011436D02*
X012785Y011436D01*
X013166Y011594D02*
X013363Y011594D01*
X013285Y011516D02*
X013285Y011337D01*
X013745Y011337D01*
X013745Y011797D01*
X013566Y011797D01*
X013285Y011516D01*
X013285Y011436D02*
X013245Y011436D01*
X013245Y011277D02*
X013285Y011277D01*
X013285Y011119D02*
X013347Y011056D01*
X013182Y011056D01*
X013245Y011119D01*
X012347Y011056D02*
X012125Y011056D01*
X012205Y011135D01*
X012285Y011119D02*
X012347Y011056D01*
X012285Y011277D02*
X012205Y011277D01*
X012205Y011436D02*
X012285Y011436D01*
X012363Y011594D02*
X012110Y011594D01*
X011505Y011680D02*
X011325Y011500D01*
X011325Y011135D01*
X011404Y011056D01*
X011125Y011056D01*
X011205Y011135D01*
X011205Y011500D01*
X010947Y011757D01*
X010582Y011757D01*
X010325Y011500D01*
X010325Y011135D01*
X010582Y010877D01*
X010854Y010877D01*
X010734Y010757D01*
X010582Y010757D01*
X010325Y010500D01*
X010325Y010135D01*
X010582Y009877D01*
X010947Y009877D01*
X011205Y010135D01*
X011205Y010500D01*
X011177Y010527D01*
X011229Y010579D01*
X011404Y010579D01*
X011325Y010500D01*
X011325Y010135D01*
X011526Y009934D01*
X011526Y009573D01*
X011819Y009280D01*
X016898Y009280D01*
X016972Y009205D01*
X011741Y009205D01*
X011601Y009066D01*
X011601Y009066D01*
X011328Y008793D01*
X011308Y008793D01*
X011198Y008748D01*
X011114Y008664D01*
X011069Y008554D01*
X011069Y008435D01*
X011114Y008325D01*
X011198Y008242D01*
X011308Y008196D01*
X011426Y008196D01*
X011536Y008242D01*
X011620Y008325D01*
X011665Y008435D01*
X011665Y008456D01*
X011938Y008729D01*
X016780Y008729D01*
X016854Y008654D01*
X014031Y008654D01*
X014016Y008669D01*
X013907Y008714D01*
X013788Y008714D01*
X013678Y008669D01*
X013594Y008585D01*
X013549Y008475D01*
X013549Y008356D01*
X013594Y008247D01*
X013678Y008163D01*
X013788Y008117D01*
X013907Y008117D01*
X014016Y008163D01*
X014031Y008177D01*
X016701Y008177D01*
X016776Y008103D01*
X011269Y008103D01*
X010227Y009144D01*
X010227Y009893D01*
X010095Y010025D01*
X010205Y010135D01*
X010205Y010500D01*
X009947Y010757D01*
X009582Y010757D01*
X009325Y010500D01*
X009325Y010135D01*
X009526Y009934D01*
X009526Y009919D01*
X009751Y009695D01*
X009751Y008947D01*
X011028Y007670D01*
X010678Y007670D01*
X009676Y008672D01*
X009676Y009696D01*
X009537Y009835D01*
X009205Y010167D01*
X009205Y010500D01*
X008947Y010757D01*
X008582Y010757D01*
X008325Y010500D01*
X008325Y010135D01*
X008582Y009877D01*
X008820Y009877D01*
X009199Y009498D01*
X009199Y008475D01*
X009339Y008335D01*
X010341Y007333D01*
X010476Y007198D01*
X008749Y007198D01*
X008634Y007313D01*
X008634Y007333D01*
X008588Y007443D01*
X008504Y007527D01*
X008395Y007572D01*
X008276Y007572D01*
X008166Y007527D01*
X008082Y007443D01*
X008037Y007333D01*
X008037Y007215D01*
X008082Y007105D01*
X008166Y007021D01*
X008276Y006976D01*
X008297Y006976D01*
X008429Y006843D01*
X001859Y006843D01*
X001719Y006704D01*
X001299Y006283D01*
X001286Y006282D01*
X001230Y006214D01*
X001168Y006152D01*
X001168Y006140D01*
X001160Y006130D01*
X001164Y006084D01*
X001033Y006084D01*
X000975Y006027D01*
X000975Y009223D01*
X001173Y009421D01*
X001194Y009421D01*
X001304Y009466D01*
X001388Y009550D01*
X001433Y009660D01*
X001433Y009778D01*
X001388Y009888D01*
X001304Y009972D01*
X001194Y010017D01*
X001075Y010017D01*
X000966Y009972D01*
X000882Y009888D01*
X000836Y009778D01*
X000836Y009758D01*
X000638Y009560D01*
X000602Y009524D01*
X000602Y011738D01*
X000602Y011739D01*
X000602Y011813D01*
X000602Y011813D01*
X000611Y011968D01*
X000611Y011968D01*
X000690Y012266D01*
X000843Y012533D01*
X001060Y012752D01*
X001326Y012908D01*
X001624Y012989D01*
X001778Y013000D01*
X005220Y013000D01*
X002095Y009875D01*
X001955Y009735D01*
X001955Y008958D01*
X001781Y008958D01*
X001699Y008876D01*
X001699Y008130D01*
X001781Y008048D01*
X002607Y008048D01*
X002689Y008130D01*
X002689Y008876D01*
X002607Y008958D01*
X002432Y008958D01*
X002432Y009538D01*
X003884Y010990D01*
X003884Y009914D01*
X003840Y009806D01*
X003840Y009632D01*
X003884Y009524D01*
X003884Y009459D01*
X004024Y009319D01*
X004100Y009319D01*
X004189Y009282D01*
X004363Y009282D01*
X004524Y009349D01*
X004647Y009471D01*
X004713Y009632D01*
X004713Y009806D01*
X004647Y009966D01*
X004524Y010089D01*
X004363Y010156D01*
X004361Y010156D01*
X004361Y010837D01*
X004751Y011226D01*
X004751Y009384D01*
X004733Y009384D01*
X004623Y009338D01*
X004539Y009254D01*
X004494Y009144D01*
X004494Y009026D01*
X004539Y008916D01*
X004623Y008832D01*
X004733Y008787D01*
X004851Y008787D01*
X004961Y008832D01*
X005045Y008916D01*
X005091Y009026D01*
X005091Y009046D01*
X005227Y009183D01*
X005227Y009376D01*
X005517Y009086D01*
X005517Y009065D01*
X005563Y008955D01*
X005647Y008871D01*
X005743Y008831D01*
X005522Y008831D01*
X005440Y008749D01*
X005440Y008615D01*
X005291Y008615D01*
X005276Y008629D01*
X005166Y008675D01*
X005048Y008675D01*
X004938Y008629D01*
X004854Y008545D01*
X004809Y008436D01*
X004809Y008317D01*
X004854Y008207D01*
X004938Y008123D01*
X005048Y008078D01*
X005166Y008078D01*
X005276Y008123D01*
X005291Y008138D01*
X005440Y008138D01*
X005440Y008082D01*
X005522Y008000D01*
X005911Y008000D01*
X005884Y007993D01*
X005843Y007969D01*
X005810Y007936D01*
X005786Y007895D01*
X005774Y007849D01*
X005774Y007568D01*
X006132Y007568D01*
X006132Y007531D01*
X006169Y007531D01*
X006169Y007094D01*
X006371Y007094D01*
X006417Y007106D01*
X006458Y007130D01*
X006491Y007164D01*
X006515Y007205D01*
X006527Y007250D01*
X006527Y007531D01*
X006169Y007531D01*
X006169Y007568D01*
X006527Y007568D01*
X006527Y007849D01*
X006515Y007895D01*
X006491Y007936D01*
X006458Y007969D01*
X006417Y007993D01*
X006371Y008005D01*
X006169Y008005D01*
X006169Y007568D01*
X006132Y007568D01*
X006132Y008005D01*
X006036Y008005D01*
X006113Y008082D01*
X006113Y008749D01*
X006031Y008831D01*
X005888Y008831D01*
X005985Y008871D01*
X006069Y008955D01*
X006114Y009065D01*
X006114Y009184D01*
X006069Y009294D01*
X005985Y009377D01*
X005875Y009423D01*
X005855Y009423D01*
X005660Y009617D01*
X005660Y010797D01*
X005942Y011079D01*
X006381Y011079D01*
X006582Y010877D01*
X006947Y010877D01*
X007205Y011135D01*
X007205Y011500D01*
X007062Y011642D01*
X007467Y011642D01*
X007325Y011500D01*
X007325Y011135D01*
X007582Y010877D01*
X007947Y010877D01*
X008205Y011135D01*
X008205Y011500D01*
X008062Y011642D01*
X008467Y011642D01*
X008325Y011500D01*
X008325Y011135D01*
X008582Y010877D01*
X008947Y010877D01*
X009205Y011135D01*
X009205Y011500D01*
X009062Y011642D01*
X009182Y011642D01*
X009325Y011499D01*
X009325Y011135D01*
X009582Y010877D01*
X009947Y010877D01*
X010205Y011135D01*
X010205Y011500D01*
X009947Y011757D01*
X009740Y011757D01*
X009519Y011979D01*
X009519Y011979D01*
X009502Y011996D01*
X011189Y011996D01*
X011505Y011680D01*
X011433Y011753D02*
X010951Y011753D01*
X011110Y011594D02*
X011419Y011594D01*
X011325Y011436D02*
X011205Y011436D01*
X011205Y011277D02*
X011325Y011277D01*
X011341Y011119D02*
X011188Y011119D01*
X010778Y010802D02*
X005665Y010802D01*
X005660Y010643D02*
X006468Y010643D01*
X006582Y010757D02*
X006325Y010500D01*
X006325Y010135D01*
X006483Y009977D01*
X006483Y009072D01*
X006468Y009057D01*
X006423Y008948D01*
X006423Y008829D01*
X006468Y008719D01*
X006552Y008635D01*
X006662Y008590D01*
X006781Y008590D01*
X006890Y008635D01*
X006974Y008719D01*
X007020Y008829D01*
X007020Y008948D01*
X006974Y009057D01*
X006960Y009072D01*
X006960Y009890D01*
X007205Y010135D01*
X007205Y010500D01*
X006947Y010757D01*
X006582Y010757D01*
X006499Y010960D02*
X005823Y010960D01*
X005660Y010485D02*
X006325Y010485D01*
X006325Y010326D02*
X005660Y010326D01*
X005660Y010168D02*
X006325Y010168D01*
X006450Y010009D02*
X005660Y010009D01*
X005660Y009851D02*
X006483Y009851D01*
X006483Y009692D02*
X005660Y009692D01*
X005744Y009534D02*
X006483Y009534D01*
X006960Y009534D02*
X009164Y009534D01*
X009005Y009692D02*
X006960Y009692D01*
X006960Y009851D02*
X008847Y009851D01*
X008450Y010009D02*
X008079Y010009D01*
X008205Y010135D02*
X007947Y009877D01*
X007582Y009877D01*
X007325Y010135D01*
X007325Y010500D01*
X007582Y010757D01*
X007947Y010757D01*
X008205Y010500D01*
X008205Y010135D01*
X008205Y010168D02*
X008325Y010168D01*
X008325Y010326D02*
X008205Y010326D01*
X008205Y010485D02*
X008325Y010485D01*
X008468Y010643D02*
X008061Y010643D01*
X007468Y010643D02*
X007061Y010643D01*
X007205Y010485D02*
X007325Y010485D01*
X007325Y010326D02*
X007205Y010326D01*
X007205Y010168D02*
X007325Y010168D01*
X007450Y010009D02*
X007079Y010009D01*
X006960Y009375D02*
X009199Y009375D01*
X009199Y009217D02*
X006960Y009217D01*
X006973Y009058D02*
X009199Y009058D01*
X009199Y008900D02*
X007020Y008900D01*
X006983Y008741D02*
X009199Y008741D01*
X009199Y008583D02*
X006113Y008583D01*
X006113Y008741D02*
X006459Y008741D01*
X006423Y008900D02*
X006013Y008900D01*
X006111Y009058D02*
X006469Y009058D01*
X006483Y009217D02*
X006100Y009217D01*
X005987Y009375D02*
X006483Y009375D01*
X005618Y008900D02*
X005029Y008900D01*
X005103Y009058D02*
X005520Y009058D01*
X005386Y009217D02*
X005227Y009217D01*
X005227Y009375D02*
X005228Y009375D01*
X004751Y009534D02*
X004673Y009534D01*
X004713Y009692D02*
X004751Y009692D01*
X004751Y009851D02*
X004695Y009851D01*
X004751Y010009D02*
X004604Y010009D01*
X004751Y010168D02*
X004361Y010168D01*
X004361Y010326D02*
X004751Y010326D01*
X004751Y010485D02*
X004361Y010485D01*
X004361Y010643D02*
X004751Y010643D01*
X004751Y010802D02*
X004361Y010802D01*
X004485Y010960D02*
X004751Y010960D01*
X004751Y011119D02*
X004643Y011119D01*
X003884Y010960D02*
X003855Y010960D01*
X003884Y010802D02*
X003696Y010802D01*
X003538Y010643D02*
X003884Y010643D01*
X003884Y010485D02*
X003379Y010485D01*
X003221Y010326D02*
X003884Y010326D01*
X003884Y010168D02*
X003062Y010168D01*
X003005Y010089D02*
X002882Y009966D01*
X002816Y009806D01*
X002816Y009632D01*
X002882Y009471D01*
X003005Y009349D01*
X003166Y009282D01*
X003340Y009282D01*
X003500Y009349D01*
X003623Y009471D01*
X003690Y009632D01*
X003690Y009806D01*
X003623Y009966D01*
X003500Y010089D01*
X003340Y010156D01*
X003166Y010156D01*
X003005Y010089D01*
X002925Y010009D02*
X002904Y010009D01*
X002835Y009851D02*
X002745Y009851D01*
X002816Y009692D02*
X002587Y009692D01*
X002432Y009534D02*
X002857Y009534D01*
X002979Y009375D02*
X002432Y009375D01*
X002432Y009217D02*
X004524Y009217D01*
X004551Y009375D02*
X004713Y009375D01*
X004494Y009058D02*
X002432Y009058D01*
X002665Y008900D02*
X004555Y008900D01*
X004891Y008583D02*
X002689Y008583D01*
X002689Y008741D02*
X005440Y008741D01*
X004809Y008424D02*
X002689Y008424D01*
X002689Y008266D02*
X004830Y008266D01*
X004977Y008107D02*
X002666Y008107D01*
X002607Y007838D02*
X002689Y007756D01*
X002689Y007622D01*
X005066Y007622D01*
X005066Y007883D01*
X005148Y007965D01*
X005657Y007965D01*
X005739Y007883D01*
X005739Y007216D01*
X005657Y007134D01*
X005148Y007134D01*
X005136Y007145D01*
X002689Y007145D01*
X002689Y007011D01*
X002607Y006929D01*
X001781Y006929D01*
X001699Y007011D01*
X001699Y007756D01*
X001781Y007838D01*
X002607Y007838D01*
X002655Y007790D02*
X005066Y007790D01*
X005066Y007632D02*
X002689Y007632D01*
X001733Y007790D02*
X000975Y007790D01*
X000975Y007632D02*
X001699Y007632D01*
X001699Y007473D02*
X000975Y007473D01*
X000975Y007315D02*
X001699Y007315D01*
X001699Y007156D02*
X000975Y007156D01*
X000975Y006998D02*
X001711Y006998D01*
X001855Y006839D02*
X000975Y006839D01*
X000975Y006681D02*
X001696Y006681D01*
X001538Y006522D02*
X000975Y006522D01*
X000975Y006364D02*
X001379Y006364D01*
X001221Y006205D02*
X000975Y006205D01*
X000975Y006047D02*
X000995Y006047D01*
X002676Y006998D02*
X008222Y006998D01*
X008061Y007156D02*
X006484Y007156D01*
X006527Y007315D02*
X008037Y007315D01*
X008113Y007473D02*
X006527Y007473D01*
X006169Y007473D02*
X006132Y007473D01*
X006132Y007531D02*
X006132Y007094D01*
X005930Y007094D01*
X005884Y007106D01*
X005843Y007130D01*
X005810Y007164D01*
X005786Y007205D01*
X005774Y007250D01*
X005774Y007531D01*
X006132Y007531D01*
X006132Y007632D02*
X006169Y007632D01*
X006169Y007790D02*
X006132Y007790D01*
X006132Y007949D02*
X006169Y007949D01*
X006113Y008107D02*
X009567Y008107D01*
X009725Y007949D02*
X006478Y007949D01*
X006527Y007790D02*
X009884Y007790D01*
X010042Y007632D02*
X006527Y007632D01*
X005823Y007949D02*
X005674Y007949D01*
X005739Y007790D02*
X005774Y007790D01*
X005774Y007632D02*
X005739Y007632D01*
X005739Y007473D02*
X005774Y007473D01*
X005774Y007315D02*
X005739Y007315D01*
X005679Y007156D02*
X005817Y007156D01*
X006132Y007156D02*
X006169Y007156D01*
X006169Y007315D02*
X006132Y007315D01*
X005131Y007949D02*
X000975Y007949D01*
X000975Y008107D02*
X001722Y008107D01*
X001699Y008266D02*
X000975Y008266D01*
X000975Y008424D02*
X001699Y008424D01*
X001699Y008583D02*
X000975Y008583D01*
X000975Y008741D02*
X001699Y008741D01*
X001722Y008900D02*
X000975Y008900D01*
X000975Y009058D02*
X001955Y009058D01*
X001955Y009217D02*
X000975Y009217D01*
X001128Y009375D02*
X001955Y009375D01*
X001955Y009534D02*
X001372Y009534D01*
X001433Y009692D02*
X001955Y009692D01*
X002071Y009851D02*
X001403Y009851D01*
X001213Y010009D02*
X002230Y010009D01*
X002388Y010168D02*
X000602Y010168D01*
X000602Y010326D02*
X002547Y010326D01*
X002705Y010485D02*
X000602Y010485D01*
X000602Y010643D02*
X001681Y010643D01*
X001720Y010643D02*
X001880Y010643D01*
X001880Y010639D02*
X001995Y010652D01*
X002123Y010681D01*
X002246Y010724D01*
X002364Y010781D01*
X002475Y010851D01*
X002577Y010932D01*
X002669Y011025D01*
X002751Y011127D01*
X002821Y011238D01*
X002877Y011355D01*
X002921Y011479D01*
X002950Y011606D01*
X002963Y011722D01*
X001880Y011722D01*
X001880Y011882D01*
X001720Y011882D01*
X001720Y012964D01*
X001605Y012951D01*
X001477Y012922D01*
X001354Y012879D01*
X001236Y012822D01*
X001125Y012753D01*
X001023Y012671D01*
X000931Y012579D01*
X000849Y012476D01*
X000779Y012366D01*
X000723Y012248D01*
X000679Y012124D01*
X000650Y011997D01*
X000637Y011882D01*
X001720Y011882D01*
X001720Y011722D01*
X000637Y011722D01*
X000650Y011606D01*
X000679Y011479D01*
X000723Y011355D01*
X000779Y011238D01*
X000849Y011127D01*
X000931Y011025D01*
X001023Y010932D01*
X001125Y010851D01*
X001236Y010781D01*
X001354Y010724D01*
X001477Y010681D01*
X001605Y010652D01*
X001720Y010639D01*
X001720Y011722D01*
X001880Y011722D01*
X001880Y010639D01*
X001919Y010643D02*
X002864Y010643D01*
X003022Y010802D02*
X002397Y010802D01*
X002605Y010960D02*
X003181Y010960D01*
X003339Y011119D02*
X002745Y011119D01*
X002840Y011277D02*
X003498Y011277D01*
X003656Y011436D02*
X002905Y011436D01*
X002947Y011594D02*
X003815Y011594D01*
X003973Y011753D02*
X001880Y011753D01*
X001880Y011882D02*
X002963Y011882D01*
X002950Y011997D01*
X002921Y012124D01*
X002877Y012248D01*
X002821Y012366D01*
X002751Y012476D01*
X002669Y012579D01*
X002577Y012671D01*
X002475Y012753D01*
X002364Y012822D01*
X002246Y012879D01*
X002123Y012922D01*
X001995Y012951D01*
X001880Y012964D01*
X001880Y011882D01*
X001880Y011911D02*
X001720Y011911D01*
X001720Y011753D02*
X000602Y011753D01*
X000608Y011911D02*
X000641Y011911D01*
X000638Y012070D02*
X000667Y012070D01*
X000680Y012228D02*
X000716Y012228D01*
X000759Y012387D02*
X000793Y012387D01*
X000855Y012545D02*
X000904Y012545D01*
X001012Y012704D02*
X001064Y012704D01*
X001249Y012862D02*
X001319Y012862D01*
X001720Y012862D02*
X001880Y012862D01*
X001880Y012704D02*
X001720Y012704D01*
X001720Y012545D02*
X001880Y012545D01*
X001880Y012387D02*
X001720Y012387D01*
X001720Y012228D02*
X001880Y012228D01*
X001880Y012070D02*
X001720Y012070D01*
X001720Y011594D02*
X001880Y011594D01*
X001880Y011436D02*
X001720Y011436D01*
X001720Y011277D02*
X001880Y011277D01*
X001880Y011119D02*
X001720Y011119D01*
X001720Y010960D02*
X001880Y010960D01*
X001880Y010802D02*
X001720Y010802D01*
X001203Y010802D02*
X000602Y010802D01*
X000602Y010960D02*
X000995Y010960D01*
X000855Y011119D02*
X000602Y011119D01*
X000602Y011277D02*
X000760Y011277D01*
X000695Y011436D02*
X000602Y011436D01*
X000602Y011594D02*
X000653Y011594D01*
X002807Y012387D02*
X004607Y012387D01*
X004766Y012545D02*
X002696Y012545D01*
X002536Y012704D02*
X004924Y012704D01*
X005083Y012862D02*
X002281Y012862D01*
X002884Y012228D02*
X004449Y012228D01*
X004290Y012070D02*
X002933Y012070D01*
X002959Y011911D02*
X004132Y011911D01*
X007110Y011594D02*
X007419Y011594D01*
X007325Y011436D02*
X007205Y011436D01*
X007205Y011277D02*
X007325Y011277D01*
X007341Y011119D02*
X007188Y011119D01*
X007030Y010960D02*
X007499Y010960D01*
X008030Y010960D02*
X008499Y010960D01*
X008341Y011119D02*
X008188Y011119D01*
X008205Y011277D02*
X008325Y011277D01*
X008325Y011436D02*
X008205Y011436D01*
X008110Y011594D02*
X008419Y011594D01*
X009110Y011594D02*
X009229Y011594D01*
X009205Y011436D02*
X009325Y011436D01*
X009325Y011277D02*
X009205Y011277D01*
X009188Y011119D02*
X009341Y011119D01*
X009499Y010960D02*
X009030Y010960D01*
X009061Y010643D02*
X009468Y010643D01*
X009325Y010485D02*
X009205Y010485D01*
X009205Y010326D02*
X009325Y010326D01*
X009325Y010168D02*
X009205Y010168D01*
X009363Y010009D02*
X009450Y010009D01*
X009521Y009851D02*
X009595Y009851D01*
X009676Y009692D02*
X009751Y009692D01*
X009751Y009534D02*
X009676Y009534D01*
X009676Y009375D02*
X009751Y009375D01*
X009751Y009217D02*
X009676Y009217D01*
X009676Y009058D02*
X009751Y009058D01*
X009798Y008900D02*
X009676Y008900D01*
X009676Y008741D02*
X009956Y008741D01*
X010115Y008583D02*
X009765Y008583D01*
X009924Y008424D02*
X010273Y008424D01*
X010432Y008266D02*
X010082Y008266D01*
X010241Y008107D02*
X010590Y008107D01*
X010749Y007949D02*
X010399Y007949D01*
X010558Y007790D02*
X010907Y007790D01*
X011265Y008107D02*
X016771Y008107D01*
X018111Y008741D02*
X018169Y008741D01*
X016961Y009217D02*
X010227Y009217D01*
X010227Y009375D02*
X011724Y009375D01*
X011565Y009534D02*
X010227Y009534D01*
X010227Y009692D02*
X011526Y009692D01*
X011526Y009851D02*
X010227Y009851D01*
X010111Y010009D02*
X010450Y010009D01*
X010325Y010168D02*
X010205Y010168D01*
X010205Y010326D02*
X010325Y010326D01*
X010325Y010485D02*
X010205Y010485D01*
X010061Y010643D02*
X010468Y010643D01*
X010499Y010960D02*
X010030Y010960D01*
X010188Y011119D02*
X010341Y011119D01*
X010325Y011277D02*
X010205Y011277D01*
X010205Y011436D02*
X010325Y011436D01*
X010419Y011594D02*
X010110Y011594D01*
X009951Y011753D02*
X010578Y011753D01*
X011274Y011911D02*
X009586Y011911D01*
X011205Y010485D02*
X011325Y010485D01*
X011325Y010326D02*
X011205Y010326D01*
X011205Y010168D02*
X011325Y010168D01*
X011450Y010009D02*
X011079Y010009D01*
X011594Y009058D02*
X010314Y009058D01*
X010472Y008900D02*
X011435Y008900D01*
X011192Y008741D02*
X010631Y008741D01*
X010789Y008583D02*
X011081Y008583D01*
X011073Y008424D02*
X010948Y008424D01*
X011106Y008266D02*
X011174Y008266D01*
X011560Y008266D02*
X013586Y008266D01*
X013549Y008424D02*
X011661Y008424D01*
X011792Y008583D02*
X013593Y008583D01*
X010359Y007315D02*
X008634Y007315D01*
X008558Y007473D02*
X010201Y007473D01*
X010341Y007333D02*
X010341Y007333D01*
X009408Y008266D02*
X006113Y008266D01*
X006113Y008424D02*
X009250Y008424D01*
X009339Y008335D02*
X009339Y008335D01*
X005440Y008107D02*
X005237Y008107D01*
X003968Y009375D02*
X003527Y009375D01*
X003649Y009534D02*
X003880Y009534D01*
X003840Y009692D02*
X003690Y009692D01*
X003671Y009851D02*
X003858Y009851D01*
X003884Y010009D02*
X003580Y010009D01*
X001056Y010009D02*
X000602Y010009D01*
X000602Y009851D02*
X000866Y009851D01*
X000771Y009692D02*
X000602Y009692D01*
X000602Y009534D02*
X000612Y009534D01*
X000602Y004462D02*
X000653Y004462D01*
X000602Y004303D02*
X000811Y004303D01*
X000951Y004145D02*
X000602Y004145D01*
X000602Y003986D02*
X003412Y003986D01*
X003667Y003828D02*
X000602Y003828D01*
X000602Y003352D02*
X001202Y003352D01*
X000995Y003194D02*
X000602Y003194D01*
X000602Y003035D02*
X000855Y003035D01*
X000760Y002877D02*
X000602Y002877D01*
X000602Y002718D02*
X000694Y002718D01*
X000653Y002560D02*
X000602Y002560D01*
X003731Y002718D02*
X004444Y002718D01*
X004214Y002877D02*
X003842Y002877D01*
X004001Y003035D02*
X004179Y003035D01*
X004159Y003194D02*
X004227Y003194D01*
X002289Y004145D02*
X001941Y004145D01*
X009406Y002560D02*
X009582Y002560D01*
X009582Y002401D02*
X009412Y002401D01*
X009412Y002243D02*
X009582Y002243D01*
X014670Y002439D02*
X014670Y003058D01*
X014713Y003101D01*
X014998Y003194D02*
X015451Y003194D01*
X015451Y003352D02*
X014884Y003352D01*
X014988Y003511D02*
X015433Y003511D01*
X015445Y003483D02*
X015451Y003476D01*
X015451Y002929D01*
X015312Y002929D01*
X015230Y002847D01*
X015230Y001531D01*
X015312Y001449D01*
X016028Y001449D01*
X016110Y001531D01*
X016110Y002847D01*
X016028Y002929D01*
X015928Y002929D01*
X015928Y003461D01*
X015951Y003483D01*
X015996Y003593D01*
X015996Y003711D01*
X015951Y003821D01*
X015867Y003905D01*
X015757Y003950D01*
X015638Y003950D01*
X015529Y003905D01*
X015445Y003821D01*
X015399Y003711D01*
X015399Y003593D01*
X015445Y003483D01*
X015399Y003669D02*
X015147Y003669D01*
X015305Y003828D02*
X015451Y003828D01*
X015944Y003828D02*
X016517Y003828D01*
X016847Y003828D02*
X017389Y003828D01*
X017548Y003669D02*
X016965Y003669D01*
X016979Y003511D02*
X017706Y003511D01*
X017865Y003352D02*
X016920Y003352D01*
X016920Y003194D02*
X018957Y003194D01*
X016443Y003194D02*
X015928Y003194D01*
X015928Y003352D02*
X016443Y003352D01*
X016385Y003511D02*
X015962Y003511D01*
X015996Y003669D02*
X016399Y003669D01*
X016443Y003035D02*
X015928Y003035D01*
X016081Y002877D02*
X016260Y002877D01*
X016230Y002718D02*
X016110Y002718D01*
X016110Y002560D02*
X016230Y002560D01*
X016230Y002401D02*
X016110Y002401D01*
X016110Y002243D02*
X016230Y002243D01*
X016230Y002084D02*
X016110Y002084D01*
X016110Y001926D02*
X016230Y001926D01*
X016230Y001767D02*
X016110Y001767D01*
X016110Y001609D02*
X016230Y001609D01*
X016311Y001450D02*
X016029Y001450D01*
X015311Y001450D02*
X015029Y001450D01*
X015110Y001609D02*
X015230Y001609D01*
X015230Y001767D02*
X015110Y001767D01*
X015110Y001926D02*
X015230Y001926D01*
X015230Y002084D02*
X015110Y002084D01*
X015110Y002243D02*
X015230Y002243D01*
X015230Y002401D02*
X015110Y002401D01*
X015110Y002560D02*
X015230Y002560D01*
X015230Y002718D02*
X015110Y002718D01*
X015081Y002877D02*
X015260Y002877D01*
X015451Y003035D02*
X015009Y003035D01*
X015670Y002439D02*
X015698Y001967D01*
X015698Y002235D01*
X015690Y002227D01*
X015690Y002184D01*
X021090Y006998D02*
X021188Y006998D01*
X026259Y009217D02*
X026883Y009217D01*
X026698Y009375D02*
X026400Y009375D01*
X026446Y009534D02*
X026651Y009534D01*
X026672Y009692D02*
X026426Y009692D01*
X026436Y009663D02*
X026416Y009726D01*
X026386Y009784D01*
X026347Y009838D01*
X026301Y009884D01*
X026247Y009923D01*
X026189Y009953D01*
X026126Y009973D01*
X026061Y009983D01*
X026028Y009983D01*
X026028Y009565D01*
X026028Y009565D01*
X026446Y009565D01*
X026446Y009598D01*
X026436Y009663D01*
X026334Y009851D02*
X026780Y009851D01*
X026028Y009851D02*
X026028Y009851D01*
X026028Y009692D02*
X026028Y009692D01*
X026028Y009534D02*
X026028Y009534D01*
X023248Y010960D02*
X023136Y010960D01*
X023130Y011119D02*
X022977Y011119D01*
X022971Y011277D02*
X022819Y011277D01*
X022813Y011436D02*
X022660Y011436D01*
X022654Y011594D02*
X022502Y011594D01*
X022496Y011753D02*
X022343Y011753D01*
X022337Y011911D02*
X022185Y011911D01*
X022179Y012070D02*
X022026Y012070D01*
X023127Y012387D02*
X029533Y012387D01*
X029520Y012366D02*
X029589Y012476D01*
X029671Y012579D01*
X029763Y012671D01*
X029865Y012753D01*
X029976Y012822D01*
X030094Y012879D01*
X030217Y012922D01*
X030345Y012951D01*
X030460Y012964D01*
X030460Y011882D01*
X030620Y011882D01*
X030620Y012964D01*
X030735Y012951D01*
X030863Y012922D01*
X030986Y012879D01*
X031104Y012822D01*
X031215Y012753D01*
X031317Y012671D01*
X031410Y012579D01*
X031491Y012476D01*
X031561Y012366D01*
X031617Y012248D01*
X031661Y012124D01*
X031690Y011997D01*
X031703Y011882D01*
X030620Y011882D01*
X030620Y011722D01*
X031703Y011722D01*
X031690Y011606D01*
X031661Y011479D01*
X031617Y011355D01*
X031561Y011238D01*
X031491Y011127D01*
X031410Y011025D01*
X031317Y010932D01*
X031215Y010851D01*
X031104Y010781D01*
X030986Y010724D01*
X030863Y010681D01*
X030735Y010652D01*
X030620Y010639D01*
X030620Y011722D01*
X030460Y011722D01*
X029378Y011722D01*
X029391Y011606D01*
X029420Y011479D01*
X029463Y011355D01*
X029520Y011238D01*
X029589Y011127D01*
X029671Y011025D01*
X029763Y010932D01*
X029865Y010851D01*
X029976Y010781D01*
X030094Y010724D01*
X030217Y010681D01*
X030345Y010652D01*
X030460Y010639D01*
X030460Y011722D01*
X030460Y011882D01*
X029378Y011882D01*
X029391Y011997D01*
X029420Y012124D01*
X029463Y012248D01*
X029520Y012366D01*
X029456Y012228D02*
X023285Y012228D01*
X023444Y012070D02*
X029407Y012070D01*
X029381Y011911D02*
X023602Y011911D01*
X023761Y011753D02*
X030460Y011753D01*
X030460Y011911D02*
X030620Y011911D01*
X030620Y011753D02*
X031738Y011753D01*
X031738Y011727D02*
X031738Y011727D01*
X031738Y008854D01*
X029401Y011192D01*
X029261Y011331D01*
X024182Y011331D01*
X022514Y013000D01*
X030544Y013000D01*
X030700Y012989D01*
X031001Y012908D01*
X031272Y012751D01*
X031492Y012530D01*
X031648Y012260D01*
X031728Y011958D01*
X031738Y011802D01*
X031738Y011802D01*
X031738Y011727D01*
X031738Y011594D02*
X031687Y011594D01*
X031646Y011436D02*
X031738Y011436D01*
X031738Y011277D02*
X031580Y011277D01*
X031485Y011119D02*
X031738Y011119D01*
X031738Y010960D02*
X031345Y010960D01*
X031137Y010802D02*
X031738Y010802D01*
X031738Y010643D02*
X030659Y010643D01*
X030620Y010643D02*
X030460Y010643D01*
X030422Y010643D02*
X029949Y010643D01*
X029943Y010802D02*
X029790Y010802D01*
X029735Y010960D02*
X029632Y010960D01*
X029596Y011119D02*
X029473Y011119D01*
X029500Y011277D02*
X029315Y011277D01*
X029435Y011436D02*
X024078Y011436D01*
X023919Y011594D02*
X029393Y011594D01*
X030460Y011594D02*
X030620Y011594D01*
X030620Y011436D02*
X030460Y011436D01*
X030460Y011277D02*
X030620Y011277D01*
X030620Y011119D02*
X030460Y011119D01*
X030460Y010960D02*
X030620Y010960D01*
X030620Y010802D02*
X030460Y010802D01*
X030107Y010485D02*
X031738Y010485D01*
X031738Y010326D02*
X030266Y010326D01*
X030424Y010168D02*
X031738Y010168D01*
X031738Y010009D02*
X030583Y010009D01*
X030741Y009851D02*
X031738Y009851D01*
X031738Y009692D02*
X030900Y009692D01*
X031058Y009534D02*
X031738Y009534D01*
X031738Y009375D02*
X031217Y009375D01*
X031375Y009217D02*
X031738Y009217D01*
X031738Y009058D02*
X031534Y009058D01*
X031692Y008900D02*
X031738Y008900D01*
X030384Y009534D02*
X030227Y009534D01*
X031699Y011911D02*
X031731Y011911D01*
X031698Y012070D02*
X031673Y012070D01*
X031656Y012228D02*
X031624Y012228D01*
X031575Y012387D02*
X031547Y012387D01*
X031477Y012545D02*
X031436Y012545D01*
X031319Y012704D02*
X031276Y012704D01*
X031080Y012862D02*
X031021Y012862D01*
X030620Y012862D02*
X030460Y012862D01*
X030460Y012704D02*
X030620Y012704D01*
X030620Y012545D02*
X030460Y012545D01*
X030460Y012387D02*
X030620Y012387D01*
X030620Y012228D02*
X030460Y012228D01*
X030460Y012070D02*
X030620Y012070D01*
X029644Y012545D02*
X022968Y012545D01*
X022810Y012704D02*
X029804Y012704D01*
X030059Y012862D02*
X022651Y012862D01*
X017359Y011753D02*
X014008Y011753D01*
X013785Y011753D02*
X013745Y011753D01*
X013745Y011594D02*
X013785Y011594D01*
X013785Y011436D02*
X013745Y011436D01*
X014166Y011594D02*
X017200Y011594D01*
X017042Y011436D02*
X014245Y011436D01*
X013521Y011753D02*
X013008Y011753D01*
X030544Y013000D02*
X030544Y013000D01*
D26*
X026052Y010187D03*
X023532Y011054D03*
X020422Y011014D03*
X018650Y011132D03*
X013847Y008416D03*
X011367Y008495D03*
X013847Y007077D03*
X015894Y007077D03*
X016367Y007432D03*
X016879Y007707D03*
X020816Y007117D03*
X021485Y007235D03*
X019831Y005660D03*
X021328Y005463D03*
X021485Y004833D03*
X022312Y004124D03*
X024280Y004912D03*
X024162Y005581D03*
X019792Y004794D03*
X017391Y003573D03*
X016682Y003573D03*
X015698Y003652D03*
X014713Y003101D03*
X009477Y005069D03*
X010186Y005581D03*
X011564Y006959D03*
X008335Y007274D03*
X005107Y008376D03*
X004792Y009085D03*
X005816Y009124D03*
X006721Y008888D03*
X001135Y009719D03*
X001288Y007117D03*
X006249Y004124D03*
X008402Y004097D03*
X004477Y003022D03*
X004123Y002432D03*
X008178Y002156D03*
X023926Y002195D03*
X029713Y008652D03*
X009123Y012589D03*
D27*
X021997Y012589D01*
X023532Y011054D01*
X024083Y011093D02*
X022194Y012983D01*
X005540Y012983D01*
X002194Y009636D01*
X002194Y008503D01*
X001135Y009719D02*
X000737Y009321D01*
X000737Y004715D01*
X001013Y004439D01*
X001328Y004439D01*
X001358Y004470D01*
X001446Y004510D01*
X001328Y004439D02*
X002776Y004439D01*
X002784Y004470D01*
X003265Y004470D01*
X003572Y004164D01*
X004154Y004164D01*
X004162Y004155D01*
X005540Y004155D01*
X005580Y004116D01*
X006240Y004116D01*
X006249Y004124D01*
X006446Y005227D02*
X007402Y004270D01*
X007402Y004124D01*
X008402Y004124D02*
X008402Y004097D01*
X009871Y004124D02*
X008139Y005857D01*
X004438Y005857D01*
X004162Y005581D01*
X004162Y005275D01*
X003335Y006211D02*
X002784Y005660D01*
X002784Y005590D01*
X003335Y006211D02*
X020107Y006211D01*
X020607Y005711D01*
X020607Y004124D01*
X019607Y004124D02*
X019595Y004124D01*
X019005Y004715D01*
X013257Y004715D01*
X012733Y004191D01*
X012733Y004124D01*
X011733Y004124D02*
X009871Y004124D01*
X009477Y005069D02*
X019517Y005069D01*
X019792Y004794D01*
X021328Y005463D02*
X021446Y005581D01*
X024162Y005581D01*
X024950Y005581D02*
X024950Y004136D01*
X024938Y004124D01*
X025343Y003495D02*
X025973Y004124D01*
X031131Y004124D01*
X031505Y004498D01*
X031505Y004754D01*
X030619Y005699D02*
X030244Y005699D01*
X030205Y005739D01*
X030619Y005699D02*
X030855Y005935D01*
X030855Y007786D01*
X030580Y008061D01*
X018454Y008061D01*
X016997Y009518D01*
X011918Y009518D01*
X011765Y009672D01*
X011765Y010317D01*
X011131Y010817D02*
X010765Y010451D01*
X010765Y010317D01*
X009989Y009794D02*
X009989Y009046D01*
X011170Y007865D01*
X016721Y007865D01*
X016879Y007707D01*
X016367Y007432D02*
X010580Y007432D01*
X009438Y008573D01*
X009438Y009597D01*
X008765Y010270D01*
X008765Y010317D01*
X009765Y010317D02*
X009765Y010018D01*
X009989Y009794D01*
X011131Y010817D02*
X016761Y010817D01*
X017902Y011959D01*
X021800Y011959D01*
X023139Y010621D01*
X029044Y010621D01*
X029989Y009676D01*
X029989Y008928D01*
X029713Y008652D01*
X031505Y008750D02*
X029162Y011093D01*
X024083Y011093D01*
X018257Y007589D02*
X016879Y008967D01*
X011839Y008967D01*
X011367Y008495D01*
X013847Y008416D02*
X016800Y008416D01*
X018139Y007077D01*
X020776Y007077D01*
X020816Y007117D01*
X021288Y007235D02*
X020934Y007589D01*
X018257Y007589D01*
X015894Y007077D02*
X013847Y007077D01*
X011564Y006959D02*
X008650Y006959D01*
X008335Y007274D01*
X005776Y008416D02*
X005737Y008376D01*
X005107Y008376D01*
X004792Y009085D02*
X004989Y009282D01*
X004989Y011172D01*
X005698Y011880D01*
X009280Y011880D01*
X009765Y011396D01*
X009765Y011317D01*
X008690Y012235D02*
X011288Y012235D01*
X011761Y011762D01*
X011761Y011321D01*
X011765Y011317D01*
X008690Y012235D02*
X008454Y012471D01*
X005658Y012471D01*
X004123Y010935D01*
X004123Y009565D01*
X004276Y009719D01*
X004123Y009565D02*
X004123Y009558D01*
X005422Y009518D02*
X005816Y009124D01*
X005422Y009518D02*
X005422Y010896D01*
X005843Y011317D01*
X006765Y011317D01*
X006765Y010317D02*
X006721Y010274D01*
X006721Y008888D01*
X005402Y007550D02*
X005236Y007384D01*
X002194Y007384D01*
X001957Y006605D02*
X023926Y006605D01*
X024950Y005581D01*
X024280Y004912D02*
X024202Y004833D01*
X021485Y004833D01*
X022312Y004124D02*
X023938Y004124D01*
X025343Y003495D02*
X018060Y003495D01*
X017351Y004203D01*
X015343Y004203D01*
X014674Y003534D01*
X004162Y003534D01*
X003493Y002865D01*
X003493Y001510D01*
X003517Y001487D01*
X004635Y002865D02*
X004477Y003022D01*
X004635Y002865D02*
X010343Y002865D01*
X010068Y002589D01*
X010068Y002187D01*
X010037Y002156D01*
X010698Y001329D02*
X011131Y001762D01*
X011446Y001762D01*
X010698Y001329D02*
X007863Y001329D01*
X007509Y001684D01*
X007509Y002125D01*
X007478Y002156D01*
X010343Y002865D02*
X013375Y002865D01*
X013611Y002628D01*
X013611Y001762D01*
X014690Y002164D02*
X014690Y003077D01*
X014713Y003101D01*
X015690Y003644D02*
X015698Y003652D01*
X015690Y003644D02*
X015690Y002184D01*
X016670Y002439D02*
X016682Y001951D01*
X016682Y003573D01*
X017391Y003573D02*
X017666Y003298D01*
X017666Y002983D01*
X017670Y002979D01*
X017670Y002439D01*
X018729Y002628D02*
X019123Y003022D01*
X025619Y003022D01*
X025973Y002668D01*
X025973Y002165D01*
X025903Y002156D01*
X023926Y002195D02*
X023659Y002195D01*
X023305Y002156D01*
X023305Y001889D01*
X022824Y001408D01*
X021249Y001408D01*
X020894Y001762D01*
X018729Y001762D02*
X018729Y002628D01*
X019831Y005660D02*
X010265Y005660D01*
X010186Y005581D01*
X006446Y005227D02*
X005588Y005227D01*
X005540Y005275D01*
X001957Y006605D02*
X001406Y006054D01*
X001446Y005629D01*
X021288Y007235D02*
X021485Y007235D01*
X027824Y007077D02*
X029851Y007077D01*
X030206Y006723D01*
X031505Y006723D02*
X031505Y008750D01*
D28*
X020422Y011014D02*
X020422Y011054D01*
X020304Y011172D01*
X018690Y011172D01*
X018650Y011132D01*
M02*
