%
M48
M72
T01C0.0197
T02C0.0236
T03C0.0320
T04C0.0354
T05C0.0394
T06C0.0400
T07C0.0472
T08C0.1260
%
T01
X4123Y2432
X4477Y3022
X6249Y4124
X8402Y4097
X8178Y2156
X14713Y3101
X15698Y3652
X16682Y3573
X17391Y3573
X22312Y4124
X23926Y2195
X20816Y7117
X21485Y7235
X16879Y7707
X16367Y7432
X15894Y7077
X13847Y7077
X11564Y6959
X13847Y8416
X11367Y8495
X8335Y7274
X6839Y8298
X5461Y9597
X1135Y9719
X1288Y7117
X9123Y12589
X18650Y11132
X20422Y11014
X23532Y11054
X29989Y9676
T02
X29398Y7471
X26249Y7471
X26249Y5502
X29398Y5502
T03
X24938Y4124
X23938Y4124
X20607Y4124
X19607Y4124
X12733Y4124
X11733Y4124
X8402Y4124
X7402Y4124
T04
X14690Y2164
X15690Y2184
X16690Y2184
X17690Y2184
T05
X30206Y4754
X31505Y4754
X31505Y5739
X30205Y5739
X30206Y6723
X31505Y6723
X28942Y9719
X27918Y9719
X4276Y9719
X3253Y9719
T06
X6765Y10317
X7765Y10317
X8765Y10317
X9765Y10317
X10765Y10317
X11765Y10317
X12765Y10317
X13765Y10317
X13765Y11317
X12765Y11317
X11765Y11317
X10765Y11317
X9765Y11317
X8765Y11317
X7765Y11317
X6765Y11317
T07
X3517Y1487
X4517Y1487
X5517Y1487
X26824Y1487
X27824Y1487
X28824Y1487
T08
X30540Y2353
X30540Y11802
X1800Y11802
X1800Y2353
M30
