G75*
%MOIN*%
%OFA0B0*%
%FSLAX24Y24*%
%IPPOS*%
%LPD*%
%AMOC8*
5,1,8,0,0,1.08239X$1,22.5*
%
%ADD10C,0.0030*%
%ADD11C,0.0060*%
%ADD12C,0.0040*%
%ADD13R,0.0690X0.0290*%
%ADD14C,0.0050*%
%ADD15R,0.0669X0.0295*%
%ADD16R,0.0295X0.0669*%
%ADD17R,0.0180X0.0230*%
%ADD18R,0.0290X0.0690*%
%ADD19R,0.0200X0.0200*%
D10*
X019044Y009927D02*
X019291Y009927D01*
X019167Y009927D02*
X019167Y010297D01*
X019291Y010174D01*
X019412Y010297D02*
X019412Y009989D01*
X019474Y009927D01*
X019597Y009927D01*
X019659Y009989D01*
X019659Y010297D01*
X028753Y008303D02*
X028753Y008180D01*
X028815Y008118D01*
X029000Y008118D01*
X029000Y007995D02*
X029000Y008365D01*
X028815Y008365D01*
X028753Y008303D01*
X028876Y008118D02*
X028753Y007995D01*
X029121Y007995D02*
X029368Y007995D01*
X029368Y008365D01*
X029121Y008365D01*
X029245Y008180D02*
X029368Y008180D01*
X029490Y008118D02*
X029490Y008056D01*
X029551Y007995D01*
X029675Y007995D01*
X029736Y008056D01*
X029858Y007995D02*
X029858Y008241D01*
X029981Y008365D01*
X030105Y008241D01*
X030105Y007995D01*
X030226Y007995D02*
X030473Y007995D01*
X030473Y008365D01*
X030595Y008365D02*
X030841Y007995D01*
X030963Y008056D02*
X031025Y007995D01*
X031210Y007995D01*
X031210Y008365D01*
X031025Y008365D01*
X030963Y008303D01*
X030963Y008056D01*
X031331Y007995D02*
X031578Y007995D01*
X031578Y008365D01*
X031331Y008365D01*
X031455Y008180D02*
X031578Y008180D01*
X031946Y008365D02*
X031946Y007995D01*
X031699Y007995D01*
X030105Y008180D02*
X029858Y008180D01*
X029736Y008241D02*
X029736Y008303D01*
X029675Y008365D01*
X029551Y008365D01*
X029490Y008303D01*
X029551Y008180D02*
X029490Y008118D01*
X029551Y008180D02*
X029675Y008180D01*
X029736Y008241D01*
X029521Y004822D02*
X029398Y004822D01*
X029336Y004760D01*
X029215Y004822D02*
X028968Y004822D01*
X028846Y004822D02*
X028661Y004822D01*
X028599Y004760D01*
X028599Y004636D01*
X028661Y004575D01*
X028846Y004575D01*
X028723Y004575D02*
X028599Y004451D01*
X028478Y004575D02*
X028354Y004451D01*
X028231Y004575D01*
X028231Y004822D01*
X028110Y004760D02*
X028110Y004513D01*
X028048Y004451D01*
X027924Y004451D01*
X027863Y004513D01*
X027863Y004760D01*
X027924Y004822D01*
X028048Y004822D01*
X028110Y004760D01*
X027741Y004760D02*
X027680Y004822D01*
X027556Y004822D01*
X027494Y004760D01*
X027556Y004636D02*
X027494Y004575D01*
X027494Y004513D01*
X027556Y004451D01*
X027680Y004451D01*
X027741Y004513D01*
X027680Y004636D02*
X027556Y004636D01*
X027680Y004636D02*
X027741Y004698D01*
X027741Y004760D01*
X028478Y004822D02*
X028478Y004575D01*
X028846Y004451D02*
X028846Y004822D01*
X029091Y004636D02*
X029215Y004636D01*
X029336Y004575D02*
X029398Y004636D01*
X029521Y004636D01*
X029583Y004698D01*
X029583Y004760D01*
X029521Y004822D01*
X029215Y004822D02*
X029215Y004451D01*
X028968Y004451D01*
X029336Y004513D02*
X029398Y004451D01*
X029521Y004451D01*
X029583Y004513D01*
X029336Y004513D02*
X029336Y004575D01*
D11*
X003267Y000987D02*
X003017Y001237D01*
X003017Y001737D01*
X003267Y001987D01*
X003767Y001987D01*
X004017Y001737D01*
X004267Y001987D01*
X004767Y001987D01*
X005017Y001737D01*
X005267Y001987D01*
X005767Y001987D01*
X006017Y001737D01*
X006017Y001237D01*
X005767Y000987D01*
X005267Y000987D01*
X005017Y001237D01*
X005017Y001737D01*
X005017Y001237D02*
X004767Y000987D01*
X004267Y000987D01*
X004017Y001237D01*
X004017Y001737D01*
X004017Y001237D02*
X003767Y000987D01*
X003267Y000987D01*
X009508Y006620D02*
X010628Y006620D01*
X010628Y007140D01*
X009508Y007140D01*
X009508Y006620D01*
X012067Y006620D02*
X013187Y006620D01*
X013187Y007140D01*
X012067Y007140D01*
X012067Y006620D01*
X014669Y007490D02*
X014669Y008245D01*
X015309Y008245D02*
X015309Y007490D01*
X013007Y008135D02*
X012252Y008135D01*
X012252Y008775D02*
X013007Y008775D01*
X010448Y008775D02*
X009693Y008775D01*
X009693Y008135D02*
X010448Y008135D01*
X003758Y008303D02*
X003758Y007548D01*
X003118Y007548D02*
X003118Y008303D01*
X004354Y011427D02*
X004354Y012182D01*
X004994Y012182D02*
X004994Y011427D01*
X027098Y011103D02*
X027098Y011858D01*
X027738Y011858D02*
X027738Y011103D01*
X027574Y001987D02*
X027324Y001737D01*
X027074Y001987D01*
X026574Y001987D01*
X026324Y001737D01*
X026324Y001237D01*
X026574Y000987D01*
X027074Y000987D01*
X027324Y001237D01*
X027574Y000987D01*
X028074Y000987D01*
X028324Y001237D01*
X028574Y000987D01*
X029074Y000987D01*
X029324Y001237D01*
X029324Y001737D01*
X029074Y001987D01*
X028574Y001987D01*
X028324Y001737D01*
X028074Y001987D01*
X027574Y001987D01*
X027324Y001737D02*
X027324Y001237D01*
X028324Y001237D02*
X028324Y001737D01*
D12*
X030702Y005298D02*
X030625Y005375D01*
X030625Y005528D01*
X030702Y005605D01*
X030779Y005605D01*
X030855Y005528D01*
X030855Y005375D01*
X030932Y005298D01*
X031009Y005298D01*
X031086Y005375D01*
X031086Y005528D01*
X031009Y005605D01*
X030932Y005759D02*
X031086Y005912D01*
X030625Y005912D01*
X030625Y005759D02*
X030625Y006066D01*
X022415Y009824D02*
X022339Y009747D01*
X022032Y009747D01*
X021955Y009824D01*
X021955Y009977D01*
X022032Y010054D01*
X022339Y010054D02*
X022415Y009977D01*
X022415Y009824D01*
X021795Y009847D02*
X021795Y010607D01*
X021955Y010514D02*
X021955Y010207D01*
X022262Y010514D01*
X022339Y010514D01*
X022415Y010437D01*
X022415Y010284D01*
X022339Y010207D01*
X021175Y009847D02*
X021175Y010607D01*
X019700Y011689D02*
X018940Y011689D01*
X018940Y012308D02*
X019700Y012308D01*
X019723Y012468D02*
X019569Y012468D01*
X019493Y012545D01*
X019339Y012545D02*
X019263Y012468D01*
X019109Y012468D01*
X019032Y012545D01*
X019032Y012622D01*
X019109Y012699D01*
X019186Y012699D01*
X019109Y012699D02*
X019032Y012775D01*
X019032Y012852D01*
X019109Y012929D01*
X019263Y012929D01*
X019339Y012852D01*
X019493Y012852D02*
X019569Y012929D01*
X019723Y012929D01*
X019800Y012852D01*
X019800Y012545D01*
X019723Y012468D01*
X017464Y010607D02*
X017464Y009847D01*
X016844Y009847D02*
X016844Y010607D01*
X016685Y010440D02*
X016224Y010440D01*
X016224Y010593D02*
X016224Y010286D01*
X016301Y010133D02*
X016224Y010056D01*
X016224Y009903D01*
X016301Y009826D01*
X016608Y009826D01*
X016685Y009903D01*
X016685Y010056D01*
X016608Y010133D01*
X016531Y010286D02*
X016685Y010440D01*
X013157Y009386D02*
X013157Y008925D01*
X013157Y009079D02*
X012927Y009079D01*
X012850Y009155D01*
X012850Y009309D01*
X012927Y009386D01*
X013157Y009386D01*
X012696Y009232D02*
X012543Y009386D01*
X012543Y008925D01*
X012696Y008925D02*
X012389Y008925D01*
X012236Y009002D02*
X012159Y008925D01*
X012006Y008925D01*
X011929Y009002D01*
X011929Y009079D01*
X012006Y009155D01*
X012083Y009155D01*
X012006Y009155D02*
X011929Y009232D01*
X011929Y009309D01*
X012006Y009386D01*
X012159Y009386D01*
X012236Y009309D01*
X012850Y008925D02*
X013003Y009079D01*
X014059Y008204D02*
X014519Y008204D01*
X014289Y007974D01*
X014289Y008281D01*
X014059Y007821D02*
X014059Y007514D01*
X014059Y007667D02*
X014519Y007667D01*
X014366Y007514D01*
X014443Y007360D02*
X014289Y007360D01*
X014212Y007284D01*
X014212Y007053D01*
X014059Y007053D02*
X014519Y007053D01*
X014519Y007284D01*
X014443Y007360D01*
X014212Y007207D02*
X014059Y007360D01*
X012988Y006006D02*
X012835Y006006D01*
X012758Y005930D01*
X012758Y005623D01*
X012835Y005546D01*
X012988Y005546D01*
X013065Y005623D01*
X013065Y005930D01*
X012988Y006006D01*
X012605Y005930D02*
X012528Y006006D01*
X012375Y006006D01*
X012298Y005930D01*
X012298Y005853D01*
X012605Y005546D01*
X012298Y005546D01*
X012758Y005546D02*
X012912Y005699D01*
X010506Y005623D02*
X010429Y005546D01*
X010276Y005546D01*
X010199Y005623D01*
X010199Y005930D01*
X010276Y006006D01*
X010429Y006006D01*
X010506Y005930D01*
X010506Y005623D01*
X010353Y005699D02*
X010199Y005546D01*
X010046Y005546D02*
X009739Y005546D01*
X009892Y005546D02*
X009892Y006006D01*
X010046Y005853D01*
X004368Y007398D02*
X004368Y007628D01*
X004291Y007705D01*
X004138Y007705D01*
X004061Y007628D01*
X004061Y007398D01*
X004061Y007551D02*
X003908Y007705D01*
X003908Y007858D02*
X003908Y008165D01*
X003908Y008318D02*
X003908Y008625D01*
X003908Y008472D02*
X004368Y008472D01*
X004215Y008318D01*
X004368Y008011D02*
X003908Y008011D01*
X004215Y007858D02*
X004368Y008011D01*
X004368Y007398D02*
X003908Y007398D01*
X009370Y009002D02*
X009447Y008925D01*
X009600Y008925D01*
X009677Y009002D01*
X009677Y009155D02*
X009523Y009232D01*
X009447Y009232D01*
X009370Y009155D01*
X009370Y009002D01*
X009677Y009155D02*
X009677Y009386D01*
X009370Y009386D01*
X009984Y009386D02*
X009984Y008925D01*
X010137Y008925D02*
X009830Y008925D01*
X010291Y008925D02*
X010444Y009079D01*
X010368Y009079D02*
X010598Y009079D01*
X010598Y008925D02*
X010598Y009386D01*
X010368Y009386D01*
X010291Y009309D01*
X010291Y009155D01*
X010368Y009079D01*
X010137Y009232D02*
X009984Y009386D01*
X004204Y011451D02*
X004204Y011681D01*
X004128Y011758D01*
X003974Y011758D01*
X003897Y011681D01*
X003897Y011451D01*
X003744Y011451D02*
X004204Y011451D01*
X003897Y011604D02*
X003744Y011758D01*
X003821Y011911D02*
X003897Y011911D01*
X003974Y011988D01*
X003974Y012141D01*
X003897Y012218D01*
X003821Y012218D01*
X003744Y012141D01*
X003744Y011988D01*
X003821Y011911D01*
X003974Y011988D02*
X004051Y011911D01*
X004128Y011911D01*
X004204Y011988D01*
X004204Y012141D01*
X004128Y012218D01*
X004051Y012218D01*
X003974Y012141D01*
X018782Y008371D02*
X019542Y008371D01*
X019542Y007752D02*
X018782Y007752D01*
X018872Y007592D02*
X019103Y007362D01*
X018796Y007362D01*
X018872Y007592D02*
X018872Y007131D01*
X019256Y007208D02*
X019333Y007131D01*
X019486Y007131D01*
X019563Y007208D01*
X019563Y007515D01*
X019486Y007592D01*
X019333Y007592D01*
X019256Y007515D01*
X027888Y010953D02*
X028349Y010953D01*
X028349Y011183D01*
X028272Y011260D01*
X028118Y011260D01*
X028042Y011183D01*
X028042Y010953D01*
X028042Y011106D02*
X027888Y011260D01*
X027888Y011413D02*
X027888Y011720D01*
X027888Y011567D02*
X028349Y011567D01*
X028195Y011413D01*
X028272Y011874D02*
X028349Y011950D01*
X028349Y012104D01*
X028272Y012180D01*
X028195Y012180D01*
X027888Y011874D01*
X027888Y012180D01*
D13*
X027418Y012003D03*
X027418Y010963D03*
X014989Y008385D03*
X014989Y007345D03*
X004674Y011282D03*
X004674Y012322D03*
X003438Y008448D03*
X003438Y007408D03*
D14*
X018729Y009636D02*
X018729Y010817D01*
X019910Y010817D01*
X019910Y009636D01*
X018729Y009636D01*
X019485Y010443D02*
X019487Y010459D01*
X019493Y010475D01*
X019502Y010489D01*
X019514Y010500D01*
X019528Y010508D01*
X019544Y010513D01*
X019560Y010514D01*
X019576Y010511D01*
X019591Y010504D01*
X019605Y010495D01*
X019615Y010482D01*
X019623Y010467D01*
X019627Y010451D01*
X019627Y010435D01*
X019623Y010419D01*
X019615Y010404D01*
X019605Y010391D01*
X019592Y010382D01*
X019576Y010375D01*
X019560Y010372D01*
X019544Y010373D01*
X019528Y010378D01*
X019514Y010386D01*
X019502Y010397D01*
X019493Y010411D01*
X019487Y010427D01*
X019485Y010443D01*
X030146Y007510D02*
X030146Y007139D01*
X030146Y004339D01*
X030146Y003967D01*
X031564Y003967D01*
X031564Y004339D01*
X031564Y007139D01*
X031564Y007510D01*
X030146Y007510D01*
X030555Y005749D02*
X030555Y005139D01*
D15*
X021485Y009704D03*
X021485Y010749D03*
X017155Y010749D03*
X017154Y009704D03*
D16*
X018640Y008062D03*
X019685Y008061D03*
X019842Y011998D03*
X018797Y011999D03*
D17*
X012997Y007275D03*
X012257Y007275D03*
X010438Y007275D03*
X009698Y007275D03*
X010068Y006485D03*
X012627Y006485D03*
D18*
X013147Y008455D03*
X012107Y008455D03*
X010588Y008455D03*
X009548Y008455D03*
D19*
X005517Y001487D03*
X004517Y001487D03*
X003517Y001487D03*
X026824Y001487D03*
X027824Y001487D03*
X028824Y001487D03*
M02*
